G04 #@! TF.GenerationSoftware,KiCad,Pcbnew,(5.1.0)-1*
G04 #@! TF.CreationDate,2020-01-07T21:36:01+05:30*
G04 #@! TF.ProjectId,BLDC_STM32_proto_1,424c4443-5f53-4544-9d33-325f70726f74,rev?*
G04 #@! TF.SameCoordinates,Original*
G04 #@! TF.FileFunction,Paste,Bot*
G04 #@! TF.FilePolarity,Positive*
%FSLAX46Y46*%
G04 Gerber Fmt 4.6, Leading zero omitted, Abs format (unit mm)*
G04 Created by KiCad (PCBNEW (5.1.0)-1) date 2020-01-07 21:36:01*
%MOMM*%
%LPD*%
G04 APERTURE LIST*
%ADD10C,0.100000*%
%ADD11C,0.975000*%
%ADD12R,1.550000X0.600000*%
%ADD13C,1.425000*%
G04 APERTURE END LIST*
D10*
G36*
X79860142Y-145651174D02*
G01*
X79883803Y-145654684D01*
X79907007Y-145660496D01*
X79929529Y-145668554D01*
X79951153Y-145678782D01*
X79971670Y-145691079D01*
X79990883Y-145705329D01*
X80008607Y-145721393D01*
X80024671Y-145739117D01*
X80038921Y-145758330D01*
X80051218Y-145778847D01*
X80061446Y-145800471D01*
X80069504Y-145822993D01*
X80075316Y-145846197D01*
X80078826Y-145869858D01*
X80080000Y-145893750D01*
X80080000Y-146381250D01*
X80078826Y-146405142D01*
X80075316Y-146428803D01*
X80069504Y-146452007D01*
X80061446Y-146474529D01*
X80051218Y-146496153D01*
X80038921Y-146516670D01*
X80024671Y-146535883D01*
X80008607Y-146553607D01*
X79990883Y-146569671D01*
X79971670Y-146583921D01*
X79951153Y-146596218D01*
X79929529Y-146606446D01*
X79907007Y-146614504D01*
X79883803Y-146620316D01*
X79860142Y-146623826D01*
X79836250Y-146625000D01*
X78923750Y-146625000D01*
X78899858Y-146623826D01*
X78876197Y-146620316D01*
X78852993Y-146614504D01*
X78830471Y-146606446D01*
X78808847Y-146596218D01*
X78788330Y-146583921D01*
X78769117Y-146569671D01*
X78751393Y-146553607D01*
X78735329Y-146535883D01*
X78721079Y-146516670D01*
X78708782Y-146496153D01*
X78698554Y-146474529D01*
X78690496Y-146452007D01*
X78684684Y-146428803D01*
X78681174Y-146405142D01*
X78680000Y-146381250D01*
X78680000Y-145893750D01*
X78681174Y-145869858D01*
X78684684Y-145846197D01*
X78690496Y-145822993D01*
X78698554Y-145800471D01*
X78708782Y-145778847D01*
X78721079Y-145758330D01*
X78735329Y-145739117D01*
X78751393Y-145721393D01*
X78769117Y-145705329D01*
X78788330Y-145691079D01*
X78808847Y-145678782D01*
X78830471Y-145668554D01*
X78852993Y-145660496D01*
X78876197Y-145654684D01*
X78899858Y-145651174D01*
X78923750Y-145650000D01*
X79836250Y-145650000D01*
X79860142Y-145651174D01*
X79860142Y-145651174D01*
G37*
D11*
X79380000Y-146137500D03*
D10*
G36*
X79860142Y-143776174D02*
G01*
X79883803Y-143779684D01*
X79907007Y-143785496D01*
X79929529Y-143793554D01*
X79951153Y-143803782D01*
X79971670Y-143816079D01*
X79990883Y-143830329D01*
X80008607Y-143846393D01*
X80024671Y-143864117D01*
X80038921Y-143883330D01*
X80051218Y-143903847D01*
X80061446Y-143925471D01*
X80069504Y-143947993D01*
X80075316Y-143971197D01*
X80078826Y-143994858D01*
X80080000Y-144018750D01*
X80080000Y-144506250D01*
X80078826Y-144530142D01*
X80075316Y-144553803D01*
X80069504Y-144577007D01*
X80061446Y-144599529D01*
X80051218Y-144621153D01*
X80038921Y-144641670D01*
X80024671Y-144660883D01*
X80008607Y-144678607D01*
X79990883Y-144694671D01*
X79971670Y-144708921D01*
X79951153Y-144721218D01*
X79929529Y-144731446D01*
X79907007Y-144739504D01*
X79883803Y-144745316D01*
X79860142Y-144748826D01*
X79836250Y-144750000D01*
X78923750Y-144750000D01*
X78899858Y-144748826D01*
X78876197Y-144745316D01*
X78852993Y-144739504D01*
X78830471Y-144731446D01*
X78808847Y-144721218D01*
X78788330Y-144708921D01*
X78769117Y-144694671D01*
X78751393Y-144678607D01*
X78735329Y-144660883D01*
X78721079Y-144641670D01*
X78708782Y-144621153D01*
X78698554Y-144599529D01*
X78690496Y-144577007D01*
X78684684Y-144553803D01*
X78681174Y-144530142D01*
X78680000Y-144506250D01*
X78680000Y-144018750D01*
X78681174Y-143994858D01*
X78684684Y-143971197D01*
X78690496Y-143947993D01*
X78698554Y-143925471D01*
X78708782Y-143903847D01*
X78721079Y-143883330D01*
X78735329Y-143864117D01*
X78751393Y-143846393D01*
X78769117Y-143830329D01*
X78788330Y-143816079D01*
X78808847Y-143803782D01*
X78830471Y-143793554D01*
X78852993Y-143785496D01*
X78876197Y-143779684D01*
X78899858Y-143776174D01*
X78923750Y-143775000D01*
X79836250Y-143775000D01*
X79860142Y-143776174D01*
X79860142Y-143776174D01*
G37*
D11*
X79380000Y-144262500D03*
D10*
G36*
X83572642Y-143761174D02*
G01*
X83596303Y-143764684D01*
X83619507Y-143770496D01*
X83642029Y-143778554D01*
X83663653Y-143788782D01*
X83684170Y-143801079D01*
X83703383Y-143815329D01*
X83721107Y-143831393D01*
X83737171Y-143849117D01*
X83751421Y-143868330D01*
X83763718Y-143888847D01*
X83773946Y-143910471D01*
X83782004Y-143932993D01*
X83787816Y-143956197D01*
X83791326Y-143979858D01*
X83792500Y-144003750D01*
X83792500Y-144916250D01*
X83791326Y-144940142D01*
X83787816Y-144963803D01*
X83782004Y-144987007D01*
X83773946Y-145009529D01*
X83763718Y-145031153D01*
X83751421Y-145051670D01*
X83737171Y-145070883D01*
X83721107Y-145088607D01*
X83703383Y-145104671D01*
X83684170Y-145118921D01*
X83663653Y-145131218D01*
X83642029Y-145141446D01*
X83619507Y-145149504D01*
X83596303Y-145155316D01*
X83572642Y-145158826D01*
X83548750Y-145160000D01*
X83061250Y-145160000D01*
X83037358Y-145158826D01*
X83013697Y-145155316D01*
X82990493Y-145149504D01*
X82967971Y-145141446D01*
X82946347Y-145131218D01*
X82925830Y-145118921D01*
X82906617Y-145104671D01*
X82888893Y-145088607D01*
X82872829Y-145070883D01*
X82858579Y-145051670D01*
X82846282Y-145031153D01*
X82836054Y-145009529D01*
X82827996Y-144987007D01*
X82822184Y-144963803D01*
X82818674Y-144940142D01*
X82817500Y-144916250D01*
X82817500Y-144003750D01*
X82818674Y-143979858D01*
X82822184Y-143956197D01*
X82827996Y-143932993D01*
X82836054Y-143910471D01*
X82846282Y-143888847D01*
X82858579Y-143868330D01*
X82872829Y-143849117D01*
X82888893Y-143831393D01*
X82906617Y-143815329D01*
X82925830Y-143801079D01*
X82946347Y-143788782D01*
X82967971Y-143778554D01*
X82990493Y-143770496D01*
X83013697Y-143764684D01*
X83037358Y-143761174D01*
X83061250Y-143760000D01*
X83548750Y-143760000D01*
X83572642Y-143761174D01*
X83572642Y-143761174D01*
G37*
D11*
X83305000Y-144460000D03*
D10*
G36*
X81697642Y-143761174D02*
G01*
X81721303Y-143764684D01*
X81744507Y-143770496D01*
X81767029Y-143778554D01*
X81788653Y-143788782D01*
X81809170Y-143801079D01*
X81828383Y-143815329D01*
X81846107Y-143831393D01*
X81862171Y-143849117D01*
X81876421Y-143868330D01*
X81888718Y-143888847D01*
X81898946Y-143910471D01*
X81907004Y-143932993D01*
X81912816Y-143956197D01*
X81916326Y-143979858D01*
X81917500Y-144003750D01*
X81917500Y-144916250D01*
X81916326Y-144940142D01*
X81912816Y-144963803D01*
X81907004Y-144987007D01*
X81898946Y-145009529D01*
X81888718Y-145031153D01*
X81876421Y-145051670D01*
X81862171Y-145070883D01*
X81846107Y-145088607D01*
X81828383Y-145104671D01*
X81809170Y-145118921D01*
X81788653Y-145131218D01*
X81767029Y-145141446D01*
X81744507Y-145149504D01*
X81721303Y-145155316D01*
X81697642Y-145158826D01*
X81673750Y-145160000D01*
X81186250Y-145160000D01*
X81162358Y-145158826D01*
X81138697Y-145155316D01*
X81115493Y-145149504D01*
X81092971Y-145141446D01*
X81071347Y-145131218D01*
X81050830Y-145118921D01*
X81031617Y-145104671D01*
X81013893Y-145088607D01*
X80997829Y-145070883D01*
X80983579Y-145051670D01*
X80971282Y-145031153D01*
X80961054Y-145009529D01*
X80952996Y-144987007D01*
X80947184Y-144963803D01*
X80943674Y-144940142D01*
X80942500Y-144916250D01*
X80942500Y-144003750D01*
X80943674Y-143979858D01*
X80947184Y-143956197D01*
X80952996Y-143932993D01*
X80961054Y-143910471D01*
X80971282Y-143888847D01*
X80983579Y-143868330D01*
X80997829Y-143849117D01*
X81013893Y-143831393D01*
X81031617Y-143815329D01*
X81050830Y-143801079D01*
X81071347Y-143788782D01*
X81092971Y-143778554D01*
X81115493Y-143770496D01*
X81138697Y-143764684D01*
X81162358Y-143761174D01*
X81186250Y-143760000D01*
X81673750Y-143760000D01*
X81697642Y-143761174D01*
X81697642Y-143761174D01*
G37*
D11*
X81430000Y-144460000D03*
D12*
X96370000Y-148455000D03*
X96370000Y-147185000D03*
X96370000Y-145915000D03*
X96370000Y-144645000D03*
X101770000Y-144645000D03*
X101770000Y-145915000D03*
X101770000Y-147185000D03*
X101770000Y-148455000D03*
D10*
G36*
X87750142Y-145583674D02*
G01*
X87773803Y-145587184D01*
X87797007Y-145592996D01*
X87819529Y-145601054D01*
X87841153Y-145611282D01*
X87861670Y-145623579D01*
X87880883Y-145637829D01*
X87898607Y-145653893D01*
X87914671Y-145671617D01*
X87928921Y-145690830D01*
X87941218Y-145711347D01*
X87951446Y-145732971D01*
X87959504Y-145755493D01*
X87965316Y-145778697D01*
X87968826Y-145802358D01*
X87970000Y-145826250D01*
X87970000Y-146313750D01*
X87968826Y-146337642D01*
X87965316Y-146361303D01*
X87959504Y-146384507D01*
X87951446Y-146407029D01*
X87941218Y-146428653D01*
X87928921Y-146449170D01*
X87914671Y-146468383D01*
X87898607Y-146486107D01*
X87880883Y-146502171D01*
X87861670Y-146516421D01*
X87841153Y-146528718D01*
X87819529Y-146538946D01*
X87797007Y-146547004D01*
X87773803Y-146552816D01*
X87750142Y-146556326D01*
X87726250Y-146557500D01*
X86813750Y-146557500D01*
X86789858Y-146556326D01*
X86766197Y-146552816D01*
X86742993Y-146547004D01*
X86720471Y-146538946D01*
X86698847Y-146528718D01*
X86678330Y-146516421D01*
X86659117Y-146502171D01*
X86641393Y-146486107D01*
X86625329Y-146468383D01*
X86611079Y-146449170D01*
X86598782Y-146428653D01*
X86588554Y-146407029D01*
X86580496Y-146384507D01*
X86574684Y-146361303D01*
X86571174Y-146337642D01*
X86570000Y-146313750D01*
X86570000Y-145826250D01*
X86571174Y-145802358D01*
X86574684Y-145778697D01*
X86580496Y-145755493D01*
X86588554Y-145732971D01*
X86598782Y-145711347D01*
X86611079Y-145690830D01*
X86625329Y-145671617D01*
X86641393Y-145653893D01*
X86659117Y-145637829D01*
X86678330Y-145623579D01*
X86698847Y-145611282D01*
X86720471Y-145601054D01*
X86742993Y-145592996D01*
X86766197Y-145587184D01*
X86789858Y-145583674D01*
X86813750Y-145582500D01*
X87726250Y-145582500D01*
X87750142Y-145583674D01*
X87750142Y-145583674D01*
G37*
D11*
X87270000Y-146070000D03*
D10*
G36*
X87750142Y-147458674D02*
G01*
X87773803Y-147462184D01*
X87797007Y-147467996D01*
X87819529Y-147476054D01*
X87841153Y-147486282D01*
X87861670Y-147498579D01*
X87880883Y-147512829D01*
X87898607Y-147528893D01*
X87914671Y-147546617D01*
X87928921Y-147565830D01*
X87941218Y-147586347D01*
X87951446Y-147607971D01*
X87959504Y-147630493D01*
X87965316Y-147653697D01*
X87968826Y-147677358D01*
X87970000Y-147701250D01*
X87970000Y-148188750D01*
X87968826Y-148212642D01*
X87965316Y-148236303D01*
X87959504Y-148259507D01*
X87951446Y-148282029D01*
X87941218Y-148303653D01*
X87928921Y-148324170D01*
X87914671Y-148343383D01*
X87898607Y-148361107D01*
X87880883Y-148377171D01*
X87861670Y-148391421D01*
X87841153Y-148403718D01*
X87819529Y-148413946D01*
X87797007Y-148422004D01*
X87773803Y-148427816D01*
X87750142Y-148431326D01*
X87726250Y-148432500D01*
X86813750Y-148432500D01*
X86789858Y-148431326D01*
X86766197Y-148427816D01*
X86742993Y-148422004D01*
X86720471Y-148413946D01*
X86698847Y-148403718D01*
X86678330Y-148391421D01*
X86659117Y-148377171D01*
X86641393Y-148361107D01*
X86625329Y-148343383D01*
X86611079Y-148324170D01*
X86598782Y-148303653D01*
X86588554Y-148282029D01*
X86580496Y-148259507D01*
X86574684Y-148236303D01*
X86571174Y-148212642D01*
X86570000Y-148188750D01*
X86570000Y-147701250D01*
X86571174Y-147677358D01*
X86574684Y-147653697D01*
X86580496Y-147630493D01*
X86588554Y-147607971D01*
X86598782Y-147586347D01*
X86611079Y-147565830D01*
X86625329Y-147546617D01*
X86641393Y-147528893D01*
X86659117Y-147512829D01*
X86678330Y-147498579D01*
X86698847Y-147486282D01*
X86720471Y-147476054D01*
X86742993Y-147467996D01*
X86766197Y-147462184D01*
X86789858Y-147458674D01*
X86813750Y-147457500D01*
X87726250Y-147457500D01*
X87750142Y-147458674D01*
X87750142Y-147458674D01*
G37*
D11*
X87270000Y-147945000D03*
D10*
G36*
X94157004Y-145256204D02*
G01*
X94181273Y-145259804D01*
X94205071Y-145265765D01*
X94228171Y-145274030D01*
X94250349Y-145284520D01*
X94271393Y-145297133D01*
X94291098Y-145311747D01*
X94309277Y-145328223D01*
X94325753Y-145346402D01*
X94340367Y-145366107D01*
X94352980Y-145387151D01*
X94363470Y-145409329D01*
X94371735Y-145432429D01*
X94377696Y-145456227D01*
X94381296Y-145480496D01*
X94382500Y-145505000D01*
X94382500Y-146755000D01*
X94381296Y-146779504D01*
X94377696Y-146803773D01*
X94371735Y-146827571D01*
X94363470Y-146850671D01*
X94352980Y-146872849D01*
X94340367Y-146893893D01*
X94325753Y-146913598D01*
X94309277Y-146931777D01*
X94291098Y-146948253D01*
X94271393Y-146962867D01*
X94250349Y-146975480D01*
X94228171Y-146985970D01*
X94205071Y-146994235D01*
X94181273Y-147000196D01*
X94157004Y-147003796D01*
X94132500Y-147005000D01*
X93207500Y-147005000D01*
X93182996Y-147003796D01*
X93158727Y-147000196D01*
X93134929Y-146994235D01*
X93111829Y-146985970D01*
X93089651Y-146975480D01*
X93068607Y-146962867D01*
X93048902Y-146948253D01*
X93030723Y-146931777D01*
X93014247Y-146913598D01*
X92999633Y-146893893D01*
X92987020Y-146872849D01*
X92976530Y-146850671D01*
X92968265Y-146827571D01*
X92962304Y-146803773D01*
X92958704Y-146779504D01*
X92957500Y-146755000D01*
X92957500Y-145505000D01*
X92958704Y-145480496D01*
X92962304Y-145456227D01*
X92968265Y-145432429D01*
X92976530Y-145409329D01*
X92987020Y-145387151D01*
X92999633Y-145366107D01*
X93014247Y-145346402D01*
X93030723Y-145328223D01*
X93048902Y-145311747D01*
X93068607Y-145297133D01*
X93089651Y-145284520D01*
X93111829Y-145274030D01*
X93134929Y-145265765D01*
X93158727Y-145259804D01*
X93182996Y-145256204D01*
X93207500Y-145255000D01*
X94132500Y-145255000D01*
X94157004Y-145256204D01*
X94157004Y-145256204D01*
G37*
D13*
X93670000Y-146130000D03*
D10*
G36*
X91182004Y-145256204D02*
G01*
X91206273Y-145259804D01*
X91230071Y-145265765D01*
X91253171Y-145274030D01*
X91275349Y-145284520D01*
X91296393Y-145297133D01*
X91316098Y-145311747D01*
X91334277Y-145328223D01*
X91350753Y-145346402D01*
X91365367Y-145366107D01*
X91377980Y-145387151D01*
X91388470Y-145409329D01*
X91396735Y-145432429D01*
X91402696Y-145456227D01*
X91406296Y-145480496D01*
X91407500Y-145505000D01*
X91407500Y-146755000D01*
X91406296Y-146779504D01*
X91402696Y-146803773D01*
X91396735Y-146827571D01*
X91388470Y-146850671D01*
X91377980Y-146872849D01*
X91365367Y-146893893D01*
X91350753Y-146913598D01*
X91334277Y-146931777D01*
X91316098Y-146948253D01*
X91296393Y-146962867D01*
X91275349Y-146975480D01*
X91253171Y-146985970D01*
X91230071Y-146994235D01*
X91206273Y-147000196D01*
X91182004Y-147003796D01*
X91157500Y-147005000D01*
X90232500Y-147005000D01*
X90207996Y-147003796D01*
X90183727Y-147000196D01*
X90159929Y-146994235D01*
X90136829Y-146985970D01*
X90114651Y-146975480D01*
X90093607Y-146962867D01*
X90073902Y-146948253D01*
X90055723Y-146931777D01*
X90039247Y-146913598D01*
X90024633Y-146893893D01*
X90012020Y-146872849D01*
X90001530Y-146850671D01*
X89993265Y-146827571D01*
X89987304Y-146803773D01*
X89983704Y-146779504D01*
X89982500Y-146755000D01*
X89982500Y-145505000D01*
X89983704Y-145480496D01*
X89987304Y-145456227D01*
X89993265Y-145432429D01*
X90001530Y-145409329D01*
X90012020Y-145387151D01*
X90024633Y-145366107D01*
X90039247Y-145346402D01*
X90055723Y-145328223D01*
X90073902Y-145311747D01*
X90093607Y-145297133D01*
X90114651Y-145284520D01*
X90136829Y-145274030D01*
X90159929Y-145265765D01*
X90183727Y-145259804D01*
X90207996Y-145256204D01*
X90232500Y-145255000D01*
X91157500Y-145255000D01*
X91182004Y-145256204D01*
X91182004Y-145256204D01*
G37*
D13*
X90695000Y-146130000D03*
D10*
G36*
X91209504Y-142806204D02*
G01*
X91233773Y-142809804D01*
X91257571Y-142815765D01*
X91280671Y-142824030D01*
X91302849Y-142834520D01*
X91323893Y-142847133D01*
X91343598Y-142861747D01*
X91361777Y-142878223D01*
X91378253Y-142896402D01*
X91392867Y-142916107D01*
X91405480Y-142937151D01*
X91415970Y-142959329D01*
X91424235Y-142982429D01*
X91430196Y-143006227D01*
X91433796Y-143030496D01*
X91435000Y-143055000D01*
X91435000Y-144305000D01*
X91433796Y-144329504D01*
X91430196Y-144353773D01*
X91424235Y-144377571D01*
X91415970Y-144400671D01*
X91405480Y-144422849D01*
X91392867Y-144443893D01*
X91378253Y-144463598D01*
X91361777Y-144481777D01*
X91343598Y-144498253D01*
X91323893Y-144512867D01*
X91302849Y-144525480D01*
X91280671Y-144535970D01*
X91257571Y-144544235D01*
X91233773Y-144550196D01*
X91209504Y-144553796D01*
X91185000Y-144555000D01*
X90260000Y-144555000D01*
X90235496Y-144553796D01*
X90211227Y-144550196D01*
X90187429Y-144544235D01*
X90164329Y-144535970D01*
X90142151Y-144525480D01*
X90121107Y-144512867D01*
X90101402Y-144498253D01*
X90083223Y-144481777D01*
X90066747Y-144463598D01*
X90052133Y-144443893D01*
X90039520Y-144422849D01*
X90029030Y-144400671D01*
X90020765Y-144377571D01*
X90014804Y-144353773D01*
X90011204Y-144329504D01*
X90010000Y-144305000D01*
X90010000Y-143055000D01*
X90011204Y-143030496D01*
X90014804Y-143006227D01*
X90020765Y-142982429D01*
X90029030Y-142959329D01*
X90039520Y-142937151D01*
X90052133Y-142916107D01*
X90066747Y-142896402D01*
X90083223Y-142878223D01*
X90101402Y-142861747D01*
X90121107Y-142847133D01*
X90142151Y-142834520D01*
X90164329Y-142824030D01*
X90187429Y-142815765D01*
X90211227Y-142809804D01*
X90235496Y-142806204D01*
X90260000Y-142805000D01*
X91185000Y-142805000D01*
X91209504Y-142806204D01*
X91209504Y-142806204D01*
G37*
D13*
X90722500Y-143680000D03*
D10*
G36*
X94184504Y-142806204D02*
G01*
X94208773Y-142809804D01*
X94232571Y-142815765D01*
X94255671Y-142824030D01*
X94277849Y-142834520D01*
X94298893Y-142847133D01*
X94318598Y-142861747D01*
X94336777Y-142878223D01*
X94353253Y-142896402D01*
X94367867Y-142916107D01*
X94380480Y-142937151D01*
X94390970Y-142959329D01*
X94399235Y-142982429D01*
X94405196Y-143006227D01*
X94408796Y-143030496D01*
X94410000Y-143055000D01*
X94410000Y-144305000D01*
X94408796Y-144329504D01*
X94405196Y-144353773D01*
X94399235Y-144377571D01*
X94390970Y-144400671D01*
X94380480Y-144422849D01*
X94367867Y-144443893D01*
X94353253Y-144463598D01*
X94336777Y-144481777D01*
X94318598Y-144498253D01*
X94298893Y-144512867D01*
X94277849Y-144525480D01*
X94255671Y-144535970D01*
X94232571Y-144544235D01*
X94208773Y-144550196D01*
X94184504Y-144553796D01*
X94160000Y-144555000D01*
X93235000Y-144555000D01*
X93210496Y-144553796D01*
X93186227Y-144550196D01*
X93162429Y-144544235D01*
X93139329Y-144535970D01*
X93117151Y-144525480D01*
X93096107Y-144512867D01*
X93076402Y-144498253D01*
X93058223Y-144481777D01*
X93041747Y-144463598D01*
X93027133Y-144443893D01*
X93014520Y-144422849D01*
X93004030Y-144400671D01*
X92995765Y-144377571D01*
X92989804Y-144353773D01*
X92986204Y-144329504D01*
X92985000Y-144305000D01*
X92985000Y-143055000D01*
X92986204Y-143030496D01*
X92989804Y-143006227D01*
X92995765Y-142982429D01*
X93004030Y-142959329D01*
X93014520Y-142937151D01*
X93027133Y-142916107D01*
X93041747Y-142896402D01*
X93058223Y-142878223D01*
X93076402Y-142861747D01*
X93096107Y-142847133D01*
X93117151Y-142834520D01*
X93139329Y-142824030D01*
X93162429Y-142815765D01*
X93186227Y-142809804D01*
X93210496Y-142806204D01*
X93235000Y-142805000D01*
X94160000Y-142805000D01*
X94184504Y-142806204D01*
X94184504Y-142806204D01*
G37*
D13*
X93697500Y-143680000D03*
D10*
G36*
X88782642Y-142961174D02*
G01*
X88806303Y-142964684D01*
X88829507Y-142970496D01*
X88852029Y-142978554D01*
X88873653Y-142988782D01*
X88894170Y-143001079D01*
X88913383Y-143015329D01*
X88931107Y-143031393D01*
X88947171Y-143049117D01*
X88961421Y-143068330D01*
X88973718Y-143088847D01*
X88983946Y-143110471D01*
X88992004Y-143132993D01*
X88997816Y-143156197D01*
X89001326Y-143179858D01*
X89002500Y-143203750D01*
X89002500Y-144116250D01*
X89001326Y-144140142D01*
X88997816Y-144163803D01*
X88992004Y-144187007D01*
X88983946Y-144209529D01*
X88973718Y-144231153D01*
X88961421Y-144251670D01*
X88947171Y-144270883D01*
X88931107Y-144288607D01*
X88913383Y-144304671D01*
X88894170Y-144318921D01*
X88873653Y-144331218D01*
X88852029Y-144341446D01*
X88829507Y-144349504D01*
X88806303Y-144355316D01*
X88782642Y-144358826D01*
X88758750Y-144360000D01*
X88271250Y-144360000D01*
X88247358Y-144358826D01*
X88223697Y-144355316D01*
X88200493Y-144349504D01*
X88177971Y-144341446D01*
X88156347Y-144331218D01*
X88135830Y-144318921D01*
X88116617Y-144304671D01*
X88098893Y-144288607D01*
X88082829Y-144270883D01*
X88068579Y-144251670D01*
X88056282Y-144231153D01*
X88046054Y-144209529D01*
X88037996Y-144187007D01*
X88032184Y-144163803D01*
X88028674Y-144140142D01*
X88027500Y-144116250D01*
X88027500Y-143203750D01*
X88028674Y-143179858D01*
X88032184Y-143156197D01*
X88037996Y-143132993D01*
X88046054Y-143110471D01*
X88056282Y-143088847D01*
X88068579Y-143068330D01*
X88082829Y-143049117D01*
X88098893Y-143031393D01*
X88116617Y-143015329D01*
X88135830Y-143001079D01*
X88156347Y-142988782D01*
X88177971Y-142978554D01*
X88200493Y-142970496D01*
X88223697Y-142964684D01*
X88247358Y-142961174D01*
X88271250Y-142960000D01*
X88758750Y-142960000D01*
X88782642Y-142961174D01*
X88782642Y-142961174D01*
G37*
D11*
X88515000Y-143660000D03*
D10*
G36*
X86907642Y-142961174D02*
G01*
X86931303Y-142964684D01*
X86954507Y-142970496D01*
X86977029Y-142978554D01*
X86998653Y-142988782D01*
X87019170Y-143001079D01*
X87038383Y-143015329D01*
X87056107Y-143031393D01*
X87072171Y-143049117D01*
X87086421Y-143068330D01*
X87098718Y-143088847D01*
X87108946Y-143110471D01*
X87117004Y-143132993D01*
X87122816Y-143156197D01*
X87126326Y-143179858D01*
X87127500Y-143203750D01*
X87127500Y-144116250D01*
X87126326Y-144140142D01*
X87122816Y-144163803D01*
X87117004Y-144187007D01*
X87108946Y-144209529D01*
X87098718Y-144231153D01*
X87086421Y-144251670D01*
X87072171Y-144270883D01*
X87056107Y-144288607D01*
X87038383Y-144304671D01*
X87019170Y-144318921D01*
X86998653Y-144331218D01*
X86977029Y-144341446D01*
X86954507Y-144349504D01*
X86931303Y-144355316D01*
X86907642Y-144358826D01*
X86883750Y-144360000D01*
X86396250Y-144360000D01*
X86372358Y-144358826D01*
X86348697Y-144355316D01*
X86325493Y-144349504D01*
X86302971Y-144341446D01*
X86281347Y-144331218D01*
X86260830Y-144318921D01*
X86241617Y-144304671D01*
X86223893Y-144288607D01*
X86207829Y-144270883D01*
X86193579Y-144251670D01*
X86181282Y-144231153D01*
X86171054Y-144209529D01*
X86162996Y-144187007D01*
X86157184Y-144163803D01*
X86153674Y-144140142D01*
X86152500Y-144116250D01*
X86152500Y-143203750D01*
X86153674Y-143179858D01*
X86157184Y-143156197D01*
X86162996Y-143132993D01*
X86171054Y-143110471D01*
X86181282Y-143088847D01*
X86193579Y-143068330D01*
X86207829Y-143049117D01*
X86223893Y-143031393D01*
X86241617Y-143015329D01*
X86260830Y-143001079D01*
X86281347Y-142988782D01*
X86302971Y-142978554D01*
X86325493Y-142970496D01*
X86348697Y-142964684D01*
X86372358Y-142961174D01*
X86396250Y-142960000D01*
X86883750Y-142960000D01*
X86907642Y-142961174D01*
X86907642Y-142961174D01*
G37*
D11*
X86640000Y-143660000D03*
D10*
G36*
X83522642Y-146751174D02*
G01*
X83546303Y-146754684D01*
X83569507Y-146760496D01*
X83592029Y-146768554D01*
X83613653Y-146778782D01*
X83634170Y-146791079D01*
X83653383Y-146805329D01*
X83671107Y-146821393D01*
X83687171Y-146839117D01*
X83701421Y-146858330D01*
X83713718Y-146878847D01*
X83723946Y-146900471D01*
X83732004Y-146922993D01*
X83737816Y-146946197D01*
X83741326Y-146969858D01*
X83742500Y-146993750D01*
X83742500Y-147906250D01*
X83741326Y-147930142D01*
X83737816Y-147953803D01*
X83732004Y-147977007D01*
X83723946Y-147999529D01*
X83713718Y-148021153D01*
X83701421Y-148041670D01*
X83687171Y-148060883D01*
X83671107Y-148078607D01*
X83653383Y-148094671D01*
X83634170Y-148108921D01*
X83613653Y-148121218D01*
X83592029Y-148131446D01*
X83569507Y-148139504D01*
X83546303Y-148145316D01*
X83522642Y-148148826D01*
X83498750Y-148150000D01*
X83011250Y-148150000D01*
X82987358Y-148148826D01*
X82963697Y-148145316D01*
X82940493Y-148139504D01*
X82917971Y-148131446D01*
X82896347Y-148121218D01*
X82875830Y-148108921D01*
X82856617Y-148094671D01*
X82838893Y-148078607D01*
X82822829Y-148060883D01*
X82808579Y-148041670D01*
X82796282Y-148021153D01*
X82786054Y-147999529D01*
X82777996Y-147977007D01*
X82772184Y-147953803D01*
X82768674Y-147930142D01*
X82767500Y-147906250D01*
X82767500Y-146993750D01*
X82768674Y-146969858D01*
X82772184Y-146946197D01*
X82777996Y-146922993D01*
X82786054Y-146900471D01*
X82796282Y-146878847D01*
X82808579Y-146858330D01*
X82822829Y-146839117D01*
X82838893Y-146821393D01*
X82856617Y-146805329D01*
X82875830Y-146791079D01*
X82896347Y-146778782D01*
X82917971Y-146768554D01*
X82940493Y-146760496D01*
X82963697Y-146754684D01*
X82987358Y-146751174D01*
X83011250Y-146750000D01*
X83498750Y-146750000D01*
X83522642Y-146751174D01*
X83522642Y-146751174D01*
G37*
D11*
X83255000Y-147450000D03*
D10*
G36*
X81647642Y-146751174D02*
G01*
X81671303Y-146754684D01*
X81694507Y-146760496D01*
X81717029Y-146768554D01*
X81738653Y-146778782D01*
X81759170Y-146791079D01*
X81778383Y-146805329D01*
X81796107Y-146821393D01*
X81812171Y-146839117D01*
X81826421Y-146858330D01*
X81838718Y-146878847D01*
X81848946Y-146900471D01*
X81857004Y-146922993D01*
X81862816Y-146946197D01*
X81866326Y-146969858D01*
X81867500Y-146993750D01*
X81867500Y-147906250D01*
X81866326Y-147930142D01*
X81862816Y-147953803D01*
X81857004Y-147977007D01*
X81848946Y-147999529D01*
X81838718Y-148021153D01*
X81826421Y-148041670D01*
X81812171Y-148060883D01*
X81796107Y-148078607D01*
X81778383Y-148094671D01*
X81759170Y-148108921D01*
X81738653Y-148121218D01*
X81717029Y-148131446D01*
X81694507Y-148139504D01*
X81671303Y-148145316D01*
X81647642Y-148148826D01*
X81623750Y-148150000D01*
X81136250Y-148150000D01*
X81112358Y-148148826D01*
X81088697Y-148145316D01*
X81065493Y-148139504D01*
X81042971Y-148131446D01*
X81021347Y-148121218D01*
X81000830Y-148108921D01*
X80981617Y-148094671D01*
X80963893Y-148078607D01*
X80947829Y-148060883D01*
X80933579Y-148041670D01*
X80921282Y-148021153D01*
X80911054Y-147999529D01*
X80902996Y-147977007D01*
X80897184Y-147953803D01*
X80893674Y-147930142D01*
X80892500Y-147906250D01*
X80892500Y-146993750D01*
X80893674Y-146969858D01*
X80897184Y-146946197D01*
X80902996Y-146922993D01*
X80911054Y-146900471D01*
X80921282Y-146878847D01*
X80933579Y-146858330D01*
X80947829Y-146839117D01*
X80963893Y-146821393D01*
X80981617Y-146805329D01*
X81000830Y-146791079D01*
X81021347Y-146778782D01*
X81042971Y-146768554D01*
X81065493Y-146760496D01*
X81088697Y-146754684D01*
X81112358Y-146751174D01*
X81136250Y-146750000D01*
X81623750Y-146750000D01*
X81647642Y-146751174D01*
X81647642Y-146751174D01*
G37*
D11*
X81380000Y-147450000D03*
D10*
G36*
X94137004Y-147766204D02*
G01*
X94161273Y-147769804D01*
X94185071Y-147775765D01*
X94208171Y-147784030D01*
X94230349Y-147794520D01*
X94251393Y-147807133D01*
X94271098Y-147821747D01*
X94289277Y-147838223D01*
X94305753Y-147856402D01*
X94320367Y-147876107D01*
X94332980Y-147897151D01*
X94343470Y-147919329D01*
X94351735Y-147942429D01*
X94357696Y-147966227D01*
X94361296Y-147990496D01*
X94362500Y-148015000D01*
X94362500Y-149265000D01*
X94361296Y-149289504D01*
X94357696Y-149313773D01*
X94351735Y-149337571D01*
X94343470Y-149360671D01*
X94332980Y-149382849D01*
X94320367Y-149403893D01*
X94305753Y-149423598D01*
X94289277Y-149441777D01*
X94271098Y-149458253D01*
X94251393Y-149472867D01*
X94230349Y-149485480D01*
X94208171Y-149495970D01*
X94185071Y-149504235D01*
X94161273Y-149510196D01*
X94137004Y-149513796D01*
X94112500Y-149515000D01*
X93187500Y-149515000D01*
X93162996Y-149513796D01*
X93138727Y-149510196D01*
X93114929Y-149504235D01*
X93091829Y-149495970D01*
X93069651Y-149485480D01*
X93048607Y-149472867D01*
X93028902Y-149458253D01*
X93010723Y-149441777D01*
X92994247Y-149423598D01*
X92979633Y-149403893D01*
X92967020Y-149382849D01*
X92956530Y-149360671D01*
X92948265Y-149337571D01*
X92942304Y-149313773D01*
X92938704Y-149289504D01*
X92937500Y-149265000D01*
X92937500Y-148015000D01*
X92938704Y-147990496D01*
X92942304Y-147966227D01*
X92948265Y-147942429D01*
X92956530Y-147919329D01*
X92967020Y-147897151D01*
X92979633Y-147876107D01*
X92994247Y-147856402D01*
X93010723Y-147838223D01*
X93028902Y-147821747D01*
X93048607Y-147807133D01*
X93069651Y-147794520D01*
X93091829Y-147784030D01*
X93114929Y-147775765D01*
X93138727Y-147769804D01*
X93162996Y-147766204D01*
X93187500Y-147765000D01*
X94112500Y-147765000D01*
X94137004Y-147766204D01*
X94137004Y-147766204D01*
G37*
D13*
X93650000Y-148640000D03*
D10*
G36*
X91162004Y-147766204D02*
G01*
X91186273Y-147769804D01*
X91210071Y-147775765D01*
X91233171Y-147784030D01*
X91255349Y-147794520D01*
X91276393Y-147807133D01*
X91296098Y-147821747D01*
X91314277Y-147838223D01*
X91330753Y-147856402D01*
X91345367Y-147876107D01*
X91357980Y-147897151D01*
X91368470Y-147919329D01*
X91376735Y-147942429D01*
X91382696Y-147966227D01*
X91386296Y-147990496D01*
X91387500Y-148015000D01*
X91387500Y-149265000D01*
X91386296Y-149289504D01*
X91382696Y-149313773D01*
X91376735Y-149337571D01*
X91368470Y-149360671D01*
X91357980Y-149382849D01*
X91345367Y-149403893D01*
X91330753Y-149423598D01*
X91314277Y-149441777D01*
X91296098Y-149458253D01*
X91276393Y-149472867D01*
X91255349Y-149485480D01*
X91233171Y-149495970D01*
X91210071Y-149504235D01*
X91186273Y-149510196D01*
X91162004Y-149513796D01*
X91137500Y-149515000D01*
X90212500Y-149515000D01*
X90187996Y-149513796D01*
X90163727Y-149510196D01*
X90139929Y-149504235D01*
X90116829Y-149495970D01*
X90094651Y-149485480D01*
X90073607Y-149472867D01*
X90053902Y-149458253D01*
X90035723Y-149441777D01*
X90019247Y-149423598D01*
X90004633Y-149403893D01*
X89992020Y-149382849D01*
X89981530Y-149360671D01*
X89973265Y-149337571D01*
X89967304Y-149313773D01*
X89963704Y-149289504D01*
X89962500Y-149265000D01*
X89962500Y-148015000D01*
X89963704Y-147990496D01*
X89967304Y-147966227D01*
X89973265Y-147942429D01*
X89981530Y-147919329D01*
X89992020Y-147897151D01*
X90004633Y-147876107D01*
X90019247Y-147856402D01*
X90035723Y-147838223D01*
X90053902Y-147821747D01*
X90073607Y-147807133D01*
X90094651Y-147794520D01*
X90116829Y-147784030D01*
X90139929Y-147775765D01*
X90163727Y-147769804D01*
X90187996Y-147766204D01*
X90212500Y-147765000D01*
X91137500Y-147765000D01*
X91162004Y-147766204D01*
X91162004Y-147766204D01*
G37*
D13*
X90675000Y-148640000D03*
D10*
G36*
X86669504Y-100638704D02*
G01*
X86693773Y-100642304D01*
X86717571Y-100648265D01*
X86740671Y-100656530D01*
X86762849Y-100667020D01*
X86783893Y-100679633D01*
X86803598Y-100694247D01*
X86821777Y-100710723D01*
X86838253Y-100728902D01*
X86852867Y-100748607D01*
X86865480Y-100769651D01*
X86875970Y-100791829D01*
X86884235Y-100814929D01*
X86890196Y-100838727D01*
X86893796Y-100862996D01*
X86895000Y-100887500D01*
X86895000Y-101812500D01*
X86893796Y-101837004D01*
X86890196Y-101861273D01*
X86884235Y-101885071D01*
X86875970Y-101908171D01*
X86865480Y-101930349D01*
X86852867Y-101951393D01*
X86838253Y-101971098D01*
X86821777Y-101989277D01*
X86803598Y-102005753D01*
X86783893Y-102020367D01*
X86762849Y-102032980D01*
X86740671Y-102043470D01*
X86717571Y-102051735D01*
X86693773Y-102057696D01*
X86669504Y-102061296D01*
X86645000Y-102062500D01*
X85395000Y-102062500D01*
X85370496Y-102061296D01*
X85346227Y-102057696D01*
X85322429Y-102051735D01*
X85299329Y-102043470D01*
X85277151Y-102032980D01*
X85256107Y-102020367D01*
X85236402Y-102005753D01*
X85218223Y-101989277D01*
X85201747Y-101971098D01*
X85187133Y-101951393D01*
X85174520Y-101930349D01*
X85164030Y-101908171D01*
X85155765Y-101885071D01*
X85149804Y-101861273D01*
X85146204Y-101837004D01*
X85145000Y-101812500D01*
X85145000Y-100887500D01*
X85146204Y-100862996D01*
X85149804Y-100838727D01*
X85155765Y-100814929D01*
X85164030Y-100791829D01*
X85174520Y-100769651D01*
X85187133Y-100748607D01*
X85201747Y-100728902D01*
X85218223Y-100710723D01*
X85236402Y-100694247D01*
X85256107Y-100679633D01*
X85277151Y-100667020D01*
X85299329Y-100656530D01*
X85322429Y-100648265D01*
X85346227Y-100642304D01*
X85370496Y-100638704D01*
X85395000Y-100637500D01*
X86645000Y-100637500D01*
X86669504Y-100638704D01*
X86669504Y-100638704D01*
G37*
D13*
X86020000Y-101350000D03*
D10*
G36*
X86669504Y-97663704D02*
G01*
X86693773Y-97667304D01*
X86717571Y-97673265D01*
X86740671Y-97681530D01*
X86762849Y-97692020D01*
X86783893Y-97704633D01*
X86803598Y-97719247D01*
X86821777Y-97735723D01*
X86838253Y-97753902D01*
X86852867Y-97773607D01*
X86865480Y-97794651D01*
X86875970Y-97816829D01*
X86884235Y-97839929D01*
X86890196Y-97863727D01*
X86893796Y-97887996D01*
X86895000Y-97912500D01*
X86895000Y-98837500D01*
X86893796Y-98862004D01*
X86890196Y-98886273D01*
X86884235Y-98910071D01*
X86875970Y-98933171D01*
X86865480Y-98955349D01*
X86852867Y-98976393D01*
X86838253Y-98996098D01*
X86821777Y-99014277D01*
X86803598Y-99030753D01*
X86783893Y-99045367D01*
X86762849Y-99057980D01*
X86740671Y-99068470D01*
X86717571Y-99076735D01*
X86693773Y-99082696D01*
X86669504Y-99086296D01*
X86645000Y-99087500D01*
X85395000Y-99087500D01*
X85370496Y-99086296D01*
X85346227Y-99082696D01*
X85322429Y-99076735D01*
X85299329Y-99068470D01*
X85277151Y-99057980D01*
X85256107Y-99045367D01*
X85236402Y-99030753D01*
X85218223Y-99014277D01*
X85201747Y-98996098D01*
X85187133Y-98976393D01*
X85174520Y-98955349D01*
X85164030Y-98933171D01*
X85155765Y-98910071D01*
X85149804Y-98886273D01*
X85146204Y-98862004D01*
X85145000Y-98837500D01*
X85145000Y-97912500D01*
X85146204Y-97887996D01*
X85149804Y-97863727D01*
X85155765Y-97839929D01*
X85164030Y-97816829D01*
X85174520Y-97794651D01*
X85187133Y-97773607D01*
X85201747Y-97753902D01*
X85218223Y-97735723D01*
X85236402Y-97719247D01*
X85256107Y-97704633D01*
X85277151Y-97692020D01*
X85299329Y-97681530D01*
X85322429Y-97673265D01*
X85346227Y-97667304D01*
X85370496Y-97663704D01*
X85395000Y-97662500D01*
X86645000Y-97662500D01*
X86669504Y-97663704D01*
X86669504Y-97663704D01*
G37*
D13*
X86020000Y-98375000D03*
D10*
G36*
X114469504Y-117388704D02*
G01*
X114493773Y-117392304D01*
X114517571Y-117398265D01*
X114540671Y-117406530D01*
X114562849Y-117417020D01*
X114583893Y-117429633D01*
X114603598Y-117444247D01*
X114621777Y-117460723D01*
X114638253Y-117478902D01*
X114652867Y-117498607D01*
X114665480Y-117519651D01*
X114675970Y-117541829D01*
X114684235Y-117564929D01*
X114690196Y-117588727D01*
X114693796Y-117612996D01*
X114695000Y-117637500D01*
X114695000Y-118562500D01*
X114693796Y-118587004D01*
X114690196Y-118611273D01*
X114684235Y-118635071D01*
X114675970Y-118658171D01*
X114665480Y-118680349D01*
X114652867Y-118701393D01*
X114638253Y-118721098D01*
X114621777Y-118739277D01*
X114603598Y-118755753D01*
X114583893Y-118770367D01*
X114562849Y-118782980D01*
X114540671Y-118793470D01*
X114517571Y-118801735D01*
X114493773Y-118807696D01*
X114469504Y-118811296D01*
X114445000Y-118812500D01*
X113195000Y-118812500D01*
X113170496Y-118811296D01*
X113146227Y-118807696D01*
X113122429Y-118801735D01*
X113099329Y-118793470D01*
X113077151Y-118782980D01*
X113056107Y-118770367D01*
X113036402Y-118755753D01*
X113018223Y-118739277D01*
X113001747Y-118721098D01*
X112987133Y-118701393D01*
X112974520Y-118680349D01*
X112964030Y-118658171D01*
X112955765Y-118635071D01*
X112949804Y-118611273D01*
X112946204Y-118587004D01*
X112945000Y-118562500D01*
X112945000Y-117637500D01*
X112946204Y-117612996D01*
X112949804Y-117588727D01*
X112955765Y-117564929D01*
X112964030Y-117541829D01*
X112974520Y-117519651D01*
X112987133Y-117498607D01*
X113001747Y-117478902D01*
X113018223Y-117460723D01*
X113036402Y-117444247D01*
X113056107Y-117429633D01*
X113077151Y-117417020D01*
X113099329Y-117406530D01*
X113122429Y-117398265D01*
X113146227Y-117392304D01*
X113170496Y-117388704D01*
X113195000Y-117387500D01*
X114445000Y-117387500D01*
X114469504Y-117388704D01*
X114469504Y-117388704D01*
G37*
D13*
X113820000Y-118100000D03*
D10*
G36*
X114469504Y-120363704D02*
G01*
X114493773Y-120367304D01*
X114517571Y-120373265D01*
X114540671Y-120381530D01*
X114562849Y-120392020D01*
X114583893Y-120404633D01*
X114603598Y-120419247D01*
X114621777Y-120435723D01*
X114638253Y-120453902D01*
X114652867Y-120473607D01*
X114665480Y-120494651D01*
X114675970Y-120516829D01*
X114684235Y-120539929D01*
X114690196Y-120563727D01*
X114693796Y-120587996D01*
X114695000Y-120612500D01*
X114695000Y-121537500D01*
X114693796Y-121562004D01*
X114690196Y-121586273D01*
X114684235Y-121610071D01*
X114675970Y-121633171D01*
X114665480Y-121655349D01*
X114652867Y-121676393D01*
X114638253Y-121696098D01*
X114621777Y-121714277D01*
X114603598Y-121730753D01*
X114583893Y-121745367D01*
X114562849Y-121757980D01*
X114540671Y-121768470D01*
X114517571Y-121776735D01*
X114493773Y-121782696D01*
X114469504Y-121786296D01*
X114445000Y-121787500D01*
X113195000Y-121787500D01*
X113170496Y-121786296D01*
X113146227Y-121782696D01*
X113122429Y-121776735D01*
X113099329Y-121768470D01*
X113077151Y-121757980D01*
X113056107Y-121745367D01*
X113036402Y-121730753D01*
X113018223Y-121714277D01*
X113001747Y-121696098D01*
X112987133Y-121676393D01*
X112974520Y-121655349D01*
X112964030Y-121633171D01*
X112955765Y-121610071D01*
X112949804Y-121586273D01*
X112946204Y-121562004D01*
X112945000Y-121537500D01*
X112945000Y-120612500D01*
X112946204Y-120587996D01*
X112949804Y-120563727D01*
X112955765Y-120539929D01*
X112964030Y-120516829D01*
X112974520Y-120494651D01*
X112987133Y-120473607D01*
X113001747Y-120453902D01*
X113018223Y-120435723D01*
X113036402Y-120419247D01*
X113056107Y-120404633D01*
X113077151Y-120392020D01*
X113099329Y-120381530D01*
X113122429Y-120373265D01*
X113146227Y-120367304D01*
X113170496Y-120363704D01*
X113195000Y-120362500D01*
X114445000Y-120362500D01*
X114469504Y-120363704D01*
X114469504Y-120363704D01*
G37*
D13*
X113820000Y-121075000D03*
D10*
G36*
X121969504Y-76376204D02*
G01*
X121993773Y-76379804D01*
X122017571Y-76385765D01*
X122040671Y-76394030D01*
X122062849Y-76404520D01*
X122083893Y-76417133D01*
X122103598Y-76431747D01*
X122121777Y-76448223D01*
X122138253Y-76466402D01*
X122152867Y-76486107D01*
X122165480Y-76507151D01*
X122175970Y-76529329D01*
X122184235Y-76552429D01*
X122190196Y-76576227D01*
X122193796Y-76600496D01*
X122195000Y-76625000D01*
X122195000Y-77550000D01*
X122193796Y-77574504D01*
X122190196Y-77598773D01*
X122184235Y-77622571D01*
X122175970Y-77645671D01*
X122165480Y-77667849D01*
X122152867Y-77688893D01*
X122138253Y-77708598D01*
X122121777Y-77726777D01*
X122103598Y-77743253D01*
X122083893Y-77757867D01*
X122062849Y-77770480D01*
X122040671Y-77780970D01*
X122017571Y-77789235D01*
X121993773Y-77795196D01*
X121969504Y-77798796D01*
X121945000Y-77800000D01*
X120695000Y-77800000D01*
X120670496Y-77798796D01*
X120646227Y-77795196D01*
X120622429Y-77789235D01*
X120599329Y-77780970D01*
X120577151Y-77770480D01*
X120556107Y-77757867D01*
X120536402Y-77743253D01*
X120518223Y-77726777D01*
X120501747Y-77708598D01*
X120487133Y-77688893D01*
X120474520Y-77667849D01*
X120464030Y-77645671D01*
X120455765Y-77622571D01*
X120449804Y-77598773D01*
X120446204Y-77574504D01*
X120445000Y-77550000D01*
X120445000Y-76625000D01*
X120446204Y-76600496D01*
X120449804Y-76576227D01*
X120455765Y-76552429D01*
X120464030Y-76529329D01*
X120474520Y-76507151D01*
X120487133Y-76486107D01*
X120501747Y-76466402D01*
X120518223Y-76448223D01*
X120536402Y-76431747D01*
X120556107Y-76417133D01*
X120577151Y-76404520D01*
X120599329Y-76394030D01*
X120622429Y-76385765D01*
X120646227Y-76379804D01*
X120670496Y-76376204D01*
X120695000Y-76375000D01*
X121945000Y-76375000D01*
X121969504Y-76376204D01*
X121969504Y-76376204D01*
G37*
D13*
X121320000Y-77087500D03*
D10*
G36*
X121969504Y-73401204D02*
G01*
X121993773Y-73404804D01*
X122017571Y-73410765D01*
X122040671Y-73419030D01*
X122062849Y-73429520D01*
X122083893Y-73442133D01*
X122103598Y-73456747D01*
X122121777Y-73473223D01*
X122138253Y-73491402D01*
X122152867Y-73511107D01*
X122165480Y-73532151D01*
X122175970Y-73554329D01*
X122184235Y-73577429D01*
X122190196Y-73601227D01*
X122193796Y-73625496D01*
X122195000Y-73650000D01*
X122195000Y-74575000D01*
X122193796Y-74599504D01*
X122190196Y-74623773D01*
X122184235Y-74647571D01*
X122175970Y-74670671D01*
X122165480Y-74692849D01*
X122152867Y-74713893D01*
X122138253Y-74733598D01*
X122121777Y-74751777D01*
X122103598Y-74768253D01*
X122083893Y-74782867D01*
X122062849Y-74795480D01*
X122040671Y-74805970D01*
X122017571Y-74814235D01*
X121993773Y-74820196D01*
X121969504Y-74823796D01*
X121945000Y-74825000D01*
X120695000Y-74825000D01*
X120670496Y-74823796D01*
X120646227Y-74820196D01*
X120622429Y-74814235D01*
X120599329Y-74805970D01*
X120577151Y-74795480D01*
X120556107Y-74782867D01*
X120536402Y-74768253D01*
X120518223Y-74751777D01*
X120501747Y-74733598D01*
X120487133Y-74713893D01*
X120474520Y-74692849D01*
X120464030Y-74670671D01*
X120455765Y-74647571D01*
X120449804Y-74623773D01*
X120446204Y-74599504D01*
X120445000Y-74575000D01*
X120445000Y-73650000D01*
X120446204Y-73625496D01*
X120449804Y-73601227D01*
X120455765Y-73577429D01*
X120464030Y-73554329D01*
X120474520Y-73532151D01*
X120487133Y-73511107D01*
X120501747Y-73491402D01*
X120518223Y-73473223D01*
X120536402Y-73456747D01*
X120556107Y-73442133D01*
X120577151Y-73429520D01*
X120599329Y-73419030D01*
X120622429Y-73410765D01*
X120646227Y-73404804D01*
X120670496Y-73401204D01*
X120695000Y-73400000D01*
X121945000Y-73400000D01*
X121969504Y-73401204D01*
X121969504Y-73401204D01*
G37*
D13*
X121320000Y-74112500D03*
D10*
G36*
X151307004Y-84426204D02*
G01*
X151331273Y-84429804D01*
X151355071Y-84435765D01*
X151378171Y-84444030D01*
X151400349Y-84454520D01*
X151421393Y-84467133D01*
X151441098Y-84481747D01*
X151459277Y-84498223D01*
X151475753Y-84516402D01*
X151490367Y-84536107D01*
X151502980Y-84557151D01*
X151513470Y-84579329D01*
X151521735Y-84602429D01*
X151527696Y-84626227D01*
X151531296Y-84650496D01*
X151532500Y-84675000D01*
X151532500Y-85925000D01*
X151531296Y-85949504D01*
X151527696Y-85973773D01*
X151521735Y-85997571D01*
X151513470Y-86020671D01*
X151502980Y-86042849D01*
X151490367Y-86063893D01*
X151475753Y-86083598D01*
X151459277Y-86101777D01*
X151441098Y-86118253D01*
X151421393Y-86132867D01*
X151400349Y-86145480D01*
X151378171Y-86155970D01*
X151355071Y-86164235D01*
X151331273Y-86170196D01*
X151307004Y-86173796D01*
X151282500Y-86175000D01*
X150357500Y-86175000D01*
X150332996Y-86173796D01*
X150308727Y-86170196D01*
X150284929Y-86164235D01*
X150261829Y-86155970D01*
X150239651Y-86145480D01*
X150218607Y-86132867D01*
X150198902Y-86118253D01*
X150180723Y-86101777D01*
X150164247Y-86083598D01*
X150149633Y-86063893D01*
X150137020Y-86042849D01*
X150126530Y-86020671D01*
X150118265Y-85997571D01*
X150112304Y-85973773D01*
X150108704Y-85949504D01*
X150107500Y-85925000D01*
X150107500Y-84675000D01*
X150108704Y-84650496D01*
X150112304Y-84626227D01*
X150118265Y-84602429D01*
X150126530Y-84579329D01*
X150137020Y-84557151D01*
X150149633Y-84536107D01*
X150164247Y-84516402D01*
X150180723Y-84498223D01*
X150198902Y-84481747D01*
X150218607Y-84467133D01*
X150239651Y-84454520D01*
X150261829Y-84444030D01*
X150284929Y-84435765D01*
X150308727Y-84429804D01*
X150332996Y-84426204D01*
X150357500Y-84425000D01*
X151282500Y-84425000D01*
X151307004Y-84426204D01*
X151307004Y-84426204D01*
G37*
D13*
X150820000Y-85300000D03*
D10*
G36*
X154282004Y-84426204D02*
G01*
X154306273Y-84429804D01*
X154330071Y-84435765D01*
X154353171Y-84444030D01*
X154375349Y-84454520D01*
X154396393Y-84467133D01*
X154416098Y-84481747D01*
X154434277Y-84498223D01*
X154450753Y-84516402D01*
X154465367Y-84536107D01*
X154477980Y-84557151D01*
X154488470Y-84579329D01*
X154496735Y-84602429D01*
X154502696Y-84626227D01*
X154506296Y-84650496D01*
X154507500Y-84675000D01*
X154507500Y-85925000D01*
X154506296Y-85949504D01*
X154502696Y-85973773D01*
X154496735Y-85997571D01*
X154488470Y-86020671D01*
X154477980Y-86042849D01*
X154465367Y-86063893D01*
X154450753Y-86083598D01*
X154434277Y-86101777D01*
X154416098Y-86118253D01*
X154396393Y-86132867D01*
X154375349Y-86145480D01*
X154353171Y-86155970D01*
X154330071Y-86164235D01*
X154306273Y-86170196D01*
X154282004Y-86173796D01*
X154257500Y-86175000D01*
X153332500Y-86175000D01*
X153307996Y-86173796D01*
X153283727Y-86170196D01*
X153259929Y-86164235D01*
X153236829Y-86155970D01*
X153214651Y-86145480D01*
X153193607Y-86132867D01*
X153173902Y-86118253D01*
X153155723Y-86101777D01*
X153139247Y-86083598D01*
X153124633Y-86063893D01*
X153112020Y-86042849D01*
X153101530Y-86020671D01*
X153093265Y-85997571D01*
X153087304Y-85973773D01*
X153083704Y-85949504D01*
X153082500Y-85925000D01*
X153082500Y-84675000D01*
X153083704Y-84650496D01*
X153087304Y-84626227D01*
X153093265Y-84602429D01*
X153101530Y-84579329D01*
X153112020Y-84557151D01*
X153124633Y-84536107D01*
X153139247Y-84516402D01*
X153155723Y-84498223D01*
X153173902Y-84481747D01*
X153193607Y-84467133D01*
X153214651Y-84454520D01*
X153236829Y-84444030D01*
X153259929Y-84435765D01*
X153283727Y-84429804D01*
X153307996Y-84426204D01*
X153332500Y-84425000D01*
X154257500Y-84425000D01*
X154282004Y-84426204D01*
X154282004Y-84426204D01*
G37*
D13*
X153795000Y-85300000D03*
D10*
G36*
X159969504Y-108826204D02*
G01*
X159993773Y-108829804D01*
X160017571Y-108835765D01*
X160040671Y-108844030D01*
X160062849Y-108854520D01*
X160083893Y-108867133D01*
X160103598Y-108881747D01*
X160121777Y-108898223D01*
X160138253Y-108916402D01*
X160152867Y-108936107D01*
X160165480Y-108957151D01*
X160175970Y-108979329D01*
X160184235Y-109002429D01*
X160190196Y-109026227D01*
X160193796Y-109050496D01*
X160195000Y-109075000D01*
X160195000Y-110000000D01*
X160193796Y-110024504D01*
X160190196Y-110048773D01*
X160184235Y-110072571D01*
X160175970Y-110095671D01*
X160165480Y-110117849D01*
X160152867Y-110138893D01*
X160138253Y-110158598D01*
X160121777Y-110176777D01*
X160103598Y-110193253D01*
X160083893Y-110207867D01*
X160062849Y-110220480D01*
X160040671Y-110230970D01*
X160017571Y-110239235D01*
X159993773Y-110245196D01*
X159969504Y-110248796D01*
X159945000Y-110250000D01*
X158695000Y-110250000D01*
X158670496Y-110248796D01*
X158646227Y-110245196D01*
X158622429Y-110239235D01*
X158599329Y-110230970D01*
X158577151Y-110220480D01*
X158556107Y-110207867D01*
X158536402Y-110193253D01*
X158518223Y-110176777D01*
X158501747Y-110158598D01*
X158487133Y-110138893D01*
X158474520Y-110117849D01*
X158464030Y-110095671D01*
X158455765Y-110072571D01*
X158449804Y-110048773D01*
X158446204Y-110024504D01*
X158445000Y-110000000D01*
X158445000Y-109075000D01*
X158446204Y-109050496D01*
X158449804Y-109026227D01*
X158455765Y-109002429D01*
X158464030Y-108979329D01*
X158474520Y-108957151D01*
X158487133Y-108936107D01*
X158501747Y-108916402D01*
X158518223Y-108898223D01*
X158536402Y-108881747D01*
X158556107Y-108867133D01*
X158577151Y-108854520D01*
X158599329Y-108844030D01*
X158622429Y-108835765D01*
X158646227Y-108829804D01*
X158670496Y-108826204D01*
X158695000Y-108825000D01*
X159945000Y-108825000D01*
X159969504Y-108826204D01*
X159969504Y-108826204D01*
G37*
D13*
X159320000Y-109537500D03*
D10*
G36*
X159969504Y-105851204D02*
G01*
X159993773Y-105854804D01*
X160017571Y-105860765D01*
X160040671Y-105869030D01*
X160062849Y-105879520D01*
X160083893Y-105892133D01*
X160103598Y-105906747D01*
X160121777Y-105923223D01*
X160138253Y-105941402D01*
X160152867Y-105961107D01*
X160165480Y-105982151D01*
X160175970Y-106004329D01*
X160184235Y-106027429D01*
X160190196Y-106051227D01*
X160193796Y-106075496D01*
X160195000Y-106100000D01*
X160195000Y-107025000D01*
X160193796Y-107049504D01*
X160190196Y-107073773D01*
X160184235Y-107097571D01*
X160175970Y-107120671D01*
X160165480Y-107142849D01*
X160152867Y-107163893D01*
X160138253Y-107183598D01*
X160121777Y-107201777D01*
X160103598Y-107218253D01*
X160083893Y-107232867D01*
X160062849Y-107245480D01*
X160040671Y-107255970D01*
X160017571Y-107264235D01*
X159993773Y-107270196D01*
X159969504Y-107273796D01*
X159945000Y-107275000D01*
X158695000Y-107275000D01*
X158670496Y-107273796D01*
X158646227Y-107270196D01*
X158622429Y-107264235D01*
X158599329Y-107255970D01*
X158577151Y-107245480D01*
X158556107Y-107232867D01*
X158536402Y-107218253D01*
X158518223Y-107201777D01*
X158501747Y-107183598D01*
X158487133Y-107163893D01*
X158474520Y-107142849D01*
X158464030Y-107120671D01*
X158455765Y-107097571D01*
X158449804Y-107073773D01*
X158446204Y-107049504D01*
X158445000Y-107025000D01*
X158445000Y-106100000D01*
X158446204Y-106075496D01*
X158449804Y-106051227D01*
X158455765Y-106027429D01*
X158464030Y-106004329D01*
X158474520Y-105982151D01*
X158487133Y-105961107D01*
X158501747Y-105941402D01*
X158518223Y-105923223D01*
X158536402Y-105906747D01*
X158556107Y-105892133D01*
X158577151Y-105879520D01*
X158599329Y-105869030D01*
X158622429Y-105860765D01*
X158646227Y-105854804D01*
X158670496Y-105851204D01*
X158695000Y-105850000D01*
X159945000Y-105850000D01*
X159969504Y-105851204D01*
X159969504Y-105851204D01*
G37*
D13*
X159320000Y-106562500D03*
D10*
G36*
X159969504Y-91113704D02*
G01*
X159993773Y-91117304D01*
X160017571Y-91123265D01*
X160040671Y-91131530D01*
X160062849Y-91142020D01*
X160083893Y-91154633D01*
X160103598Y-91169247D01*
X160121777Y-91185723D01*
X160138253Y-91203902D01*
X160152867Y-91223607D01*
X160165480Y-91244651D01*
X160175970Y-91266829D01*
X160184235Y-91289929D01*
X160190196Y-91313727D01*
X160193796Y-91337996D01*
X160195000Y-91362500D01*
X160195000Y-92287500D01*
X160193796Y-92312004D01*
X160190196Y-92336273D01*
X160184235Y-92360071D01*
X160175970Y-92383171D01*
X160165480Y-92405349D01*
X160152867Y-92426393D01*
X160138253Y-92446098D01*
X160121777Y-92464277D01*
X160103598Y-92480753D01*
X160083893Y-92495367D01*
X160062849Y-92507980D01*
X160040671Y-92518470D01*
X160017571Y-92526735D01*
X159993773Y-92532696D01*
X159969504Y-92536296D01*
X159945000Y-92537500D01*
X158695000Y-92537500D01*
X158670496Y-92536296D01*
X158646227Y-92532696D01*
X158622429Y-92526735D01*
X158599329Y-92518470D01*
X158577151Y-92507980D01*
X158556107Y-92495367D01*
X158536402Y-92480753D01*
X158518223Y-92464277D01*
X158501747Y-92446098D01*
X158487133Y-92426393D01*
X158474520Y-92405349D01*
X158464030Y-92383171D01*
X158455765Y-92360071D01*
X158449804Y-92336273D01*
X158446204Y-92312004D01*
X158445000Y-92287500D01*
X158445000Y-91362500D01*
X158446204Y-91337996D01*
X158449804Y-91313727D01*
X158455765Y-91289929D01*
X158464030Y-91266829D01*
X158474520Y-91244651D01*
X158487133Y-91223607D01*
X158501747Y-91203902D01*
X158518223Y-91185723D01*
X158536402Y-91169247D01*
X158556107Y-91154633D01*
X158577151Y-91142020D01*
X158599329Y-91131530D01*
X158622429Y-91123265D01*
X158646227Y-91117304D01*
X158670496Y-91113704D01*
X158695000Y-91112500D01*
X159945000Y-91112500D01*
X159969504Y-91113704D01*
X159969504Y-91113704D01*
G37*
D13*
X159320000Y-91825000D03*
D10*
G36*
X159969504Y-94088704D02*
G01*
X159993773Y-94092304D01*
X160017571Y-94098265D01*
X160040671Y-94106530D01*
X160062849Y-94117020D01*
X160083893Y-94129633D01*
X160103598Y-94144247D01*
X160121777Y-94160723D01*
X160138253Y-94178902D01*
X160152867Y-94198607D01*
X160165480Y-94219651D01*
X160175970Y-94241829D01*
X160184235Y-94264929D01*
X160190196Y-94288727D01*
X160193796Y-94312996D01*
X160195000Y-94337500D01*
X160195000Y-95262500D01*
X160193796Y-95287004D01*
X160190196Y-95311273D01*
X160184235Y-95335071D01*
X160175970Y-95358171D01*
X160165480Y-95380349D01*
X160152867Y-95401393D01*
X160138253Y-95421098D01*
X160121777Y-95439277D01*
X160103598Y-95455753D01*
X160083893Y-95470367D01*
X160062849Y-95482980D01*
X160040671Y-95493470D01*
X160017571Y-95501735D01*
X159993773Y-95507696D01*
X159969504Y-95511296D01*
X159945000Y-95512500D01*
X158695000Y-95512500D01*
X158670496Y-95511296D01*
X158646227Y-95507696D01*
X158622429Y-95501735D01*
X158599329Y-95493470D01*
X158577151Y-95482980D01*
X158556107Y-95470367D01*
X158536402Y-95455753D01*
X158518223Y-95439277D01*
X158501747Y-95421098D01*
X158487133Y-95401393D01*
X158474520Y-95380349D01*
X158464030Y-95358171D01*
X158455765Y-95335071D01*
X158449804Y-95311273D01*
X158446204Y-95287004D01*
X158445000Y-95262500D01*
X158445000Y-94337500D01*
X158446204Y-94312996D01*
X158449804Y-94288727D01*
X158455765Y-94264929D01*
X158464030Y-94241829D01*
X158474520Y-94219651D01*
X158487133Y-94198607D01*
X158501747Y-94178902D01*
X158518223Y-94160723D01*
X158536402Y-94144247D01*
X158556107Y-94129633D01*
X158577151Y-94117020D01*
X158599329Y-94106530D01*
X158622429Y-94098265D01*
X158646227Y-94092304D01*
X158670496Y-94088704D01*
X158695000Y-94087500D01*
X159945000Y-94087500D01*
X159969504Y-94088704D01*
X159969504Y-94088704D01*
G37*
D13*
X159320000Y-94800000D03*
D10*
G36*
X127557004Y-132676204D02*
G01*
X127581273Y-132679804D01*
X127605071Y-132685765D01*
X127628171Y-132694030D01*
X127650349Y-132704520D01*
X127671393Y-132717133D01*
X127691098Y-132731747D01*
X127709277Y-132748223D01*
X127725753Y-132766402D01*
X127740367Y-132786107D01*
X127752980Y-132807151D01*
X127763470Y-132829329D01*
X127771735Y-132852429D01*
X127777696Y-132876227D01*
X127781296Y-132900496D01*
X127782500Y-132925000D01*
X127782500Y-134175000D01*
X127781296Y-134199504D01*
X127777696Y-134223773D01*
X127771735Y-134247571D01*
X127763470Y-134270671D01*
X127752980Y-134292849D01*
X127740367Y-134313893D01*
X127725753Y-134333598D01*
X127709277Y-134351777D01*
X127691098Y-134368253D01*
X127671393Y-134382867D01*
X127650349Y-134395480D01*
X127628171Y-134405970D01*
X127605071Y-134414235D01*
X127581273Y-134420196D01*
X127557004Y-134423796D01*
X127532500Y-134425000D01*
X126607500Y-134425000D01*
X126582996Y-134423796D01*
X126558727Y-134420196D01*
X126534929Y-134414235D01*
X126511829Y-134405970D01*
X126489651Y-134395480D01*
X126468607Y-134382867D01*
X126448902Y-134368253D01*
X126430723Y-134351777D01*
X126414247Y-134333598D01*
X126399633Y-134313893D01*
X126387020Y-134292849D01*
X126376530Y-134270671D01*
X126368265Y-134247571D01*
X126362304Y-134223773D01*
X126358704Y-134199504D01*
X126357500Y-134175000D01*
X126357500Y-132925000D01*
X126358704Y-132900496D01*
X126362304Y-132876227D01*
X126368265Y-132852429D01*
X126376530Y-132829329D01*
X126387020Y-132807151D01*
X126399633Y-132786107D01*
X126414247Y-132766402D01*
X126430723Y-132748223D01*
X126448902Y-132731747D01*
X126468607Y-132717133D01*
X126489651Y-132704520D01*
X126511829Y-132694030D01*
X126534929Y-132685765D01*
X126558727Y-132679804D01*
X126582996Y-132676204D01*
X126607500Y-132675000D01*
X127532500Y-132675000D01*
X127557004Y-132676204D01*
X127557004Y-132676204D01*
G37*
D13*
X127070000Y-133550000D03*
D10*
G36*
X130532004Y-132676204D02*
G01*
X130556273Y-132679804D01*
X130580071Y-132685765D01*
X130603171Y-132694030D01*
X130625349Y-132704520D01*
X130646393Y-132717133D01*
X130666098Y-132731747D01*
X130684277Y-132748223D01*
X130700753Y-132766402D01*
X130715367Y-132786107D01*
X130727980Y-132807151D01*
X130738470Y-132829329D01*
X130746735Y-132852429D01*
X130752696Y-132876227D01*
X130756296Y-132900496D01*
X130757500Y-132925000D01*
X130757500Y-134175000D01*
X130756296Y-134199504D01*
X130752696Y-134223773D01*
X130746735Y-134247571D01*
X130738470Y-134270671D01*
X130727980Y-134292849D01*
X130715367Y-134313893D01*
X130700753Y-134333598D01*
X130684277Y-134351777D01*
X130666098Y-134368253D01*
X130646393Y-134382867D01*
X130625349Y-134395480D01*
X130603171Y-134405970D01*
X130580071Y-134414235D01*
X130556273Y-134420196D01*
X130532004Y-134423796D01*
X130507500Y-134425000D01*
X129582500Y-134425000D01*
X129557996Y-134423796D01*
X129533727Y-134420196D01*
X129509929Y-134414235D01*
X129486829Y-134405970D01*
X129464651Y-134395480D01*
X129443607Y-134382867D01*
X129423902Y-134368253D01*
X129405723Y-134351777D01*
X129389247Y-134333598D01*
X129374633Y-134313893D01*
X129362020Y-134292849D01*
X129351530Y-134270671D01*
X129343265Y-134247571D01*
X129337304Y-134223773D01*
X129333704Y-134199504D01*
X129332500Y-134175000D01*
X129332500Y-132925000D01*
X129333704Y-132900496D01*
X129337304Y-132876227D01*
X129343265Y-132852429D01*
X129351530Y-132829329D01*
X129362020Y-132807151D01*
X129374633Y-132786107D01*
X129389247Y-132766402D01*
X129405723Y-132748223D01*
X129423902Y-132731747D01*
X129443607Y-132717133D01*
X129464651Y-132704520D01*
X129486829Y-132694030D01*
X129509929Y-132685765D01*
X129533727Y-132679804D01*
X129557996Y-132676204D01*
X129582500Y-132675000D01*
X130507500Y-132675000D01*
X130532004Y-132676204D01*
X130532004Y-132676204D01*
G37*
D13*
X130045000Y-133550000D03*
D10*
G36*
X120557004Y-133676204D02*
G01*
X120581273Y-133679804D01*
X120605071Y-133685765D01*
X120628171Y-133694030D01*
X120650349Y-133704520D01*
X120671393Y-133717133D01*
X120691098Y-133731747D01*
X120709277Y-133748223D01*
X120725753Y-133766402D01*
X120740367Y-133786107D01*
X120752980Y-133807151D01*
X120763470Y-133829329D01*
X120771735Y-133852429D01*
X120777696Y-133876227D01*
X120781296Y-133900496D01*
X120782500Y-133925000D01*
X120782500Y-135175000D01*
X120781296Y-135199504D01*
X120777696Y-135223773D01*
X120771735Y-135247571D01*
X120763470Y-135270671D01*
X120752980Y-135292849D01*
X120740367Y-135313893D01*
X120725753Y-135333598D01*
X120709277Y-135351777D01*
X120691098Y-135368253D01*
X120671393Y-135382867D01*
X120650349Y-135395480D01*
X120628171Y-135405970D01*
X120605071Y-135414235D01*
X120581273Y-135420196D01*
X120557004Y-135423796D01*
X120532500Y-135425000D01*
X119607500Y-135425000D01*
X119582996Y-135423796D01*
X119558727Y-135420196D01*
X119534929Y-135414235D01*
X119511829Y-135405970D01*
X119489651Y-135395480D01*
X119468607Y-135382867D01*
X119448902Y-135368253D01*
X119430723Y-135351777D01*
X119414247Y-135333598D01*
X119399633Y-135313893D01*
X119387020Y-135292849D01*
X119376530Y-135270671D01*
X119368265Y-135247571D01*
X119362304Y-135223773D01*
X119358704Y-135199504D01*
X119357500Y-135175000D01*
X119357500Y-133925000D01*
X119358704Y-133900496D01*
X119362304Y-133876227D01*
X119368265Y-133852429D01*
X119376530Y-133829329D01*
X119387020Y-133807151D01*
X119399633Y-133786107D01*
X119414247Y-133766402D01*
X119430723Y-133748223D01*
X119448902Y-133731747D01*
X119468607Y-133717133D01*
X119489651Y-133704520D01*
X119511829Y-133694030D01*
X119534929Y-133685765D01*
X119558727Y-133679804D01*
X119582996Y-133676204D01*
X119607500Y-133675000D01*
X120532500Y-133675000D01*
X120557004Y-133676204D01*
X120557004Y-133676204D01*
G37*
D13*
X120070000Y-134550000D03*
D10*
G36*
X123532004Y-133676204D02*
G01*
X123556273Y-133679804D01*
X123580071Y-133685765D01*
X123603171Y-133694030D01*
X123625349Y-133704520D01*
X123646393Y-133717133D01*
X123666098Y-133731747D01*
X123684277Y-133748223D01*
X123700753Y-133766402D01*
X123715367Y-133786107D01*
X123727980Y-133807151D01*
X123738470Y-133829329D01*
X123746735Y-133852429D01*
X123752696Y-133876227D01*
X123756296Y-133900496D01*
X123757500Y-133925000D01*
X123757500Y-135175000D01*
X123756296Y-135199504D01*
X123752696Y-135223773D01*
X123746735Y-135247571D01*
X123738470Y-135270671D01*
X123727980Y-135292849D01*
X123715367Y-135313893D01*
X123700753Y-135333598D01*
X123684277Y-135351777D01*
X123666098Y-135368253D01*
X123646393Y-135382867D01*
X123625349Y-135395480D01*
X123603171Y-135405970D01*
X123580071Y-135414235D01*
X123556273Y-135420196D01*
X123532004Y-135423796D01*
X123507500Y-135425000D01*
X122582500Y-135425000D01*
X122557996Y-135423796D01*
X122533727Y-135420196D01*
X122509929Y-135414235D01*
X122486829Y-135405970D01*
X122464651Y-135395480D01*
X122443607Y-135382867D01*
X122423902Y-135368253D01*
X122405723Y-135351777D01*
X122389247Y-135333598D01*
X122374633Y-135313893D01*
X122362020Y-135292849D01*
X122351530Y-135270671D01*
X122343265Y-135247571D01*
X122337304Y-135223773D01*
X122333704Y-135199504D01*
X122332500Y-135175000D01*
X122332500Y-133925000D01*
X122333704Y-133900496D01*
X122337304Y-133876227D01*
X122343265Y-133852429D01*
X122351530Y-133829329D01*
X122362020Y-133807151D01*
X122374633Y-133786107D01*
X122389247Y-133766402D01*
X122405723Y-133748223D01*
X122423902Y-133731747D01*
X122443607Y-133717133D01*
X122464651Y-133704520D01*
X122486829Y-133694030D01*
X122509929Y-133685765D01*
X122533727Y-133679804D01*
X122557996Y-133676204D01*
X122582500Y-133675000D01*
X123507500Y-133675000D01*
X123532004Y-133676204D01*
X123532004Y-133676204D01*
G37*
D13*
X123045000Y-134550000D03*
D10*
G36*
X130532004Y-138176204D02*
G01*
X130556273Y-138179804D01*
X130580071Y-138185765D01*
X130603171Y-138194030D01*
X130625349Y-138204520D01*
X130646393Y-138217133D01*
X130666098Y-138231747D01*
X130684277Y-138248223D01*
X130700753Y-138266402D01*
X130715367Y-138286107D01*
X130727980Y-138307151D01*
X130738470Y-138329329D01*
X130746735Y-138352429D01*
X130752696Y-138376227D01*
X130756296Y-138400496D01*
X130757500Y-138425000D01*
X130757500Y-139675000D01*
X130756296Y-139699504D01*
X130752696Y-139723773D01*
X130746735Y-139747571D01*
X130738470Y-139770671D01*
X130727980Y-139792849D01*
X130715367Y-139813893D01*
X130700753Y-139833598D01*
X130684277Y-139851777D01*
X130666098Y-139868253D01*
X130646393Y-139882867D01*
X130625349Y-139895480D01*
X130603171Y-139905970D01*
X130580071Y-139914235D01*
X130556273Y-139920196D01*
X130532004Y-139923796D01*
X130507500Y-139925000D01*
X129582500Y-139925000D01*
X129557996Y-139923796D01*
X129533727Y-139920196D01*
X129509929Y-139914235D01*
X129486829Y-139905970D01*
X129464651Y-139895480D01*
X129443607Y-139882867D01*
X129423902Y-139868253D01*
X129405723Y-139851777D01*
X129389247Y-139833598D01*
X129374633Y-139813893D01*
X129362020Y-139792849D01*
X129351530Y-139770671D01*
X129343265Y-139747571D01*
X129337304Y-139723773D01*
X129333704Y-139699504D01*
X129332500Y-139675000D01*
X129332500Y-138425000D01*
X129333704Y-138400496D01*
X129337304Y-138376227D01*
X129343265Y-138352429D01*
X129351530Y-138329329D01*
X129362020Y-138307151D01*
X129374633Y-138286107D01*
X129389247Y-138266402D01*
X129405723Y-138248223D01*
X129423902Y-138231747D01*
X129443607Y-138217133D01*
X129464651Y-138204520D01*
X129486829Y-138194030D01*
X129509929Y-138185765D01*
X129533727Y-138179804D01*
X129557996Y-138176204D01*
X129582500Y-138175000D01*
X130507500Y-138175000D01*
X130532004Y-138176204D01*
X130532004Y-138176204D01*
G37*
D13*
X130045000Y-139050000D03*
D10*
G36*
X127557004Y-138176204D02*
G01*
X127581273Y-138179804D01*
X127605071Y-138185765D01*
X127628171Y-138194030D01*
X127650349Y-138204520D01*
X127671393Y-138217133D01*
X127691098Y-138231747D01*
X127709277Y-138248223D01*
X127725753Y-138266402D01*
X127740367Y-138286107D01*
X127752980Y-138307151D01*
X127763470Y-138329329D01*
X127771735Y-138352429D01*
X127777696Y-138376227D01*
X127781296Y-138400496D01*
X127782500Y-138425000D01*
X127782500Y-139675000D01*
X127781296Y-139699504D01*
X127777696Y-139723773D01*
X127771735Y-139747571D01*
X127763470Y-139770671D01*
X127752980Y-139792849D01*
X127740367Y-139813893D01*
X127725753Y-139833598D01*
X127709277Y-139851777D01*
X127691098Y-139868253D01*
X127671393Y-139882867D01*
X127650349Y-139895480D01*
X127628171Y-139905970D01*
X127605071Y-139914235D01*
X127581273Y-139920196D01*
X127557004Y-139923796D01*
X127532500Y-139925000D01*
X126607500Y-139925000D01*
X126582996Y-139923796D01*
X126558727Y-139920196D01*
X126534929Y-139914235D01*
X126511829Y-139905970D01*
X126489651Y-139895480D01*
X126468607Y-139882867D01*
X126448902Y-139868253D01*
X126430723Y-139851777D01*
X126414247Y-139833598D01*
X126399633Y-139813893D01*
X126387020Y-139792849D01*
X126376530Y-139770671D01*
X126368265Y-139747571D01*
X126362304Y-139723773D01*
X126358704Y-139699504D01*
X126357500Y-139675000D01*
X126357500Y-138425000D01*
X126358704Y-138400496D01*
X126362304Y-138376227D01*
X126368265Y-138352429D01*
X126376530Y-138329329D01*
X126387020Y-138307151D01*
X126399633Y-138286107D01*
X126414247Y-138266402D01*
X126430723Y-138248223D01*
X126448902Y-138231747D01*
X126468607Y-138217133D01*
X126489651Y-138204520D01*
X126511829Y-138194030D01*
X126534929Y-138185765D01*
X126558727Y-138179804D01*
X126582996Y-138176204D01*
X126607500Y-138175000D01*
X127532500Y-138175000D01*
X127557004Y-138176204D01*
X127557004Y-138176204D01*
G37*
D13*
X127070000Y-139050000D03*
D10*
G36*
X127557004Y-135676204D02*
G01*
X127581273Y-135679804D01*
X127605071Y-135685765D01*
X127628171Y-135694030D01*
X127650349Y-135704520D01*
X127671393Y-135717133D01*
X127691098Y-135731747D01*
X127709277Y-135748223D01*
X127725753Y-135766402D01*
X127740367Y-135786107D01*
X127752980Y-135807151D01*
X127763470Y-135829329D01*
X127771735Y-135852429D01*
X127777696Y-135876227D01*
X127781296Y-135900496D01*
X127782500Y-135925000D01*
X127782500Y-137175000D01*
X127781296Y-137199504D01*
X127777696Y-137223773D01*
X127771735Y-137247571D01*
X127763470Y-137270671D01*
X127752980Y-137292849D01*
X127740367Y-137313893D01*
X127725753Y-137333598D01*
X127709277Y-137351777D01*
X127691098Y-137368253D01*
X127671393Y-137382867D01*
X127650349Y-137395480D01*
X127628171Y-137405970D01*
X127605071Y-137414235D01*
X127581273Y-137420196D01*
X127557004Y-137423796D01*
X127532500Y-137425000D01*
X126607500Y-137425000D01*
X126582996Y-137423796D01*
X126558727Y-137420196D01*
X126534929Y-137414235D01*
X126511829Y-137405970D01*
X126489651Y-137395480D01*
X126468607Y-137382867D01*
X126448902Y-137368253D01*
X126430723Y-137351777D01*
X126414247Y-137333598D01*
X126399633Y-137313893D01*
X126387020Y-137292849D01*
X126376530Y-137270671D01*
X126368265Y-137247571D01*
X126362304Y-137223773D01*
X126358704Y-137199504D01*
X126357500Y-137175000D01*
X126357500Y-135925000D01*
X126358704Y-135900496D01*
X126362304Y-135876227D01*
X126368265Y-135852429D01*
X126376530Y-135829329D01*
X126387020Y-135807151D01*
X126399633Y-135786107D01*
X126414247Y-135766402D01*
X126430723Y-135748223D01*
X126448902Y-135731747D01*
X126468607Y-135717133D01*
X126489651Y-135704520D01*
X126511829Y-135694030D01*
X126534929Y-135685765D01*
X126558727Y-135679804D01*
X126582996Y-135676204D01*
X126607500Y-135675000D01*
X127532500Y-135675000D01*
X127557004Y-135676204D01*
X127557004Y-135676204D01*
G37*
D13*
X127070000Y-136550000D03*
D10*
G36*
X130532004Y-135676204D02*
G01*
X130556273Y-135679804D01*
X130580071Y-135685765D01*
X130603171Y-135694030D01*
X130625349Y-135704520D01*
X130646393Y-135717133D01*
X130666098Y-135731747D01*
X130684277Y-135748223D01*
X130700753Y-135766402D01*
X130715367Y-135786107D01*
X130727980Y-135807151D01*
X130738470Y-135829329D01*
X130746735Y-135852429D01*
X130752696Y-135876227D01*
X130756296Y-135900496D01*
X130757500Y-135925000D01*
X130757500Y-137175000D01*
X130756296Y-137199504D01*
X130752696Y-137223773D01*
X130746735Y-137247571D01*
X130738470Y-137270671D01*
X130727980Y-137292849D01*
X130715367Y-137313893D01*
X130700753Y-137333598D01*
X130684277Y-137351777D01*
X130666098Y-137368253D01*
X130646393Y-137382867D01*
X130625349Y-137395480D01*
X130603171Y-137405970D01*
X130580071Y-137414235D01*
X130556273Y-137420196D01*
X130532004Y-137423796D01*
X130507500Y-137425000D01*
X129582500Y-137425000D01*
X129557996Y-137423796D01*
X129533727Y-137420196D01*
X129509929Y-137414235D01*
X129486829Y-137405970D01*
X129464651Y-137395480D01*
X129443607Y-137382867D01*
X129423902Y-137368253D01*
X129405723Y-137351777D01*
X129389247Y-137333598D01*
X129374633Y-137313893D01*
X129362020Y-137292849D01*
X129351530Y-137270671D01*
X129343265Y-137247571D01*
X129337304Y-137223773D01*
X129333704Y-137199504D01*
X129332500Y-137175000D01*
X129332500Y-135925000D01*
X129333704Y-135900496D01*
X129337304Y-135876227D01*
X129343265Y-135852429D01*
X129351530Y-135829329D01*
X129362020Y-135807151D01*
X129374633Y-135786107D01*
X129389247Y-135766402D01*
X129405723Y-135748223D01*
X129423902Y-135731747D01*
X129443607Y-135717133D01*
X129464651Y-135704520D01*
X129486829Y-135694030D01*
X129509929Y-135685765D01*
X129533727Y-135679804D01*
X129557996Y-135676204D01*
X129582500Y-135675000D01*
X130507500Y-135675000D01*
X130532004Y-135676204D01*
X130532004Y-135676204D01*
G37*
D13*
X130045000Y-136550000D03*
D10*
G36*
X83544504Y-57176204D02*
G01*
X83568773Y-57179804D01*
X83592571Y-57185765D01*
X83615671Y-57194030D01*
X83637849Y-57204520D01*
X83658893Y-57217133D01*
X83678598Y-57231747D01*
X83696777Y-57248223D01*
X83713253Y-57266402D01*
X83727867Y-57286107D01*
X83740480Y-57307151D01*
X83750970Y-57329329D01*
X83759235Y-57352429D01*
X83765196Y-57376227D01*
X83768796Y-57400496D01*
X83770000Y-57425000D01*
X83770000Y-58675000D01*
X83768796Y-58699504D01*
X83765196Y-58723773D01*
X83759235Y-58747571D01*
X83750970Y-58770671D01*
X83740480Y-58792849D01*
X83727867Y-58813893D01*
X83713253Y-58833598D01*
X83696777Y-58851777D01*
X83678598Y-58868253D01*
X83658893Y-58882867D01*
X83637849Y-58895480D01*
X83615671Y-58905970D01*
X83592571Y-58914235D01*
X83568773Y-58920196D01*
X83544504Y-58923796D01*
X83520000Y-58925000D01*
X82595000Y-58925000D01*
X82570496Y-58923796D01*
X82546227Y-58920196D01*
X82522429Y-58914235D01*
X82499329Y-58905970D01*
X82477151Y-58895480D01*
X82456107Y-58882867D01*
X82436402Y-58868253D01*
X82418223Y-58851777D01*
X82401747Y-58833598D01*
X82387133Y-58813893D01*
X82374520Y-58792849D01*
X82364030Y-58770671D01*
X82355765Y-58747571D01*
X82349804Y-58723773D01*
X82346204Y-58699504D01*
X82345000Y-58675000D01*
X82345000Y-57425000D01*
X82346204Y-57400496D01*
X82349804Y-57376227D01*
X82355765Y-57352429D01*
X82364030Y-57329329D01*
X82374520Y-57307151D01*
X82387133Y-57286107D01*
X82401747Y-57266402D01*
X82418223Y-57248223D01*
X82436402Y-57231747D01*
X82456107Y-57217133D01*
X82477151Y-57204520D01*
X82499329Y-57194030D01*
X82522429Y-57185765D01*
X82546227Y-57179804D01*
X82570496Y-57176204D01*
X82595000Y-57175000D01*
X83520000Y-57175000D01*
X83544504Y-57176204D01*
X83544504Y-57176204D01*
G37*
D13*
X83057500Y-58050000D03*
D10*
G36*
X80569504Y-57176204D02*
G01*
X80593773Y-57179804D01*
X80617571Y-57185765D01*
X80640671Y-57194030D01*
X80662849Y-57204520D01*
X80683893Y-57217133D01*
X80703598Y-57231747D01*
X80721777Y-57248223D01*
X80738253Y-57266402D01*
X80752867Y-57286107D01*
X80765480Y-57307151D01*
X80775970Y-57329329D01*
X80784235Y-57352429D01*
X80790196Y-57376227D01*
X80793796Y-57400496D01*
X80795000Y-57425000D01*
X80795000Y-58675000D01*
X80793796Y-58699504D01*
X80790196Y-58723773D01*
X80784235Y-58747571D01*
X80775970Y-58770671D01*
X80765480Y-58792849D01*
X80752867Y-58813893D01*
X80738253Y-58833598D01*
X80721777Y-58851777D01*
X80703598Y-58868253D01*
X80683893Y-58882867D01*
X80662849Y-58895480D01*
X80640671Y-58905970D01*
X80617571Y-58914235D01*
X80593773Y-58920196D01*
X80569504Y-58923796D01*
X80545000Y-58925000D01*
X79620000Y-58925000D01*
X79595496Y-58923796D01*
X79571227Y-58920196D01*
X79547429Y-58914235D01*
X79524329Y-58905970D01*
X79502151Y-58895480D01*
X79481107Y-58882867D01*
X79461402Y-58868253D01*
X79443223Y-58851777D01*
X79426747Y-58833598D01*
X79412133Y-58813893D01*
X79399520Y-58792849D01*
X79389030Y-58770671D01*
X79380765Y-58747571D01*
X79374804Y-58723773D01*
X79371204Y-58699504D01*
X79370000Y-58675000D01*
X79370000Y-57425000D01*
X79371204Y-57400496D01*
X79374804Y-57376227D01*
X79380765Y-57352429D01*
X79389030Y-57329329D01*
X79399520Y-57307151D01*
X79412133Y-57286107D01*
X79426747Y-57266402D01*
X79443223Y-57248223D01*
X79461402Y-57231747D01*
X79481107Y-57217133D01*
X79502151Y-57204520D01*
X79524329Y-57194030D01*
X79547429Y-57185765D01*
X79571227Y-57179804D01*
X79595496Y-57176204D01*
X79620000Y-57175000D01*
X80545000Y-57175000D01*
X80569504Y-57176204D01*
X80569504Y-57176204D01*
G37*
D13*
X80082500Y-58050000D03*
D10*
G36*
X83544504Y-60926204D02*
G01*
X83568773Y-60929804D01*
X83592571Y-60935765D01*
X83615671Y-60944030D01*
X83637849Y-60954520D01*
X83658893Y-60967133D01*
X83678598Y-60981747D01*
X83696777Y-60998223D01*
X83713253Y-61016402D01*
X83727867Y-61036107D01*
X83740480Y-61057151D01*
X83750970Y-61079329D01*
X83759235Y-61102429D01*
X83765196Y-61126227D01*
X83768796Y-61150496D01*
X83770000Y-61175000D01*
X83770000Y-62425000D01*
X83768796Y-62449504D01*
X83765196Y-62473773D01*
X83759235Y-62497571D01*
X83750970Y-62520671D01*
X83740480Y-62542849D01*
X83727867Y-62563893D01*
X83713253Y-62583598D01*
X83696777Y-62601777D01*
X83678598Y-62618253D01*
X83658893Y-62632867D01*
X83637849Y-62645480D01*
X83615671Y-62655970D01*
X83592571Y-62664235D01*
X83568773Y-62670196D01*
X83544504Y-62673796D01*
X83520000Y-62675000D01*
X82595000Y-62675000D01*
X82570496Y-62673796D01*
X82546227Y-62670196D01*
X82522429Y-62664235D01*
X82499329Y-62655970D01*
X82477151Y-62645480D01*
X82456107Y-62632867D01*
X82436402Y-62618253D01*
X82418223Y-62601777D01*
X82401747Y-62583598D01*
X82387133Y-62563893D01*
X82374520Y-62542849D01*
X82364030Y-62520671D01*
X82355765Y-62497571D01*
X82349804Y-62473773D01*
X82346204Y-62449504D01*
X82345000Y-62425000D01*
X82345000Y-61175000D01*
X82346204Y-61150496D01*
X82349804Y-61126227D01*
X82355765Y-61102429D01*
X82364030Y-61079329D01*
X82374520Y-61057151D01*
X82387133Y-61036107D01*
X82401747Y-61016402D01*
X82418223Y-60998223D01*
X82436402Y-60981747D01*
X82456107Y-60967133D01*
X82477151Y-60954520D01*
X82499329Y-60944030D01*
X82522429Y-60935765D01*
X82546227Y-60929804D01*
X82570496Y-60926204D01*
X82595000Y-60925000D01*
X83520000Y-60925000D01*
X83544504Y-60926204D01*
X83544504Y-60926204D01*
G37*
D13*
X83057500Y-61800000D03*
D10*
G36*
X80569504Y-60926204D02*
G01*
X80593773Y-60929804D01*
X80617571Y-60935765D01*
X80640671Y-60944030D01*
X80662849Y-60954520D01*
X80683893Y-60967133D01*
X80703598Y-60981747D01*
X80721777Y-60998223D01*
X80738253Y-61016402D01*
X80752867Y-61036107D01*
X80765480Y-61057151D01*
X80775970Y-61079329D01*
X80784235Y-61102429D01*
X80790196Y-61126227D01*
X80793796Y-61150496D01*
X80795000Y-61175000D01*
X80795000Y-62425000D01*
X80793796Y-62449504D01*
X80790196Y-62473773D01*
X80784235Y-62497571D01*
X80775970Y-62520671D01*
X80765480Y-62542849D01*
X80752867Y-62563893D01*
X80738253Y-62583598D01*
X80721777Y-62601777D01*
X80703598Y-62618253D01*
X80683893Y-62632867D01*
X80662849Y-62645480D01*
X80640671Y-62655970D01*
X80617571Y-62664235D01*
X80593773Y-62670196D01*
X80569504Y-62673796D01*
X80545000Y-62675000D01*
X79620000Y-62675000D01*
X79595496Y-62673796D01*
X79571227Y-62670196D01*
X79547429Y-62664235D01*
X79524329Y-62655970D01*
X79502151Y-62645480D01*
X79481107Y-62632867D01*
X79461402Y-62618253D01*
X79443223Y-62601777D01*
X79426747Y-62583598D01*
X79412133Y-62563893D01*
X79399520Y-62542849D01*
X79389030Y-62520671D01*
X79380765Y-62497571D01*
X79374804Y-62473773D01*
X79371204Y-62449504D01*
X79370000Y-62425000D01*
X79370000Y-61175000D01*
X79371204Y-61150496D01*
X79374804Y-61126227D01*
X79380765Y-61102429D01*
X79389030Y-61079329D01*
X79399520Y-61057151D01*
X79412133Y-61036107D01*
X79426747Y-61016402D01*
X79443223Y-60998223D01*
X79461402Y-60981747D01*
X79481107Y-60967133D01*
X79502151Y-60954520D01*
X79524329Y-60944030D01*
X79547429Y-60935765D01*
X79571227Y-60929804D01*
X79595496Y-60926204D01*
X79620000Y-60925000D01*
X80545000Y-60925000D01*
X80569504Y-60926204D01*
X80569504Y-60926204D01*
G37*
D13*
X80082500Y-61800000D03*
D10*
G36*
X150969504Y-95088704D02*
G01*
X150993773Y-95092304D01*
X151017571Y-95098265D01*
X151040671Y-95106530D01*
X151062849Y-95117020D01*
X151083893Y-95129633D01*
X151103598Y-95144247D01*
X151121777Y-95160723D01*
X151138253Y-95178902D01*
X151152867Y-95198607D01*
X151165480Y-95219651D01*
X151175970Y-95241829D01*
X151184235Y-95264929D01*
X151190196Y-95288727D01*
X151193796Y-95312996D01*
X151195000Y-95337500D01*
X151195000Y-96262500D01*
X151193796Y-96287004D01*
X151190196Y-96311273D01*
X151184235Y-96335071D01*
X151175970Y-96358171D01*
X151165480Y-96380349D01*
X151152867Y-96401393D01*
X151138253Y-96421098D01*
X151121777Y-96439277D01*
X151103598Y-96455753D01*
X151083893Y-96470367D01*
X151062849Y-96482980D01*
X151040671Y-96493470D01*
X151017571Y-96501735D01*
X150993773Y-96507696D01*
X150969504Y-96511296D01*
X150945000Y-96512500D01*
X149695000Y-96512500D01*
X149670496Y-96511296D01*
X149646227Y-96507696D01*
X149622429Y-96501735D01*
X149599329Y-96493470D01*
X149577151Y-96482980D01*
X149556107Y-96470367D01*
X149536402Y-96455753D01*
X149518223Y-96439277D01*
X149501747Y-96421098D01*
X149487133Y-96401393D01*
X149474520Y-96380349D01*
X149464030Y-96358171D01*
X149455765Y-96335071D01*
X149449804Y-96311273D01*
X149446204Y-96287004D01*
X149445000Y-96262500D01*
X149445000Y-95337500D01*
X149446204Y-95312996D01*
X149449804Y-95288727D01*
X149455765Y-95264929D01*
X149464030Y-95241829D01*
X149474520Y-95219651D01*
X149487133Y-95198607D01*
X149501747Y-95178902D01*
X149518223Y-95160723D01*
X149536402Y-95144247D01*
X149556107Y-95129633D01*
X149577151Y-95117020D01*
X149599329Y-95106530D01*
X149622429Y-95098265D01*
X149646227Y-95092304D01*
X149670496Y-95088704D01*
X149695000Y-95087500D01*
X150945000Y-95087500D01*
X150969504Y-95088704D01*
X150969504Y-95088704D01*
G37*
D13*
X150320000Y-95800000D03*
D10*
G36*
X150969504Y-98063704D02*
G01*
X150993773Y-98067304D01*
X151017571Y-98073265D01*
X151040671Y-98081530D01*
X151062849Y-98092020D01*
X151083893Y-98104633D01*
X151103598Y-98119247D01*
X151121777Y-98135723D01*
X151138253Y-98153902D01*
X151152867Y-98173607D01*
X151165480Y-98194651D01*
X151175970Y-98216829D01*
X151184235Y-98239929D01*
X151190196Y-98263727D01*
X151193796Y-98287996D01*
X151195000Y-98312500D01*
X151195000Y-99237500D01*
X151193796Y-99262004D01*
X151190196Y-99286273D01*
X151184235Y-99310071D01*
X151175970Y-99333171D01*
X151165480Y-99355349D01*
X151152867Y-99376393D01*
X151138253Y-99396098D01*
X151121777Y-99414277D01*
X151103598Y-99430753D01*
X151083893Y-99445367D01*
X151062849Y-99457980D01*
X151040671Y-99468470D01*
X151017571Y-99476735D01*
X150993773Y-99482696D01*
X150969504Y-99486296D01*
X150945000Y-99487500D01*
X149695000Y-99487500D01*
X149670496Y-99486296D01*
X149646227Y-99482696D01*
X149622429Y-99476735D01*
X149599329Y-99468470D01*
X149577151Y-99457980D01*
X149556107Y-99445367D01*
X149536402Y-99430753D01*
X149518223Y-99414277D01*
X149501747Y-99396098D01*
X149487133Y-99376393D01*
X149474520Y-99355349D01*
X149464030Y-99333171D01*
X149455765Y-99310071D01*
X149449804Y-99286273D01*
X149446204Y-99262004D01*
X149445000Y-99237500D01*
X149445000Y-98312500D01*
X149446204Y-98287996D01*
X149449804Y-98263727D01*
X149455765Y-98239929D01*
X149464030Y-98216829D01*
X149474520Y-98194651D01*
X149487133Y-98173607D01*
X149501747Y-98153902D01*
X149518223Y-98135723D01*
X149536402Y-98119247D01*
X149556107Y-98104633D01*
X149577151Y-98092020D01*
X149599329Y-98081530D01*
X149622429Y-98073265D01*
X149646227Y-98067304D01*
X149670496Y-98063704D01*
X149695000Y-98062500D01*
X150945000Y-98062500D01*
X150969504Y-98063704D01*
X150969504Y-98063704D01*
G37*
D13*
X150320000Y-98775000D03*
D10*
G36*
X153969504Y-95088704D02*
G01*
X153993773Y-95092304D01*
X154017571Y-95098265D01*
X154040671Y-95106530D01*
X154062849Y-95117020D01*
X154083893Y-95129633D01*
X154103598Y-95144247D01*
X154121777Y-95160723D01*
X154138253Y-95178902D01*
X154152867Y-95198607D01*
X154165480Y-95219651D01*
X154175970Y-95241829D01*
X154184235Y-95264929D01*
X154190196Y-95288727D01*
X154193796Y-95312996D01*
X154195000Y-95337500D01*
X154195000Y-96262500D01*
X154193796Y-96287004D01*
X154190196Y-96311273D01*
X154184235Y-96335071D01*
X154175970Y-96358171D01*
X154165480Y-96380349D01*
X154152867Y-96401393D01*
X154138253Y-96421098D01*
X154121777Y-96439277D01*
X154103598Y-96455753D01*
X154083893Y-96470367D01*
X154062849Y-96482980D01*
X154040671Y-96493470D01*
X154017571Y-96501735D01*
X153993773Y-96507696D01*
X153969504Y-96511296D01*
X153945000Y-96512500D01*
X152695000Y-96512500D01*
X152670496Y-96511296D01*
X152646227Y-96507696D01*
X152622429Y-96501735D01*
X152599329Y-96493470D01*
X152577151Y-96482980D01*
X152556107Y-96470367D01*
X152536402Y-96455753D01*
X152518223Y-96439277D01*
X152501747Y-96421098D01*
X152487133Y-96401393D01*
X152474520Y-96380349D01*
X152464030Y-96358171D01*
X152455765Y-96335071D01*
X152449804Y-96311273D01*
X152446204Y-96287004D01*
X152445000Y-96262500D01*
X152445000Y-95337500D01*
X152446204Y-95312996D01*
X152449804Y-95288727D01*
X152455765Y-95264929D01*
X152464030Y-95241829D01*
X152474520Y-95219651D01*
X152487133Y-95198607D01*
X152501747Y-95178902D01*
X152518223Y-95160723D01*
X152536402Y-95144247D01*
X152556107Y-95129633D01*
X152577151Y-95117020D01*
X152599329Y-95106530D01*
X152622429Y-95098265D01*
X152646227Y-95092304D01*
X152670496Y-95088704D01*
X152695000Y-95087500D01*
X153945000Y-95087500D01*
X153969504Y-95088704D01*
X153969504Y-95088704D01*
G37*
D13*
X153320000Y-95800000D03*
D10*
G36*
X153969504Y-98063704D02*
G01*
X153993773Y-98067304D01*
X154017571Y-98073265D01*
X154040671Y-98081530D01*
X154062849Y-98092020D01*
X154083893Y-98104633D01*
X154103598Y-98119247D01*
X154121777Y-98135723D01*
X154138253Y-98153902D01*
X154152867Y-98173607D01*
X154165480Y-98194651D01*
X154175970Y-98216829D01*
X154184235Y-98239929D01*
X154190196Y-98263727D01*
X154193796Y-98287996D01*
X154195000Y-98312500D01*
X154195000Y-99237500D01*
X154193796Y-99262004D01*
X154190196Y-99286273D01*
X154184235Y-99310071D01*
X154175970Y-99333171D01*
X154165480Y-99355349D01*
X154152867Y-99376393D01*
X154138253Y-99396098D01*
X154121777Y-99414277D01*
X154103598Y-99430753D01*
X154083893Y-99445367D01*
X154062849Y-99457980D01*
X154040671Y-99468470D01*
X154017571Y-99476735D01*
X153993773Y-99482696D01*
X153969504Y-99486296D01*
X153945000Y-99487500D01*
X152695000Y-99487500D01*
X152670496Y-99486296D01*
X152646227Y-99482696D01*
X152622429Y-99476735D01*
X152599329Y-99468470D01*
X152577151Y-99457980D01*
X152556107Y-99445367D01*
X152536402Y-99430753D01*
X152518223Y-99414277D01*
X152501747Y-99396098D01*
X152487133Y-99376393D01*
X152474520Y-99355349D01*
X152464030Y-99333171D01*
X152455765Y-99310071D01*
X152449804Y-99286273D01*
X152446204Y-99262004D01*
X152445000Y-99237500D01*
X152445000Y-98312500D01*
X152446204Y-98287996D01*
X152449804Y-98263727D01*
X152455765Y-98239929D01*
X152464030Y-98216829D01*
X152474520Y-98194651D01*
X152487133Y-98173607D01*
X152501747Y-98153902D01*
X152518223Y-98135723D01*
X152536402Y-98119247D01*
X152556107Y-98104633D01*
X152577151Y-98092020D01*
X152599329Y-98081530D01*
X152622429Y-98073265D01*
X152646227Y-98067304D01*
X152670496Y-98063704D01*
X152695000Y-98062500D01*
X153945000Y-98062500D01*
X153969504Y-98063704D01*
X153969504Y-98063704D01*
G37*
D13*
X153320000Y-98775000D03*
D10*
G36*
X153794504Y-107676204D02*
G01*
X153818773Y-107679804D01*
X153842571Y-107685765D01*
X153865671Y-107694030D01*
X153887849Y-107704520D01*
X153908893Y-107717133D01*
X153928598Y-107731747D01*
X153946777Y-107748223D01*
X153963253Y-107766402D01*
X153977867Y-107786107D01*
X153990480Y-107807151D01*
X154000970Y-107829329D01*
X154009235Y-107852429D01*
X154015196Y-107876227D01*
X154018796Y-107900496D01*
X154020000Y-107925000D01*
X154020000Y-109175000D01*
X154018796Y-109199504D01*
X154015196Y-109223773D01*
X154009235Y-109247571D01*
X154000970Y-109270671D01*
X153990480Y-109292849D01*
X153977867Y-109313893D01*
X153963253Y-109333598D01*
X153946777Y-109351777D01*
X153928598Y-109368253D01*
X153908893Y-109382867D01*
X153887849Y-109395480D01*
X153865671Y-109405970D01*
X153842571Y-109414235D01*
X153818773Y-109420196D01*
X153794504Y-109423796D01*
X153770000Y-109425000D01*
X152845000Y-109425000D01*
X152820496Y-109423796D01*
X152796227Y-109420196D01*
X152772429Y-109414235D01*
X152749329Y-109405970D01*
X152727151Y-109395480D01*
X152706107Y-109382867D01*
X152686402Y-109368253D01*
X152668223Y-109351777D01*
X152651747Y-109333598D01*
X152637133Y-109313893D01*
X152624520Y-109292849D01*
X152614030Y-109270671D01*
X152605765Y-109247571D01*
X152599804Y-109223773D01*
X152596204Y-109199504D01*
X152595000Y-109175000D01*
X152595000Y-107925000D01*
X152596204Y-107900496D01*
X152599804Y-107876227D01*
X152605765Y-107852429D01*
X152614030Y-107829329D01*
X152624520Y-107807151D01*
X152637133Y-107786107D01*
X152651747Y-107766402D01*
X152668223Y-107748223D01*
X152686402Y-107731747D01*
X152706107Y-107717133D01*
X152727151Y-107704520D01*
X152749329Y-107694030D01*
X152772429Y-107685765D01*
X152796227Y-107679804D01*
X152820496Y-107676204D01*
X152845000Y-107675000D01*
X153770000Y-107675000D01*
X153794504Y-107676204D01*
X153794504Y-107676204D01*
G37*
D13*
X153307500Y-108550000D03*
D10*
G36*
X150819504Y-107676204D02*
G01*
X150843773Y-107679804D01*
X150867571Y-107685765D01*
X150890671Y-107694030D01*
X150912849Y-107704520D01*
X150933893Y-107717133D01*
X150953598Y-107731747D01*
X150971777Y-107748223D01*
X150988253Y-107766402D01*
X151002867Y-107786107D01*
X151015480Y-107807151D01*
X151025970Y-107829329D01*
X151034235Y-107852429D01*
X151040196Y-107876227D01*
X151043796Y-107900496D01*
X151045000Y-107925000D01*
X151045000Y-109175000D01*
X151043796Y-109199504D01*
X151040196Y-109223773D01*
X151034235Y-109247571D01*
X151025970Y-109270671D01*
X151015480Y-109292849D01*
X151002867Y-109313893D01*
X150988253Y-109333598D01*
X150971777Y-109351777D01*
X150953598Y-109368253D01*
X150933893Y-109382867D01*
X150912849Y-109395480D01*
X150890671Y-109405970D01*
X150867571Y-109414235D01*
X150843773Y-109420196D01*
X150819504Y-109423796D01*
X150795000Y-109425000D01*
X149870000Y-109425000D01*
X149845496Y-109423796D01*
X149821227Y-109420196D01*
X149797429Y-109414235D01*
X149774329Y-109405970D01*
X149752151Y-109395480D01*
X149731107Y-109382867D01*
X149711402Y-109368253D01*
X149693223Y-109351777D01*
X149676747Y-109333598D01*
X149662133Y-109313893D01*
X149649520Y-109292849D01*
X149639030Y-109270671D01*
X149630765Y-109247571D01*
X149624804Y-109223773D01*
X149621204Y-109199504D01*
X149620000Y-109175000D01*
X149620000Y-107925000D01*
X149621204Y-107900496D01*
X149624804Y-107876227D01*
X149630765Y-107852429D01*
X149639030Y-107829329D01*
X149649520Y-107807151D01*
X149662133Y-107786107D01*
X149676747Y-107766402D01*
X149693223Y-107748223D01*
X149711402Y-107731747D01*
X149731107Y-107717133D01*
X149752151Y-107704520D01*
X149774329Y-107694030D01*
X149797429Y-107685765D01*
X149821227Y-107679804D01*
X149845496Y-107676204D01*
X149870000Y-107675000D01*
X150795000Y-107675000D01*
X150819504Y-107676204D01*
X150819504Y-107676204D01*
G37*
D13*
X150332500Y-108550000D03*
D10*
G36*
X150819504Y-110676204D02*
G01*
X150843773Y-110679804D01*
X150867571Y-110685765D01*
X150890671Y-110694030D01*
X150912849Y-110704520D01*
X150933893Y-110717133D01*
X150953598Y-110731747D01*
X150971777Y-110748223D01*
X150988253Y-110766402D01*
X151002867Y-110786107D01*
X151015480Y-110807151D01*
X151025970Y-110829329D01*
X151034235Y-110852429D01*
X151040196Y-110876227D01*
X151043796Y-110900496D01*
X151045000Y-110925000D01*
X151045000Y-112175000D01*
X151043796Y-112199504D01*
X151040196Y-112223773D01*
X151034235Y-112247571D01*
X151025970Y-112270671D01*
X151015480Y-112292849D01*
X151002867Y-112313893D01*
X150988253Y-112333598D01*
X150971777Y-112351777D01*
X150953598Y-112368253D01*
X150933893Y-112382867D01*
X150912849Y-112395480D01*
X150890671Y-112405970D01*
X150867571Y-112414235D01*
X150843773Y-112420196D01*
X150819504Y-112423796D01*
X150795000Y-112425000D01*
X149870000Y-112425000D01*
X149845496Y-112423796D01*
X149821227Y-112420196D01*
X149797429Y-112414235D01*
X149774329Y-112405970D01*
X149752151Y-112395480D01*
X149731107Y-112382867D01*
X149711402Y-112368253D01*
X149693223Y-112351777D01*
X149676747Y-112333598D01*
X149662133Y-112313893D01*
X149649520Y-112292849D01*
X149639030Y-112270671D01*
X149630765Y-112247571D01*
X149624804Y-112223773D01*
X149621204Y-112199504D01*
X149620000Y-112175000D01*
X149620000Y-110925000D01*
X149621204Y-110900496D01*
X149624804Y-110876227D01*
X149630765Y-110852429D01*
X149639030Y-110829329D01*
X149649520Y-110807151D01*
X149662133Y-110786107D01*
X149676747Y-110766402D01*
X149693223Y-110748223D01*
X149711402Y-110731747D01*
X149731107Y-110717133D01*
X149752151Y-110704520D01*
X149774329Y-110694030D01*
X149797429Y-110685765D01*
X149821227Y-110679804D01*
X149845496Y-110676204D01*
X149870000Y-110675000D01*
X150795000Y-110675000D01*
X150819504Y-110676204D01*
X150819504Y-110676204D01*
G37*
D13*
X150332500Y-111550000D03*
D10*
G36*
X153794504Y-110676204D02*
G01*
X153818773Y-110679804D01*
X153842571Y-110685765D01*
X153865671Y-110694030D01*
X153887849Y-110704520D01*
X153908893Y-110717133D01*
X153928598Y-110731747D01*
X153946777Y-110748223D01*
X153963253Y-110766402D01*
X153977867Y-110786107D01*
X153990480Y-110807151D01*
X154000970Y-110829329D01*
X154009235Y-110852429D01*
X154015196Y-110876227D01*
X154018796Y-110900496D01*
X154020000Y-110925000D01*
X154020000Y-112175000D01*
X154018796Y-112199504D01*
X154015196Y-112223773D01*
X154009235Y-112247571D01*
X154000970Y-112270671D01*
X153990480Y-112292849D01*
X153977867Y-112313893D01*
X153963253Y-112333598D01*
X153946777Y-112351777D01*
X153928598Y-112368253D01*
X153908893Y-112382867D01*
X153887849Y-112395480D01*
X153865671Y-112405970D01*
X153842571Y-112414235D01*
X153818773Y-112420196D01*
X153794504Y-112423796D01*
X153770000Y-112425000D01*
X152845000Y-112425000D01*
X152820496Y-112423796D01*
X152796227Y-112420196D01*
X152772429Y-112414235D01*
X152749329Y-112405970D01*
X152727151Y-112395480D01*
X152706107Y-112382867D01*
X152686402Y-112368253D01*
X152668223Y-112351777D01*
X152651747Y-112333598D01*
X152637133Y-112313893D01*
X152624520Y-112292849D01*
X152614030Y-112270671D01*
X152605765Y-112247571D01*
X152599804Y-112223773D01*
X152596204Y-112199504D01*
X152595000Y-112175000D01*
X152595000Y-110925000D01*
X152596204Y-110900496D01*
X152599804Y-110876227D01*
X152605765Y-110852429D01*
X152614030Y-110829329D01*
X152624520Y-110807151D01*
X152637133Y-110786107D01*
X152651747Y-110766402D01*
X152668223Y-110748223D01*
X152686402Y-110731747D01*
X152706107Y-110717133D01*
X152727151Y-110704520D01*
X152749329Y-110694030D01*
X152772429Y-110685765D01*
X152796227Y-110679804D01*
X152820496Y-110676204D01*
X152845000Y-110675000D01*
X153770000Y-110675000D01*
X153794504Y-110676204D01*
X153794504Y-110676204D01*
G37*
D13*
X153307500Y-111550000D03*
D10*
G36*
X123057004Y-115226204D02*
G01*
X123081273Y-115229804D01*
X123105071Y-115235765D01*
X123128171Y-115244030D01*
X123150349Y-115254520D01*
X123171393Y-115267133D01*
X123191098Y-115281747D01*
X123209277Y-115298223D01*
X123225753Y-115316402D01*
X123240367Y-115336107D01*
X123252980Y-115357151D01*
X123263470Y-115379329D01*
X123271735Y-115402429D01*
X123277696Y-115426227D01*
X123281296Y-115450496D01*
X123282500Y-115475000D01*
X123282500Y-116725000D01*
X123281296Y-116749504D01*
X123277696Y-116773773D01*
X123271735Y-116797571D01*
X123263470Y-116820671D01*
X123252980Y-116842849D01*
X123240367Y-116863893D01*
X123225753Y-116883598D01*
X123209277Y-116901777D01*
X123191098Y-116918253D01*
X123171393Y-116932867D01*
X123150349Y-116945480D01*
X123128171Y-116955970D01*
X123105071Y-116964235D01*
X123081273Y-116970196D01*
X123057004Y-116973796D01*
X123032500Y-116975000D01*
X122107500Y-116975000D01*
X122082996Y-116973796D01*
X122058727Y-116970196D01*
X122034929Y-116964235D01*
X122011829Y-116955970D01*
X121989651Y-116945480D01*
X121968607Y-116932867D01*
X121948902Y-116918253D01*
X121930723Y-116901777D01*
X121914247Y-116883598D01*
X121899633Y-116863893D01*
X121887020Y-116842849D01*
X121876530Y-116820671D01*
X121868265Y-116797571D01*
X121862304Y-116773773D01*
X121858704Y-116749504D01*
X121857500Y-116725000D01*
X121857500Y-115475000D01*
X121858704Y-115450496D01*
X121862304Y-115426227D01*
X121868265Y-115402429D01*
X121876530Y-115379329D01*
X121887020Y-115357151D01*
X121899633Y-115336107D01*
X121914247Y-115316402D01*
X121930723Y-115298223D01*
X121948902Y-115281747D01*
X121968607Y-115267133D01*
X121989651Y-115254520D01*
X122011829Y-115244030D01*
X122034929Y-115235765D01*
X122058727Y-115229804D01*
X122082996Y-115226204D01*
X122107500Y-115225000D01*
X123032500Y-115225000D01*
X123057004Y-115226204D01*
X123057004Y-115226204D01*
G37*
D13*
X122570000Y-116100000D03*
D10*
G36*
X120082004Y-115226204D02*
G01*
X120106273Y-115229804D01*
X120130071Y-115235765D01*
X120153171Y-115244030D01*
X120175349Y-115254520D01*
X120196393Y-115267133D01*
X120216098Y-115281747D01*
X120234277Y-115298223D01*
X120250753Y-115316402D01*
X120265367Y-115336107D01*
X120277980Y-115357151D01*
X120288470Y-115379329D01*
X120296735Y-115402429D01*
X120302696Y-115426227D01*
X120306296Y-115450496D01*
X120307500Y-115475000D01*
X120307500Y-116725000D01*
X120306296Y-116749504D01*
X120302696Y-116773773D01*
X120296735Y-116797571D01*
X120288470Y-116820671D01*
X120277980Y-116842849D01*
X120265367Y-116863893D01*
X120250753Y-116883598D01*
X120234277Y-116901777D01*
X120216098Y-116918253D01*
X120196393Y-116932867D01*
X120175349Y-116945480D01*
X120153171Y-116955970D01*
X120130071Y-116964235D01*
X120106273Y-116970196D01*
X120082004Y-116973796D01*
X120057500Y-116975000D01*
X119132500Y-116975000D01*
X119107996Y-116973796D01*
X119083727Y-116970196D01*
X119059929Y-116964235D01*
X119036829Y-116955970D01*
X119014651Y-116945480D01*
X118993607Y-116932867D01*
X118973902Y-116918253D01*
X118955723Y-116901777D01*
X118939247Y-116883598D01*
X118924633Y-116863893D01*
X118912020Y-116842849D01*
X118901530Y-116820671D01*
X118893265Y-116797571D01*
X118887304Y-116773773D01*
X118883704Y-116749504D01*
X118882500Y-116725000D01*
X118882500Y-115475000D01*
X118883704Y-115450496D01*
X118887304Y-115426227D01*
X118893265Y-115402429D01*
X118901530Y-115379329D01*
X118912020Y-115357151D01*
X118924633Y-115336107D01*
X118939247Y-115316402D01*
X118955723Y-115298223D01*
X118973902Y-115281747D01*
X118993607Y-115267133D01*
X119014651Y-115254520D01*
X119036829Y-115244030D01*
X119059929Y-115235765D01*
X119083727Y-115229804D01*
X119107996Y-115226204D01*
X119132500Y-115225000D01*
X120057500Y-115225000D01*
X120082004Y-115226204D01*
X120082004Y-115226204D01*
G37*
D13*
X119595000Y-116100000D03*
D10*
G36*
X121782004Y-92476204D02*
G01*
X121806273Y-92479804D01*
X121830071Y-92485765D01*
X121853171Y-92494030D01*
X121875349Y-92504520D01*
X121896393Y-92517133D01*
X121916098Y-92531747D01*
X121934277Y-92548223D01*
X121950753Y-92566402D01*
X121965367Y-92586107D01*
X121977980Y-92607151D01*
X121988470Y-92629329D01*
X121996735Y-92652429D01*
X122002696Y-92676227D01*
X122006296Y-92700496D01*
X122007500Y-92725000D01*
X122007500Y-93975000D01*
X122006296Y-93999504D01*
X122002696Y-94023773D01*
X121996735Y-94047571D01*
X121988470Y-94070671D01*
X121977980Y-94092849D01*
X121965367Y-94113893D01*
X121950753Y-94133598D01*
X121934277Y-94151777D01*
X121916098Y-94168253D01*
X121896393Y-94182867D01*
X121875349Y-94195480D01*
X121853171Y-94205970D01*
X121830071Y-94214235D01*
X121806273Y-94220196D01*
X121782004Y-94223796D01*
X121757500Y-94225000D01*
X120832500Y-94225000D01*
X120807996Y-94223796D01*
X120783727Y-94220196D01*
X120759929Y-94214235D01*
X120736829Y-94205970D01*
X120714651Y-94195480D01*
X120693607Y-94182867D01*
X120673902Y-94168253D01*
X120655723Y-94151777D01*
X120639247Y-94133598D01*
X120624633Y-94113893D01*
X120612020Y-94092849D01*
X120601530Y-94070671D01*
X120593265Y-94047571D01*
X120587304Y-94023773D01*
X120583704Y-93999504D01*
X120582500Y-93975000D01*
X120582500Y-92725000D01*
X120583704Y-92700496D01*
X120587304Y-92676227D01*
X120593265Y-92652429D01*
X120601530Y-92629329D01*
X120612020Y-92607151D01*
X120624633Y-92586107D01*
X120639247Y-92566402D01*
X120655723Y-92548223D01*
X120673902Y-92531747D01*
X120693607Y-92517133D01*
X120714651Y-92504520D01*
X120736829Y-92494030D01*
X120759929Y-92485765D01*
X120783727Y-92479804D01*
X120807996Y-92476204D01*
X120832500Y-92475000D01*
X121757500Y-92475000D01*
X121782004Y-92476204D01*
X121782004Y-92476204D01*
G37*
D13*
X121295000Y-93350000D03*
D10*
G36*
X118807004Y-92476204D02*
G01*
X118831273Y-92479804D01*
X118855071Y-92485765D01*
X118878171Y-92494030D01*
X118900349Y-92504520D01*
X118921393Y-92517133D01*
X118941098Y-92531747D01*
X118959277Y-92548223D01*
X118975753Y-92566402D01*
X118990367Y-92586107D01*
X119002980Y-92607151D01*
X119013470Y-92629329D01*
X119021735Y-92652429D01*
X119027696Y-92676227D01*
X119031296Y-92700496D01*
X119032500Y-92725000D01*
X119032500Y-93975000D01*
X119031296Y-93999504D01*
X119027696Y-94023773D01*
X119021735Y-94047571D01*
X119013470Y-94070671D01*
X119002980Y-94092849D01*
X118990367Y-94113893D01*
X118975753Y-94133598D01*
X118959277Y-94151777D01*
X118941098Y-94168253D01*
X118921393Y-94182867D01*
X118900349Y-94195480D01*
X118878171Y-94205970D01*
X118855071Y-94214235D01*
X118831273Y-94220196D01*
X118807004Y-94223796D01*
X118782500Y-94225000D01*
X117857500Y-94225000D01*
X117832996Y-94223796D01*
X117808727Y-94220196D01*
X117784929Y-94214235D01*
X117761829Y-94205970D01*
X117739651Y-94195480D01*
X117718607Y-94182867D01*
X117698902Y-94168253D01*
X117680723Y-94151777D01*
X117664247Y-94133598D01*
X117649633Y-94113893D01*
X117637020Y-94092849D01*
X117626530Y-94070671D01*
X117618265Y-94047571D01*
X117612304Y-94023773D01*
X117608704Y-93999504D01*
X117607500Y-93975000D01*
X117607500Y-92725000D01*
X117608704Y-92700496D01*
X117612304Y-92676227D01*
X117618265Y-92652429D01*
X117626530Y-92629329D01*
X117637020Y-92607151D01*
X117649633Y-92586107D01*
X117664247Y-92566402D01*
X117680723Y-92548223D01*
X117698902Y-92531747D01*
X117718607Y-92517133D01*
X117739651Y-92504520D01*
X117761829Y-92494030D01*
X117784929Y-92485765D01*
X117808727Y-92479804D01*
X117832996Y-92476204D01*
X117857500Y-92475000D01*
X118782500Y-92475000D01*
X118807004Y-92476204D01*
X118807004Y-92476204D01*
G37*
D13*
X118320000Y-93350000D03*
D10*
G36*
X118807004Y-95476204D02*
G01*
X118831273Y-95479804D01*
X118855071Y-95485765D01*
X118878171Y-95494030D01*
X118900349Y-95504520D01*
X118921393Y-95517133D01*
X118941098Y-95531747D01*
X118959277Y-95548223D01*
X118975753Y-95566402D01*
X118990367Y-95586107D01*
X119002980Y-95607151D01*
X119013470Y-95629329D01*
X119021735Y-95652429D01*
X119027696Y-95676227D01*
X119031296Y-95700496D01*
X119032500Y-95725000D01*
X119032500Y-96975000D01*
X119031296Y-96999504D01*
X119027696Y-97023773D01*
X119021735Y-97047571D01*
X119013470Y-97070671D01*
X119002980Y-97092849D01*
X118990367Y-97113893D01*
X118975753Y-97133598D01*
X118959277Y-97151777D01*
X118941098Y-97168253D01*
X118921393Y-97182867D01*
X118900349Y-97195480D01*
X118878171Y-97205970D01*
X118855071Y-97214235D01*
X118831273Y-97220196D01*
X118807004Y-97223796D01*
X118782500Y-97225000D01*
X117857500Y-97225000D01*
X117832996Y-97223796D01*
X117808727Y-97220196D01*
X117784929Y-97214235D01*
X117761829Y-97205970D01*
X117739651Y-97195480D01*
X117718607Y-97182867D01*
X117698902Y-97168253D01*
X117680723Y-97151777D01*
X117664247Y-97133598D01*
X117649633Y-97113893D01*
X117637020Y-97092849D01*
X117626530Y-97070671D01*
X117618265Y-97047571D01*
X117612304Y-97023773D01*
X117608704Y-96999504D01*
X117607500Y-96975000D01*
X117607500Y-95725000D01*
X117608704Y-95700496D01*
X117612304Y-95676227D01*
X117618265Y-95652429D01*
X117626530Y-95629329D01*
X117637020Y-95607151D01*
X117649633Y-95586107D01*
X117664247Y-95566402D01*
X117680723Y-95548223D01*
X117698902Y-95531747D01*
X117718607Y-95517133D01*
X117739651Y-95504520D01*
X117761829Y-95494030D01*
X117784929Y-95485765D01*
X117808727Y-95479804D01*
X117832996Y-95476204D01*
X117857500Y-95475000D01*
X118782500Y-95475000D01*
X118807004Y-95476204D01*
X118807004Y-95476204D01*
G37*
D13*
X118320000Y-96350000D03*
D10*
G36*
X121782004Y-95476204D02*
G01*
X121806273Y-95479804D01*
X121830071Y-95485765D01*
X121853171Y-95494030D01*
X121875349Y-95504520D01*
X121896393Y-95517133D01*
X121916098Y-95531747D01*
X121934277Y-95548223D01*
X121950753Y-95566402D01*
X121965367Y-95586107D01*
X121977980Y-95607151D01*
X121988470Y-95629329D01*
X121996735Y-95652429D01*
X122002696Y-95676227D01*
X122006296Y-95700496D01*
X122007500Y-95725000D01*
X122007500Y-96975000D01*
X122006296Y-96999504D01*
X122002696Y-97023773D01*
X121996735Y-97047571D01*
X121988470Y-97070671D01*
X121977980Y-97092849D01*
X121965367Y-97113893D01*
X121950753Y-97133598D01*
X121934277Y-97151777D01*
X121916098Y-97168253D01*
X121896393Y-97182867D01*
X121875349Y-97195480D01*
X121853171Y-97205970D01*
X121830071Y-97214235D01*
X121806273Y-97220196D01*
X121782004Y-97223796D01*
X121757500Y-97225000D01*
X120832500Y-97225000D01*
X120807996Y-97223796D01*
X120783727Y-97220196D01*
X120759929Y-97214235D01*
X120736829Y-97205970D01*
X120714651Y-97195480D01*
X120693607Y-97182867D01*
X120673902Y-97168253D01*
X120655723Y-97151777D01*
X120639247Y-97133598D01*
X120624633Y-97113893D01*
X120612020Y-97092849D01*
X120601530Y-97070671D01*
X120593265Y-97047571D01*
X120587304Y-97023773D01*
X120583704Y-96999504D01*
X120582500Y-96975000D01*
X120582500Y-95725000D01*
X120583704Y-95700496D01*
X120587304Y-95676227D01*
X120593265Y-95652429D01*
X120601530Y-95629329D01*
X120612020Y-95607151D01*
X120624633Y-95586107D01*
X120639247Y-95566402D01*
X120655723Y-95548223D01*
X120673902Y-95531747D01*
X120693607Y-95517133D01*
X120714651Y-95504520D01*
X120736829Y-95494030D01*
X120759929Y-95485765D01*
X120783727Y-95479804D01*
X120807996Y-95476204D01*
X120832500Y-95475000D01*
X121757500Y-95475000D01*
X121782004Y-95476204D01*
X121782004Y-95476204D01*
G37*
D13*
X121295000Y-96350000D03*
D10*
G36*
X156969504Y-98076204D02*
G01*
X156993773Y-98079804D01*
X157017571Y-98085765D01*
X157040671Y-98094030D01*
X157062849Y-98104520D01*
X157083893Y-98117133D01*
X157103598Y-98131747D01*
X157121777Y-98148223D01*
X157138253Y-98166402D01*
X157152867Y-98186107D01*
X157165480Y-98207151D01*
X157175970Y-98229329D01*
X157184235Y-98252429D01*
X157190196Y-98276227D01*
X157193796Y-98300496D01*
X157195000Y-98325000D01*
X157195000Y-99250000D01*
X157193796Y-99274504D01*
X157190196Y-99298773D01*
X157184235Y-99322571D01*
X157175970Y-99345671D01*
X157165480Y-99367849D01*
X157152867Y-99388893D01*
X157138253Y-99408598D01*
X157121777Y-99426777D01*
X157103598Y-99443253D01*
X157083893Y-99457867D01*
X157062849Y-99470480D01*
X157040671Y-99480970D01*
X157017571Y-99489235D01*
X156993773Y-99495196D01*
X156969504Y-99498796D01*
X156945000Y-99500000D01*
X155695000Y-99500000D01*
X155670496Y-99498796D01*
X155646227Y-99495196D01*
X155622429Y-99489235D01*
X155599329Y-99480970D01*
X155577151Y-99470480D01*
X155556107Y-99457867D01*
X155536402Y-99443253D01*
X155518223Y-99426777D01*
X155501747Y-99408598D01*
X155487133Y-99388893D01*
X155474520Y-99367849D01*
X155464030Y-99345671D01*
X155455765Y-99322571D01*
X155449804Y-99298773D01*
X155446204Y-99274504D01*
X155445000Y-99250000D01*
X155445000Y-98325000D01*
X155446204Y-98300496D01*
X155449804Y-98276227D01*
X155455765Y-98252429D01*
X155464030Y-98229329D01*
X155474520Y-98207151D01*
X155487133Y-98186107D01*
X155501747Y-98166402D01*
X155518223Y-98148223D01*
X155536402Y-98131747D01*
X155556107Y-98117133D01*
X155577151Y-98104520D01*
X155599329Y-98094030D01*
X155622429Y-98085765D01*
X155646227Y-98079804D01*
X155670496Y-98076204D01*
X155695000Y-98075000D01*
X156945000Y-98075000D01*
X156969504Y-98076204D01*
X156969504Y-98076204D01*
G37*
D13*
X156320000Y-98787500D03*
D10*
G36*
X156969504Y-95101204D02*
G01*
X156993773Y-95104804D01*
X157017571Y-95110765D01*
X157040671Y-95119030D01*
X157062849Y-95129520D01*
X157083893Y-95142133D01*
X157103598Y-95156747D01*
X157121777Y-95173223D01*
X157138253Y-95191402D01*
X157152867Y-95211107D01*
X157165480Y-95232151D01*
X157175970Y-95254329D01*
X157184235Y-95277429D01*
X157190196Y-95301227D01*
X157193796Y-95325496D01*
X157195000Y-95350000D01*
X157195000Y-96275000D01*
X157193796Y-96299504D01*
X157190196Y-96323773D01*
X157184235Y-96347571D01*
X157175970Y-96370671D01*
X157165480Y-96392849D01*
X157152867Y-96413893D01*
X157138253Y-96433598D01*
X157121777Y-96451777D01*
X157103598Y-96468253D01*
X157083893Y-96482867D01*
X157062849Y-96495480D01*
X157040671Y-96505970D01*
X157017571Y-96514235D01*
X156993773Y-96520196D01*
X156969504Y-96523796D01*
X156945000Y-96525000D01*
X155695000Y-96525000D01*
X155670496Y-96523796D01*
X155646227Y-96520196D01*
X155622429Y-96514235D01*
X155599329Y-96505970D01*
X155577151Y-96495480D01*
X155556107Y-96482867D01*
X155536402Y-96468253D01*
X155518223Y-96451777D01*
X155501747Y-96433598D01*
X155487133Y-96413893D01*
X155474520Y-96392849D01*
X155464030Y-96370671D01*
X155455765Y-96347571D01*
X155449804Y-96323773D01*
X155446204Y-96299504D01*
X155445000Y-96275000D01*
X155445000Y-95350000D01*
X155446204Y-95325496D01*
X155449804Y-95301227D01*
X155455765Y-95277429D01*
X155464030Y-95254329D01*
X155474520Y-95232151D01*
X155487133Y-95211107D01*
X155501747Y-95191402D01*
X155518223Y-95173223D01*
X155536402Y-95156747D01*
X155556107Y-95142133D01*
X155577151Y-95129520D01*
X155599329Y-95119030D01*
X155622429Y-95110765D01*
X155646227Y-95104804D01*
X155670496Y-95101204D01*
X155695000Y-95100000D01*
X156945000Y-95100000D01*
X156969504Y-95101204D01*
X156969504Y-95101204D01*
G37*
D13*
X156320000Y-95812500D03*
D10*
G36*
X105469504Y-147326204D02*
G01*
X105493773Y-147329804D01*
X105517571Y-147335765D01*
X105540671Y-147344030D01*
X105562849Y-147354520D01*
X105583893Y-147367133D01*
X105603598Y-147381747D01*
X105621777Y-147398223D01*
X105638253Y-147416402D01*
X105652867Y-147436107D01*
X105665480Y-147457151D01*
X105675970Y-147479329D01*
X105684235Y-147502429D01*
X105690196Y-147526227D01*
X105693796Y-147550496D01*
X105695000Y-147575000D01*
X105695000Y-148500000D01*
X105693796Y-148524504D01*
X105690196Y-148548773D01*
X105684235Y-148572571D01*
X105675970Y-148595671D01*
X105665480Y-148617849D01*
X105652867Y-148638893D01*
X105638253Y-148658598D01*
X105621777Y-148676777D01*
X105603598Y-148693253D01*
X105583893Y-148707867D01*
X105562849Y-148720480D01*
X105540671Y-148730970D01*
X105517571Y-148739235D01*
X105493773Y-148745196D01*
X105469504Y-148748796D01*
X105445000Y-148750000D01*
X104195000Y-148750000D01*
X104170496Y-148748796D01*
X104146227Y-148745196D01*
X104122429Y-148739235D01*
X104099329Y-148730970D01*
X104077151Y-148720480D01*
X104056107Y-148707867D01*
X104036402Y-148693253D01*
X104018223Y-148676777D01*
X104001747Y-148658598D01*
X103987133Y-148638893D01*
X103974520Y-148617849D01*
X103964030Y-148595671D01*
X103955765Y-148572571D01*
X103949804Y-148548773D01*
X103946204Y-148524504D01*
X103945000Y-148500000D01*
X103945000Y-147575000D01*
X103946204Y-147550496D01*
X103949804Y-147526227D01*
X103955765Y-147502429D01*
X103964030Y-147479329D01*
X103974520Y-147457151D01*
X103987133Y-147436107D01*
X104001747Y-147416402D01*
X104018223Y-147398223D01*
X104036402Y-147381747D01*
X104056107Y-147367133D01*
X104077151Y-147354520D01*
X104099329Y-147344030D01*
X104122429Y-147335765D01*
X104146227Y-147329804D01*
X104170496Y-147326204D01*
X104195000Y-147325000D01*
X105445000Y-147325000D01*
X105469504Y-147326204D01*
X105469504Y-147326204D01*
G37*
D13*
X104820000Y-148037500D03*
D10*
G36*
X105469504Y-144351204D02*
G01*
X105493773Y-144354804D01*
X105517571Y-144360765D01*
X105540671Y-144369030D01*
X105562849Y-144379520D01*
X105583893Y-144392133D01*
X105603598Y-144406747D01*
X105621777Y-144423223D01*
X105638253Y-144441402D01*
X105652867Y-144461107D01*
X105665480Y-144482151D01*
X105675970Y-144504329D01*
X105684235Y-144527429D01*
X105690196Y-144551227D01*
X105693796Y-144575496D01*
X105695000Y-144600000D01*
X105695000Y-145525000D01*
X105693796Y-145549504D01*
X105690196Y-145573773D01*
X105684235Y-145597571D01*
X105675970Y-145620671D01*
X105665480Y-145642849D01*
X105652867Y-145663893D01*
X105638253Y-145683598D01*
X105621777Y-145701777D01*
X105603598Y-145718253D01*
X105583893Y-145732867D01*
X105562849Y-145745480D01*
X105540671Y-145755970D01*
X105517571Y-145764235D01*
X105493773Y-145770196D01*
X105469504Y-145773796D01*
X105445000Y-145775000D01*
X104195000Y-145775000D01*
X104170496Y-145773796D01*
X104146227Y-145770196D01*
X104122429Y-145764235D01*
X104099329Y-145755970D01*
X104077151Y-145745480D01*
X104056107Y-145732867D01*
X104036402Y-145718253D01*
X104018223Y-145701777D01*
X104001747Y-145683598D01*
X103987133Y-145663893D01*
X103974520Y-145642849D01*
X103964030Y-145620671D01*
X103955765Y-145597571D01*
X103949804Y-145573773D01*
X103946204Y-145549504D01*
X103945000Y-145525000D01*
X103945000Y-144600000D01*
X103946204Y-144575496D01*
X103949804Y-144551227D01*
X103955765Y-144527429D01*
X103964030Y-144504329D01*
X103974520Y-144482151D01*
X103987133Y-144461107D01*
X104001747Y-144441402D01*
X104018223Y-144423223D01*
X104036402Y-144406747D01*
X104056107Y-144392133D01*
X104077151Y-144379520D01*
X104099329Y-144369030D01*
X104122429Y-144360765D01*
X104146227Y-144354804D01*
X104170496Y-144351204D01*
X104195000Y-144350000D01*
X105445000Y-144350000D01*
X105469504Y-144351204D01*
X105469504Y-144351204D01*
G37*
D13*
X104820000Y-145062500D03*
D10*
G36*
X133719504Y-138338704D02*
G01*
X133743773Y-138342304D01*
X133767571Y-138348265D01*
X133790671Y-138356530D01*
X133812849Y-138367020D01*
X133833893Y-138379633D01*
X133853598Y-138394247D01*
X133871777Y-138410723D01*
X133888253Y-138428902D01*
X133902867Y-138448607D01*
X133915480Y-138469651D01*
X133925970Y-138491829D01*
X133934235Y-138514929D01*
X133940196Y-138538727D01*
X133943796Y-138562996D01*
X133945000Y-138587500D01*
X133945000Y-139512500D01*
X133943796Y-139537004D01*
X133940196Y-139561273D01*
X133934235Y-139585071D01*
X133925970Y-139608171D01*
X133915480Y-139630349D01*
X133902867Y-139651393D01*
X133888253Y-139671098D01*
X133871777Y-139689277D01*
X133853598Y-139705753D01*
X133833893Y-139720367D01*
X133812849Y-139732980D01*
X133790671Y-139743470D01*
X133767571Y-139751735D01*
X133743773Y-139757696D01*
X133719504Y-139761296D01*
X133695000Y-139762500D01*
X132445000Y-139762500D01*
X132420496Y-139761296D01*
X132396227Y-139757696D01*
X132372429Y-139751735D01*
X132349329Y-139743470D01*
X132327151Y-139732980D01*
X132306107Y-139720367D01*
X132286402Y-139705753D01*
X132268223Y-139689277D01*
X132251747Y-139671098D01*
X132237133Y-139651393D01*
X132224520Y-139630349D01*
X132214030Y-139608171D01*
X132205765Y-139585071D01*
X132199804Y-139561273D01*
X132196204Y-139537004D01*
X132195000Y-139512500D01*
X132195000Y-138587500D01*
X132196204Y-138562996D01*
X132199804Y-138538727D01*
X132205765Y-138514929D01*
X132214030Y-138491829D01*
X132224520Y-138469651D01*
X132237133Y-138448607D01*
X132251747Y-138428902D01*
X132268223Y-138410723D01*
X132286402Y-138394247D01*
X132306107Y-138379633D01*
X132327151Y-138367020D01*
X132349329Y-138356530D01*
X132372429Y-138348265D01*
X132396227Y-138342304D01*
X132420496Y-138338704D01*
X132445000Y-138337500D01*
X133695000Y-138337500D01*
X133719504Y-138338704D01*
X133719504Y-138338704D01*
G37*
D13*
X133070000Y-139050000D03*
D10*
G36*
X133719504Y-135363704D02*
G01*
X133743773Y-135367304D01*
X133767571Y-135373265D01*
X133790671Y-135381530D01*
X133812849Y-135392020D01*
X133833893Y-135404633D01*
X133853598Y-135419247D01*
X133871777Y-135435723D01*
X133888253Y-135453902D01*
X133902867Y-135473607D01*
X133915480Y-135494651D01*
X133925970Y-135516829D01*
X133934235Y-135539929D01*
X133940196Y-135563727D01*
X133943796Y-135587996D01*
X133945000Y-135612500D01*
X133945000Y-136537500D01*
X133943796Y-136562004D01*
X133940196Y-136586273D01*
X133934235Y-136610071D01*
X133925970Y-136633171D01*
X133915480Y-136655349D01*
X133902867Y-136676393D01*
X133888253Y-136696098D01*
X133871777Y-136714277D01*
X133853598Y-136730753D01*
X133833893Y-136745367D01*
X133812849Y-136757980D01*
X133790671Y-136768470D01*
X133767571Y-136776735D01*
X133743773Y-136782696D01*
X133719504Y-136786296D01*
X133695000Y-136787500D01*
X132445000Y-136787500D01*
X132420496Y-136786296D01*
X132396227Y-136782696D01*
X132372429Y-136776735D01*
X132349329Y-136768470D01*
X132327151Y-136757980D01*
X132306107Y-136745367D01*
X132286402Y-136730753D01*
X132268223Y-136714277D01*
X132251747Y-136696098D01*
X132237133Y-136676393D01*
X132224520Y-136655349D01*
X132214030Y-136633171D01*
X132205765Y-136610071D01*
X132199804Y-136586273D01*
X132196204Y-136562004D01*
X132195000Y-136537500D01*
X132195000Y-135612500D01*
X132196204Y-135587996D01*
X132199804Y-135563727D01*
X132205765Y-135539929D01*
X132214030Y-135516829D01*
X132224520Y-135494651D01*
X132237133Y-135473607D01*
X132251747Y-135453902D01*
X132268223Y-135435723D01*
X132286402Y-135419247D01*
X132306107Y-135404633D01*
X132327151Y-135392020D01*
X132349329Y-135381530D01*
X132372429Y-135373265D01*
X132396227Y-135367304D01*
X132420496Y-135363704D01*
X132445000Y-135362500D01*
X133695000Y-135362500D01*
X133719504Y-135363704D01*
X133719504Y-135363704D01*
G37*
D13*
X133070000Y-136075000D03*
D10*
G36*
X133719504Y-128863704D02*
G01*
X133743773Y-128867304D01*
X133767571Y-128873265D01*
X133790671Y-128881530D01*
X133812849Y-128892020D01*
X133833893Y-128904633D01*
X133853598Y-128919247D01*
X133871777Y-128935723D01*
X133888253Y-128953902D01*
X133902867Y-128973607D01*
X133915480Y-128994651D01*
X133925970Y-129016829D01*
X133934235Y-129039929D01*
X133940196Y-129063727D01*
X133943796Y-129087996D01*
X133945000Y-129112500D01*
X133945000Y-130037500D01*
X133943796Y-130062004D01*
X133940196Y-130086273D01*
X133934235Y-130110071D01*
X133925970Y-130133171D01*
X133915480Y-130155349D01*
X133902867Y-130176393D01*
X133888253Y-130196098D01*
X133871777Y-130214277D01*
X133853598Y-130230753D01*
X133833893Y-130245367D01*
X133812849Y-130257980D01*
X133790671Y-130268470D01*
X133767571Y-130276735D01*
X133743773Y-130282696D01*
X133719504Y-130286296D01*
X133695000Y-130287500D01*
X132445000Y-130287500D01*
X132420496Y-130286296D01*
X132396227Y-130282696D01*
X132372429Y-130276735D01*
X132349329Y-130268470D01*
X132327151Y-130257980D01*
X132306107Y-130245367D01*
X132286402Y-130230753D01*
X132268223Y-130214277D01*
X132251747Y-130196098D01*
X132237133Y-130176393D01*
X132224520Y-130155349D01*
X132214030Y-130133171D01*
X132205765Y-130110071D01*
X132199804Y-130086273D01*
X132196204Y-130062004D01*
X132195000Y-130037500D01*
X132195000Y-129112500D01*
X132196204Y-129087996D01*
X132199804Y-129063727D01*
X132205765Y-129039929D01*
X132214030Y-129016829D01*
X132224520Y-128994651D01*
X132237133Y-128973607D01*
X132251747Y-128953902D01*
X132268223Y-128935723D01*
X132286402Y-128919247D01*
X132306107Y-128904633D01*
X132327151Y-128892020D01*
X132349329Y-128881530D01*
X132372429Y-128873265D01*
X132396227Y-128867304D01*
X132420496Y-128863704D01*
X132445000Y-128862500D01*
X133695000Y-128862500D01*
X133719504Y-128863704D01*
X133719504Y-128863704D01*
G37*
D13*
X133070000Y-129575000D03*
D10*
G36*
X133719504Y-131838704D02*
G01*
X133743773Y-131842304D01*
X133767571Y-131848265D01*
X133790671Y-131856530D01*
X133812849Y-131867020D01*
X133833893Y-131879633D01*
X133853598Y-131894247D01*
X133871777Y-131910723D01*
X133888253Y-131928902D01*
X133902867Y-131948607D01*
X133915480Y-131969651D01*
X133925970Y-131991829D01*
X133934235Y-132014929D01*
X133940196Y-132038727D01*
X133943796Y-132062996D01*
X133945000Y-132087500D01*
X133945000Y-133012500D01*
X133943796Y-133037004D01*
X133940196Y-133061273D01*
X133934235Y-133085071D01*
X133925970Y-133108171D01*
X133915480Y-133130349D01*
X133902867Y-133151393D01*
X133888253Y-133171098D01*
X133871777Y-133189277D01*
X133853598Y-133205753D01*
X133833893Y-133220367D01*
X133812849Y-133232980D01*
X133790671Y-133243470D01*
X133767571Y-133251735D01*
X133743773Y-133257696D01*
X133719504Y-133261296D01*
X133695000Y-133262500D01*
X132445000Y-133262500D01*
X132420496Y-133261296D01*
X132396227Y-133257696D01*
X132372429Y-133251735D01*
X132349329Y-133243470D01*
X132327151Y-133232980D01*
X132306107Y-133220367D01*
X132286402Y-133205753D01*
X132268223Y-133189277D01*
X132251747Y-133171098D01*
X132237133Y-133151393D01*
X132224520Y-133130349D01*
X132214030Y-133108171D01*
X132205765Y-133085071D01*
X132199804Y-133061273D01*
X132196204Y-133037004D01*
X132195000Y-133012500D01*
X132195000Y-132087500D01*
X132196204Y-132062996D01*
X132199804Y-132038727D01*
X132205765Y-132014929D01*
X132214030Y-131991829D01*
X132224520Y-131969651D01*
X132237133Y-131948607D01*
X132251747Y-131928902D01*
X132268223Y-131910723D01*
X132286402Y-131894247D01*
X132306107Y-131879633D01*
X132327151Y-131867020D01*
X132349329Y-131856530D01*
X132372429Y-131848265D01*
X132396227Y-131842304D01*
X132420496Y-131838704D01*
X132445000Y-131837500D01*
X133695000Y-131837500D01*
X133719504Y-131838704D01*
X133719504Y-131838704D01*
G37*
D13*
X133070000Y-132550000D03*
D10*
G36*
X127557004Y-129676204D02*
G01*
X127581273Y-129679804D01*
X127605071Y-129685765D01*
X127628171Y-129694030D01*
X127650349Y-129704520D01*
X127671393Y-129717133D01*
X127691098Y-129731747D01*
X127709277Y-129748223D01*
X127725753Y-129766402D01*
X127740367Y-129786107D01*
X127752980Y-129807151D01*
X127763470Y-129829329D01*
X127771735Y-129852429D01*
X127777696Y-129876227D01*
X127781296Y-129900496D01*
X127782500Y-129925000D01*
X127782500Y-131175000D01*
X127781296Y-131199504D01*
X127777696Y-131223773D01*
X127771735Y-131247571D01*
X127763470Y-131270671D01*
X127752980Y-131292849D01*
X127740367Y-131313893D01*
X127725753Y-131333598D01*
X127709277Y-131351777D01*
X127691098Y-131368253D01*
X127671393Y-131382867D01*
X127650349Y-131395480D01*
X127628171Y-131405970D01*
X127605071Y-131414235D01*
X127581273Y-131420196D01*
X127557004Y-131423796D01*
X127532500Y-131425000D01*
X126607500Y-131425000D01*
X126582996Y-131423796D01*
X126558727Y-131420196D01*
X126534929Y-131414235D01*
X126511829Y-131405970D01*
X126489651Y-131395480D01*
X126468607Y-131382867D01*
X126448902Y-131368253D01*
X126430723Y-131351777D01*
X126414247Y-131333598D01*
X126399633Y-131313893D01*
X126387020Y-131292849D01*
X126376530Y-131270671D01*
X126368265Y-131247571D01*
X126362304Y-131223773D01*
X126358704Y-131199504D01*
X126357500Y-131175000D01*
X126357500Y-129925000D01*
X126358704Y-129900496D01*
X126362304Y-129876227D01*
X126368265Y-129852429D01*
X126376530Y-129829329D01*
X126387020Y-129807151D01*
X126399633Y-129786107D01*
X126414247Y-129766402D01*
X126430723Y-129748223D01*
X126448902Y-129731747D01*
X126468607Y-129717133D01*
X126489651Y-129704520D01*
X126511829Y-129694030D01*
X126534929Y-129685765D01*
X126558727Y-129679804D01*
X126582996Y-129676204D01*
X126607500Y-129675000D01*
X127532500Y-129675000D01*
X127557004Y-129676204D01*
X127557004Y-129676204D01*
G37*
D13*
X127070000Y-130550000D03*
D10*
G36*
X130532004Y-129676204D02*
G01*
X130556273Y-129679804D01*
X130580071Y-129685765D01*
X130603171Y-129694030D01*
X130625349Y-129704520D01*
X130646393Y-129717133D01*
X130666098Y-129731747D01*
X130684277Y-129748223D01*
X130700753Y-129766402D01*
X130715367Y-129786107D01*
X130727980Y-129807151D01*
X130738470Y-129829329D01*
X130746735Y-129852429D01*
X130752696Y-129876227D01*
X130756296Y-129900496D01*
X130757500Y-129925000D01*
X130757500Y-131175000D01*
X130756296Y-131199504D01*
X130752696Y-131223773D01*
X130746735Y-131247571D01*
X130738470Y-131270671D01*
X130727980Y-131292849D01*
X130715367Y-131313893D01*
X130700753Y-131333598D01*
X130684277Y-131351777D01*
X130666098Y-131368253D01*
X130646393Y-131382867D01*
X130625349Y-131395480D01*
X130603171Y-131405970D01*
X130580071Y-131414235D01*
X130556273Y-131420196D01*
X130532004Y-131423796D01*
X130507500Y-131425000D01*
X129582500Y-131425000D01*
X129557996Y-131423796D01*
X129533727Y-131420196D01*
X129509929Y-131414235D01*
X129486829Y-131405970D01*
X129464651Y-131395480D01*
X129443607Y-131382867D01*
X129423902Y-131368253D01*
X129405723Y-131351777D01*
X129389247Y-131333598D01*
X129374633Y-131313893D01*
X129362020Y-131292849D01*
X129351530Y-131270671D01*
X129343265Y-131247571D01*
X129337304Y-131223773D01*
X129333704Y-131199504D01*
X129332500Y-131175000D01*
X129332500Y-129925000D01*
X129333704Y-129900496D01*
X129337304Y-129876227D01*
X129343265Y-129852429D01*
X129351530Y-129829329D01*
X129362020Y-129807151D01*
X129374633Y-129786107D01*
X129389247Y-129766402D01*
X129405723Y-129748223D01*
X129423902Y-129731747D01*
X129443607Y-129717133D01*
X129464651Y-129704520D01*
X129486829Y-129694030D01*
X129509929Y-129685765D01*
X129533727Y-129679804D01*
X129557996Y-129676204D01*
X129582500Y-129675000D01*
X130507500Y-129675000D01*
X130532004Y-129676204D01*
X130532004Y-129676204D01*
G37*
D13*
X130045000Y-130550000D03*
D10*
G36*
X115719504Y-135863704D02*
G01*
X115743773Y-135867304D01*
X115767571Y-135873265D01*
X115790671Y-135881530D01*
X115812849Y-135892020D01*
X115833893Y-135904633D01*
X115853598Y-135919247D01*
X115871777Y-135935723D01*
X115888253Y-135953902D01*
X115902867Y-135973607D01*
X115915480Y-135994651D01*
X115925970Y-136016829D01*
X115934235Y-136039929D01*
X115940196Y-136063727D01*
X115943796Y-136087996D01*
X115945000Y-136112500D01*
X115945000Y-137037500D01*
X115943796Y-137062004D01*
X115940196Y-137086273D01*
X115934235Y-137110071D01*
X115925970Y-137133171D01*
X115915480Y-137155349D01*
X115902867Y-137176393D01*
X115888253Y-137196098D01*
X115871777Y-137214277D01*
X115853598Y-137230753D01*
X115833893Y-137245367D01*
X115812849Y-137257980D01*
X115790671Y-137268470D01*
X115767571Y-137276735D01*
X115743773Y-137282696D01*
X115719504Y-137286296D01*
X115695000Y-137287500D01*
X114445000Y-137287500D01*
X114420496Y-137286296D01*
X114396227Y-137282696D01*
X114372429Y-137276735D01*
X114349329Y-137268470D01*
X114327151Y-137257980D01*
X114306107Y-137245367D01*
X114286402Y-137230753D01*
X114268223Y-137214277D01*
X114251747Y-137196098D01*
X114237133Y-137176393D01*
X114224520Y-137155349D01*
X114214030Y-137133171D01*
X114205765Y-137110071D01*
X114199804Y-137086273D01*
X114196204Y-137062004D01*
X114195000Y-137037500D01*
X114195000Y-136112500D01*
X114196204Y-136087996D01*
X114199804Y-136063727D01*
X114205765Y-136039929D01*
X114214030Y-136016829D01*
X114224520Y-135994651D01*
X114237133Y-135973607D01*
X114251747Y-135953902D01*
X114268223Y-135935723D01*
X114286402Y-135919247D01*
X114306107Y-135904633D01*
X114327151Y-135892020D01*
X114349329Y-135881530D01*
X114372429Y-135873265D01*
X114396227Y-135867304D01*
X114420496Y-135863704D01*
X114445000Y-135862500D01*
X115695000Y-135862500D01*
X115719504Y-135863704D01*
X115719504Y-135863704D01*
G37*
D13*
X115070000Y-136575000D03*
D10*
G36*
X115719504Y-138838704D02*
G01*
X115743773Y-138842304D01*
X115767571Y-138848265D01*
X115790671Y-138856530D01*
X115812849Y-138867020D01*
X115833893Y-138879633D01*
X115853598Y-138894247D01*
X115871777Y-138910723D01*
X115888253Y-138928902D01*
X115902867Y-138948607D01*
X115915480Y-138969651D01*
X115925970Y-138991829D01*
X115934235Y-139014929D01*
X115940196Y-139038727D01*
X115943796Y-139062996D01*
X115945000Y-139087500D01*
X115945000Y-140012500D01*
X115943796Y-140037004D01*
X115940196Y-140061273D01*
X115934235Y-140085071D01*
X115925970Y-140108171D01*
X115915480Y-140130349D01*
X115902867Y-140151393D01*
X115888253Y-140171098D01*
X115871777Y-140189277D01*
X115853598Y-140205753D01*
X115833893Y-140220367D01*
X115812849Y-140232980D01*
X115790671Y-140243470D01*
X115767571Y-140251735D01*
X115743773Y-140257696D01*
X115719504Y-140261296D01*
X115695000Y-140262500D01*
X114445000Y-140262500D01*
X114420496Y-140261296D01*
X114396227Y-140257696D01*
X114372429Y-140251735D01*
X114349329Y-140243470D01*
X114327151Y-140232980D01*
X114306107Y-140220367D01*
X114286402Y-140205753D01*
X114268223Y-140189277D01*
X114251747Y-140171098D01*
X114237133Y-140151393D01*
X114224520Y-140130349D01*
X114214030Y-140108171D01*
X114205765Y-140085071D01*
X114199804Y-140061273D01*
X114196204Y-140037004D01*
X114195000Y-140012500D01*
X114195000Y-139087500D01*
X114196204Y-139062996D01*
X114199804Y-139038727D01*
X114205765Y-139014929D01*
X114214030Y-138991829D01*
X114224520Y-138969651D01*
X114237133Y-138948607D01*
X114251747Y-138928902D01*
X114268223Y-138910723D01*
X114286402Y-138894247D01*
X114306107Y-138879633D01*
X114327151Y-138867020D01*
X114349329Y-138856530D01*
X114372429Y-138848265D01*
X114396227Y-138842304D01*
X114420496Y-138838704D01*
X114445000Y-138837500D01*
X115695000Y-138837500D01*
X115719504Y-138838704D01*
X115719504Y-138838704D01*
G37*
D13*
X115070000Y-139550000D03*
D10*
G36*
X115719504Y-130363704D02*
G01*
X115743773Y-130367304D01*
X115767571Y-130373265D01*
X115790671Y-130381530D01*
X115812849Y-130392020D01*
X115833893Y-130404633D01*
X115853598Y-130419247D01*
X115871777Y-130435723D01*
X115888253Y-130453902D01*
X115902867Y-130473607D01*
X115915480Y-130494651D01*
X115925970Y-130516829D01*
X115934235Y-130539929D01*
X115940196Y-130563727D01*
X115943796Y-130587996D01*
X115945000Y-130612500D01*
X115945000Y-131537500D01*
X115943796Y-131562004D01*
X115940196Y-131586273D01*
X115934235Y-131610071D01*
X115925970Y-131633171D01*
X115915480Y-131655349D01*
X115902867Y-131676393D01*
X115888253Y-131696098D01*
X115871777Y-131714277D01*
X115853598Y-131730753D01*
X115833893Y-131745367D01*
X115812849Y-131757980D01*
X115790671Y-131768470D01*
X115767571Y-131776735D01*
X115743773Y-131782696D01*
X115719504Y-131786296D01*
X115695000Y-131787500D01*
X114445000Y-131787500D01*
X114420496Y-131786296D01*
X114396227Y-131782696D01*
X114372429Y-131776735D01*
X114349329Y-131768470D01*
X114327151Y-131757980D01*
X114306107Y-131745367D01*
X114286402Y-131730753D01*
X114268223Y-131714277D01*
X114251747Y-131696098D01*
X114237133Y-131676393D01*
X114224520Y-131655349D01*
X114214030Y-131633171D01*
X114205765Y-131610071D01*
X114199804Y-131586273D01*
X114196204Y-131562004D01*
X114195000Y-131537500D01*
X114195000Y-130612500D01*
X114196204Y-130587996D01*
X114199804Y-130563727D01*
X114205765Y-130539929D01*
X114214030Y-130516829D01*
X114224520Y-130494651D01*
X114237133Y-130473607D01*
X114251747Y-130453902D01*
X114268223Y-130435723D01*
X114286402Y-130419247D01*
X114306107Y-130404633D01*
X114327151Y-130392020D01*
X114349329Y-130381530D01*
X114372429Y-130373265D01*
X114396227Y-130367304D01*
X114420496Y-130363704D01*
X114445000Y-130362500D01*
X115695000Y-130362500D01*
X115719504Y-130363704D01*
X115719504Y-130363704D01*
G37*
D13*
X115070000Y-131075000D03*
D10*
G36*
X115719504Y-133338704D02*
G01*
X115743773Y-133342304D01*
X115767571Y-133348265D01*
X115790671Y-133356530D01*
X115812849Y-133367020D01*
X115833893Y-133379633D01*
X115853598Y-133394247D01*
X115871777Y-133410723D01*
X115888253Y-133428902D01*
X115902867Y-133448607D01*
X115915480Y-133469651D01*
X115925970Y-133491829D01*
X115934235Y-133514929D01*
X115940196Y-133538727D01*
X115943796Y-133562996D01*
X115945000Y-133587500D01*
X115945000Y-134512500D01*
X115943796Y-134537004D01*
X115940196Y-134561273D01*
X115934235Y-134585071D01*
X115925970Y-134608171D01*
X115915480Y-134630349D01*
X115902867Y-134651393D01*
X115888253Y-134671098D01*
X115871777Y-134689277D01*
X115853598Y-134705753D01*
X115833893Y-134720367D01*
X115812849Y-134732980D01*
X115790671Y-134743470D01*
X115767571Y-134751735D01*
X115743773Y-134757696D01*
X115719504Y-134761296D01*
X115695000Y-134762500D01*
X114445000Y-134762500D01*
X114420496Y-134761296D01*
X114396227Y-134757696D01*
X114372429Y-134751735D01*
X114349329Y-134743470D01*
X114327151Y-134732980D01*
X114306107Y-134720367D01*
X114286402Y-134705753D01*
X114268223Y-134689277D01*
X114251747Y-134671098D01*
X114237133Y-134651393D01*
X114224520Y-134630349D01*
X114214030Y-134608171D01*
X114205765Y-134585071D01*
X114199804Y-134561273D01*
X114196204Y-134537004D01*
X114195000Y-134512500D01*
X114195000Y-133587500D01*
X114196204Y-133562996D01*
X114199804Y-133538727D01*
X114205765Y-133514929D01*
X114214030Y-133491829D01*
X114224520Y-133469651D01*
X114237133Y-133448607D01*
X114251747Y-133428902D01*
X114268223Y-133410723D01*
X114286402Y-133394247D01*
X114306107Y-133379633D01*
X114327151Y-133367020D01*
X114349329Y-133356530D01*
X114372429Y-133348265D01*
X114396227Y-133342304D01*
X114420496Y-133338704D01*
X114445000Y-133337500D01*
X115695000Y-133337500D01*
X115719504Y-133338704D01*
X115719504Y-133338704D01*
G37*
D13*
X115070000Y-134050000D03*
D10*
G36*
X123532004Y-129676204D02*
G01*
X123556273Y-129679804D01*
X123580071Y-129685765D01*
X123603171Y-129694030D01*
X123625349Y-129704520D01*
X123646393Y-129717133D01*
X123666098Y-129731747D01*
X123684277Y-129748223D01*
X123700753Y-129766402D01*
X123715367Y-129786107D01*
X123727980Y-129807151D01*
X123738470Y-129829329D01*
X123746735Y-129852429D01*
X123752696Y-129876227D01*
X123756296Y-129900496D01*
X123757500Y-129925000D01*
X123757500Y-131175000D01*
X123756296Y-131199504D01*
X123752696Y-131223773D01*
X123746735Y-131247571D01*
X123738470Y-131270671D01*
X123727980Y-131292849D01*
X123715367Y-131313893D01*
X123700753Y-131333598D01*
X123684277Y-131351777D01*
X123666098Y-131368253D01*
X123646393Y-131382867D01*
X123625349Y-131395480D01*
X123603171Y-131405970D01*
X123580071Y-131414235D01*
X123556273Y-131420196D01*
X123532004Y-131423796D01*
X123507500Y-131425000D01*
X122582500Y-131425000D01*
X122557996Y-131423796D01*
X122533727Y-131420196D01*
X122509929Y-131414235D01*
X122486829Y-131405970D01*
X122464651Y-131395480D01*
X122443607Y-131382867D01*
X122423902Y-131368253D01*
X122405723Y-131351777D01*
X122389247Y-131333598D01*
X122374633Y-131313893D01*
X122362020Y-131292849D01*
X122351530Y-131270671D01*
X122343265Y-131247571D01*
X122337304Y-131223773D01*
X122333704Y-131199504D01*
X122332500Y-131175000D01*
X122332500Y-129925000D01*
X122333704Y-129900496D01*
X122337304Y-129876227D01*
X122343265Y-129852429D01*
X122351530Y-129829329D01*
X122362020Y-129807151D01*
X122374633Y-129786107D01*
X122389247Y-129766402D01*
X122405723Y-129748223D01*
X122423902Y-129731747D01*
X122443607Y-129717133D01*
X122464651Y-129704520D01*
X122486829Y-129694030D01*
X122509929Y-129685765D01*
X122533727Y-129679804D01*
X122557996Y-129676204D01*
X122582500Y-129675000D01*
X123507500Y-129675000D01*
X123532004Y-129676204D01*
X123532004Y-129676204D01*
G37*
D13*
X123045000Y-130550000D03*
D10*
G36*
X120557004Y-129676204D02*
G01*
X120581273Y-129679804D01*
X120605071Y-129685765D01*
X120628171Y-129694030D01*
X120650349Y-129704520D01*
X120671393Y-129717133D01*
X120691098Y-129731747D01*
X120709277Y-129748223D01*
X120725753Y-129766402D01*
X120740367Y-129786107D01*
X120752980Y-129807151D01*
X120763470Y-129829329D01*
X120771735Y-129852429D01*
X120777696Y-129876227D01*
X120781296Y-129900496D01*
X120782500Y-129925000D01*
X120782500Y-131175000D01*
X120781296Y-131199504D01*
X120777696Y-131223773D01*
X120771735Y-131247571D01*
X120763470Y-131270671D01*
X120752980Y-131292849D01*
X120740367Y-131313893D01*
X120725753Y-131333598D01*
X120709277Y-131351777D01*
X120691098Y-131368253D01*
X120671393Y-131382867D01*
X120650349Y-131395480D01*
X120628171Y-131405970D01*
X120605071Y-131414235D01*
X120581273Y-131420196D01*
X120557004Y-131423796D01*
X120532500Y-131425000D01*
X119607500Y-131425000D01*
X119582996Y-131423796D01*
X119558727Y-131420196D01*
X119534929Y-131414235D01*
X119511829Y-131405970D01*
X119489651Y-131395480D01*
X119468607Y-131382867D01*
X119448902Y-131368253D01*
X119430723Y-131351777D01*
X119414247Y-131333598D01*
X119399633Y-131313893D01*
X119387020Y-131292849D01*
X119376530Y-131270671D01*
X119368265Y-131247571D01*
X119362304Y-131223773D01*
X119358704Y-131199504D01*
X119357500Y-131175000D01*
X119357500Y-129925000D01*
X119358704Y-129900496D01*
X119362304Y-129876227D01*
X119368265Y-129852429D01*
X119376530Y-129829329D01*
X119387020Y-129807151D01*
X119399633Y-129786107D01*
X119414247Y-129766402D01*
X119430723Y-129748223D01*
X119448902Y-129731747D01*
X119468607Y-129717133D01*
X119489651Y-129704520D01*
X119511829Y-129694030D01*
X119534929Y-129685765D01*
X119558727Y-129679804D01*
X119582996Y-129676204D01*
X119607500Y-129675000D01*
X120532500Y-129675000D01*
X120557004Y-129676204D01*
X120557004Y-129676204D01*
G37*
D13*
X120070000Y-130550000D03*
D10*
G36*
X144107004Y-141176204D02*
G01*
X144131273Y-141179804D01*
X144155071Y-141185765D01*
X144178171Y-141194030D01*
X144200349Y-141204520D01*
X144221393Y-141217133D01*
X144241098Y-141231747D01*
X144259277Y-141248223D01*
X144275753Y-141266402D01*
X144290367Y-141286107D01*
X144302980Y-141307151D01*
X144313470Y-141329329D01*
X144321735Y-141352429D01*
X144327696Y-141376227D01*
X144331296Y-141400496D01*
X144332500Y-141425000D01*
X144332500Y-142675000D01*
X144331296Y-142699504D01*
X144327696Y-142723773D01*
X144321735Y-142747571D01*
X144313470Y-142770671D01*
X144302980Y-142792849D01*
X144290367Y-142813893D01*
X144275753Y-142833598D01*
X144259277Y-142851777D01*
X144241098Y-142868253D01*
X144221393Y-142882867D01*
X144200349Y-142895480D01*
X144178171Y-142905970D01*
X144155071Y-142914235D01*
X144131273Y-142920196D01*
X144107004Y-142923796D01*
X144082500Y-142925000D01*
X143157500Y-142925000D01*
X143132996Y-142923796D01*
X143108727Y-142920196D01*
X143084929Y-142914235D01*
X143061829Y-142905970D01*
X143039651Y-142895480D01*
X143018607Y-142882867D01*
X142998902Y-142868253D01*
X142980723Y-142851777D01*
X142964247Y-142833598D01*
X142949633Y-142813893D01*
X142937020Y-142792849D01*
X142926530Y-142770671D01*
X142918265Y-142747571D01*
X142912304Y-142723773D01*
X142908704Y-142699504D01*
X142907500Y-142675000D01*
X142907500Y-141425000D01*
X142908704Y-141400496D01*
X142912304Y-141376227D01*
X142918265Y-141352429D01*
X142926530Y-141329329D01*
X142937020Y-141307151D01*
X142949633Y-141286107D01*
X142964247Y-141266402D01*
X142980723Y-141248223D01*
X142998902Y-141231747D01*
X143018607Y-141217133D01*
X143039651Y-141204520D01*
X143061829Y-141194030D01*
X143084929Y-141185765D01*
X143108727Y-141179804D01*
X143132996Y-141176204D01*
X143157500Y-141175000D01*
X144082500Y-141175000D01*
X144107004Y-141176204D01*
X144107004Y-141176204D01*
G37*
D13*
X143620000Y-142050000D03*
D10*
G36*
X147082004Y-141176204D02*
G01*
X147106273Y-141179804D01*
X147130071Y-141185765D01*
X147153171Y-141194030D01*
X147175349Y-141204520D01*
X147196393Y-141217133D01*
X147216098Y-141231747D01*
X147234277Y-141248223D01*
X147250753Y-141266402D01*
X147265367Y-141286107D01*
X147277980Y-141307151D01*
X147288470Y-141329329D01*
X147296735Y-141352429D01*
X147302696Y-141376227D01*
X147306296Y-141400496D01*
X147307500Y-141425000D01*
X147307500Y-142675000D01*
X147306296Y-142699504D01*
X147302696Y-142723773D01*
X147296735Y-142747571D01*
X147288470Y-142770671D01*
X147277980Y-142792849D01*
X147265367Y-142813893D01*
X147250753Y-142833598D01*
X147234277Y-142851777D01*
X147216098Y-142868253D01*
X147196393Y-142882867D01*
X147175349Y-142895480D01*
X147153171Y-142905970D01*
X147130071Y-142914235D01*
X147106273Y-142920196D01*
X147082004Y-142923796D01*
X147057500Y-142925000D01*
X146132500Y-142925000D01*
X146107996Y-142923796D01*
X146083727Y-142920196D01*
X146059929Y-142914235D01*
X146036829Y-142905970D01*
X146014651Y-142895480D01*
X145993607Y-142882867D01*
X145973902Y-142868253D01*
X145955723Y-142851777D01*
X145939247Y-142833598D01*
X145924633Y-142813893D01*
X145912020Y-142792849D01*
X145901530Y-142770671D01*
X145893265Y-142747571D01*
X145887304Y-142723773D01*
X145883704Y-142699504D01*
X145882500Y-142675000D01*
X145882500Y-141425000D01*
X145883704Y-141400496D01*
X145887304Y-141376227D01*
X145893265Y-141352429D01*
X145901530Y-141329329D01*
X145912020Y-141307151D01*
X145924633Y-141286107D01*
X145939247Y-141266402D01*
X145955723Y-141248223D01*
X145973902Y-141231747D01*
X145993607Y-141217133D01*
X146014651Y-141204520D01*
X146036829Y-141194030D01*
X146059929Y-141185765D01*
X146083727Y-141179804D01*
X146107996Y-141176204D01*
X146132500Y-141175000D01*
X147057500Y-141175000D01*
X147082004Y-141176204D01*
X147082004Y-141176204D01*
G37*
D13*
X146595000Y-142050000D03*
D12*
X150870000Y-91955000D03*
X150870000Y-90685000D03*
X150870000Y-89415000D03*
X150870000Y-88145000D03*
X156270000Y-88145000D03*
X156270000Y-89415000D03*
X156270000Y-90685000D03*
X156270000Y-91955000D03*
X156020000Y-105205000D03*
X156020000Y-103935000D03*
X156020000Y-102665000D03*
X156020000Y-101395000D03*
X150620000Y-101395000D03*
X150620000Y-102665000D03*
X150620000Y-103935000D03*
X150620000Y-105205000D03*
X123770000Y-141455000D03*
X123770000Y-140185000D03*
X123770000Y-138915000D03*
X123770000Y-137645000D03*
X118370000Y-137645000D03*
X118370000Y-138915000D03*
X118370000Y-140185000D03*
X118370000Y-141455000D03*
M02*
