M48
; DRILL file {KiCad (5.1.0)-1} date 07/01/2020 21:36:05
; FORMAT={-:-/ absolute / metric / decimal}
; #@! TF.CreationDate,2020-01-07T21:36:05+05:30
; #@! TF.GenerationSoftware,Kicad,Pcbnew,(5.1.0)-1
FMAT,2
METRIC
T1C0.400
T2C0.500
T3C0.800
T4C0.950
T5C1.000
T6C1.016
T7C1.100
T8C1.200
T9C1.300
T10C1.700
T11C3.200
%
G90
G05
T1
X72.62Y-100.25
X75.92Y-133.65
X78.42Y-123.35
X78.62Y-134.05
X81.12Y-82.05
X83.057Y-58.05
X83.07Y-61.8
X83.12Y-133.45
X83.305Y-144.46
X83.41Y-149.27
X84.966Y-56.946
X86.18Y-137.637
X86.32Y-55.55
X87.27Y-147.945
X89.13Y-145.19
X93.28Y-150.32
X93.697Y-143.68
X96.37Y-145.915
X97.9Y-147.09
X98.77Y-145.8
X100.06Y-133.69
X100.091Y-136.649
X100.482Y-143.04
X100.91Y-140.13
X101.4Y-135.01
X101.57Y-150.577
X101.77Y-148.455
X102.02Y-86.75
X103.145Y-144.6
X104.116Y-125.154
X104.12Y-119.95
X104.82Y-148.037
X108.6Y-150.62
X113.32Y-131.15
X115.02Y-105.35
X116.62Y-132.85
X118.32Y-96.35
X119.595Y-116.1
X121.02Y-136.575
X122.02Y-137.75
X127.07Y-133.824
X127.07Y-136.55
X130.02Y-148.85
X132.62Y-91.05
X134.57Y-119.3
X138.093Y-92.823
X142.47Y-122.45
X143.82Y-79.75
X147.82Y-90.05
X147.82Y-101.45
X149.12Y-150.65
X152.82Y-90.55
X158.32Y-101.95
X162.72Y-68.55
T2
X82.02Y-96.85
X117.32Y-54.25
X117.62Y-136.15
X121.395Y-71.25
X128.72Y-134.85
X149.32Y-69.8
T3
X73.07Y-112.3
X76.87Y-112.3
X90.4Y-99.81
X90.4Y-102.35
X90.4Y-104.89
X90.4Y-107.43
X90.4Y-109.97
X90.4Y-112.51
X90.4Y-115.05
X98.02Y-99.81
X98.02Y-102.35
X98.02Y-104.89
X98.02Y-107.43
X98.02Y-109.97
X98.02Y-112.51
X98.02Y-115.05
X144.07Y-73.05
X151.69Y-73.05
X136.32Y-79.55
X136.32Y-83.35
X82.02Y-85.73
X82.02Y-93.35
X84.56Y-85.73
X84.56Y-93.35
X87.1Y-85.73
X87.1Y-93.35
X89.64Y-85.73
X89.64Y-93.35
X92.18Y-85.73
X92.18Y-93.35
X94.72Y-85.73
X94.72Y-93.35
X97.26Y-85.73
X97.26Y-93.35
X99.8Y-85.73
X99.8Y-93.35
X153.82Y-68.3
X157.62Y-68.3
X110.37Y-56.65
X114.17Y-56.65
X136.82Y-133.26
X136.82Y-135.8
X136.82Y-138.34
X143.72Y-145.95
X147.52Y-145.95
X98.52Y-60.05
X98.52Y-62.59
X98.52Y-65.13
X98.52Y-67.67
X106.14Y-60.05
X106.14Y-62.59
X106.14Y-65.13
X106.14Y-67.67
X145.67Y-85.12
X145.67Y-90.2
X122.07Y-147.05
X124.61Y-147.05
X127.15Y-147.05
X142.42Y-85.12
X142.42Y-90.2
X112.07Y-146.05
X115.87Y-146.05
T4
X93.27Y-54.55
X95.77Y-54.55
X98.27Y-54.55
X100.77Y-54.55
X103.27Y-54.55
T5
X111.32Y-138.45
X72.92Y-104.2
X124.12Y-126.05
X138.62Y-90.25
X144.72Y-100.15
X72.82Y-125.68
X72.82Y-128.22
X72.82Y-130.76
X72.82Y-133.3
X139.74Y-95.3
X142.28Y-95.3
X144.82Y-95.3
X104.12Y-72.85
X104.12Y-75.39
X104.12Y-77.93
X104.12Y-80.47
X104.12Y-83.01
X104.12Y-85.55
X104.12Y-88.09
X104.12Y-90.63
X104.12Y-93.17
X104.12Y-95.71
X104.12Y-98.25
X104.12Y-100.79
X104.12Y-103.33
X104.12Y-105.87
X104.12Y-108.41
X104.12Y-110.95
X104.12Y-113.49
X87.84Y-138.3
X89.225Y-141.14
X90.61Y-138.3
X91.995Y-141.14
X93.38Y-138.3
X94.765Y-141.14
X96.15Y-138.3
X97.535Y-141.14
X98.92Y-138.3
X86.62Y-133.95
X129.82Y-72.83
X129.82Y-75.37
X129.82Y-77.91
X129.82Y-80.45
X129.82Y-82.99
X129.82Y-85.53
X129.82Y-88.07
X129.82Y-90.61
X129.82Y-93.15
X129.82Y-95.69
X129.82Y-98.23
X129.82Y-100.77
X129.82Y-103.31
X129.82Y-105.85
X129.82Y-108.39
X129.82Y-110.93
X129.82Y-113.47
X129.82Y-116.01
X129.82Y-118.55
X129.82Y-121.09
X137.72Y-112.45
X121.22Y-67.85
X98.12Y-82.45
X131.42Y-66.95
X133.96Y-66.95
X109.42Y-72.85
X109.42Y-75.39
X109.42Y-77.93
X109.42Y-80.47
X109.42Y-83.01
X109.42Y-85.55
X109.42Y-88.09
X109.42Y-90.63
X109.42Y-93.17
X109.42Y-95.71
X109.42Y-98.25
X109.42Y-100.79
X109.42Y-103.33
X109.42Y-105.87
X109.42Y-108.41
X109.42Y-110.95
X109.42Y-113.49
X109.42Y-116.03
X109.42Y-118.57
X109.42Y-121.11
X124.62Y-72.85
X124.62Y-75.39
X124.62Y-77.93
X124.62Y-80.47
X124.62Y-83.01
X124.62Y-85.55
X124.62Y-88.09
X124.62Y-90.63
X124.62Y-93.17
X124.62Y-95.71
X124.62Y-98.25
X124.62Y-100.79
X124.62Y-103.33
X124.62Y-105.87
X124.62Y-108.41
X124.62Y-110.95
X124.62Y-113.49
X124.62Y-116.03
X124.62Y-118.57
X124.62Y-121.11
X134.92Y-95.45
X139.82Y-104.05
X142.36Y-104.05
X144.9Y-104.05
X93.72Y-67.69
X93.72Y-70.23
X93.72Y-72.77
X93.72Y-75.31
X93.72Y-77.85
X94.62Y-134.05
X72.92Y-93.55
X73.42Y-139.65
X137.72Y-108.25
X118.12Y-126.05
X129.62Y-126.05
T6
X74.28Y-74.89
X74.28Y-77.43
X74.28Y-79.97
X74.28Y-82.51
X74.28Y-85.05
X76.82Y-74.89
X76.82Y-77.43
X76.82Y-79.97
X76.82Y-82.51
X76.82Y-85.05
T7
X143.92Y-108.95
X143.92Y-119.11
T8
X150.07Y-78.4
X150.07Y-117.9
X167.24Y-78.38
X167.24Y-117.9
T9
X148.72Y-131.45
X150.72Y-125.45
X150.72Y-137.45
X162.92Y-125.45
X162.92Y-137.45
T10
X133.32Y-145.05
X137.28Y-145.05
X138.27Y-58.8
X142.23Y-58.8
X146.19Y-58.8
X150.15Y-58.8
X154.11Y-58.8
X158.07Y-58.8
T11
X166.82Y-148.05
X80.88Y-139.72
X105.88Y-139.72
X73.82Y-148.05
X166.82Y-55.05
X73.82Y-55.05
T0
M30
