G04 #@! TF.GenerationSoftware,KiCad,Pcbnew,(5.1.0)-1*
G04 #@! TF.CreationDate,2020-01-07T21:36:01+05:30*
G04 #@! TF.ProjectId,BLDC_STM32_proto_1,424c4443-5f53-4544-9d33-325f70726f74,rev?*
G04 #@! TF.SameCoordinates,Original*
G04 #@! TF.FileFunction,Legend,Bot*
G04 #@! TF.FilePolarity,Positive*
%FSLAX46Y46*%
G04 Gerber Fmt 4.6, Leading zero omitted, Abs format (unit mm)*
G04 Created by KiCad (PCBNEW (5.1.0)-1) date 2020-01-07 21:36:01*
%MOMM*%
%LPD*%
G04 APERTURE LIST*
%ADD10C,0.125000*%
%ADD11C,0.150000*%
%ADD12C,0.300000*%
%ADD13C,0.250000*%
%ADD14C,0.120000*%
%ADD15C,0.010000*%
%ADD16C,0.381000*%
G04 APERTURE END LIST*
D10*
X116265944Y-64323809D02*
X116328444Y-64823809D01*
X116450468Y-64466666D01*
X116661778Y-64823809D01*
X116599278Y-64323809D01*
X117051659Y-64323809D02*
X117084397Y-64585714D01*
X117066540Y-64633333D01*
X117021897Y-64657142D01*
X116926659Y-64657142D01*
X116876063Y-64633333D01*
X117054635Y-64347619D02*
X117004040Y-64323809D01*
X116884992Y-64323809D01*
X116840349Y-64347619D01*
X116822492Y-64395238D01*
X116828444Y-64442857D01*
X116858206Y-64490476D01*
X116908802Y-64514285D01*
X117027849Y-64514285D01*
X117078444Y-64538095D01*
X117331421Y-64657142D02*
X117289754Y-64323809D01*
X117325468Y-64609523D02*
X117352254Y-64633333D01*
X117402849Y-64657142D01*
X117474278Y-64657142D01*
X117518921Y-64633333D01*
X117536778Y-64585714D01*
X117504040Y-64323809D01*
X117998087Y-64657142D02*
X117956421Y-64323809D01*
X117783802Y-64657142D02*
X117751063Y-64395238D01*
X117768921Y-64347619D01*
X117813563Y-64323809D01*
X117884992Y-64323809D01*
X117935587Y-64347619D01*
X117962373Y-64371428D01*
X118164754Y-64657142D02*
X118355230Y-64657142D01*
X118194516Y-64323809D02*
X118248087Y-64752380D01*
X118277849Y-64800000D01*
X118328444Y-64823809D01*
X118376063Y-64823809D01*
X118694516Y-64323809D02*
X118727254Y-64585714D01*
X118709397Y-64633333D01*
X118664754Y-64657142D01*
X118569516Y-64657142D01*
X118518921Y-64633333D01*
X118697492Y-64347619D02*
X118646897Y-64323809D01*
X118527849Y-64323809D01*
X118483206Y-64347619D01*
X118465349Y-64395238D01*
X118471302Y-64442857D01*
X118501063Y-64490476D01*
X118551659Y-64514285D01*
X118670706Y-64514285D01*
X118721302Y-64538095D01*
X119149873Y-64347619D02*
X119099278Y-64323809D01*
X119004040Y-64323809D01*
X118959397Y-64347619D01*
X118938563Y-64371428D01*
X118920706Y-64419047D01*
X118938563Y-64561904D01*
X118968325Y-64609523D01*
X118995111Y-64633333D01*
X119045706Y-64657142D01*
X119140944Y-64657142D01*
X119185587Y-64633333D01*
X119331421Y-64657142D02*
X119521897Y-64657142D01*
X119423683Y-64823809D02*
X119370111Y-64395238D01*
X119387968Y-64347619D01*
X119432611Y-64323809D01*
X119480230Y-64323809D01*
X119902849Y-64657142D02*
X119861183Y-64323809D01*
X119688563Y-64657142D02*
X119655825Y-64395238D01*
X119673683Y-64347619D01*
X119718325Y-64323809D01*
X119789754Y-64323809D01*
X119840349Y-64347619D01*
X119867135Y-64371428D01*
X120099278Y-64323809D02*
X120140944Y-64657142D01*
X120129040Y-64561904D02*
X120158802Y-64609523D01*
X120185587Y-64633333D01*
X120236183Y-64657142D01*
X120283802Y-64657142D01*
X120602254Y-64347619D02*
X120551659Y-64323809D01*
X120456421Y-64323809D01*
X120411778Y-64347619D01*
X120393921Y-64395238D01*
X120417730Y-64585714D01*
X120447492Y-64633333D01*
X120498087Y-64657142D01*
X120593325Y-64657142D01*
X120637968Y-64633333D01*
X120655825Y-64585714D01*
X120649873Y-64538095D01*
X120405825Y-64490476D01*
X121051659Y-64323809D02*
X121114159Y-64823809D01*
X121054635Y-64347619D02*
X121004040Y-64323809D01*
X120908802Y-64323809D01*
X120864159Y-64347619D01*
X120843325Y-64371428D01*
X120825468Y-64419047D01*
X120843325Y-64561904D01*
X120873087Y-64609523D01*
X120899873Y-64633333D01*
X120950468Y-64657142D01*
X121045706Y-64657142D01*
X121090349Y-64633333D01*
X121670706Y-64323809D02*
X121733206Y-64823809D01*
X121709397Y-64633333D02*
X121759992Y-64657142D01*
X121855230Y-64657142D01*
X121899873Y-64633333D01*
X121920706Y-64609523D01*
X121938563Y-64561904D01*
X121920706Y-64419047D01*
X121890944Y-64371428D01*
X121864159Y-64347619D01*
X121813563Y-64323809D01*
X121718325Y-64323809D01*
X121673683Y-64347619D01*
X122117135Y-64657142D02*
X122194516Y-64323809D01*
X122355230Y-64657142D02*
X122194516Y-64323809D01*
X122132016Y-64204761D01*
X122105230Y-64180952D01*
X122054635Y-64157142D01*
D11*
X101239047Y-132007142D02*
X101286666Y-132054761D01*
X101429523Y-132102380D01*
X101524761Y-132102380D01*
X101667619Y-132054761D01*
X101762857Y-131959523D01*
X101810476Y-131864285D01*
X101858095Y-131673809D01*
X101858095Y-131530952D01*
X101810476Y-131340476D01*
X101762857Y-131245238D01*
X101667619Y-131150000D01*
X101524761Y-131102380D01*
X101429523Y-131102380D01*
X101286666Y-131150000D01*
X101239047Y-131197619D01*
X100858095Y-131816666D02*
X100381904Y-131816666D01*
X100953333Y-132102380D02*
X100620000Y-131102380D01*
X100286666Y-132102380D01*
X99953333Y-132102380D02*
X99953333Y-131102380D01*
X99381904Y-132102380D01*
X99381904Y-131102380D01*
X98143809Y-132102380D02*
X98143809Y-131435714D01*
X98143809Y-131102380D02*
X98191428Y-131150000D01*
X98143809Y-131197619D01*
X98096190Y-131150000D01*
X98143809Y-131102380D01*
X98143809Y-131197619D01*
X97667619Y-131435714D02*
X97667619Y-132102380D01*
X97667619Y-131530952D02*
X97620000Y-131483333D01*
X97524761Y-131435714D01*
X97381904Y-131435714D01*
X97286666Y-131483333D01*
X97239047Y-131578571D01*
X97239047Y-132102380D01*
X96905714Y-131435714D02*
X96524761Y-131435714D01*
X96762857Y-131102380D02*
X96762857Y-131959523D01*
X96715238Y-132054761D01*
X96620000Y-132102380D01*
X96524761Y-132102380D01*
X95810476Y-132054761D02*
X95905714Y-132102380D01*
X96096190Y-132102380D01*
X96191428Y-132054761D01*
X96239047Y-131959523D01*
X96239047Y-131578571D01*
X96191428Y-131483333D01*
X96096190Y-131435714D01*
X95905714Y-131435714D01*
X95810476Y-131483333D01*
X95762857Y-131578571D01*
X95762857Y-131673809D01*
X96239047Y-131769047D01*
X95477142Y-131435714D02*
X95096190Y-131435714D01*
X95334285Y-132102380D02*
X95334285Y-131245238D01*
X95286666Y-131150000D01*
X95191428Y-131102380D01*
X95096190Y-131102380D01*
X94334285Y-132102380D02*
X94334285Y-131578571D01*
X94381904Y-131483333D01*
X94477142Y-131435714D01*
X94667619Y-131435714D01*
X94762857Y-131483333D01*
X94334285Y-132054761D02*
X94429523Y-132102380D01*
X94667619Y-132102380D01*
X94762857Y-132054761D01*
X94810476Y-131959523D01*
X94810476Y-131864285D01*
X94762857Y-131769047D01*
X94667619Y-131721428D01*
X94429523Y-131721428D01*
X94334285Y-131673809D01*
X93429523Y-132054761D02*
X93524761Y-132102380D01*
X93715238Y-132102380D01*
X93810476Y-132054761D01*
X93858095Y-132007142D01*
X93905714Y-131911904D01*
X93905714Y-131626190D01*
X93858095Y-131530952D01*
X93810476Y-131483333D01*
X93715238Y-131435714D01*
X93524761Y-131435714D01*
X93429523Y-131483333D01*
X92620000Y-132054761D02*
X92715238Y-132102380D01*
X92905714Y-132102380D01*
X93000952Y-132054761D01*
X93048571Y-131959523D01*
X93048571Y-131578571D01*
X93000952Y-131483333D01*
X92905714Y-131435714D01*
X92715238Y-131435714D01*
X92620000Y-131483333D01*
X92572380Y-131578571D01*
X92572380Y-131673809D01*
X93048571Y-131769047D01*
X91096190Y-132483333D02*
X91143809Y-132435714D01*
X91239047Y-132292857D01*
X91286666Y-132197619D01*
X91334285Y-132054761D01*
X91381904Y-131816666D01*
X91381904Y-131626190D01*
X91334285Y-131388095D01*
X91286666Y-131245238D01*
X91239047Y-131150000D01*
X91143809Y-131007142D01*
X91096190Y-130959523D01*
X90762857Y-131197619D02*
X90715238Y-131150000D01*
X90620000Y-131102380D01*
X90381904Y-131102380D01*
X90286666Y-131150000D01*
X90239047Y-131197619D01*
X90191428Y-131292857D01*
X90191428Y-131388095D01*
X90239047Y-131530952D01*
X90810476Y-132102380D01*
X90191428Y-132102380D01*
X89762857Y-132007142D02*
X89715238Y-132054761D01*
X89762857Y-132102380D01*
X89810476Y-132054761D01*
X89762857Y-132007142D01*
X89762857Y-132102380D01*
X89096190Y-131102380D02*
X89000952Y-131102380D01*
X88905714Y-131150000D01*
X88858095Y-131197619D01*
X88810476Y-131292857D01*
X88762857Y-131483333D01*
X88762857Y-131721428D01*
X88810476Y-131911904D01*
X88858095Y-132007142D01*
X88905714Y-132054761D01*
X89000952Y-132102380D01*
X89096190Y-132102380D01*
X89191428Y-132054761D01*
X89239047Y-132007142D01*
X89286666Y-131911904D01*
X89334285Y-131721428D01*
X89334285Y-131483333D01*
X89286666Y-131292857D01*
X89239047Y-131197619D01*
X89191428Y-131150000D01*
X89096190Y-131102380D01*
X87239047Y-131578571D02*
X87096190Y-131626190D01*
X87048571Y-131673809D01*
X87000952Y-131769047D01*
X87000952Y-131911904D01*
X87048571Y-132007142D01*
X87096190Y-132054761D01*
X87191428Y-132102380D01*
X87572380Y-132102380D01*
X87572380Y-131102380D01*
X87239047Y-131102380D01*
X87143809Y-131150000D01*
X87096190Y-131197619D01*
X87048571Y-131292857D01*
X87048571Y-131388095D01*
X87096190Y-131483333D01*
X87143809Y-131530952D01*
X87239047Y-131578571D01*
X87572380Y-131578571D01*
X85381904Y-132102380D02*
X85381904Y-131578571D01*
X85429523Y-131483333D01*
X85524761Y-131435714D01*
X85715238Y-131435714D01*
X85810476Y-131483333D01*
X85381904Y-132054761D02*
X85477142Y-132102380D01*
X85715238Y-132102380D01*
X85810476Y-132054761D01*
X85858095Y-131959523D01*
X85858095Y-131864285D01*
X85810476Y-131769047D01*
X85715238Y-131721428D01*
X85477142Y-131721428D01*
X85381904Y-131673809D01*
X84477142Y-132054761D02*
X84572380Y-132102380D01*
X84762857Y-132102380D01*
X84858095Y-132054761D01*
X84905714Y-132007142D01*
X84953333Y-131911904D01*
X84953333Y-131626190D01*
X84905714Y-131530952D01*
X84858095Y-131483333D01*
X84762857Y-131435714D01*
X84572380Y-131435714D01*
X84477142Y-131483333D01*
X84191428Y-131435714D02*
X83810476Y-131435714D01*
X84048571Y-131102380D02*
X84048571Y-131959523D01*
X84000952Y-132054761D01*
X83905714Y-132102380D01*
X83810476Y-132102380D01*
X83477142Y-132102380D02*
X83477142Y-131435714D01*
X83477142Y-131102380D02*
X83524761Y-131150000D01*
X83477142Y-131197619D01*
X83429523Y-131150000D01*
X83477142Y-131102380D01*
X83477142Y-131197619D01*
X83096190Y-131435714D02*
X82858095Y-132102380D01*
X82620000Y-131435714D01*
X81858095Y-132054761D02*
X81953333Y-132102380D01*
X82143809Y-132102380D01*
X82239047Y-132054761D01*
X82286666Y-131959523D01*
X82286666Y-131578571D01*
X82239047Y-131483333D01*
X82143809Y-131435714D01*
X81953333Y-131435714D01*
X81858095Y-131483333D01*
X81810476Y-131578571D01*
X81810476Y-131673809D01*
X82286666Y-131769047D01*
X80715238Y-132483333D02*
X80667619Y-132435714D01*
X80572380Y-132292857D01*
X80524761Y-132197619D01*
X80477142Y-132054761D01*
X80429523Y-131816666D01*
X80429523Y-131626190D01*
X80477142Y-131388095D01*
X80524761Y-131245238D01*
X80572380Y-131150000D01*
X80667619Y-131007142D01*
X80715238Y-130959523D01*
D12*
X152734285Y-79042857D02*
X152948571Y-78971428D01*
X153305714Y-78971428D01*
X153448571Y-79042857D01*
X153520000Y-79114285D01*
X153591428Y-79257142D01*
X153591428Y-79400000D01*
X153520000Y-79542857D01*
X153448571Y-79614285D01*
X153305714Y-79685714D01*
X153020000Y-79757142D01*
X152877142Y-79828571D01*
X152805714Y-79900000D01*
X152734285Y-80042857D01*
X152734285Y-80185714D01*
X152805714Y-80328571D01*
X152877142Y-80400000D01*
X153020000Y-80471428D01*
X153377142Y-80471428D01*
X153591428Y-80400000D01*
X154234285Y-79757142D02*
X154734285Y-79757142D01*
X154948571Y-78971428D02*
X154234285Y-78971428D01*
X154234285Y-80471428D01*
X154948571Y-80471428D01*
X155591428Y-78971428D02*
X155591428Y-80471428D01*
X156448571Y-78971428D01*
X156448571Y-80471428D01*
X157091428Y-79042857D02*
X157305714Y-78971428D01*
X157662857Y-78971428D01*
X157805714Y-79042857D01*
X157877142Y-79114285D01*
X157948571Y-79257142D01*
X157948571Y-79400000D01*
X157877142Y-79542857D01*
X157805714Y-79614285D01*
X157662857Y-79685714D01*
X157377142Y-79757142D01*
X157234285Y-79828571D01*
X157162857Y-79900000D01*
X157091428Y-80042857D01*
X157091428Y-80185714D01*
X157162857Y-80328571D01*
X157234285Y-80400000D01*
X157377142Y-80471428D01*
X157734285Y-80471428D01*
X157948571Y-80400000D01*
X158591428Y-79757142D02*
X159091428Y-79757142D01*
X159305714Y-78971428D02*
X158591428Y-78971428D01*
X158591428Y-80471428D01*
X159305714Y-80471428D01*
X142012857Y-129128571D02*
X142012857Y-129628571D01*
X142798571Y-129842857D02*
X142798571Y-129128571D01*
X141298571Y-129128571D01*
X141298571Y-129842857D01*
X142798571Y-130485714D02*
X141298571Y-130485714D01*
X142370000Y-130985714D01*
X141298571Y-131485714D01*
X142798571Y-131485714D01*
X142012857Y-132700000D02*
X142012857Y-132200000D01*
X142798571Y-132200000D02*
X141298571Y-132200000D01*
X141298571Y-132914285D01*
D13*
X165305714Y-90364285D02*
X165972380Y-90554761D01*
X165496190Y-90745238D01*
X165972380Y-90935714D01*
X165305714Y-91126190D01*
X165305714Y-91411904D02*
X165972380Y-91602380D01*
X165496190Y-91792857D01*
X165972380Y-91983333D01*
X165305714Y-92173809D01*
X165305714Y-92459523D02*
X165972380Y-92650000D01*
X165496190Y-92840476D01*
X165972380Y-93030952D01*
X165305714Y-93221428D01*
X165877142Y-93602380D02*
X165924761Y-93650000D01*
X165972380Y-93602380D01*
X165924761Y-93554761D01*
X165877142Y-93602380D01*
X165972380Y-93602380D01*
X165305714Y-94078571D02*
X166305714Y-94078571D01*
X165353333Y-94078571D02*
X165305714Y-94173809D01*
X165305714Y-94364285D01*
X165353333Y-94459523D01*
X165400952Y-94507142D01*
X165496190Y-94554761D01*
X165781904Y-94554761D01*
X165877142Y-94507142D01*
X165924761Y-94459523D01*
X165972380Y-94364285D01*
X165972380Y-94173809D01*
X165924761Y-94078571D01*
X165972380Y-94983333D02*
X165305714Y-94983333D01*
X165496190Y-94983333D02*
X165400952Y-95030952D01*
X165353333Y-95078571D01*
X165305714Y-95173809D01*
X165305714Y-95269047D01*
X165972380Y-95745238D02*
X165924761Y-95650000D01*
X165877142Y-95602380D01*
X165781904Y-95554761D01*
X165496190Y-95554761D01*
X165400952Y-95602380D01*
X165353333Y-95650000D01*
X165305714Y-95745238D01*
X165305714Y-95888095D01*
X165353333Y-95983333D01*
X165400952Y-96030952D01*
X165496190Y-96078571D01*
X165781904Y-96078571D01*
X165877142Y-96030952D01*
X165924761Y-95983333D01*
X165972380Y-95888095D01*
X165972380Y-95745238D01*
X165305714Y-96507142D02*
X166162857Y-96507142D01*
X166258095Y-96459523D01*
X166305714Y-96364285D01*
X166305714Y-96316666D01*
X164972380Y-96507142D02*
X165020000Y-96459523D01*
X165067619Y-96507142D01*
X165020000Y-96554761D01*
X164972380Y-96507142D01*
X165067619Y-96507142D01*
X165924761Y-97364285D02*
X165972380Y-97269047D01*
X165972380Y-97078571D01*
X165924761Y-96983333D01*
X165829523Y-96935714D01*
X165448571Y-96935714D01*
X165353333Y-96983333D01*
X165305714Y-97078571D01*
X165305714Y-97269047D01*
X165353333Y-97364285D01*
X165448571Y-97411904D01*
X165543809Y-97411904D01*
X165639047Y-96935714D01*
X165924761Y-98269047D02*
X165972380Y-98173809D01*
X165972380Y-97983333D01*
X165924761Y-97888095D01*
X165877142Y-97840476D01*
X165781904Y-97792857D01*
X165496190Y-97792857D01*
X165400952Y-97840476D01*
X165353333Y-97888095D01*
X165305714Y-97983333D01*
X165305714Y-98173809D01*
X165353333Y-98269047D01*
X165305714Y-98554761D02*
X165305714Y-98935714D01*
X164972380Y-98697619D02*
X165829523Y-98697619D01*
X165924761Y-98745238D01*
X165972380Y-98840476D01*
X165972380Y-98935714D01*
X165305714Y-99697619D02*
X166115238Y-99697619D01*
X166210476Y-99650000D01*
X166258095Y-99602380D01*
X166305714Y-99507142D01*
X166305714Y-99364285D01*
X166258095Y-99269047D01*
X165924761Y-99697619D02*
X165972380Y-99602380D01*
X165972380Y-99411904D01*
X165924761Y-99316666D01*
X165877142Y-99269047D01*
X165781904Y-99221428D01*
X165496190Y-99221428D01*
X165400952Y-99269047D01*
X165353333Y-99316666D01*
X165305714Y-99411904D01*
X165305714Y-99602380D01*
X165353333Y-99697619D01*
X165972380Y-100602380D02*
X165448571Y-100602380D01*
X165353333Y-100554761D01*
X165305714Y-100459523D01*
X165305714Y-100269047D01*
X165353333Y-100173809D01*
X165924761Y-100602380D02*
X165972380Y-100507142D01*
X165972380Y-100269047D01*
X165924761Y-100173809D01*
X165829523Y-100126190D01*
X165734285Y-100126190D01*
X165639047Y-100173809D01*
X165591428Y-100269047D01*
X165591428Y-100507142D01*
X165543809Y-100602380D01*
X165972380Y-101078571D02*
X165305714Y-101078571D01*
X165496190Y-101078571D02*
X165400952Y-101126190D01*
X165353333Y-101173809D01*
X165305714Y-101269047D01*
X165305714Y-101364285D01*
X165305714Y-102126190D02*
X165972380Y-102126190D01*
X165305714Y-101697619D02*
X165829523Y-101697619D01*
X165924761Y-101745238D01*
X165972380Y-101840476D01*
X165972380Y-101983333D01*
X165924761Y-102078571D01*
X165877142Y-102126190D01*
X165972380Y-103030952D02*
X164972380Y-103030952D01*
X165924761Y-103030952D02*
X165972380Y-102935714D01*
X165972380Y-102745238D01*
X165924761Y-102650000D01*
X165877142Y-102602380D01*
X165781904Y-102554761D01*
X165496190Y-102554761D01*
X165400952Y-102602380D01*
X165353333Y-102650000D01*
X165305714Y-102745238D01*
X165305714Y-102935714D01*
X165353333Y-103030952D01*
X165972380Y-103935714D02*
X165448571Y-103935714D01*
X165353333Y-103888095D01*
X165305714Y-103792857D01*
X165305714Y-103602380D01*
X165353333Y-103507142D01*
X165924761Y-103935714D02*
X165972380Y-103840476D01*
X165972380Y-103602380D01*
X165924761Y-103507142D01*
X165829523Y-103459523D01*
X165734285Y-103459523D01*
X165639047Y-103507142D01*
X165591428Y-103602380D01*
X165591428Y-103840476D01*
X165543809Y-103935714D01*
X165877142Y-104411904D02*
X165924761Y-104459523D01*
X165972380Y-104411904D01*
X165924761Y-104364285D01*
X165877142Y-104411904D01*
X165972380Y-104411904D01*
X165972380Y-105030952D02*
X165924761Y-104935714D01*
X165877142Y-104888095D01*
X165781904Y-104840476D01*
X165496190Y-104840476D01*
X165400952Y-104888095D01*
X165353333Y-104935714D01*
X165305714Y-105030952D01*
X165305714Y-105173809D01*
X165353333Y-105269047D01*
X165400952Y-105316666D01*
X165496190Y-105364285D01*
X165781904Y-105364285D01*
X165877142Y-105316666D01*
X165924761Y-105269047D01*
X165972380Y-105173809D01*
X165972380Y-105030952D01*
X165972380Y-105792857D02*
X165305714Y-105792857D01*
X165496190Y-105792857D02*
X165400952Y-105840476D01*
X165353333Y-105888095D01*
X165305714Y-105983333D01*
X165305714Y-106078571D01*
X165305714Y-106840476D02*
X166115238Y-106840476D01*
X166210476Y-106792857D01*
X166258095Y-106745238D01*
X166305714Y-106650000D01*
X166305714Y-106507142D01*
X166258095Y-106411904D01*
X165924761Y-106840476D02*
X165972380Y-106745238D01*
X165972380Y-106554761D01*
X165924761Y-106459523D01*
X165877142Y-106411904D01*
X165781904Y-106364285D01*
X165496190Y-106364285D01*
X165400952Y-106411904D01*
X165353333Y-106459523D01*
X165305714Y-106554761D01*
X165305714Y-106745238D01*
X165353333Y-106840476D01*
D14*
X75820000Y-135950000D02*
X75820000Y-150050000D01*
X75920000Y-135950000D02*
X75820000Y-135950000D01*
X76320000Y-135950000D02*
X75920000Y-135950000D01*
X108320000Y-135950000D02*
X76320000Y-135950000D01*
X108320000Y-150050000D02*
X108320000Y-135950000D01*
X107570000Y-150050000D02*
X108320000Y-150050000D01*
X140120000Y-128250000D02*
X140070000Y-150550000D01*
X131620000Y-128250000D02*
X140120000Y-128250000D01*
X131620000Y-123450000D02*
X131620000Y-128250000D01*
X110820000Y-123450000D02*
X131620000Y-123450000D01*
X110820000Y-128850000D02*
X110820000Y-123450000D01*
X110820000Y-134950000D02*
X110820000Y-128850000D01*
X109070000Y-134950000D02*
X110820000Y-134950000D01*
X109070000Y-150550000D02*
X109070000Y-134950000D01*
X107570000Y-150050000D02*
X93820000Y-150050000D01*
X93820000Y-150050000D02*
X75820000Y-150050000D01*
X148820000Y-81550000D02*
X148820000Y-84050000D01*
X161320000Y-81550000D02*
X148820000Y-81550000D01*
X161320000Y-113550000D02*
X161320000Y-81550000D01*
X148820000Y-113550000D02*
X161320000Y-113550000D01*
X148820000Y-84050000D02*
X148820000Y-113550000D01*
X140070000Y-150550000D02*
X109070000Y-150550000D01*
X109170000Y-130650000D02*
X109170000Y-130150000D01*
D15*
G36*
X118803036Y-61052496D02*
G01*
X118716589Y-60937134D01*
X118586053Y-60802578D01*
X118428839Y-60664214D01*
X118262357Y-60537431D01*
X118112756Y-60442443D01*
X117839727Y-60316062D01*
X117532915Y-60217738D01*
X117212805Y-60151380D01*
X116899883Y-60120898D01*
X116614634Y-60130198D01*
X116535949Y-60141607D01*
X116246218Y-60220614D01*
X115998081Y-60345176D01*
X115797769Y-60510428D01*
X115651515Y-60711507D01*
X115579552Y-60888061D01*
X115568917Y-60936060D01*
X115580361Y-60944012D01*
X115621656Y-60907473D01*
X115700575Y-60821998D01*
X115706387Y-60815538D01*
X115884011Y-60655189D01*
X116087385Y-60546497D01*
X116329474Y-60483855D01*
X116516805Y-60465011D01*
X116846295Y-60474186D01*
X117170368Y-60533009D01*
X117474789Y-60636473D01*
X117745319Y-60779569D01*
X117967725Y-60957291D01*
X117994260Y-60984702D01*
X118160049Y-61161944D01*
X118866766Y-61161944D01*
X118803036Y-61052496D01*
X118803036Y-61052496D01*
G37*
X118803036Y-61052496D02*
X118716589Y-60937134D01*
X118586053Y-60802578D01*
X118428839Y-60664214D01*
X118262357Y-60537431D01*
X118112756Y-60442443D01*
X117839727Y-60316062D01*
X117532915Y-60217738D01*
X117212805Y-60151380D01*
X116899883Y-60120898D01*
X116614634Y-60130198D01*
X116535949Y-60141607D01*
X116246218Y-60220614D01*
X115998081Y-60345176D01*
X115797769Y-60510428D01*
X115651515Y-60711507D01*
X115579552Y-60888061D01*
X115568917Y-60936060D01*
X115580361Y-60944012D01*
X115621656Y-60907473D01*
X115700575Y-60821998D01*
X115706387Y-60815538D01*
X115884011Y-60655189D01*
X116087385Y-60546497D01*
X116329474Y-60483855D01*
X116516805Y-60465011D01*
X116846295Y-60474186D01*
X117170368Y-60533009D01*
X117474789Y-60636473D01*
X117745319Y-60779569D01*
X117967725Y-60957291D01*
X117994260Y-60984702D01*
X118160049Y-61161944D01*
X118866766Y-61161944D01*
X118803036Y-61052496D01*
G36*
X120756173Y-62302418D02*
G01*
X120902191Y-62298451D01*
X121019141Y-62292765D01*
X121090856Y-62286278D01*
X121105271Y-62282599D01*
X121101198Y-62245703D01*
X121081232Y-62152216D01*
X121048090Y-62013608D01*
X121004488Y-61841344D01*
X120966428Y-61696480D01*
X120896931Y-61447120D01*
X120835203Y-61256878D01*
X120775580Y-61115610D01*
X120712398Y-61013170D01*
X120639994Y-60939412D01*
X120552702Y-60884190D01*
X120498991Y-60859194D01*
X120388492Y-60828069D01*
X120234509Y-60804652D01*
X120063914Y-60791375D01*
X119903581Y-60790669D01*
X119819994Y-60797765D01*
X119745432Y-60811896D01*
X119715291Y-60840899D01*
X119716430Y-60906807D01*
X119724270Y-60958273D01*
X119742686Y-61055359D01*
X119760397Y-61121021D01*
X119764633Y-61130343D01*
X119806688Y-61142779D01*
X119894562Y-61143238D01*
X119954422Y-61137962D01*
X120101560Y-61127123D01*
X120212222Y-61140411D01*
X120295617Y-61186681D01*
X120360952Y-61274790D01*
X120417435Y-61413594D01*
X120474273Y-61611951D01*
X120483188Y-61646562D01*
X120523114Y-61804647D01*
X120545016Y-61905985D01*
X120547897Y-61962304D01*
X120530761Y-61985326D01*
X120492608Y-61986778D01*
X120454690Y-61981506D01*
X120353269Y-61966620D01*
X120387055Y-62137546D01*
X120420840Y-62308472D01*
X120756173Y-62302418D01*
X120756173Y-62302418D01*
G37*
X120756173Y-62302418D02*
X120902191Y-62298451D01*
X121019141Y-62292765D01*
X121090856Y-62286278D01*
X121105271Y-62282599D01*
X121101198Y-62245703D01*
X121081232Y-62152216D01*
X121048090Y-62013608D01*
X121004488Y-61841344D01*
X120966428Y-61696480D01*
X120896931Y-61447120D01*
X120835203Y-61256878D01*
X120775580Y-61115610D01*
X120712398Y-61013170D01*
X120639994Y-60939412D01*
X120552702Y-60884190D01*
X120498991Y-60859194D01*
X120388492Y-60828069D01*
X120234509Y-60804652D01*
X120063914Y-60791375D01*
X119903581Y-60790669D01*
X119819994Y-60797765D01*
X119745432Y-60811896D01*
X119715291Y-60840899D01*
X119716430Y-60906807D01*
X119724270Y-60958273D01*
X119742686Y-61055359D01*
X119760397Y-61121021D01*
X119764633Y-61130343D01*
X119806688Y-61142779D01*
X119894562Y-61143238D01*
X119954422Y-61137962D01*
X120101560Y-61127123D01*
X120212222Y-61140411D01*
X120295617Y-61186681D01*
X120360952Y-61274790D01*
X120417435Y-61413594D01*
X120474273Y-61611951D01*
X120483188Y-61646562D01*
X120523114Y-61804647D01*
X120545016Y-61905985D01*
X120547897Y-61962304D01*
X120530761Y-61985326D01*
X120492608Y-61986778D01*
X120454690Y-61981506D01*
X120353269Y-61966620D01*
X120387055Y-62137546D01*
X120420840Y-62308472D01*
X120756173Y-62302418D01*
G36*
X123913967Y-62317069D02*
G01*
X124068561Y-62292636D01*
X124196575Y-62256851D01*
X124284403Y-62213754D01*
X124318439Y-62167383D01*
X124317219Y-62156647D01*
X124296988Y-62086198D01*
X124267230Y-61982655D01*
X124256943Y-61946875D01*
X124227091Y-61856488D01*
X124201993Y-61803096D01*
X124194853Y-61796944D01*
X124157206Y-61815349D01*
X124082840Y-61862148D01*
X124035884Y-61893958D01*
X123880155Y-61967978D01*
X123708723Y-61995135D01*
X123544594Y-61974571D01*
X123425017Y-61916729D01*
X123311686Y-61800730D01*
X123231166Y-61655965D01*
X123187814Y-61500411D01*
X123185988Y-61352049D01*
X123230047Y-61228855D01*
X123251509Y-61200977D01*
X123347290Y-61143315D01*
X123484481Y-61122330D01*
X123644576Y-61137442D01*
X123809068Y-61188072D01*
X123876444Y-61220564D01*
X123974501Y-61268288D01*
X124046596Y-61292962D01*
X124071241Y-61292185D01*
X124074946Y-61248545D01*
X124060690Y-61160138D01*
X124042481Y-61086449D01*
X124006725Y-60976056D01*
X123965697Y-60912292D01*
X123900861Y-60872486D01*
X123852458Y-60854037D01*
X123715633Y-60819960D01*
X123545525Y-60797116D01*
X123370150Y-60787458D01*
X123217523Y-60792940D01*
X123146581Y-60804806D01*
X122949675Y-60881598D01*
X122811474Y-60996530D01*
X122729025Y-61153483D01*
X122699376Y-61356338D01*
X122699324Y-61392650D01*
X122735213Y-61643858D01*
X122830707Y-61864107D01*
X122979595Y-62047859D01*
X123175666Y-62189576D01*
X123412708Y-62283722D01*
X123684510Y-62324759D01*
X123746398Y-62326111D01*
X123913967Y-62317069D01*
X123913967Y-62317069D01*
G37*
X123913967Y-62317069D02*
X124068561Y-62292636D01*
X124196575Y-62256851D01*
X124284403Y-62213754D01*
X124318439Y-62167383D01*
X124317219Y-62156647D01*
X124296988Y-62086198D01*
X124267230Y-61982655D01*
X124256943Y-61946875D01*
X124227091Y-61856488D01*
X124201993Y-61803096D01*
X124194853Y-61796944D01*
X124157206Y-61815349D01*
X124082840Y-61862148D01*
X124035884Y-61893958D01*
X123880155Y-61967978D01*
X123708723Y-61995135D01*
X123544594Y-61974571D01*
X123425017Y-61916729D01*
X123311686Y-61800730D01*
X123231166Y-61655965D01*
X123187814Y-61500411D01*
X123185988Y-61352049D01*
X123230047Y-61228855D01*
X123251509Y-61200977D01*
X123347290Y-61143315D01*
X123484481Y-61122330D01*
X123644576Y-61137442D01*
X123809068Y-61188072D01*
X123876444Y-61220564D01*
X123974501Y-61268288D01*
X124046596Y-61292962D01*
X124071241Y-61292185D01*
X124074946Y-61248545D01*
X124060690Y-61160138D01*
X124042481Y-61086449D01*
X124006725Y-60976056D01*
X123965697Y-60912292D01*
X123900861Y-60872486D01*
X123852458Y-60854037D01*
X123715633Y-60819960D01*
X123545525Y-60797116D01*
X123370150Y-60787458D01*
X123217523Y-60792940D01*
X123146581Y-60804806D01*
X122949675Y-60881598D01*
X122811474Y-60996530D01*
X122729025Y-61153483D01*
X122699376Y-61356338D01*
X122699324Y-61392650D01*
X122735213Y-61643858D01*
X122830707Y-61864107D01*
X122979595Y-62047859D01*
X123175666Y-62189576D01*
X123412708Y-62283722D01*
X123684510Y-62324759D01*
X123746398Y-62326111D01*
X123913967Y-62317069D01*
G36*
X127299832Y-62307001D02*
G01*
X127443771Y-62285948D01*
X127566554Y-62258664D01*
X127651565Y-62228142D01*
X127682222Y-62198263D01*
X127672676Y-62147720D01*
X127648825Y-62060714D01*
X127617846Y-61959979D01*
X127586920Y-61868247D01*
X127563225Y-61808251D01*
X127555490Y-61796944D01*
X127519440Y-61814748D01*
X127445050Y-61860174D01*
X127393000Y-61893958D01*
X127212507Y-61977214D01*
X127029852Y-61996770D01*
X126857569Y-61955202D01*
X126708190Y-61855084D01*
X126613120Y-61733743D01*
X126565655Y-61610688D01*
X126545553Y-61467067D01*
X126553169Y-61328584D01*
X126588859Y-61220942D01*
X126605713Y-61197815D01*
X126698713Y-61143056D01*
X126834391Y-61123340D01*
X126994513Y-61138098D01*
X127160849Y-61186762D01*
X127228291Y-61217233D01*
X127328354Y-61263233D01*
X127401330Y-61288053D01*
X127426413Y-61288401D01*
X127428783Y-61246346D01*
X127414109Y-61159050D01*
X127396447Y-61086566D01*
X127361771Y-60976746D01*
X127321373Y-60913428D01*
X127256498Y-60873772D01*
X127205972Y-60854607D01*
X127069230Y-60820485D01*
X126899721Y-60797429D01*
X126725149Y-60787410D01*
X126573222Y-60792396D01*
X126500416Y-60804439D01*
X126310035Y-60876682D01*
X126178666Y-60982360D01*
X126099427Y-61129685D01*
X126065655Y-61323367D01*
X126080031Y-61583895D01*
X126155053Y-61812799D01*
X126286081Y-62005219D01*
X126468479Y-62156293D01*
X126697609Y-62261158D01*
X126968832Y-62314953D01*
X127014942Y-62318444D01*
X127151351Y-62318830D01*
X127299832Y-62307001D01*
X127299832Y-62307001D01*
G37*
X127299832Y-62307001D02*
X127443771Y-62285948D01*
X127566554Y-62258664D01*
X127651565Y-62228142D01*
X127682222Y-62198263D01*
X127672676Y-62147720D01*
X127648825Y-62060714D01*
X127617846Y-61959979D01*
X127586920Y-61868247D01*
X127563225Y-61808251D01*
X127555490Y-61796944D01*
X127519440Y-61814748D01*
X127445050Y-61860174D01*
X127393000Y-61893958D01*
X127212507Y-61977214D01*
X127029852Y-61996770D01*
X126857569Y-61955202D01*
X126708190Y-61855084D01*
X126613120Y-61733743D01*
X126565655Y-61610688D01*
X126545553Y-61467067D01*
X126553169Y-61328584D01*
X126588859Y-61220942D01*
X126605713Y-61197815D01*
X126698713Y-61143056D01*
X126834391Y-61123340D01*
X126994513Y-61138098D01*
X127160849Y-61186762D01*
X127228291Y-61217233D01*
X127328354Y-61263233D01*
X127401330Y-61288053D01*
X127426413Y-61288401D01*
X127428783Y-61246346D01*
X127414109Y-61159050D01*
X127396447Y-61086566D01*
X127361771Y-60976746D01*
X127321373Y-60913428D01*
X127256498Y-60873772D01*
X127205972Y-60854607D01*
X127069230Y-60820485D01*
X126899721Y-60797429D01*
X126725149Y-60787410D01*
X126573222Y-60792396D01*
X126500416Y-60804439D01*
X126310035Y-60876682D01*
X126178666Y-60982360D01*
X126099427Y-61129685D01*
X126065655Y-61323367D01*
X126080031Y-61583895D01*
X126155053Y-61812799D01*
X126286081Y-62005219D01*
X126468479Y-62156293D01*
X126697609Y-62261158D01*
X126968832Y-62314953D01*
X127014942Y-62318444D01*
X127151351Y-62318830D01*
X127299832Y-62307001D01*
G36*
X121742660Y-62296642D02*
G01*
X121858088Y-62285685D01*
X121939125Y-62268678D01*
X121967222Y-62250751D01*
X121958887Y-62204930D01*
X121936392Y-62105873D01*
X121903504Y-61968586D01*
X121863987Y-61808075D01*
X121821607Y-61639344D01*
X121780130Y-61477398D01*
X121743321Y-61337244D01*
X121714945Y-61233885D01*
X121699663Y-61184551D01*
X121696794Y-61158756D01*
X121719418Y-61141926D01*
X121778816Y-61132204D01*
X121886270Y-61127736D01*
X122051642Y-61126666D01*
X122204511Y-61124344D01*
X122327180Y-61118058D01*
X122405158Y-61108835D01*
X122425636Y-61100208D01*
X122416800Y-61051792D01*
X122395156Y-60965106D01*
X122388700Y-60941458D01*
X122351961Y-60809166D01*
X121753897Y-60809166D01*
X121510550Y-60810946D01*
X121333661Y-60816461D01*
X121219216Y-60825979D01*
X121163202Y-60839765D01*
X121155833Y-60848843D01*
X121164222Y-60893637D01*
X121187651Y-60995953D01*
X121223514Y-61145000D01*
X121269201Y-61329986D01*
X121322107Y-61540122D01*
X121336966Y-61598496D01*
X121518098Y-62308472D01*
X121742660Y-62296642D01*
X121742660Y-62296642D01*
G37*
X121742660Y-62296642D02*
X121858088Y-62285685D01*
X121939125Y-62268678D01*
X121967222Y-62250751D01*
X121958887Y-62204930D01*
X121936392Y-62105873D01*
X121903504Y-61968586D01*
X121863987Y-61808075D01*
X121821607Y-61639344D01*
X121780130Y-61477398D01*
X121743321Y-61337244D01*
X121714945Y-61233885D01*
X121699663Y-61184551D01*
X121696794Y-61158756D01*
X121719418Y-61141926D01*
X121778816Y-61132204D01*
X121886270Y-61127736D01*
X122051642Y-61126666D01*
X122204511Y-61124344D01*
X122327180Y-61118058D01*
X122405158Y-61108835D01*
X122425636Y-61100208D01*
X122416800Y-61051792D01*
X122395156Y-60965106D01*
X122388700Y-60941458D01*
X122351961Y-60809166D01*
X121753897Y-60809166D01*
X121510550Y-60810946D01*
X121333661Y-60816461D01*
X121219216Y-60825979D01*
X121163202Y-60839765D01*
X121155833Y-60848843D01*
X121164222Y-60893637D01*
X121187651Y-60995953D01*
X121223514Y-61145000D01*
X121269201Y-61329986D01*
X121322107Y-61540122D01*
X121336966Y-61598496D01*
X121518098Y-62308472D01*
X121742660Y-62296642D01*
G36*
X125377525Y-62287028D02*
G01*
X125557002Y-62275235D01*
X125679548Y-62254893D01*
X125723095Y-62240696D01*
X125847552Y-62153162D01*
X125924401Y-62021933D01*
X125946151Y-61861355D01*
X125942430Y-61820715D01*
X125891060Y-61649400D01*
X125785688Y-61512390D01*
X125623309Y-61407615D01*
X125400919Y-61333000D01*
X125178234Y-61293688D01*
X125038570Y-61272840D01*
X124930098Y-61250520D01*
X124868418Y-61230242D01*
X124860000Y-61221981D01*
X124850782Y-61172910D01*
X124827031Y-61079755D01*
X124804580Y-60999804D01*
X124749160Y-60809166D01*
X124518243Y-60809166D01*
X124394147Y-60811379D01*
X124326476Y-60820701D01*
X124301164Y-60841159D01*
X124302594Y-60870903D01*
X124315780Y-60923019D01*
X124343541Y-61031936D01*
X124382930Y-61186109D01*
X124430995Y-61373996D01*
X124484789Y-61584053D01*
X124491883Y-61611736D01*
X124507061Y-61670967D01*
X124977629Y-61670967D01*
X124990558Y-61634956D01*
X125051736Y-61618101D01*
X125141836Y-61619273D01*
X125241528Y-61637346D01*
X125331486Y-61671190D01*
X125366770Y-61693671D01*
X125446669Y-61782225D01*
X125460612Y-61862440D01*
X125413195Y-61926131D01*
X125309018Y-61965113D01*
X125209648Y-61973333D01*
X125108770Y-61970309D01*
X125056850Y-61951647D01*
X125032305Y-61902963D01*
X125020607Y-61847356D01*
X124999459Y-61748638D01*
X124979369Y-61675736D01*
X124977629Y-61670967D01*
X124507061Y-61670967D01*
X124665903Y-62290833D01*
X125134501Y-62290833D01*
X125377525Y-62287028D01*
X125377525Y-62287028D01*
G37*
X125377525Y-62287028D02*
X125557002Y-62275235D01*
X125679548Y-62254893D01*
X125723095Y-62240696D01*
X125847552Y-62153162D01*
X125924401Y-62021933D01*
X125946151Y-61861355D01*
X125942430Y-61820715D01*
X125891060Y-61649400D01*
X125785688Y-61512390D01*
X125623309Y-61407615D01*
X125400919Y-61333000D01*
X125178234Y-61293688D01*
X125038570Y-61272840D01*
X124930098Y-61250520D01*
X124868418Y-61230242D01*
X124860000Y-61221981D01*
X124850782Y-61172910D01*
X124827031Y-61079755D01*
X124804580Y-60999804D01*
X124749160Y-60809166D01*
X124518243Y-60809166D01*
X124394147Y-60811379D01*
X124326476Y-60820701D01*
X124301164Y-60841159D01*
X124302594Y-60870903D01*
X124315780Y-60923019D01*
X124343541Y-61031936D01*
X124382930Y-61186109D01*
X124430995Y-61373996D01*
X124484789Y-61584053D01*
X124491883Y-61611736D01*
X124507061Y-61670967D01*
X124977629Y-61670967D01*
X124990558Y-61634956D01*
X125051736Y-61618101D01*
X125141836Y-61619273D01*
X125241528Y-61637346D01*
X125331486Y-61671190D01*
X125366770Y-61693671D01*
X125446669Y-61782225D01*
X125460612Y-61862440D01*
X125413195Y-61926131D01*
X125309018Y-61965113D01*
X125209648Y-61973333D01*
X125108770Y-61970309D01*
X125056850Y-61951647D01*
X125032305Y-61902963D01*
X125020607Y-61847356D01*
X124999459Y-61748638D01*
X124979369Y-61675736D01*
X124977629Y-61670967D01*
X124507061Y-61670967D01*
X124665903Y-62290833D01*
X125134501Y-62290833D01*
X125377525Y-62287028D01*
G36*
X128521524Y-62290434D02*
G01*
X128775090Y-62276106D01*
X128966310Y-62252086D01*
X129103139Y-62214667D01*
X129193533Y-62160142D01*
X129245448Y-62084800D01*
X129266839Y-61984936D01*
X129268600Y-61942221D01*
X129252341Y-61843117D01*
X129192147Y-61752505D01*
X129150776Y-61710734D01*
X129031831Y-61598555D01*
X129115499Y-61524030D01*
X129176220Y-61444927D01*
X129198351Y-61336970D01*
X129199166Y-61301574D01*
X129165818Y-61151259D01*
X129072682Y-61018869D01*
X128930121Y-60914786D01*
X128748500Y-60849394D01*
X128747638Y-60849209D01*
X128653757Y-60835766D01*
X128517985Y-60824690D01*
X128355657Y-60816277D01*
X128182109Y-60810823D01*
X128012678Y-60808624D01*
X127862698Y-60809978D01*
X127747506Y-60815180D01*
X127682438Y-60824526D01*
X127674671Y-60828477D01*
X127673071Y-60851538D01*
X127682422Y-60910655D01*
X127703917Y-61010752D01*
X127737884Y-61153125D01*
X128211585Y-61153125D01*
X128242390Y-61134624D01*
X128320029Y-61127257D01*
X128421799Y-61130223D01*
X128524995Y-61142726D01*
X128606911Y-61163968D01*
X128614745Y-61167298D01*
X128692880Y-61226357D01*
X128731143Y-61302039D01*
X128719473Y-61371572D01*
X128710023Y-61382976D01*
X128655749Y-61406760D01*
X128556771Y-61427461D01*
X128480013Y-61436478D01*
X128287544Y-61452439D01*
X128249663Y-61316011D01*
X128225514Y-61223116D01*
X128212374Y-61161060D01*
X128211585Y-61153125D01*
X127737884Y-61153125D01*
X127738751Y-61156758D01*
X127788116Y-61353600D01*
X127853207Y-61606204D01*
X127886706Y-61734175D01*
X128352500Y-61734175D01*
X128382317Y-61722050D01*
X128456457Y-61726663D01*
X128551950Y-61743545D01*
X128645825Y-61768223D01*
X128715113Y-61796227D01*
X128731376Y-61807924D01*
X128773429Y-61878399D01*
X128751088Y-61933378D01*
X128669920Y-61966514D01*
X128586363Y-61973333D01*
X128486874Y-61968517D01*
X128433157Y-61944729D01*
X128400604Y-61887959D01*
X128391228Y-61862236D01*
X128364794Y-61781811D01*
X128352595Y-61735638D01*
X128352500Y-61734175D01*
X127886706Y-61734175D01*
X127935218Y-61919497D01*
X127981980Y-62096805D01*
X128037910Y-62308472D01*
X128521524Y-62290434D01*
X128521524Y-62290434D01*
G37*
X128521524Y-62290434D02*
X128775090Y-62276106D01*
X128966310Y-62252086D01*
X129103139Y-62214667D01*
X129193533Y-62160142D01*
X129245448Y-62084800D01*
X129266839Y-61984936D01*
X129268600Y-61942221D01*
X129252341Y-61843117D01*
X129192147Y-61752505D01*
X129150776Y-61710734D01*
X129031831Y-61598555D01*
X129115499Y-61524030D01*
X129176220Y-61444927D01*
X129198351Y-61336970D01*
X129199166Y-61301574D01*
X129165818Y-61151259D01*
X129072682Y-61018869D01*
X128930121Y-60914786D01*
X128748500Y-60849394D01*
X128747638Y-60849209D01*
X128653757Y-60835766D01*
X128517985Y-60824690D01*
X128355657Y-60816277D01*
X128182109Y-60810823D01*
X128012678Y-60808624D01*
X127862698Y-60809978D01*
X127747506Y-60815180D01*
X127682438Y-60824526D01*
X127674671Y-60828477D01*
X127673071Y-60851538D01*
X127682422Y-60910655D01*
X127703917Y-61010752D01*
X127737884Y-61153125D01*
X128211585Y-61153125D01*
X128242390Y-61134624D01*
X128320029Y-61127257D01*
X128421799Y-61130223D01*
X128524995Y-61142726D01*
X128606911Y-61163968D01*
X128614745Y-61167298D01*
X128692880Y-61226357D01*
X128731143Y-61302039D01*
X128719473Y-61371572D01*
X128710023Y-61382976D01*
X128655749Y-61406760D01*
X128556771Y-61427461D01*
X128480013Y-61436478D01*
X128287544Y-61452439D01*
X128249663Y-61316011D01*
X128225514Y-61223116D01*
X128212374Y-61161060D01*
X128211585Y-61153125D01*
X127737884Y-61153125D01*
X127738751Y-61156758D01*
X127788116Y-61353600D01*
X127853207Y-61606204D01*
X127886706Y-61734175D01*
X128352500Y-61734175D01*
X128382317Y-61722050D01*
X128456457Y-61726663D01*
X128551950Y-61743545D01*
X128645825Y-61768223D01*
X128715113Y-61796227D01*
X128731376Y-61807924D01*
X128773429Y-61878399D01*
X128751088Y-61933378D01*
X128669920Y-61966514D01*
X128586363Y-61973333D01*
X128486874Y-61968517D01*
X128433157Y-61944729D01*
X128400604Y-61887959D01*
X128391228Y-61862236D01*
X128364794Y-61781811D01*
X128352595Y-61735638D01*
X128352500Y-61734175D01*
X127886706Y-61734175D01*
X127935218Y-61919497D01*
X127981980Y-62096805D01*
X128037910Y-62308472D01*
X128521524Y-62290434D01*
G36*
X117234819Y-62074252D02*
G01*
X117316504Y-62054573D01*
X117383025Y-62010222D01*
X117419102Y-61976047D01*
X117502431Y-61854886D01*
X117517158Y-61723876D01*
X117463655Y-61578466D01*
X117453094Y-61560532D01*
X117353095Y-61443850D01*
X117218394Y-61374090D01*
X117037421Y-61346053D01*
X116973285Y-61344994D01*
X116798797Y-61352288D01*
X116686233Y-61375309D01*
X116627590Y-61420403D01*
X116614864Y-61493913D01*
X116617026Y-61503209D01*
X116746389Y-61503209D01*
X116773830Y-61436862D01*
X116832486Y-61408997D01*
X116913459Y-61430964D01*
X116988406Y-61492134D01*
X117047381Y-61584369D01*
X117073930Y-61677343D01*
X117068790Y-61752336D01*
X117026059Y-61783638D01*
X116988329Y-61790073D01*
X116897720Y-61775489D01*
X116820759Y-61705941D01*
X116759065Y-61596685D01*
X116746389Y-61503209D01*
X116617026Y-61503209D01*
X116640051Y-61602186D01*
X116641858Y-61607707D01*
X116712640Y-61737928D01*
X116826516Y-61820014D01*
X116989711Y-61857493D01*
X117088068Y-61860664D01*
X117301021Y-61857645D01*
X117211787Y-61650833D01*
X117168715Y-61541239D01*
X117144181Y-61458874D01*
X117142977Y-61423597D01*
X117191617Y-61417729D01*
X117259277Y-61459186D01*
X117332430Y-61532690D01*
X117397550Y-61622965D01*
X117441111Y-61714735D01*
X117451534Y-61772089D01*
X117427956Y-61839162D01*
X117370477Y-61916496D01*
X117365075Y-61922020D01*
X117291866Y-61978065D01*
X117201650Y-62003660D01*
X117099359Y-62008611D01*
X116966749Y-61998510D01*
X116842148Y-61973050D01*
X116802545Y-61959437D01*
X116669974Y-61875751D01*
X116569361Y-61757846D01*
X116506459Y-61621658D01*
X116487023Y-61483122D01*
X116516810Y-61358172D01*
X116562429Y-61294609D01*
X116613259Y-61253092D01*
X116675554Y-61228923D01*
X116768911Y-61217667D01*
X116912927Y-61214886D01*
X116914599Y-61214886D01*
X117117163Y-61225051D01*
X117269325Y-61257347D01*
X117326589Y-61280109D01*
X117410354Y-61317790D01*
X117441166Y-61324809D01*
X117429423Y-61301558D01*
X117414783Y-61283439D01*
X117313585Y-61208388D01*
X117165689Y-61155552D01*
X116992029Y-61127043D01*
X116813540Y-61124973D01*
X116651156Y-61151457D01*
X116545178Y-61195671D01*
X116446940Y-61291685D01*
X116400797Y-61417911D01*
X116403267Y-61561099D01*
X116450865Y-61707998D01*
X116540111Y-61845357D01*
X116667520Y-61959923D01*
X116759654Y-62011676D01*
X116910131Y-62057560D01*
X117087371Y-62078012D01*
X117110422Y-62078392D01*
X117234819Y-62074252D01*
X117234819Y-62074252D01*
G37*
X117234819Y-62074252D02*
X117316504Y-62054573D01*
X117383025Y-62010222D01*
X117419102Y-61976047D01*
X117502431Y-61854886D01*
X117517158Y-61723876D01*
X117463655Y-61578466D01*
X117453094Y-61560532D01*
X117353095Y-61443850D01*
X117218394Y-61374090D01*
X117037421Y-61346053D01*
X116973285Y-61344994D01*
X116798797Y-61352288D01*
X116686233Y-61375309D01*
X116627590Y-61420403D01*
X116614864Y-61493913D01*
X116617026Y-61503209D01*
X116746389Y-61503209D01*
X116773830Y-61436862D01*
X116832486Y-61408997D01*
X116913459Y-61430964D01*
X116988406Y-61492134D01*
X117047381Y-61584369D01*
X117073930Y-61677343D01*
X117068790Y-61752336D01*
X117026059Y-61783638D01*
X116988329Y-61790073D01*
X116897720Y-61775489D01*
X116820759Y-61705941D01*
X116759065Y-61596685D01*
X116746389Y-61503209D01*
X116617026Y-61503209D01*
X116640051Y-61602186D01*
X116641858Y-61607707D01*
X116712640Y-61737928D01*
X116826516Y-61820014D01*
X116989711Y-61857493D01*
X117088068Y-61860664D01*
X117301021Y-61857645D01*
X117211787Y-61650833D01*
X117168715Y-61541239D01*
X117144181Y-61458874D01*
X117142977Y-61423597D01*
X117191617Y-61417729D01*
X117259277Y-61459186D01*
X117332430Y-61532690D01*
X117397550Y-61622965D01*
X117441111Y-61714735D01*
X117451534Y-61772089D01*
X117427956Y-61839162D01*
X117370477Y-61916496D01*
X117365075Y-61922020D01*
X117291866Y-61978065D01*
X117201650Y-62003660D01*
X117099359Y-62008611D01*
X116966749Y-61998510D01*
X116842148Y-61973050D01*
X116802545Y-61959437D01*
X116669974Y-61875751D01*
X116569361Y-61757846D01*
X116506459Y-61621658D01*
X116487023Y-61483122D01*
X116516810Y-61358172D01*
X116562429Y-61294609D01*
X116613259Y-61253092D01*
X116675554Y-61228923D01*
X116768911Y-61217667D01*
X116912927Y-61214886D01*
X116914599Y-61214886D01*
X117117163Y-61225051D01*
X117269325Y-61257347D01*
X117326589Y-61280109D01*
X117410354Y-61317790D01*
X117441166Y-61324809D01*
X117429423Y-61301558D01*
X117414783Y-61283439D01*
X117313585Y-61208388D01*
X117165689Y-61155552D01*
X116992029Y-61127043D01*
X116813540Y-61124973D01*
X116651156Y-61151457D01*
X116545178Y-61195671D01*
X116446940Y-61291685D01*
X116400797Y-61417911D01*
X116403267Y-61561099D01*
X116450865Y-61707998D01*
X116540111Y-61845357D01*
X116667520Y-61959923D01*
X116759654Y-62011676D01*
X116910131Y-62057560D01*
X117087371Y-62078012D01*
X117110422Y-62078392D01*
X117234819Y-62074252D01*
G36*
X116406384Y-62195468D02*
G01*
X116406084Y-62156742D01*
X116392872Y-62067027D01*
X116370366Y-61943926D01*
X116342187Y-61805042D01*
X116311953Y-61667976D01*
X116283286Y-61550330D01*
X116259804Y-61469709D01*
X116254085Y-61454852D01*
X116173104Y-61350730D01*
X116048897Y-61281258D01*
X115903183Y-61253515D01*
X115757681Y-61274578D01*
X115731875Y-61284672D01*
X115644179Y-61342520D01*
X115621227Y-61405619D01*
X115664928Y-61465348D01*
X115688610Y-61479890D01*
X115759352Y-61498177D01*
X115814602Y-61463492D01*
X115893213Y-61411001D01*
X115962452Y-61422155D01*
X116023679Y-61498655D01*
X116078250Y-61642197D01*
X116127523Y-61854482D01*
X116127663Y-61855220D01*
X116157497Y-62006457D01*
X116181576Y-62102012D01*
X116206573Y-62155657D01*
X116239162Y-62181160D01*
X116286016Y-62192294D01*
X116291405Y-62193098D01*
X116368435Y-62200009D01*
X116406384Y-62195468D01*
X116406384Y-62195468D01*
G37*
X116406384Y-62195468D02*
X116406084Y-62156742D01*
X116392872Y-62067027D01*
X116370366Y-61943926D01*
X116342187Y-61805042D01*
X116311953Y-61667976D01*
X116283286Y-61550330D01*
X116259804Y-61469709D01*
X116254085Y-61454852D01*
X116173104Y-61350730D01*
X116048897Y-61281258D01*
X115903183Y-61253515D01*
X115757681Y-61274578D01*
X115731875Y-61284672D01*
X115644179Y-61342520D01*
X115621227Y-61405619D01*
X115664928Y-61465348D01*
X115688610Y-61479890D01*
X115759352Y-61498177D01*
X115814602Y-61463492D01*
X115893213Y-61411001D01*
X115962452Y-61422155D01*
X116023679Y-61498655D01*
X116078250Y-61642197D01*
X116127523Y-61854482D01*
X116127663Y-61855220D01*
X116157497Y-62006457D01*
X116181576Y-62102012D01*
X116206573Y-62155657D01*
X116239162Y-62181160D01*
X116286016Y-62192294D01*
X116291405Y-62193098D01*
X116368435Y-62200009D01*
X116406384Y-62195468D01*
G36*
X119230362Y-62172210D02*
G01*
X119275946Y-62139728D01*
X119302103Y-62096876D01*
X119276910Y-62051289D01*
X119251097Y-62026489D01*
X119188393Y-61984430D01*
X119142791Y-61997066D01*
X119137110Y-62002389D01*
X119051314Y-62042764D01*
X118941966Y-62033010D01*
X118831016Y-61976922D01*
X118791315Y-61942576D01*
X118702191Y-61822012D01*
X118661809Y-61698700D01*
X118665116Y-61584675D01*
X118707060Y-61491971D01*
X118782590Y-61432624D01*
X118886652Y-61418668D01*
X118996838Y-61453001D01*
X119074039Y-61486171D01*
X119120733Y-61482070D01*
X119163723Y-61442968D01*
X119198374Y-61395953D01*
X119184591Y-61363748D01*
X119121707Y-61327486D01*
X118939071Y-61265075D01*
X118750597Y-61253003D01*
X118715578Y-61257204D01*
X118626948Y-61292118D01*
X118535750Y-61357812D01*
X118526740Y-61366492D01*
X118472368Y-61429168D01*
X118446609Y-61492778D01*
X118442206Y-61583986D01*
X118446635Y-61660824D01*
X118490031Y-61864846D01*
X118587653Y-62023803D01*
X118739855Y-62138190D01*
X118808929Y-62168880D01*
X118961327Y-62206176D01*
X119109438Y-62206810D01*
X119230362Y-62172210D01*
X119230362Y-62172210D01*
G37*
X119230362Y-62172210D02*
X119275946Y-62139728D01*
X119302103Y-62096876D01*
X119276910Y-62051289D01*
X119251097Y-62026489D01*
X119188393Y-61984430D01*
X119142791Y-61997066D01*
X119137110Y-62002389D01*
X119051314Y-62042764D01*
X118941966Y-62033010D01*
X118831016Y-61976922D01*
X118791315Y-61942576D01*
X118702191Y-61822012D01*
X118661809Y-61698700D01*
X118665116Y-61584675D01*
X118707060Y-61491971D01*
X118782590Y-61432624D01*
X118886652Y-61418668D01*
X118996838Y-61453001D01*
X119074039Y-61486171D01*
X119120733Y-61482070D01*
X119163723Y-61442968D01*
X119198374Y-61395953D01*
X119184591Y-61363748D01*
X119121707Y-61327486D01*
X118939071Y-61265075D01*
X118750597Y-61253003D01*
X118715578Y-61257204D01*
X118626948Y-61292118D01*
X118535750Y-61357812D01*
X118526740Y-61366492D01*
X118472368Y-61429168D01*
X118446609Y-61492778D01*
X118442206Y-61583986D01*
X118446635Y-61660824D01*
X118490031Y-61864846D01*
X118587653Y-62023803D01*
X118739855Y-62138190D01*
X118808929Y-62168880D01*
X118961327Y-62206176D01*
X119109438Y-62206810D01*
X119230362Y-62172210D01*
G36*
X117909855Y-62202639D02*
G01*
X117984423Y-62201211D01*
X118016101Y-62197769D01*
X118016111Y-62197703D01*
X118009485Y-62163419D01*
X117991631Y-62075002D01*
X117965586Y-61947416D01*
X117945555Y-61849861D01*
X117915564Y-61701107D01*
X117891908Y-61578074D01*
X117877700Y-61497271D01*
X117875000Y-61475561D01*
X117907076Y-61459130D01*
X117990574Y-61447766D01*
X118090440Y-61444166D01*
X118209253Y-61441514D01*
X118270989Y-61430994D01*
X118289014Y-61408763D01*
X118284468Y-61388365D01*
X118265432Y-61321155D01*
X118263055Y-61300170D01*
X118230357Y-61286162D01*
X118142547Y-61275202D01*
X118015052Y-61268804D01*
X117932631Y-61267778D01*
X117602207Y-61267778D01*
X117686270Y-61682291D01*
X117726790Y-61881809D01*
X117757055Y-62022543D01*
X117781460Y-62114727D01*
X117804404Y-62168595D01*
X117830284Y-62194381D01*
X117863497Y-62202318D01*
X117908439Y-62202640D01*
X117909855Y-62202639D01*
X117909855Y-62202639D01*
G37*
X117909855Y-62202639D02*
X117984423Y-62201211D01*
X118016101Y-62197769D01*
X118016111Y-62197703D01*
X118009485Y-62163419D01*
X117991631Y-62075002D01*
X117965586Y-61947416D01*
X117945555Y-61849861D01*
X117915564Y-61701107D01*
X117891908Y-61578074D01*
X117877700Y-61497271D01*
X117875000Y-61475561D01*
X117907076Y-61459130D01*
X117990574Y-61447766D01*
X118090440Y-61444166D01*
X118209253Y-61441514D01*
X118270989Y-61430994D01*
X118289014Y-61408763D01*
X118284468Y-61388365D01*
X118265432Y-61321155D01*
X118263055Y-61300170D01*
X118230357Y-61286162D01*
X118142547Y-61275202D01*
X118015052Y-61268804D01*
X117932631Y-61267778D01*
X117602207Y-61267778D01*
X117686270Y-61682291D01*
X117726790Y-61881809D01*
X117757055Y-62022543D01*
X117781460Y-62114727D01*
X117804404Y-62168595D01*
X117830284Y-62194381D01*
X117863497Y-62202318D01*
X117908439Y-62202640D01*
X117909855Y-62202639D01*
G36*
X118000406Y-62860478D02*
G01*
X118215647Y-62829338D01*
X118396877Y-62769545D01*
X118561361Y-62675139D01*
X118726366Y-62540159D01*
X118749928Y-62518216D01*
X118950972Y-62328684D01*
X118572549Y-62327397D01*
X118404200Y-62327731D01*
X118292068Y-62331901D01*
X118221824Y-62342611D01*
X118179140Y-62362563D01*
X118149685Y-62394461D01*
X118139800Y-62409023D01*
X118078984Y-62471575D01*
X117979880Y-62544888D01*
X117901299Y-62592176D01*
X117700754Y-62668138D01*
X117456269Y-62706873D01*
X117184614Y-62707105D01*
X116904861Y-62668043D01*
X116782308Y-62643920D01*
X116690178Y-62629124D01*
X116646815Y-62626558D01*
X116645898Y-62627055D01*
X116671976Y-62641922D01*
X116751886Y-62673324D01*
X116872278Y-62716248D01*
X116981037Y-62752962D01*
X117147200Y-62805249D01*
X117282314Y-62838952D01*
X117412630Y-62858114D01*
X117564400Y-62866778D01*
X117733888Y-62868922D01*
X118000406Y-62860478D01*
X118000406Y-62860478D01*
G37*
X118000406Y-62860478D02*
X118215647Y-62829338D01*
X118396877Y-62769545D01*
X118561361Y-62675139D01*
X118726366Y-62540159D01*
X118749928Y-62518216D01*
X118950972Y-62328684D01*
X118572549Y-62327397D01*
X118404200Y-62327731D01*
X118292068Y-62331901D01*
X118221824Y-62342611D01*
X118179140Y-62362563D01*
X118149685Y-62394461D01*
X118139800Y-62409023D01*
X118078984Y-62471575D01*
X117979880Y-62544888D01*
X117901299Y-62592176D01*
X117700754Y-62668138D01*
X117456269Y-62706873D01*
X117184614Y-62707105D01*
X116904861Y-62668043D01*
X116782308Y-62643920D01*
X116690178Y-62629124D01*
X116646815Y-62626558D01*
X116645898Y-62627055D01*
X116671976Y-62641922D01*
X116751886Y-62673324D01*
X116872278Y-62716248D01*
X116981037Y-62752962D01*
X117147200Y-62805249D01*
X117282314Y-62838952D01*
X117412630Y-62858114D01*
X117564400Y-62866778D01*
X117733888Y-62868922D01*
X118000406Y-62860478D01*
G36*
X116605000Y-62590694D02*
G01*
X116587361Y-62573055D01*
X116569722Y-62590694D01*
X116587361Y-62608333D01*
X116605000Y-62590694D01*
X116605000Y-62590694D01*
G37*
X116605000Y-62590694D02*
X116587361Y-62573055D01*
X116569722Y-62590694D01*
X116587361Y-62608333D01*
X116605000Y-62590694D01*
G36*
X90832752Y-64942795D02*
G01*
X90660294Y-64944022D01*
X89751372Y-65838614D01*
X88842451Y-66733206D01*
X88008235Y-66734510D01*
X88008235Y-67279301D01*
X87902402Y-67293339D01*
X87854163Y-67298655D01*
X87763321Y-67307614D01*
X87635296Y-67319739D01*
X87475506Y-67334550D01*
X87289370Y-67351568D01*
X87082307Y-67370313D01*
X86859735Y-67390306D01*
X86627074Y-67411068D01*
X86389743Y-67432120D01*
X86153160Y-67452983D01*
X85922744Y-67473177D01*
X85703914Y-67492222D01*
X85502089Y-67509641D01*
X85322688Y-67524953D01*
X85171130Y-67537679D01*
X85052832Y-67547341D01*
X84973216Y-67553458D01*
X84937698Y-67555551D01*
X84937529Y-67555550D01*
X84909030Y-67540284D01*
X84850185Y-67494430D01*
X84760309Y-67417365D01*
X84638717Y-67308465D01*
X84484724Y-67167105D01*
X84297645Y-66992662D01*
X84076796Y-66784512D01*
X83821490Y-66542032D01*
X83750000Y-66473875D01*
X82616961Y-65392925D01*
X82529804Y-65480316D01*
X82442647Y-65567706D01*
X82596479Y-65709098D01*
X82652074Y-65760824D01*
X82738047Y-65841624D01*
X82848765Y-65946167D01*
X82978597Y-66069121D01*
X83121911Y-66205157D01*
X83273073Y-66348941D01*
X83363356Y-66434960D01*
X83532491Y-66596451D01*
X83667967Y-66726983D01*
X83772248Y-66829884D01*
X83847797Y-66908483D01*
X83897078Y-66966108D01*
X83922554Y-67006089D01*
X83926689Y-67031752D01*
X83911946Y-67046427D01*
X83880788Y-67053442D01*
X83835680Y-67056125D01*
X83823370Y-67056485D01*
X83738567Y-67075137D01*
X83636066Y-67121094D01*
X83532076Y-67185181D01*
X83442809Y-67258226D01*
X83415234Y-67287454D01*
X83318750Y-67437422D01*
X83264766Y-67612605D01*
X83251961Y-67767488D01*
X83276114Y-67943014D01*
X83346939Y-68105121D01*
X83461983Y-68248596D01*
X83490619Y-68275068D01*
X83600588Y-68371867D01*
X83600588Y-70046471D01*
X83251961Y-70046471D01*
X83251961Y-70494706D01*
X83414832Y-70494706D01*
X83526020Y-70500331D01*
X83603195Y-70519229D01*
X83645175Y-70542197D01*
X83675211Y-70558607D01*
X83718761Y-70572659D01*
X83782280Y-70585284D01*
X83872226Y-70597413D01*
X83995053Y-70609976D01*
X84157218Y-70623906D01*
X84277856Y-70633444D01*
X84843066Y-70677200D01*
X83754915Y-71751374D01*
X83558019Y-71945595D01*
X83368719Y-72132043D01*
X83190494Y-72307310D01*
X83026820Y-72467989D01*
X82881176Y-72610674D01*
X82757038Y-72731958D01*
X82657885Y-72828434D01*
X82587193Y-72896696D01*
X82548480Y-72933298D01*
X82487189Y-72993432D01*
X82444441Y-73043592D01*
X82430196Y-73070571D01*
X82446882Y-73105032D01*
X82488575Y-73155264D01*
X82505553Y-73172291D01*
X82580911Y-73244488D01*
X82984836Y-72846999D01*
X83087734Y-72745592D01*
X83220180Y-72614833D01*
X83376375Y-72460459D01*
X83550522Y-72288204D01*
X83736824Y-72103806D01*
X83929482Y-71913001D01*
X84122699Y-71721523D01*
X84261223Y-71584167D01*
X84472322Y-71375372D01*
X84651040Y-71199962D01*
X84799796Y-71055692D01*
X84921009Y-70940320D01*
X85017097Y-70851601D01*
X85067273Y-70807630D01*
X85067273Y-70454531D01*
X84502019Y-70410323D01*
X84336332Y-70396991D01*
X84184815Y-70384095D01*
X84055389Y-70372364D01*
X83955973Y-70362530D01*
X83894485Y-70355324D01*
X83880735Y-70353005D01*
X83824706Y-70339895D01*
X83824706Y-68459564D01*
X83981075Y-68447012D01*
X84165827Y-68409116D01*
X84329258Y-68329812D01*
X84465415Y-68214101D01*
X84568346Y-68066981D01*
X84630134Y-67901854D01*
X84659117Y-67848284D01*
X84721320Y-67821465D01*
X84724063Y-67820903D01*
X84750323Y-67817685D01*
X84777213Y-67821663D01*
X84809721Y-67836719D01*
X84852834Y-67866736D01*
X84911539Y-67915597D01*
X84990826Y-67987184D01*
X85095681Y-68085380D01*
X85231093Y-68214068D01*
X85239814Y-68222383D01*
X85385163Y-68360800D01*
X85539979Y-68507957D01*
X85693603Y-68653741D01*
X85835377Y-68788042D01*
X85954645Y-68900747D01*
X85981308Y-68925882D01*
X86081847Y-69022238D01*
X86167885Y-69107834D01*
X86233504Y-69176527D01*
X86272786Y-69222172D01*
X86281420Y-69237497D01*
X86263350Y-69260352D01*
X86213781Y-69313799D01*
X86136838Y-69393630D01*
X86036649Y-69495636D01*
X85917340Y-69615608D01*
X85783038Y-69749337D01*
X85672411Y-69858636D01*
X85067273Y-70454531D01*
X85067273Y-70807630D01*
X85090481Y-70787292D01*
X85143580Y-70745148D01*
X85178811Y-70722927D01*
X85195127Y-70717983D01*
X85230734Y-70719856D01*
X85311331Y-70725546D01*
X85432280Y-70734685D01*
X85588942Y-70746904D01*
X85776680Y-70761836D01*
X85990854Y-70779113D01*
X86226828Y-70798365D01*
X86479964Y-70819225D01*
X86682271Y-70836037D01*
X87822901Y-70931157D01*
X87822901Y-70686398D01*
X87798286Y-70685344D01*
X87728959Y-70680386D01*
X87619829Y-70671922D01*
X87475800Y-70660352D01*
X87301781Y-70646072D01*
X87102678Y-70629483D01*
X86883396Y-70610981D01*
X86675203Y-70593225D01*
X86438984Y-70573113D01*
X86216000Y-70554379D01*
X86011572Y-70537454D01*
X85831025Y-70522765D01*
X85679680Y-70510743D01*
X85562861Y-70501817D01*
X85485889Y-70496415D01*
X85455996Y-70494916D01*
X85437392Y-70492577D01*
X85430009Y-70483311D01*
X85436930Y-70463546D01*
X85461233Y-70429710D01*
X85506001Y-70378231D01*
X85574312Y-70305538D01*
X85669249Y-70208058D01*
X85793890Y-70082221D01*
X85927083Y-69948703D01*
X86472663Y-69402699D01*
X86476765Y-69406526D01*
X86476765Y-69045613D01*
X86454239Y-69029164D01*
X86401199Y-68983117D01*
X86322519Y-68912086D01*
X86223074Y-68820686D01*
X86107739Y-68713532D01*
X85981388Y-68595240D01*
X85848896Y-68470424D01*
X85715137Y-68343700D01*
X85584987Y-68219682D01*
X85463320Y-68102987D01*
X85355010Y-67998228D01*
X85264932Y-67910021D01*
X85197962Y-67842981D01*
X85158973Y-67801724D01*
X85151030Y-67790473D01*
X85176668Y-67786764D01*
X85247481Y-67779065D01*
X85359036Y-67767798D01*
X85506900Y-67753389D01*
X85686641Y-67736259D01*
X85893825Y-67716833D01*
X86124019Y-67695533D01*
X86372790Y-67672783D01*
X86573385Y-67654619D01*
X86833488Y-67631384D01*
X87078516Y-67609917D01*
X87304024Y-67590579D01*
X87505568Y-67573732D01*
X87678703Y-67559735D01*
X87818982Y-67548950D01*
X87921963Y-67541739D01*
X87983199Y-67538461D01*
X87999098Y-67538836D01*
X87984936Y-67558426D01*
X87939413Y-67608311D01*
X87866936Y-67684132D01*
X87771910Y-67781528D01*
X87658742Y-67896136D01*
X87531838Y-68023597D01*
X87395604Y-68159548D01*
X87254446Y-68299629D01*
X87112770Y-68439478D01*
X86974984Y-68574735D01*
X86845492Y-68701038D01*
X86728700Y-68814026D01*
X86629016Y-68909338D01*
X86550846Y-68982612D01*
X86498594Y-69029489D01*
X86476765Y-69045613D01*
X86476765Y-69406526D01*
X86690868Y-69606301D01*
X86801607Y-69709992D01*
X86925241Y-69826372D01*
X87056946Y-69950840D01*
X87191900Y-70078794D01*
X87325280Y-70205633D01*
X87452263Y-70326755D01*
X87568028Y-70437558D01*
X87667750Y-70533442D01*
X87746608Y-70609806D01*
X87799778Y-70662046D01*
X87822438Y-70685563D01*
X87822901Y-70686398D01*
X87822901Y-70931157D01*
X88107974Y-70954931D01*
X90609480Y-73333529D01*
X90959118Y-73331779D01*
X90753897Y-73139664D01*
X90639436Y-73032145D01*
X90504959Y-72905204D01*
X90354044Y-72762266D01*
X90190271Y-72606757D01*
X90017218Y-72442103D01*
X89838463Y-72271729D01*
X89657585Y-72099061D01*
X89478162Y-71927525D01*
X89303774Y-71760546D01*
X89137998Y-71601550D01*
X88984414Y-71453963D01*
X88846600Y-71321211D01*
X88728134Y-71206718D01*
X88632596Y-71113912D01*
X88563563Y-71046217D01*
X88524615Y-71007060D01*
X88517143Y-70998478D01*
X88543134Y-70997888D01*
X88609681Y-71001134D01*
X88707728Y-71007653D01*
X88828221Y-71016880D01*
X88876355Y-71020841D01*
X89228431Y-71050339D01*
X89228431Y-70819380D01*
X89172402Y-70807456D01*
X89128091Y-70801375D01*
X89044717Y-70792830D01*
X88932903Y-70782809D01*
X88803272Y-70772299D01*
X88755294Y-70768662D01*
X88617540Y-70757934D01*
X88489613Y-70747106D01*
X88383601Y-70737261D01*
X88311591Y-70729482D01*
X88298523Y-70727728D01*
X88271693Y-70721111D01*
X88240288Y-70706788D01*
X88200786Y-70681713D01*
X88149668Y-70642841D01*
X88083411Y-70587126D01*
X87998497Y-70511523D01*
X87891405Y-70412987D01*
X87758614Y-70288471D01*
X87596603Y-70134930D01*
X87432217Y-69978300D01*
X87269539Y-69822470D01*
X87118882Y-69677006D01*
X86983907Y-69545531D01*
X86868278Y-69431665D01*
X86775657Y-69339030D01*
X86709706Y-69271246D01*
X86674090Y-69231935D01*
X86668792Y-69223552D01*
X86688004Y-69201496D01*
X86738107Y-69149942D01*
X86814074Y-69073894D01*
X86910879Y-68978355D01*
X87023496Y-68868328D01*
X87105539Y-68788760D01*
X87535098Y-68373350D01*
X87535098Y-69598235D01*
X88008235Y-69598235D01*
X88008235Y-68104118D01*
X87797418Y-68104118D01*
X88070490Y-67830196D01*
X88264200Y-67635884D01*
X88264200Y-67257451D01*
X88233642Y-67253831D01*
X88216617Y-67235509D01*
X88209199Y-67191293D01*
X88207464Y-67109988D01*
X88207451Y-67095588D01*
X88207451Y-66933726D01*
X88641796Y-66933726D01*
X88481372Y-67095588D01*
X88383839Y-67186895D01*
X88309117Y-67241507D01*
X88264200Y-67257451D01*
X88264200Y-67635884D01*
X88343562Y-67556275D01*
X88586781Y-67556275D01*
X88698677Y-67555512D01*
X88769863Y-67552021D01*
X88809421Y-67544000D01*
X88826438Y-67529644D01*
X88830000Y-67507996D01*
X88835229Y-67483920D01*
X88856195Y-67466125D01*
X88900814Y-67452459D01*
X88977003Y-67440772D01*
X89092680Y-67428911D01*
X89135049Y-67425104D01*
X89228431Y-67416863D01*
X89228431Y-70819380D01*
X89228431Y-71050339D01*
X89228431Y-71366275D01*
X89452549Y-71366275D01*
X89452549Y-71232013D01*
X89454700Y-71153486D01*
X89465081Y-71110817D01*
X89471260Y-71105597D01*
X89471260Y-70830593D01*
X89457145Y-70816120D01*
X89452788Y-70765986D01*
X89452549Y-70732151D01*
X89452549Y-70619216D01*
X89452549Y-70198064D01*
X89452549Y-67396755D01*
X89549581Y-67491504D01*
X89669319Y-67638664D01*
X89761670Y-67820793D01*
X89827900Y-68040977D01*
X89864530Y-68259755D01*
X89881621Y-68402941D01*
X89701569Y-68402941D01*
X89701569Y-69548431D01*
X89905839Y-69548431D01*
X89888803Y-69716520D01*
X89874426Y-69833963D01*
X89855367Y-69959091D01*
X89841755Y-70034020D01*
X89811743Y-70183431D01*
X89632146Y-70190748D01*
X89452549Y-70198064D01*
X89452549Y-70619216D01*
X89552157Y-70619216D01*
X89614557Y-70622508D01*
X89649240Y-70630733D01*
X89651765Y-70634048D01*
X89635792Y-70670914D01*
X89597043Y-70724774D01*
X89549268Y-70778769D01*
X89506219Y-70816038D01*
X89500621Y-70819358D01*
X89471260Y-70830593D01*
X89471260Y-71105597D01*
X89489584Y-71090115D01*
X89516276Y-71081758D01*
X89585544Y-71047648D01*
X89668815Y-70982136D01*
X89754413Y-70896493D01*
X89830661Y-70801991D01*
X89870375Y-70739917D01*
X89913845Y-70669205D01*
X89950362Y-70632956D01*
X89993422Y-70620220D01*
X90019069Y-70619241D01*
X90025294Y-70619240D01*
X90025294Y-69349216D01*
X89900784Y-69349216D01*
X89900784Y-68602157D01*
X90025294Y-68602157D01*
X90025294Y-69349216D01*
X90025294Y-70619240D01*
X90100000Y-70619216D01*
X90100000Y-70409624D01*
X90097669Y-70313193D01*
X90091457Y-70238037D01*
X90082535Y-70196257D01*
X90078922Y-70191732D01*
X90073376Y-70165230D01*
X90075648Y-70100733D01*
X90085065Y-70009323D01*
X90093760Y-69946863D01*
X90110841Y-69833608D01*
X90126261Y-69730030D01*
X90137637Y-69652192D01*
X90140868Y-69629363D01*
X90159340Y-69569718D01*
X90188285Y-69548431D01*
X90200074Y-69541959D01*
X90209067Y-69518808D01*
X90215619Y-69473374D01*
X90220085Y-69400055D01*
X90222819Y-69293246D01*
X90224174Y-69147346D01*
X90224510Y-68975686D01*
X90224319Y-68792481D01*
X90223421Y-68653108D01*
X90221323Y-68551596D01*
X90217533Y-68481974D01*
X90211561Y-68438269D01*
X90202915Y-68414512D01*
X90191103Y-68404731D01*
X90177370Y-68402941D01*
X90133779Y-68387705D01*
X90108973Y-68337799D01*
X90100126Y-68246924D01*
X90100000Y-68230574D01*
X90084124Y-68076680D01*
X90040421Y-67901891D01*
X89974776Y-67721968D01*
X89893073Y-67552676D01*
X89801199Y-67409777D01*
X89786642Y-67391269D01*
X89739280Y-67330944D01*
X89720310Y-67295220D01*
X89726443Y-67270272D01*
X89751744Y-67244664D01*
X89801305Y-67169028D01*
X89820331Y-67070591D01*
X89810436Y-66964588D01*
X89773237Y-66866254D01*
X89710349Y-66790824D01*
X89703039Y-66785361D01*
X89585646Y-66728919D01*
X89464131Y-66718418D01*
X89348293Y-66752699D01*
X89247932Y-66830604D01*
X89239645Y-66840130D01*
X89200278Y-66895442D01*
X89182942Y-66951562D01*
X89181690Y-67030459D01*
X89182800Y-67050168D01*
X89185633Y-67127362D01*
X89179143Y-67167124D01*
X89159559Y-67181519D01*
X89141274Y-67182996D01*
X89088232Y-67186013D01*
X89008461Y-67193500D01*
X88960735Y-67198881D01*
X88884931Y-67206686D01*
X88846126Y-67203440D01*
X88831942Y-67184617D01*
X88830000Y-67151089D01*
X88836413Y-67131204D01*
X88857169Y-67099126D01*
X88894544Y-67052478D01*
X88950811Y-66988882D01*
X89028245Y-66905962D01*
X89129122Y-66801340D01*
X89255717Y-66672639D01*
X89410304Y-66517482D01*
X89595158Y-66333492D01*
X89812554Y-66118291D01*
X89917605Y-66014581D01*
X91005209Y-64941569D01*
X90832752Y-64942795D01*
X90832752Y-64942795D01*
G37*
X90832752Y-64942795D02*
X90660294Y-64944022D01*
X89751372Y-65838614D01*
X88842451Y-66733206D01*
X88008235Y-66734510D01*
X88008235Y-67279301D01*
X87902402Y-67293339D01*
X87854163Y-67298655D01*
X87763321Y-67307614D01*
X87635296Y-67319739D01*
X87475506Y-67334550D01*
X87289370Y-67351568D01*
X87082307Y-67370313D01*
X86859735Y-67390306D01*
X86627074Y-67411068D01*
X86389743Y-67432120D01*
X86153160Y-67452983D01*
X85922744Y-67473177D01*
X85703914Y-67492222D01*
X85502089Y-67509641D01*
X85322688Y-67524953D01*
X85171130Y-67537679D01*
X85052832Y-67547341D01*
X84973216Y-67553458D01*
X84937698Y-67555551D01*
X84937529Y-67555550D01*
X84909030Y-67540284D01*
X84850185Y-67494430D01*
X84760309Y-67417365D01*
X84638717Y-67308465D01*
X84484724Y-67167105D01*
X84297645Y-66992662D01*
X84076796Y-66784512D01*
X83821490Y-66542032D01*
X83750000Y-66473875D01*
X82616961Y-65392925D01*
X82529804Y-65480316D01*
X82442647Y-65567706D01*
X82596479Y-65709098D01*
X82652074Y-65760824D01*
X82738047Y-65841624D01*
X82848765Y-65946167D01*
X82978597Y-66069121D01*
X83121911Y-66205157D01*
X83273073Y-66348941D01*
X83363356Y-66434960D01*
X83532491Y-66596451D01*
X83667967Y-66726983D01*
X83772248Y-66829884D01*
X83847797Y-66908483D01*
X83897078Y-66966108D01*
X83922554Y-67006089D01*
X83926689Y-67031752D01*
X83911946Y-67046427D01*
X83880788Y-67053442D01*
X83835680Y-67056125D01*
X83823370Y-67056485D01*
X83738567Y-67075137D01*
X83636066Y-67121094D01*
X83532076Y-67185181D01*
X83442809Y-67258226D01*
X83415234Y-67287454D01*
X83318750Y-67437422D01*
X83264766Y-67612605D01*
X83251961Y-67767488D01*
X83276114Y-67943014D01*
X83346939Y-68105121D01*
X83461983Y-68248596D01*
X83490619Y-68275068D01*
X83600588Y-68371867D01*
X83600588Y-70046471D01*
X83251961Y-70046471D01*
X83251961Y-70494706D01*
X83414832Y-70494706D01*
X83526020Y-70500331D01*
X83603195Y-70519229D01*
X83645175Y-70542197D01*
X83675211Y-70558607D01*
X83718761Y-70572659D01*
X83782280Y-70585284D01*
X83872226Y-70597413D01*
X83995053Y-70609976D01*
X84157218Y-70623906D01*
X84277856Y-70633444D01*
X84843066Y-70677200D01*
X83754915Y-71751374D01*
X83558019Y-71945595D01*
X83368719Y-72132043D01*
X83190494Y-72307310D01*
X83026820Y-72467989D01*
X82881176Y-72610674D01*
X82757038Y-72731958D01*
X82657885Y-72828434D01*
X82587193Y-72896696D01*
X82548480Y-72933298D01*
X82487189Y-72993432D01*
X82444441Y-73043592D01*
X82430196Y-73070571D01*
X82446882Y-73105032D01*
X82488575Y-73155264D01*
X82505553Y-73172291D01*
X82580911Y-73244488D01*
X82984836Y-72846999D01*
X83087734Y-72745592D01*
X83220180Y-72614833D01*
X83376375Y-72460459D01*
X83550522Y-72288204D01*
X83736824Y-72103806D01*
X83929482Y-71913001D01*
X84122699Y-71721523D01*
X84261223Y-71584167D01*
X84472322Y-71375372D01*
X84651040Y-71199962D01*
X84799796Y-71055692D01*
X84921009Y-70940320D01*
X85017097Y-70851601D01*
X85067273Y-70807630D01*
X85067273Y-70454531D01*
X84502019Y-70410323D01*
X84336332Y-70396991D01*
X84184815Y-70384095D01*
X84055389Y-70372364D01*
X83955973Y-70362530D01*
X83894485Y-70355324D01*
X83880735Y-70353005D01*
X83824706Y-70339895D01*
X83824706Y-68459564D01*
X83981075Y-68447012D01*
X84165827Y-68409116D01*
X84329258Y-68329812D01*
X84465415Y-68214101D01*
X84568346Y-68066981D01*
X84630134Y-67901854D01*
X84659117Y-67848284D01*
X84721320Y-67821465D01*
X84724063Y-67820903D01*
X84750323Y-67817685D01*
X84777213Y-67821663D01*
X84809721Y-67836719D01*
X84852834Y-67866736D01*
X84911539Y-67915597D01*
X84990826Y-67987184D01*
X85095681Y-68085380D01*
X85231093Y-68214068D01*
X85239814Y-68222383D01*
X85385163Y-68360800D01*
X85539979Y-68507957D01*
X85693603Y-68653741D01*
X85835377Y-68788042D01*
X85954645Y-68900747D01*
X85981308Y-68925882D01*
X86081847Y-69022238D01*
X86167885Y-69107834D01*
X86233504Y-69176527D01*
X86272786Y-69222172D01*
X86281420Y-69237497D01*
X86263350Y-69260352D01*
X86213781Y-69313799D01*
X86136838Y-69393630D01*
X86036649Y-69495636D01*
X85917340Y-69615608D01*
X85783038Y-69749337D01*
X85672411Y-69858636D01*
X85067273Y-70454531D01*
X85067273Y-70807630D01*
X85090481Y-70787292D01*
X85143580Y-70745148D01*
X85178811Y-70722927D01*
X85195127Y-70717983D01*
X85230734Y-70719856D01*
X85311331Y-70725546D01*
X85432280Y-70734685D01*
X85588942Y-70746904D01*
X85776680Y-70761836D01*
X85990854Y-70779113D01*
X86226828Y-70798365D01*
X86479964Y-70819225D01*
X86682271Y-70836037D01*
X87822901Y-70931157D01*
X87822901Y-70686398D01*
X87798286Y-70685344D01*
X87728959Y-70680386D01*
X87619829Y-70671922D01*
X87475800Y-70660352D01*
X87301781Y-70646072D01*
X87102678Y-70629483D01*
X86883396Y-70610981D01*
X86675203Y-70593225D01*
X86438984Y-70573113D01*
X86216000Y-70554379D01*
X86011572Y-70537454D01*
X85831025Y-70522765D01*
X85679680Y-70510743D01*
X85562861Y-70501817D01*
X85485889Y-70496415D01*
X85455996Y-70494916D01*
X85437392Y-70492577D01*
X85430009Y-70483311D01*
X85436930Y-70463546D01*
X85461233Y-70429710D01*
X85506001Y-70378231D01*
X85574312Y-70305538D01*
X85669249Y-70208058D01*
X85793890Y-70082221D01*
X85927083Y-69948703D01*
X86472663Y-69402699D01*
X86476765Y-69406526D01*
X86476765Y-69045613D01*
X86454239Y-69029164D01*
X86401199Y-68983117D01*
X86322519Y-68912086D01*
X86223074Y-68820686D01*
X86107739Y-68713532D01*
X85981388Y-68595240D01*
X85848896Y-68470424D01*
X85715137Y-68343700D01*
X85584987Y-68219682D01*
X85463320Y-68102987D01*
X85355010Y-67998228D01*
X85264932Y-67910021D01*
X85197962Y-67842981D01*
X85158973Y-67801724D01*
X85151030Y-67790473D01*
X85176668Y-67786764D01*
X85247481Y-67779065D01*
X85359036Y-67767798D01*
X85506900Y-67753389D01*
X85686641Y-67736259D01*
X85893825Y-67716833D01*
X86124019Y-67695533D01*
X86372790Y-67672783D01*
X86573385Y-67654619D01*
X86833488Y-67631384D01*
X87078516Y-67609917D01*
X87304024Y-67590579D01*
X87505568Y-67573732D01*
X87678703Y-67559735D01*
X87818982Y-67548950D01*
X87921963Y-67541739D01*
X87983199Y-67538461D01*
X87999098Y-67538836D01*
X87984936Y-67558426D01*
X87939413Y-67608311D01*
X87866936Y-67684132D01*
X87771910Y-67781528D01*
X87658742Y-67896136D01*
X87531838Y-68023597D01*
X87395604Y-68159548D01*
X87254446Y-68299629D01*
X87112770Y-68439478D01*
X86974984Y-68574735D01*
X86845492Y-68701038D01*
X86728700Y-68814026D01*
X86629016Y-68909338D01*
X86550846Y-68982612D01*
X86498594Y-69029489D01*
X86476765Y-69045613D01*
X86476765Y-69406526D01*
X86690868Y-69606301D01*
X86801607Y-69709992D01*
X86925241Y-69826372D01*
X87056946Y-69950840D01*
X87191900Y-70078794D01*
X87325280Y-70205633D01*
X87452263Y-70326755D01*
X87568028Y-70437558D01*
X87667750Y-70533442D01*
X87746608Y-70609806D01*
X87799778Y-70662046D01*
X87822438Y-70685563D01*
X87822901Y-70686398D01*
X87822901Y-70931157D01*
X88107974Y-70954931D01*
X90609480Y-73333529D01*
X90959118Y-73331779D01*
X90753897Y-73139664D01*
X90639436Y-73032145D01*
X90504959Y-72905204D01*
X90354044Y-72762266D01*
X90190271Y-72606757D01*
X90017218Y-72442103D01*
X89838463Y-72271729D01*
X89657585Y-72099061D01*
X89478162Y-71927525D01*
X89303774Y-71760546D01*
X89137998Y-71601550D01*
X88984414Y-71453963D01*
X88846600Y-71321211D01*
X88728134Y-71206718D01*
X88632596Y-71113912D01*
X88563563Y-71046217D01*
X88524615Y-71007060D01*
X88517143Y-70998478D01*
X88543134Y-70997888D01*
X88609681Y-71001134D01*
X88707728Y-71007653D01*
X88828221Y-71016880D01*
X88876355Y-71020841D01*
X89228431Y-71050339D01*
X89228431Y-70819380D01*
X89172402Y-70807456D01*
X89128091Y-70801375D01*
X89044717Y-70792830D01*
X88932903Y-70782809D01*
X88803272Y-70772299D01*
X88755294Y-70768662D01*
X88617540Y-70757934D01*
X88489613Y-70747106D01*
X88383601Y-70737261D01*
X88311591Y-70729482D01*
X88298523Y-70727728D01*
X88271693Y-70721111D01*
X88240288Y-70706788D01*
X88200786Y-70681713D01*
X88149668Y-70642841D01*
X88083411Y-70587126D01*
X87998497Y-70511523D01*
X87891405Y-70412987D01*
X87758614Y-70288471D01*
X87596603Y-70134930D01*
X87432217Y-69978300D01*
X87269539Y-69822470D01*
X87118882Y-69677006D01*
X86983907Y-69545531D01*
X86868278Y-69431665D01*
X86775657Y-69339030D01*
X86709706Y-69271246D01*
X86674090Y-69231935D01*
X86668792Y-69223552D01*
X86688004Y-69201496D01*
X86738107Y-69149942D01*
X86814074Y-69073894D01*
X86910879Y-68978355D01*
X87023496Y-68868328D01*
X87105539Y-68788760D01*
X87535098Y-68373350D01*
X87535098Y-69598235D01*
X88008235Y-69598235D01*
X88008235Y-68104118D01*
X87797418Y-68104118D01*
X88070490Y-67830196D01*
X88264200Y-67635884D01*
X88264200Y-67257451D01*
X88233642Y-67253831D01*
X88216617Y-67235509D01*
X88209199Y-67191293D01*
X88207464Y-67109988D01*
X88207451Y-67095588D01*
X88207451Y-66933726D01*
X88641796Y-66933726D01*
X88481372Y-67095588D01*
X88383839Y-67186895D01*
X88309117Y-67241507D01*
X88264200Y-67257451D01*
X88264200Y-67635884D01*
X88343562Y-67556275D01*
X88586781Y-67556275D01*
X88698677Y-67555512D01*
X88769863Y-67552021D01*
X88809421Y-67544000D01*
X88826438Y-67529644D01*
X88830000Y-67507996D01*
X88835229Y-67483920D01*
X88856195Y-67466125D01*
X88900814Y-67452459D01*
X88977003Y-67440772D01*
X89092680Y-67428911D01*
X89135049Y-67425104D01*
X89228431Y-67416863D01*
X89228431Y-70819380D01*
X89228431Y-71050339D01*
X89228431Y-71366275D01*
X89452549Y-71366275D01*
X89452549Y-71232013D01*
X89454700Y-71153486D01*
X89465081Y-71110817D01*
X89471260Y-71105597D01*
X89471260Y-70830593D01*
X89457145Y-70816120D01*
X89452788Y-70765986D01*
X89452549Y-70732151D01*
X89452549Y-70619216D01*
X89452549Y-70198064D01*
X89452549Y-67396755D01*
X89549581Y-67491504D01*
X89669319Y-67638664D01*
X89761670Y-67820793D01*
X89827900Y-68040977D01*
X89864530Y-68259755D01*
X89881621Y-68402941D01*
X89701569Y-68402941D01*
X89701569Y-69548431D01*
X89905839Y-69548431D01*
X89888803Y-69716520D01*
X89874426Y-69833963D01*
X89855367Y-69959091D01*
X89841755Y-70034020D01*
X89811743Y-70183431D01*
X89632146Y-70190748D01*
X89452549Y-70198064D01*
X89452549Y-70619216D01*
X89552157Y-70619216D01*
X89614557Y-70622508D01*
X89649240Y-70630733D01*
X89651765Y-70634048D01*
X89635792Y-70670914D01*
X89597043Y-70724774D01*
X89549268Y-70778769D01*
X89506219Y-70816038D01*
X89500621Y-70819358D01*
X89471260Y-70830593D01*
X89471260Y-71105597D01*
X89489584Y-71090115D01*
X89516276Y-71081758D01*
X89585544Y-71047648D01*
X89668815Y-70982136D01*
X89754413Y-70896493D01*
X89830661Y-70801991D01*
X89870375Y-70739917D01*
X89913845Y-70669205D01*
X89950362Y-70632956D01*
X89993422Y-70620220D01*
X90019069Y-70619241D01*
X90025294Y-70619240D01*
X90025294Y-69349216D01*
X89900784Y-69349216D01*
X89900784Y-68602157D01*
X90025294Y-68602157D01*
X90025294Y-69349216D01*
X90025294Y-70619240D01*
X90100000Y-70619216D01*
X90100000Y-70409624D01*
X90097669Y-70313193D01*
X90091457Y-70238037D01*
X90082535Y-70196257D01*
X90078922Y-70191732D01*
X90073376Y-70165230D01*
X90075648Y-70100733D01*
X90085065Y-70009323D01*
X90093760Y-69946863D01*
X90110841Y-69833608D01*
X90126261Y-69730030D01*
X90137637Y-69652192D01*
X90140868Y-69629363D01*
X90159340Y-69569718D01*
X90188285Y-69548431D01*
X90200074Y-69541959D01*
X90209067Y-69518808D01*
X90215619Y-69473374D01*
X90220085Y-69400055D01*
X90222819Y-69293246D01*
X90224174Y-69147346D01*
X90224510Y-68975686D01*
X90224319Y-68792481D01*
X90223421Y-68653108D01*
X90221323Y-68551596D01*
X90217533Y-68481974D01*
X90211561Y-68438269D01*
X90202915Y-68414512D01*
X90191103Y-68404731D01*
X90177370Y-68402941D01*
X90133779Y-68387705D01*
X90108973Y-68337799D01*
X90100126Y-68246924D01*
X90100000Y-68230574D01*
X90084124Y-68076680D01*
X90040421Y-67901891D01*
X89974776Y-67721968D01*
X89893073Y-67552676D01*
X89801199Y-67409777D01*
X89786642Y-67391269D01*
X89739280Y-67330944D01*
X89720310Y-67295220D01*
X89726443Y-67270272D01*
X89751744Y-67244664D01*
X89801305Y-67169028D01*
X89820331Y-67070591D01*
X89810436Y-66964588D01*
X89773237Y-66866254D01*
X89710349Y-66790824D01*
X89703039Y-66785361D01*
X89585646Y-66728919D01*
X89464131Y-66718418D01*
X89348293Y-66752699D01*
X89247932Y-66830604D01*
X89239645Y-66840130D01*
X89200278Y-66895442D01*
X89182942Y-66951562D01*
X89181690Y-67030459D01*
X89182800Y-67050168D01*
X89185633Y-67127362D01*
X89179143Y-67167124D01*
X89159559Y-67181519D01*
X89141274Y-67182996D01*
X89088232Y-67186013D01*
X89008461Y-67193500D01*
X88960735Y-67198881D01*
X88884931Y-67206686D01*
X88846126Y-67203440D01*
X88831942Y-67184617D01*
X88830000Y-67151089D01*
X88836413Y-67131204D01*
X88857169Y-67099126D01*
X88894544Y-67052478D01*
X88950811Y-66988882D01*
X89028245Y-66905962D01*
X89129122Y-66801340D01*
X89255717Y-66672639D01*
X89410304Y-66517482D01*
X89595158Y-66333492D01*
X89812554Y-66118291D01*
X89917605Y-66014581D01*
X91005209Y-64941569D01*
X90832752Y-64942795D01*
G36*
X79043529Y-65688628D02*
G01*
X79043529Y-72661177D01*
X80761765Y-72661177D01*
X80761765Y-65688628D01*
X79043529Y-65688628D01*
X79043529Y-65688628D01*
G37*
X79043529Y-65688628D02*
X79043529Y-72661177D01*
X80761765Y-72661177D01*
X80761765Y-65688628D01*
X79043529Y-65688628D01*
D16*
X156417840Y-145549640D02*
X155218960Y-142450840D01*
X155218960Y-142450840D02*
X155818400Y-142849620D01*
X156819160Y-143550660D02*
X155518680Y-140749040D01*
X156417840Y-145549640D02*
X155818400Y-144851140D01*
X156019060Y-140550920D02*
X156819160Y-143550660D01*
X156819160Y-143550660D02*
X155620280Y-142750560D01*
X155620280Y-142750560D02*
X156417840Y-145549640D01*
X156417840Y-145549640D02*
X156519440Y-144650480D01*
X155920000Y-139159000D02*
X151221000Y-146144000D01*
X151221000Y-146144000D02*
X160619000Y-146144000D01*
X160619000Y-146144000D02*
X155920000Y-139159000D01*
D14*
X80090000Y-144941422D02*
X80090000Y-145458578D01*
X78670000Y-144941422D02*
X78670000Y-145458578D01*
X82108922Y-143750000D02*
X82626078Y-143750000D01*
X82108922Y-145170000D02*
X82626078Y-145170000D01*
D11*
X96995000Y-149125000D02*
X96995000Y-149075000D01*
X101145000Y-149125000D02*
X101145000Y-148980000D01*
X101145000Y-143975000D02*
X101145000Y-144120000D01*
X96995000Y-143975000D02*
X96995000Y-144120000D01*
X96995000Y-149125000D02*
X101145000Y-149125000D01*
X96995000Y-143975000D02*
X101145000Y-143975000D01*
X96995000Y-149075000D02*
X95595000Y-149075000D01*
D14*
X86560000Y-147266078D02*
X86560000Y-146748922D01*
X87980000Y-147266078D02*
X87980000Y-146748922D01*
X92784564Y-145220000D02*
X91580436Y-145220000D01*
X92784564Y-147040000D02*
X91580436Y-147040000D01*
X92812064Y-144590000D02*
X91607936Y-144590000D01*
X92812064Y-142770000D02*
X91607936Y-142770000D01*
X87836078Y-142950000D02*
X87318922Y-142950000D01*
X87836078Y-144370000D02*
X87318922Y-144370000D01*
X82576078Y-146740000D02*
X82058922Y-146740000D01*
X82576078Y-148160000D02*
X82058922Y-148160000D01*
X91560436Y-147730000D02*
X92764564Y-147730000D01*
X91560436Y-149550000D02*
X92764564Y-149550000D01*
X86930000Y-100464564D02*
X86930000Y-99260436D01*
X85110000Y-100464564D02*
X85110000Y-99260436D01*
X112910000Y-120189564D02*
X112910000Y-118985436D01*
X114730000Y-120189564D02*
X114730000Y-118985436D01*
X122230000Y-76202064D02*
X122230000Y-74997936D01*
X120410000Y-76202064D02*
X120410000Y-74997936D01*
X152909564Y-86210000D02*
X151705436Y-86210000D01*
X152909564Y-84390000D02*
X151705436Y-84390000D01*
X160230000Y-107447936D02*
X160230000Y-108652064D01*
X158410000Y-107447936D02*
X158410000Y-108652064D01*
X158410000Y-92710436D02*
X158410000Y-93914564D01*
X160230000Y-92710436D02*
X160230000Y-93914564D01*
X129159564Y-134460000D02*
X127955436Y-134460000D01*
X129159564Y-132640000D02*
X127955436Y-132640000D01*
X120955436Y-135460000D02*
X122159564Y-135460000D01*
X120955436Y-133640000D02*
X122159564Y-133640000D01*
X129159564Y-138140000D02*
X127955436Y-138140000D01*
X129159564Y-139960000D02*
X127955436Y-139960000D01*
X129159564Y-137460000D02*
X127955436Y-137460000D01*
X129159564Y-135640000D02*
X127955436Y-135640000D01*
X82172064Y-57140000D02*
X80967936Y-57140000D01*
X82172064Y-58960000D02*
X80967936Y-58960000D01*
X80967936Y-60890000D02*
X82172064Y-60890000D01*
X80967936Y-62710000D02*
X82172064Y-62710000D01*
X149410000Y-97889564D02*
X149410000Y-96685436D01*
X151230000Y-97889564D02*
X151230000Y-96685436D01*
X152410000Y-97889564D02*
X152410000Y-96685436D01*
X154230000Y-97889564D02*
X154230000Y-96685436D01*
X151217936Y-107640000D02*
X152422064Y-107640000D01*
X151217936Y-109460000D02*
X152422064Y-109460000D01*
X151217936Y-112460000D02*
X152422064Y-112460000D01*
X151217936Y-110640000D02*
X152422064Y-110640000D01*
X120480436Y-115190000D02*
X121684564Y-115190000D01*
X120480436Y-117010000D02*
X121684564Y-117010000D01*
X120409564Y-92440000D02*
X119205436Y-92440000D01*
X120409564Y-94260000D02*
X119205436Y-94260000D01*
X120409564Y-97260000D02*
X119205436Y-97260000D01*
X120409564Y-95440000D02*
X119205436Y-95440000D01*
X157230000Y-97902064D02*
X157230000Y-96697936D01*
X155410000Y-97902064D02*
X155410000Y-96697936D01*
X105730000Y-147152064D02*
X105730000Y-145947936D01*
X103910000Y-147152064D02*
X103910000Y-145947936D01*
X133980000Y-136960436D02*
X133980000Y-138164564D01*
X132160000Y-136960436D02*
X132160000Y-138164564D01*
X132160000Y-130460436D02*
X132160000Y-131664564D01*
X133980000Y-130460436D02*
X133980000Y-131664564D01*
X129159564Y-131460000D02*
X127955436Y-131460000D01*
X129159564Y-129640000D02*
X127955436Y-129640000D01*
X114160000Y-137460436D02*
X114160000Y-138664564D01*
X115980000Y-137460436D02*
X115980000Y-138664564D01*
X114160000Y-133164564D02*
X114160000Y-131960436D01*
X115980000Y-133164564D02*
X115980000Y-131960436D01*
X122159564Y-129640000D02*
X120955436Y-129640000D01*
X122159564Y-131460000D02*
X120955436Y-131460000D01*
X144505436Y-142960000D02*
X145709564Y-142960000D01*
X144505436Y-141140000D02*
X145709564Y-141140000D01*
D11*
X151495000Y-92625000D02*
X151495000Y-92575000D01*
X155645000Y-92625000D02*
X155645000Y-92480000D01*
X155645000Y-87475000D02*
X155645000Y-87620000D01*
X151495000Y-87475000D02*
X151495000Y-87620000D01*
X151495000Y-92625000D02*
X155645000Y-92625000D01*
X151495000Y-87475000D02*
X155645000Y-87475000D01*
X151495000Y-92575000D02*
X150095000Y-92575000D01*
X151245000Y-105825000D02*
X149845000Y-105825000D01*
X151245000Y-100725000D02*
X155395000Y-100725000D01*
X151245000Y-105875000D02*
X155395000Y-105875000D01*
X151245000Y-100725000D02*
X151245000Y-100870000D01*
X155395000Y-100725000D02*
X155395000Y-100870000D01*
X155395000Y-105875000D02*
X155395000Y-105730000D01*
X151245000Y-105875000D02*
X151245000Y-105825000D01*
X118995000Y-142075000D02*
X117595000Y-142075000D01*
X118995000Y-136975000D02*
X123145000Y-136975000D01*
X118995000Y-142125000D02*
X123145000Y-142125000D01*
X118995000Y-136975000D02*
X118995000Y-137120000D01*
X123145000Y-136975000D02*
X123145000Y-137120000D01*
X123145000Y-142125000D02*
X123145000Y-141980000D01*
X118995000Y-142125000D02*
X118995000Y-142075000D01*
X157380333Y-138087380D02*
X157713666Y-137611190D01*
X157951761Y-138087380D02*
X157951761Y-137087380D01*
X157570809Y-137087380D01*
X157475571Y-137135000D01*
X157427952Y-137182619D01*
X157380333Y-137277857D01*
X157380333Y-137420714D01*
X157427952Y-137515952D01*
X157475571Y-137563571D01*
X157570809Y-137611190D01*
X157951761Y-137611190D01*
X156951761Y-137563571D02*
X156618428Y-137563571D01*
X156475571Y-138087380D02*
X156951761Y-138087380D01*
X156951761Y-137087380D01*
X156475571Y-137087380D01*
X155713666Y-137563571D02*
X156047000Y-137563571D01*
X156047000Y-138087380D02*
X156047000Y-137087380D01*
X155570809Y-137087380D01*
X155047000Y-137087380D02*
X155047000Y-137325476D01*
X155285095Y-137230238D02*
X155047000Y-137325476D01*
X154808904Y-137230238D01*
X155189857Y-137515952D02*
X155047000Y-137325476D01*
X154904142Y-137515952D01*
X154285095Y-137087380D02*
X154285095Y-137325476D01*
X154523190Y-137230238D02*
X154285095Y-137325476D01*
X154047000Y-137230238D01*
X154427952Y-137515952D02*
X154285095Y-137325476D01*
X154142238Y-137515952D01*
X78182380Y-144557142D02*
X77706190Y-144223809D01*
X78182380Y-143985714D02*
X77182380Y-143985714D01*
X77182380Y-144366666D01*
X77230000Y-144461904D01*
X77277619Y-144509523D01*
X77372857Y-144557142D01*
X77515714Y-144557142D01*
X77610952Y-144509523D01*
X77658571Y-144461904D01*
X77706190Y-144366666D01*
X77706190Y-143985714D01*
X77277619Y-144938095D02*
X77230000Y-144985714D01*
X77182380Y-145080952D01*
X77182380Y-145319047D01*
X77230000Y-145414285D01*
X77277619Y-145461904D01*
X77372857Y-145509523D01*
X77468095Y-145509523D01*
X77610952Y-145461904D01*
X78182380Y-144890476D01*
X78182380Y-145509523D01*
X77182380Y-145842857D02*
X77182380Y-146461904D01*
X77563333Y-146128571D01*
X77563333Y-146271428D01*
X77610952Y-146366666D01*
X77658571Y-146414285D01*
X77753809Y-146461904D01*
X77991904Y-146461904D01*
X78087142Y-146414285D01*
X78134761Y-146366666D01*
X78182380Y-146271428D01*
X78182380Y-145985714D01*
X78134761Y-145890476D01*
X78087142Y-145842857D01*
X84162857Y-143102380D02*
X84496190Y-142626190D01*
X84734285Y-143102380D02*
X84734285Y-142102380D01*
X84353333Y-142102380D01*
X84258095Y-142150000D01*
X84210476Y-142197619D01*
X84162857Y-142292857D01*
X84162857Y-142435714D01*
X84210476Y-142530952D01*
X84258095Y-142578571D01*
X84353333Y-142626190D01*
X84734285Y-142626190D01*
X83781904Y-142197619D02*
X83734285Y-142150000D01*
X83639047Y-142102380D01*
X83400952Y-142102380D01*
X83305714Y-142150000D01*
X83258095Y-142197619D01*
X83210476Y-142292857D01*
X83210476Y-142388095D01*
X83258095Y-142530952D01*
X83829523Y-143102380D01*
X83210476Y-143102380D01*
X82877142Y-142102380D02*
X82258095Y-142102380D01*
X82591428Y-142483333D01*
X82448571Y-142483333D01*
X82353333Y-142530952D01*
X82305714Y-142578571D01*
X82258095Y-142673809D01*
X82258095Y-142911904D01*
X82305714Y-143007142D01*
X82353333Y-143054761D01*
X82448571Y-143102380D01*
X82734285Y-143102380D01*
X82829523Y-143054761D01*
X82877142Y-143007142D01*
X100331904Y-141002380D02*
X100331904Y-141811904D01*
X100284285Y-141907142D01*
X100236666Y-141954761D01*
X100141428Y-142002380D01*
X99950952Y-142002380D01*
X99855714Y-141954761D01*
X99808095Y-141907142D01*
X99760476Y-141811904D01*
X99760476Y-141002380D01*
X99141428Y-141430952D02*
X99236666Y-141383333D01*
X99284285Y-141335714D01*
X99331904Y-141240476D01*
X99331904Y-141192857D01*
X99284285Y-141097619D01*
X99236666Y-141050000D01*
X99141428Y-141002380D01*
X98950952Y-141002380D01*
X98855714Y-141050000D01*
X98808095Y-141097619D01*
X98760476Y-141192857D01*
X98760476Y-141240476D01*
X98808095Y-141335714D01*
X98855714Y-141383333D01*
X98950952Y-141430952D01*
X99141428Y-141430952D01*
X99236666Y-141478571D01*
X99284285Y-141526190D01*
X99331904Y-141621428D01*
X99331904Y-141811904D01*
X99284285Y-141907142D01*
X99236666Y-141954761D01*
X99141428Y-142002380D01*
X98950952Y-142002380D01*
X98855714Y-141954761D01*
X98808095Y-141907142D01*
X98760476Y-141811904D01*
X98760476Y-141621428D01*
X98808095Y-141526190D01*
X98855714Y-141478571D01*
X98950952Y-141430952D01*
X89372380Y-146364642D02*
X88896190Y-146031309D01*
X89372380Y-145793214D02*
X88372380Y-145793214D01*
X88372380Y-146174166D01*
X88420000Y-146269404D01*
X88467619Y-146317023D01*
X88562857Y-146364642D01*
X88705714Y-146364642D01*
X88800952Y-146317023D01*
X88848571Y-146269404D01*
X88896190Y-146174166D01*
X88896190Y-145793214D01*
X88467619Y-146745595D02*
X88420000Y-146793214D01*
X88372380Y-146888452D01*
X88372380Y-147126547D01*
X88420000Y-147221785D01*
X88467619Y-147269404D01*
X88562857Y-147317023D01*
X88658095Y-147317023D01*
X88800952Y-147269404D01*
X89372380Y-146697976D01*
X89372380Y-147317023D01*
X88372380Y-147936071D02*
X88372380Y-148031309D01*
X88420000Y-148126547D01*
X88467619Y-148174166D01*
X88562857Y-148221785D01*
X88753333Y-148269404D01*
X88991428Y-148269404D01*
X89181904Y-148221785D01*
X89277142Y-148174166D01*
X89324761Y-148126547D01*
X89372380Y-148031309D01*
X89372380Y-147936071D01*
X89324761Y-147840833D01*
X89277142Y-147793214D01*
X89181904Y-147745595D01*
X88991428Y-147697976D01*
X88753333Y-147697976D01*
X88562857Y-147745595D01*
X88467619Y-147793214D01*
X88420000Y-147840833D01*
X88372380Y-147936071D01*
X85772380Y-146007142D02*
X85296190Y-145673809D01*
X85772380Y-145435714D02*
X84772380Y-145435714D01*
X84772380Y-145816666D01*
X84820000Y-145911904D01*
X84867619Y-145959523D01*
X84962857Y-146007142D01*
X85105714Y-146007142D01*
X85200952Y-145959523D01*
X85248571Y-145911904D01*
X85296190Y-145816666D01*
X85296190Y-145435714D01*
X85772380Y-146959523D02*
X85772380Y-146388095D01*
X85772380Y-146673809D02*
X84772380Y-146673809D01*
X84915238Y-146578571D01*
X85010476Y-146483333D01*
X85058095Y-146388095D01*
X84772380Y-147864285D02*
X84772380Y-147388095D01*
X85248571Y-147340476D01*
X85200952Y-147388095D01*
X85153333Y-147483333D01*
X85153333Y-147721428D01*
X85200952Y-147816666D01*
X85248571Y-147864285D01*
X85343809Y-147911904D01*
X85581904Y-147911904D01*
X85677142Y-147864285D01*
X85724761Y-147816666D01*
X85772380Y-147721428D01*
X85772380Y-147483333D01*
X85724761Y-147388095D01*
X85677142Y-147340476D01*
X96962857Y-143402380D02*
X97296190Y-142926190D01*
X97534285Y-143402380D02*
X97534285Y-142402380D01*
X97153333Y-142402380D01*
X97058095Y-142450000D01*
X97010476Y-142497619D01*
X96962857Y-142592857D01*
X96962857Y-142735714D01*
X97010476Y-142830952D01*
X97058095Y-142878571D01*
X97153333Y-142926190D01*
X97534285Y-142926190D01*
X96010476Y-143402380D02*
X96581904Y-143402380D01*
X96296190Y-143402380D02*
X96296190Y-142402380D01*
X96391428Y-142545238D01*
X96486666Y-142640476D01*
X96581904Y-142688095D01*
X95677142Y-142402380D02*
X95058095Y-142402380D01*
X95391428Y-142783333D01*
X95248571Y-142783333D01*
X95153333Y-142830952D01*
X95105714Y-142878571D01*
X95058095Y-142973809D01*
X95058095Y-143211904D01*
X95105714Y-143307142D01*
X95153333Y-143354761D01*
X95248571Y-143402380D01*
X95534285Y-143402380D01*
X95629523Y-143354761D01*
X95677142Y-143307142D01*
X87472380Y-140407142D02*
X86996190Y-140073809D01*
X87472380Y-139835714D02*
X86472380Y-139835714D01*
X86472380Y-140216666D01*
X86520000Y-140311904D01*
X86567619Y-140359523D01*
X86662857Y-140407142D01*
X86805714Y-140407142D01*
X86900952Y-140359523D01*
X86948571Y-140311904D01*
X86996190Y-140216666D01*
X86996190Y-139835714D01*
X86567619Y-140788095D02*
X86520000Y-140835714D01*
X86472380Y-140930952D01*
X86472380Y-141169047D01*
X86520000Y-141264285D01*
X86567619Y-141311904D01*
X86662857Y-141359523D01*
X86758095Y-141359523D01*
X86900952Y-141311904D01*
X87472380Y-140740476D01*
X87472380Y-141359523D01*
X86567619Y-141740476D02*
X86520000Y-141788095D01*
X86472380Y-141883333D01*
X86472380Y-142121428D01*
X86520000Y-142216666D01*
X86567619Y-142264285D01*
X86662857Y-142311904D01*
X86758095Y-142311904D01*
X86900952Y-142264285D01*
X87472380Y-141692857D01*
X87472380Y-142311904D01*
X82002857Y-149692380D02*
X82336190Y-149216190D01*
X82574285Y-149692380D02*
X82574285Y-148692380D01*
X82193333Y-148692380D01*
X82098095Y-148740000D01*
X82050476Y-148787619D01*
X82002857Y-148882857D01*
X82002857Y-149025714D01*
X82050476Y-149120952D01*
X82098095Y-149168571D01*
X82193333Y-149216190D01*
X82574285Y-149216190D01*
X81621904Y-148787619D02*
X81574285Y-148740000D01*
X81479047Y-148692380D01*
X81240952Y-148692380D01*
X81145714Y-148740000D01*
X81098095Y-148787619D01*
X81050476Y-148882857D01*
X81050476Y-148978095D01*
X81098095Y-149120952D01*
X81669523Y-149692380D01*
X81050476Y-149692380D01*
X80098095Y-149692380D02*
X80669523Y-149692380D01*
X80383809Y-149692380D02*
X80383809Y-148692380D01*
X80479047Y-148835238D01*
X80574285Y-148930476D01*
X80669523Y-148978095D01*
X88462857Y-149707142D02*
X88510476Y-149754761D01*
X88653333Y-149802380D01*
X88748571Y-149802380D01*
X88891428Y-149754761D01*
X88986666Y-149659523D01*
X89034285Y-149564285D01*
X89081904Y-149373809D01*
X89081904Y-149230952D01*
X89034285Y-149040476D01*
X88986666Y-148945238D01*
X88891428Y-148850000D01*
X88748571Y-148802380D01*
X88653333Y-148802380D01*
X88510476Y-148850000D01*
X88462857Y-148897619D01*
X87510476Y-149802380D02*
X88081904Y-149802380D01*
X87796190Y-149802380D02*
X87796190Y-148802380D01*
X87891428Y-148945238D01*
X87986666Y-149040476D01*
X88081904Y-149088095D01*
X86558095Y-149802380D02*
X87129523Y-149802380D01*
X86843809Y-149802380D02*
X86843809Y-148802380D01*
X86939047Y-148945238D01*
X87034285Y-149040476D01*
X87129523Y-149088095D01*
X88197142Y-99695833D02*
X88244761Y-99648214D01*
X88292380Y-99505357D01*
X88292380Y-99410119D01*
X88244761Y-99267261D01*
X88149523Y-99172023D01*
X88054285Y-99124404D01*
X87863809Y-99076785D01*
X87720952Y-99076785D01*
X87530476Y-99124404D01*
X87435238Y-99172023D01*
X87340000Y-99267261D01*
X87292380Y-99410119D01*
X87292380Y-99505357D01*
X87340000Y-99648214D01*
X87387619Y-99695833D01*
X88292380Y-100648214D02*
X88292380Y-100076785D01*
X88292380Y-100362500D02*
X87292380Y-100362500D01*
X87435238Y-100267261D01*
X87530476Y-100172023D01*
X87578095Y-100076785D01*
X116177142Y-119420833D02*
X116224761Y-119373214D01*
X116272380Y-119230357D01*
X116272380Y-119135119D01*
X116224761Y-118992261D01*
X116129523Y-118897023D01*
X116034285Y-118849404D01*
X115843809Y-118801785D01*
X115700952Y-118801785D01*
X115510476Y-118849404D01*
X115415238Y-118897023D01*
X115320000Y-118992261D01*
X115272380Y-119135119D01*
X115272380Y-119230357D01*
X115320000Y-119373214D01*
X115367619Y-119420833D01*
X115605714Y-120277976D02*
X116272380Y-120277976D01*
X115224761Y-120039880D02*
X115939047Y-119801785D01*
X115939047Y-120420833D01*
X123497142Y-75433333D02*
X123544761Y-75385714D01*
X123592380Y-75242857D01*
X123592380Y-75147619D01*
X123544761Y-75004761D01*
X123449523Y-74909523D01*
X123354285Y-74861904D01*
X123163809Y-74814285D01*
X123020952Y-74814285D01*
X122830476Y-74861904D01*
X122735238Y-74909523D01*
X122640000Y-75004761D01*
X122592380Y-75147619D01*
X122592380Y-75242857D01*
X122640000Y-75385714D01*
X122687619Y-75433333D01*
X122592380Y-76338095D02*
X122592380Y-75861904D01*
X123068571Y-75814285D01*
X123020952Y-75861904D01*
X122973333Y-75957142D01*
X122973333Y-76195238D01*
X123020952Y-76290476D01*
X123068571Y-76338095D01*
X123163809Y-76385714D01*
X123401904Y-76385714D01*
X123497142Y-76338095D01*
X123544761Y-76290476D01*
X123592380Y-76195238D01*
X123592380Y-75957142D01*
X123544761Y-75861904D01*
X123497142Y-75814285D01*
X152474166Y-83837142D02*
X152521785Y-83884761D01*
X152664642Y-83932380D01*
X152759880Y-83932380D01*
X152902738Y-83884761D01*
X152997976Y-83789523D01*
X153045595Y-83694285D01*
X153093214Y-83503809D01*
X153093214Y-83360952D01*
X153045595Y-83170476D01*
X152997976Y-83075238D01*
X152902738Y-82980000D01*
X152759880Y-82932380D01*
X152664642Y-82932380D01*
X152521785Y-82980000D01*
X152474166Y-83027619D01*
X151902738Y-83360952D02*
X151997976Y-83313333D01*
X152045595Y-83265714D01*
X152093214Y-83170476D01*
X152093214Y-83122857D01*
X152045595Y-83027619D01*
X151997976Y-82980000D01*
X151902738Y-82932380D01*
X151712261Y-82932380D01*
X151617023Y-82980000D01*
X151569404Y-83027619D01*
X151521785Y-83122857D01*
X151521785Y-83170476D01*
X151569404Y-83265714D01*
X151617023Y-83313333D01*
X151712261Y-83360952D01*
X151902738Y-83360952D01*
X151997976Y-83408571D01*
X152045595Y-83456190D01*
X152093214Y-83551428D01*
X152093214Y-83741904D01*
X152045595Y-83837142D01*
X151997976Y-83884761D01*
X151902738Y-83932380D01*
X151712261Y-83932380D01*
X151617023Y-83884761D01*
X151569404Y-83837142D01*
X151521785Y-83741904D01*
X151521785Y-83551428D01*
X151569404Y-83456190D01*
X151617023Y-83408571D01*
X151712261Y-83360952D01*
X157857142Y-107883333D02*
X157904761Y-107835714D01*
X157952380Y-107692857D01*
X157952380Y-107597619D01*
X157904761Y-107454761D01*
X157809523Y-107359523D01*
X157714285Y-107311904D01*
X157523809Y-107264285D01*
X157380952Y-107264285D01*
X157190476Y-107311904D01*
X157095238Y-107359523D01*
X157000000Y-107454761D01*
X156952380Y-107597619D01*
X156952380Y-107692857D01*
X157000000Y-107835714D01*
X157047619Y-107883333D01*
X157952380Y-108359523D02*
X157952380Y-108550000D01*
X157904761Y-108645238D01*
X157857142Y-108692857D01*
X157714285Y-108788095D01*
X157523809Y-108835714D01*
X157142857Y-108835714D01*
X157047619Y-108788095D01*
X157000000Y-108740476D01*
X156952380Y-108645238D01*
X156952380Y-108454761D01*
X157000000Y-108359523D01*
X157047619Y-108311904D01*
X157142857Y-108264285D01*
X157380952Y-108264285D01*
X157476190Y-108311904D01*
X157523809Y-108359523D01*
X157571428Y-108454761D01*
X157571428Y-108645238D01*
X157523809Y-108740476D01*
X157476190Y-108788095D01*
X157380952Y-108835714D01*
X159677142Y-88407142D02*
X159724761Y-88359523D01*
X159772380Y-88216666D01*
X159772380Y-88121428D01*
X159724761Y-87978571D01*
X159629523Y-87883333D01*
X159534285Y-87835714D01*
X159343809Y-87788095D01*
X159200952Y-87788095D01*
X159010476Y-87835714D01*
X158915238Y-87883333D01*
X158820000Y-87978571D01*
X158772380Y-88121428D01*
X158772380Y-88216666D01*
X158820000Y-88359523D01*
X158867619Y-88407142D01*
X159772380Y-89359523D02*
X159772380Y-88788095D01*
X159772380Y-89073809D02*
X158772380Y-89073809D01*
X158915238Y-88978571D01*
X159010476Y-88883333D01*
X159058095Y-88788095D01*
X158772380Y-89978571D02*
X158772380Y-90073809D01*
X158820000Y-90169047D01*
X158867619Y-90216666D01*
X158962857Y-90264285D01*
X159153333Y-90311904D01*
X159391428Y-90311904D01*
X159581904Y-90264285D01*
X159677142Y-90216666D01*
X159724761Y-90169047D01*
X159772380Y-90073809D01*
X159772380Y-89978571D01*
X159724761Y-89883333D01*
X159677142Y-89835714D01*
X159581904Y-89788095D01*
X159391428Y-89740476D01*
X159153333Y-89740476D01*
X158962857Y-89788095D01*
X158867619Y-89835714D01*
X158820000Y-89883333D01*
X158772380Y-89978571D01*
X125477142Y-133007142D02*
X125524761Y-132959523D01*
X125572380Y-132816666D01*
X125572380Y-132721428D01*
X125524761Y-132578571D01*
X125429523Y-132483333D01*
X125334285Y-132435714D01*
X125143809Y-132388095D01*
X125000952Y-132388095D01*
X124810476Y-132435714D01*
X124715238Y-132483333D01*
X124620000Y-132578571D01*
X124572380Y-132721428D01*
X124572380Y-132816666D01*
X124620000Y-132959523D01*
X124667619Y-133007142D01*
X125572380Y-133959523D02*
X125572380Y-133388095D01*
X125572380Y-133673809D02*
X124572380Y-133673809D01*
X124715238Y-133578571D01*
X124810476Y-133483333D01*
X124858095Y-133388095D01*
X124667619Y-134340476D02*
X124620000Y-134388095D01*
X124572380Y-134483333D01*
X124572380Y-134721428D01*
X124620000Y-134816666D01*
X124667619Y-134864285D01*
X124762857Y-134911904D01*
X124858095Y-134911904D01*
X125000952Y-134864285D01*
X125572380Y-134292857D01*
X125572380Y-134911904D01*
X122200357Y-133007142D02*
X122247976Y-133054761D01*
X122390833Y-133102380D01*
X122486071Y-133102380D01*
X122628928Y-133054761D01*
X122724166Y-132959523D01*
X122771785Y-132864285D01*
X122819404Y-132673809D01*
X122819404Y-132530952D01*
X122771785Y-132340476D01*
X122724166Y-132245238D01*
X122628928Y-132150000D01*
X122486071Y-132102380D01*
X122390833Y-132102380D01*
X122247976Y-132150000D01*
X122200357Y-132197619D01*
X121247976Y-133102380D02*
X121819404Y-133102380D01*
X121533690Y-133102380D02*
X121533690Y-132102380D01*
X121628928Y-132245238D01*
X121724166Y-132340476D01*
X121819404Y-132388095D01*
X120914642Y-132102380D02*
X120295595Y-132102380D01*
X120628928Y-132483333D01*
X120486071Y-132483333D01*
X120390833Y-132530952D01*
X120343214Y-132578571D01*
X120295595Y-132673809D01*
X120295595Y-132911904D01*
X120343214Y-133007142D01*
X120390833Y-133054761D01*
X120486071Y-133102380D01*
X120771785Y-133102380D01*
X120867023Y-133054761D01*
X120914642Y-133007142D01*
X129200357Y-141707142D02*
X129247976Y-141754761D01*
X129390833Y-141802380D01*
X129486071Y-141802380D01*
X129628928Y-141754761D01*
X129724166Y-141659523D01*
X129771785Y-141564285D01*
X129819404Y-141373809D01*
X129819404Y-141230952D01*
X129771785Y-141040476D01*
X129724166Y-140945238D01*
X129628928Y-140850000D01*
X129486071Y-140802380D01*
X129390833Y-140802380D01*
X129247976Y-140850000D01*
X129200357Y-140897619D01*
X128247976Y-141802380D02*
X128819404Y-141802380D01*
X128533690Y-141802380D02*
X128533690Y-140802380D01*
X128628928Y-140945238D01*
X128724166Y-141040476D01*
X128819404Y-141088095D01*
X127343214Y-140802380D02*
X127819404Y-140802380D01*
X127867023Y-141278571D01*
X127819404Y-141230952D01*
X127724166Y-141183333D01*
X127486071Y-141183333D01*
X127390833Y-141230952D01*
X127343214Y-141278571D01*
X127295595Y-141373809D01*
X127295595Y-141611904D01*
X127343214Y-141707142D01*
X127390833Y-141754761D01*
X127486071Y-141802380D01*
X127724166Y-141802380D01*
X127819404Y-141754761D01*
X127867023Y-141707142D01*
X125877142Y-136207142D02*
X125924761Y-136159523D01*
X125972380Y-136016666D01*
X125972380Y-135921428D01*
X125924761Y-135778571D01*
X125829523Y-135683333D01*
X125734285Y-135635714D01*
X125543809Y-135588095D01*
X125400952Y-135588095D01*
X125210476Y-135635714D01*
X125115238Y-135683333D01*
X125020000Y-135778571D01*
X124972380Y-135921428D01*
X124972380Y-136016666D01*
X125020000Y-136159523D01*
X125067619Y-136207142D01*
X125972380Y-137159523D02*
X125972380Y-136588095D01*
X125972380Y-136873809D02*
X124972380Y-136873809D01*
X125115238Y-136778571D01*
X125210476Y-136683333D01*
X125258095Y-136588095D01*
X124972380Y-138016666D02*
X124972380Y-137826190D01*
X125020000Y-137730952D01*
X125067619Y-137683333D01*
X125210476Y-137588095D01*
X125400952Y-137540476D01*
X125781904Y-137540476D01*
X125877142Y-137588095D01*
X125924761Y-137635714D01*
X125972380Y-137730952D01*
X125972380Y-137921428D01*
X125924761Y-138016666D01*
X125877142Y-138064285D01*
X125781904Y-138111904D01*
X125543809Y-138111904D01*
X125448571Y-138064285D01*
X125400952Y-138016666D01*
X125353333Y-137921428D01*
X125353333Y-137730952D01*
X125400952Y-137635714D01*
X125448571Y-137588095D01*
X125543809Y-137540476D01*
X82212857Y-56587142D02*
X82260476Y-56634761D01*
X82403333Y-56682380D01*
X82498571Y-56682380D01*
X82641428Y-56634761D01*
X82736666Y-56539523D01*
X82784285Y-56444285D01*
X82831904Y-56253809D01*
X82831904Y-56110952D01*
X82784285Y-55920476D01*
X82736666Y-55825238D01*
X82641428Y-55730000D01*
X82498571Y-55682380D01*
X82403333Y-55682380D01*
X82260476Y-55730000D01*
X82212857Y-55777619D01*
X81260476Y-56682380D02*
X81831904Y-56682380D01*
X81546190Y-56682380D02*
X81546190Y-55682380D01*
X81641428Y-55825238D01*
X81736666Y-55920476D01*
X81831904Y-55968095D01*
X80927142Y-55682380D02*
X80260476Y-55682380D01*
X80689047Y-56682380D01*
X82212857Y-63977142D02*
X82260476Y-64024761D01*
X82403333Y-64072380D01*
X82498571Y-64072380D01*
X82641428Y-64024761D01*
X82736666Y-63929523D01*
X82784285Y-63834285D01*
X82831904Y-63643809D01*
X82831904Y-63500952D01*
X82784285Y-63310476D01*
X82736666Y-63215238D01*
X82641428Y-63120000D01*
X82498571Y-63072380D01*
X82403333Y-63072380D01*
X82260476Y-63120000D01*
X82212857Y-63167619D01*
X81260476Y-64072380D02*
X81831904Y-64072380D01*
X81546190Y-64072380D02*
X81546190Y-63072380D01*
X81641428Y-63215238D01*
X81736666Y-63310476D01*
X81831904Y-63358095D01*
X80689047Y-63500952D02*
X80784285Y-63453333D01*
X80831904Y-63405714D01*
X80879523Y-63310476D01*
X80879523Y-63262857D01*
X80831904Y-63167619D01*
X80784285Y-63120000D01*
X80689047Y-63072380D01*
X80498571Y-63072380D01*
X80403333Y-63120000D01*
X80355714Y-63167619D01*
X80308095Y-63262857D01*
X80308095Y-63310476D01*
X80355714Y-63405714D01*
X80403333Y-63453333D01*
X80498571Y-63500952D01*
X80689047Y-63500952D01*
X80784285Y-63548571D01*
X80831904Y-63596190D01*
X80879523Y-63691428D01*
X80879523Y-63881904D01*
X80831904Y-63977142D01*
X80784285Y-64024761D01*
X80689047Y-64072380D01*
X80498571Y-64072380D01*
X80403333Y-64024761D01*
X80355714Y-63977142D01*
X80308095Y-63881904D01*
X80308095Y-63691428D01*
X80355714Y-63596190D01*
X80403333Y-63548571D01*
X80498571Y-63500952D01*
X150372380Y-93683333D02*
X149896190Y-93350000D01*
X150372380Y-93111904D02*
X149372380Y-93111904D01*
X149372380Y-93492857D01*
X149420000Y-93588095D01*
X149467619Y-93635714D01*
X149562857Y-93683333D01*
X149705714Y-93683333D01*
X149800952Y-93635714D01*
X149848571Y-93588095D01*
X149896190Y-93492857D01*
X149896190Y-93111904D01*
X149372380Y-94016666D02*
X149372380Y-94635714D01*
X149753333Y-94302380D01*
X149753333Y-94445238D01*
X149800952Y-94540476D01*
X149848571Y-94588095D01*
X149943809Y-94635714D01*
X150181904Y-94635714D01*
X150277142Y-94588095D01*
X150324761Y-94540476D01*
X150372380Y-94445238D01*
X150372380Y-94159523D01*
X150324761Y-94064285D01*
X150277142Y-94016666D01*
X153586666Y-94402380D02*
X153920000Y-93926190D01*
X154158095Y-94402380D02*
X154158095Y-93402380D01*
X153777142Y-93402380D01*
X153681904Y-93450000D01*
X153634285Y-93497619D01*
X153586666Y-93592857D01*
X153586666Y-93735714D01*
X153634285Y-93830952D01*
X153681904Y-93878571D01*
X153777142Y-93926190D01*
X154158095Y-93926190D01*
X152729523Y-93735714D02*
X152729523Y-94402380D01*
X152967619Y-93354761D02*
X153205714Y-94069047D01*
X152586666Y-94069047D01*
X155486666Y-109102380D02*
X155820000Y-108626190D01*
X156058095Y-109102380D02*
X156058095Y-108102380D01*
X155677142Y-108102380D01*
X155581904Y-108150000D01*
X155534285Y-108197619D01*
X155486666Y-108292857D01*
X155486666Y-108435714D01*
X155534285Y-108530952D01*
X155581904Y-108578571D01*
X155677142Y-108626190D01*
X156058095Y-108626190D01*
X155153333Y-108102380D02*
X154486666Y-108102380D01*
X154915238Y-109102380D01*
X155586666Y-111902380D02*
X155920000Y-111426190D01*
X156158095Y-111902380D02*
X156158095Y-110902380D01*
X155777142Y-110902380D01*
X155681904Y-110950000D01*
X155634285Y-110997619D01*
X155586666Y-111092857D01*
X155586666Y-111235714D01*
X155634285Y-111330952D01*
X155681904Y-111378571D01*
X155777142Y-111426190D01*
X156158095Y-111426190D01*
X155015238Y-111330952D02*
X155110476Y-111283333D01*
X155158095Y-111235714D01*
X155205714Y-111140476D01*
X155205714Y-111092857D01*
X155158095Y-110997619D01*
X155110476Y-110950000D01*
X155015238Y-110902380D01*
X154824761Y-110902380D01*
X154729523Y-110950000D01*
X154681904Y-110997619D01*
X154634285Y-111092857D01*
X154634285Y-111140476D01*
X154681904Y-111235714D01*
X154729523Y-111283333D01*
X154824761Y-111330952D01*
X155015238Y-111330952D01*
X155110476Y-111378571D01*
X155158095Y-111426190D01*
X155205714Y-111521428D01*
X155205714Y-111711904D01*
X155158095Y-111807142D01*
X155110476Y-111854761D01*
X155015238Y-111902380D01*
X154824761Y-111902380D01*
X154729523Y-111854761D01*
X154681904Y-111807142D01*
X154634285Y-111711904D01*
X154634285Y-111521428D01*
X154681904Y-111426190D01*
X154729523Y-111378571D01*
X154824761Y-111330952D01*
X121249166Y-118372380D02*
X121582500Y-117896190D01*
X121820595Y-118372380D02*
X121820595Y-117372380D01*
X121439642Y-117372380D01*
X121344404Y-117420000D01*
X121296785Y-117467619D01*
X121249166Y-117562857D01*
X121249166Y-117705714D01*
X121296785Y-117800952D01*
X121344404Y-117848571D01*
X121439642Y-117896190D01*
X121820595Y-117896190D01*
X120772976Y-118372380D02*
X120582500Y-118372380D01*
X120487261Y-118324761D01*
X120439642Y-118277142D01*
X120344404Y-118134285D01*
X120296785Y-117943809D01*
X120296785Y-117562857D01*
X120344404Y-117467619D01*
X120392023Y-117420000D01*
X120487261Y-117372380D01*
X120677738Y-117372380D01*
X120772976Y-117420000D01*
X120820595Y-117467619D01*
X120868214Y-117562857D01*
X120868214Y-117800952D01*
X120820595Y-117896190D01*
X120772976Y-117943809D01*
X120677738Y-117991428D01*
X120487261Y-117991428D01*
X120392023Y-117943809D01*
X120344404Y-117896190D01*
X120296785Y-117800952D01*
X120450357Y-91982380D02*
X120783690Y-91506190D01*
X121021785Y-91982380D02*
X121021785Y-90982380D01*
X120640833Y-90982380D01*
X120545595Y-91030000D01*
X120497976Y-91077619D01*
X120450357Y-91172857D01*
X120450357Y-91315714D01*
X120497976Y-91410952D01*
X120545595Y-91458571D01*
X120640833Y-91506190D01*
X121021785Y-91506190D01*
X119497976Y-91982380D02*
X120069404Y-91982380D01*
X119783690Y-91982380D02*
X119783690Y-90982380D01*
X119878928Y-91125238D01*
X119974166Y-91220476D01*
X120069404Y-91268095D01*
X118878928Y-90982380D02*
X118783690Y-90982380D01*
X118688452Y-91030000D01*
X118640833Y-91077619D01*
X118593214Y-91172857D01*
X118545595Y-91363333D01*
X118545595Y-91601428D01*
X118593214Y-91791904D01*
X118640833Y-91887142D01*
X118688452Y-91934761D01*
X118783690Y-91982380D01*
X118878928Y-91982380D01*
X118974166Y-91934761D01*
X119021785Y-91887142D01*
X119069404Y-91791904D01*
X119117023Y-91601428D01*
X119117023Y-91363333D01*
X119069404Y-91172857D01*
X119021785Y-91077619D01*
X118974166Y-91030000D01*
X118878928Y-90982380D01*
X120450357Y-94982380D02*
X120783690Y-94506190D01*
X121021785Y-94982380D02*
X121021785Y-93982380D01*
X120640833Y-93982380D01*
X120545595Y-94030000D01*
X120497976Y-94077619D01*
X120450357Y-94172857D01*
X120450357Y-94315714D01*
X120497976Y-94410952D01*
X120545595Y-94458571D01*
X120640833Y-94506190D01*
X121021785Y-94506190D01*
X119497976Y-94982380D02*
X120069404Y-94982380D01*
X119783690Y-94982380D02*
X119783690Y-93982380D01*
X119878928Y-94125238D01*
X119974166Y-94220476D01*
X120069404Y-94268095D01*
X118545595Y-94982380D02*
X119117023Y-94982380D01*
X118831309Y-94982380D02*
X118831309Y-93982380D01*
X118926547Y-94125238D01*
X119021785Y-94220476D01*
X119117023Y-94268095D01*
X159372380Y-96707142D02*
X158896190Y-96373809D01*
X159372380Y-96135714D02*
X158372380Y-96135714D01*
X158372380Y-96516666D01*
X158420000Y-96611904D01*
X158467619Y-96659523D01*
X158562857Y-96707142D01*
X158705714Y-96707142D01*
X158800952Y-96659523D01*
X158848571Y-96611904D01*
X158896190Y-96516666D01*
X158896190Y-96135714D01*
X159372380Y-97659523D02*
X159372380Y-97088095D01*
X159372380Y-97373809D02*
X158372380Y-97373809D01*
X158515238Y-97278571D01*
X158610476Y-97183333D01*
X158658095Y-97088095D01*
X158467619Y-98040476D02*
X158420000Y-98088095D01*
X158372380Y-98183333D01*
X158372380Y-98421428D01*
X158420000Y-98516666D01*
X158467619Y-98564285D01*
X158562857Y-98611904D01*
X158658095Y-98611904D01*
X158800952Y-98564285D01*
X159372380Y-97992857D01*
X159372380Y-98611904D01*
X107092380Y-145907142D02*
X106616190Y-145573809D01*
X107092380Y-145335714D02*
X106092380Y-145335714D01*
X106092380Y-145716666D01*
X106140000Y-145811904D01*
X106187619Y-145859523D01*
X106282857Y-145907142D01*
X106425714Y-145907142D01*
X106520952Y-145859523D01*
X106568571Y-145811904D01*
X106616190Y-145716666D01*
X106616190Y-145335714D01*
X107092380Y-146859523D02*
X107092380Y-146288095D01*
X107092380Y-146573809D02*
X106092380Y-146573809D01*
X106235238Y-146478571D01*
X106330476Y-146383333D01*
X106378095Y-146288095D01*
X107092380Y-147335714D02*
X107092380Y-147526190D01*
X107044761Y-147621428D01*
X106997142Y-147669047D01*
X106854285Y-147764285D01*
X106663809Y-147811904D01*
X106282857Y-147811904D01*
X106187619Y-147764285D01*
X106140000Y-147716666D01*
X106092380Y-147621428D01*
X106092380Y-147430952D01*
X106140000Y-147335714D01*
X106187619Y-147288095D01*
X106282857Y-147240476D01*
X106520952Y-147240476D01*
X106616190Y-147288095D01*
X106663809Y-147335714D01*
X106711428Y-147430952D01*
X106711428Y-147621428D01*
X106663809Y-147716666D01*
X106616190Y-147764285D01*
X106520952Y-147811904D01*
X133762857Y-141302380D02*
X134096190Y-140826190D01*
X134334285Y-141302380D02*
X134334285Y-140302380D01*
X133953333Y-140302380D01*
X133858095Y-140350000D01*
X133810476Y-140397619D01*
X133762857Y-140492857D01*
X133762857Y-140635714D01*
X133810476Y-140730952D01*
X133858095Y-140778571D01*
X133953333Y-140826190D01*
X134334285Y-140826190D01*
X133381904Y-140397619D02*
X133334285Y-140350000D01*
X133239047Y-140302380D01*
X133000952Y-140302380D01*
X132905714Y-140350000D01*
X132858095Y-140397619D01*
X132810476Y-140492857D01*
X132810476Y-140588095D01*
X132858095Y-140730952D01*
X133429523Y-141302380D01*
X132810476Y-141302380D01*
X131953333Y-140635714D02*
X131953333Y-141302380D01*
X132191428Y-140254761D02*
X132429523Y-140969047D01*
X131810476Y-140969047D01*
X137212857Y-130002380D02*
X137546190Y-129526190D01*
X137784285Y-130002380D02*
X137784285Y-129002380D01*
X137403333Y-129002380D01*
X137308095Y-129050000D01*
X137260476Y-129097619D01*
X137212857Y-129192857D01*
X137212857Y-129335714D01*
X137260476Y-129430952D01*
X137308095Y-129478571D01*
X137403333Y-129526190D01*
X137784285Y-129526190D01*
X136831904Y-129097619D02*
X136784285Y-129050000D01*
X136689047Y-129002380D01*
X136450952Y-129002380D01*
X136355714Y-129050000D01*
X136308095Y-129097619D01*
X136260476Y-129192857D01*
X136260476Y-129288095D01*
X136308095Y-129430952D01*
X136879523Y-130002380D01*
X136260476Y-130002380D01*
X135355714Y-129002380D02*
X135831904Y-129002380D01*
X135879523Y-129478571D01*
X135831904Y-129430952D01*
X135736666Y-129383333D01*
X135498571Y-129383333D01*
X135403333Y-129430952D01*
X135355714Y-129478571D01*
X135308095Y-129573809D01*
X135308095Y-129811904D01*
X135355714Y-129907142D01*
X135403333Y-129954761D01*
X135498571Y-130002380D01*
X135736666Y-130002380D01*
X135831904Y-129954761D01*
X135879523Y-129907142D01*
X129200357Y-129182380D02*
X129533690Y-128706190D01*
X129771785Y-129182380D02*
X129771785Y-128182380D01*
X129390833Y-128182380D01*
X129295595Y-128230000D01*
X129247976Y-128277619D01*
X129200357Y-128372857D01*
X129200357Y-128515714D01*
X129247976Y-128610952D01*
X129295595Y-128658571D01*
X129390833Y-128706190D01*
X129771785Y-128706190D01*
X128819404Y-128277619D02*
X128771785Y-128230000D01*
X128676547Y-128182380D01*
X128438452Y-128182380D01*
X128343214Y-128230000D01*
X128295595Y-128277619D01*
X128247976Y-128372857D01*
X128247976Y-128468095D01*
X128295595Y-128610952D01*
X128867023Y-129182380D01*
X128247976Y-129182380D01*
X127390833Y-128182380D02*
X127581309Y-128182380D01*
X127676547Y-128230000D01*
X127724166Y-128277619D01*
X127819404Y-128420476D01*
X127867023Y-128610952D01*
X127867023Y-128991904D01*
X127819404Y-129087142D01*
X127771785Y-129134761D01*
X127676547Y-129182380D01*
X127486071Y-129182380D01*
X127390833Y-129134761D01*
X127343214Y-129087142D01*
X127295595Y-128991904D01*
X127295595Y-128753809D01*
X127343214Y-128658571D01*
X127390833Y-128610952D01*
X127486071Y-128563333D01*
X127676547Y-128563333D01*
X127771785Y-128610952D01*
X127819404Y-128658571D01*
X127867023Y-128753809D01*
X113072380Y-134507142D02*
X112596190Y-134173809D01*
X113072380Y-133935714D02*
X112072380Y-133935714D01*
X112072380Y-134316666D01*
X112120000Y-134411904D01*
X112167619Y-134459523D01*
X112262857Y-134507142D01*
X112405714Y-134507142D01*
X112500952Y-134459523D01*
X112548571Y-134411904D01*
X112596190Y-134316666D01*
X112596190Y-133935714D01*
X112167619Y-134888095D02*
X112120000Y-134935714D01*
X112072380Y-135030952D01*
X112072380Y-135269047D01*
X112120000Y-135364285D01*
X112167619Y-135411904D01*
X112262857Y-135459523D01*
X112358095Y-135459523D01*
X112500952Y-135411904D01*
X113072380Y-134840476D01*
X113072380Y-135459523D01*
X112072380Y-135792857D02*
X112072380Y-136459523D01*
X113072380Y-136030952D01*
X117572380Y-131907142D02*
X117096190Y-131573809D01*
X117572380Y-131335714D02*
X116572380Y-131335714D01*
X116572380Y-131716666D01*
X116620000Y-131811904D01*
X116667619Y-131859523D01*
X116762857Y-131907142D01*
X116905714Y-131907142D01*
X117000952Y-131859523D01*
X117048571Y-131811904D01*
X117096190Y-131716666D01*
X117096190Y-131335714D01*
X116667619Y-132288095D02*
X116620000Y-132335714D01*
X116572380Y-132430952D01*
X116572380Y-132669047D01*
X116620000Y-132764285D01*
X116667619Y-132811904D01*
X116762857Y-132859523D01*
X116858095Y-132859523D01*
X117000952Y-132811904D01*
X117572380Y-132240476D01*
X117572380Y-132859523D01*
X117000952Y-133430952D02*
X116953333Y-133335714D01*
X116905714Y-133288095D01*
X116810476Y-133240476D01*
X116762857Y-133240476D01*
X116667619Y-133288095D01*
X116620000Y-133335714D01*
X116572380Y-133430952D01*
X116572380Y-133621428D01*
X116620000Y-133716666D01*
X116667619Y-133764285D01*
X116762857Y-133811904D01*
X116810476Y-133811904D01*
X116905714Y-133764285D01*
X116953333Y-133716666D01*
X117000952Y-133621428D01*
X117000952Y-133430952D01*
X117048571Y-133335714D01*
X117096190Y-133288095D01*
X117191428Y-133240476D01*
X117381904Y-133240476D01*
X117477142Y-133288095D01*
X117524761Y-133335714D01*
X117572380Y-133430952D01*
X117572380Y-133621428D01*
X117524761Y-133716666D01*
X117477142Y-133764285D01*
X117381904Y-133811904D01*
X117191428Y-133811904D01*
X117096190Y-133764285D01*
X117048571Y-133716666D01*
X117000952Y-133621428D01*
X125522380Y-129907142D02*
X125046190Y-129573809D01*
X125522380Y-129335714D02*
X124522380Y-129335714D01*
X124522380Y-129716666D01*
X124570000Y-129811904D01*
X124617619Y-129859523D01*
X124712857Y-129907142D01*
X124855714Y-129907142D01*
X124950952Y-129859523D01*
X124998571Y-129811904D01*
X125046190Y-129716666D01*
X125046190Y-129335714D01*
X124617619Y-130288095D02*
X124570000Y-130335714D01*
X124522380Y-130430952D01*
X124522380Y-130669047D01*
X124570000Y-130764285D01*
X124617619Y-130811904D01*
X124712857Y-130859523D01*
X124808095Y-130859523D01*
X124950952Y-130811904D01*
X125522380Y-130240476D01*
X125522380Y-130859523D01*
X125522380Y-131335714D02*
X125522380Y-131526190D01*
X125474761Y-131621428D01*
X125427142Y-131669047D01*
X125284285Y-131764285D01*
X125093809Y-131811904D01*
X124712857Y-131811904D01*
X124617619Y-131764285D01*
X124570000Y-131716666D01*
X124522380Y-131621428D01*
X124522380Y-131430952D01*
X124570000Y-131335714D01*
X124617619Y-131288095D01*
X124712857Y-131240476D01*
X124950952Y-131240476D01*
X125046190Y-131288095D01*
X125093809Y-131335714D01*
X125141428Y-131430952D01*
X125141428Y-131621428D01*
X125093809Y-131716666D01*
X125046190Y-131764285D01*
X124950952Y-131811904D01*
X146362857Y-144502380D02*
X146696190Y-144026190D01*
X146934285Y-144502380D02*
X146934285Y-143502380D01*
X146553333Y-143502380D01*
X146458095Y-143550000D01*
X146410476Y-143597619D01*
X146362857Y-143692857D01*
X146362857Y-143835714D01*
X146410476Y-143930952D01*
X146458095Y-143978571D01*
X146553333Y-144026190D01*
X146934285Y-144026190D01*
X145981904Y-144454761D02*
X145839047Y-144502380D01*
X145600952Y-144502380D01*
X145505714Y-144454761D01*
X145458095Y-144407142D01*
X145410476Y-144311904D01*
X145410476Y-144216666D01*
X145458095Y-144121428D01*
X145505714Y-144073809D01*
X145600952Y-144026190D01*
X145791428Y-143978571D01*
X145886666Y-143930952D01*
X145934285Y-143883333D01*
X145981904Y-143788095D01*
X145981904Y-143692857D01*
X145934285Y-143597619D01*
X145886666Y-143550000D01*
X145791428Y-143502380D01*
X145553333Y-143502380D01*
X145410476Y-143550000D01*
X144981904Y-144502380D02*
X144981904Y-143502380D01*
X144743809Y-143502380D01*
X144600952Y-143550000D01*
X144505714Y-143645238D01*
X144458095Y-143740476D01*
X144410476Y-143930952D01*
X144410476Y-144073809D01*
X144458095Y-144264285D01*
X144505714Y-144359523D01*
X144600952Y-144454761D01*
X144743809Y-144502380D01*
X144981904Y-144502380D01*
X143458095Y-144502380D02*
X144029523Y-144502380D01*
X143743809Y-144502380D02*
X143743809Y-143502380D01*
X143839047Y-143645238D01*
X143934285Y-143740476D01*
X144029523Y-143788095D01*
X154581904Y-89502380D02*
X154581904Y-90311904D01*
X154534285Y-90407142D01*
X154486666Y-90454761D01*
X154391428Y-90502380D01*
X154200952Y-90502380D01*
X154105714Y-90454761D01*
X154058095Y-90407142D01*
X154010476Y-90311904D01*
X154010476Y-89502380D01*
X153058095Y-89502380D02*
X153534285Y-89502380D01*
X153581904Y-89978571D01*
X153534285Y-89930952D01*
X153439047Y-89883333D01*
X153200952Y-89883333D01*
X153105714Y-89930952D01*
X153058095Y-89978571D01*
X153010476Y-90073809D01*
X153010476Y-90311904D01*
X153058095Y-90407142D01*
X153105714Y-90454761D01*
X153200952Y-90502380D01*
X153439047Y-90502380D01*
X153534285Y-90454761D01*
X153581904Y-90407142D01*
X158981904Y-102802380D02*
X158981904Y-103611904D01*
X158934285Y-103707142D01*
X158886666Y-103754761D01*
X158791428Y-103802380D01*
X158600952Y-103802380D01*
X158505714Y-103754761D01*
X158458095Y-103707142D01*
X158410476Y-103611904D01*
X158410476Y-102802380D01*
X157505714Y-102802380D02*
X157696190Y-102802380D01*
X157791428Y-102850000D01*
X157839047Y-102897619D01*
X157934285Y-103040476D01*
X157981904Y-103230952D01*
X157981904Y-103611904D01*
X157934285Y-103707142D01*
X157886666Y-103754761D01*
X157791428Y-103802380D01*
X157600952Y-103802380D01*
X157505714Y-103754761D01*
X157458095Y-103707142D01*
X157410476Y-103611904D01*
X157410476Y-103373809D01*
X157458095Y-103278571D01*
X157505714Y-103230952D01*
X157600952Y-103183333D01*
X157791428Y-103183333D01*
X157886666Y-103230952D01*
X157934285Y-103278571D01*
X157981904Y-103373809D01*
X121831904Y-142502380D02*
X121831904Y-143311904D01*
X121784285Y-143407142D01*
X121736666Y-143454761D01*
X121641428Y-143502380D01*
X121450952Y-143502380D01*
X121355714Y-143454761D01*
X121308095Y-143407142D01*
X121260476Y-143311904D01*
X121260476Y-142502380D01*
X120736666Y-143502380D02*
X120546190Y-143502380D01*
X120450952Y-143454761D01*
X120403333Y-143407142D01*
X120308095Y-143264285D01*
X120260476Y-143073809D01*
X120260476Y-142692857D01*
X120308095Y-142597619D01*
X120355714Y-142550000D01*
X120450952Y-142502380D01*
X120641428Y-142502380D01*
X120736666Y-142550000D01*
X120784285Y-142597619D01*
X120831904Y-142692857D01*
X120831904Y-142930952D01*
X120784285Y-143026190D01*
X120736666Y-143073809D01*
X120641428Y-143121428D01*
X120450952Y-143121428D01*
X120355714Y-143073809D01*
X120308095Y-143026190D01*
X120260476Y-142930952D01*
M02*
