G04 #@! TF.GenerationSoftware,KiCad,Pcbnew,(5.1.0)-1*
G04 #@! TF.CreationDate,2020-01-07T21:36:01+05:30*
G04 #@! TF.ProjectId,BLDC_STM32_proto_1,424c4443-5f53-4544-9d33-325f70726f74,rev?*
G04 #@! TF.SameCoordinates,Original*
G04 #@! TF.FileFunction,Paste,Top*
G04 #@! TF.FilePolarity,Positive*
%FSLAX46Y46*%
G04 Gerber Fmt 4.6, Leading zero omitted, Abs format (unit mm)*
G04 Created by KiCad (PCBNEW (5.1.0)-1) date 2020-01-07 21:36:01*
%MOMM*%
%LPD*%
G04 APERTURE LIST*
%ADD10R,3.150000X1.000000*%
%ADD11C,0.100000*%
%ADD12C,0.975000*%
%ADD13C,1.250000*%
%ADD14C,1.425000*%
%ADD15R,2.000000X3.800000*%
%ADD16R,2.000000X1.500000*%
%ADD17R,4.600000X1.100000*%
%ADD18R,4.550000X5.250000*%
%ADD19R,0.900000X0.800000*%
G04 APERTURE END LIST*
D10*
X87795000Y-58760000D03*
X92845000Y-58760000D03*
X87795000Y-61300000D03*
X92845000Y-61300000D03*
X87795000Y-63840000D03*
X92845000Y-63840000D03*
D11*
G36*
X102712642Y-126851174D02*
G01*
X102736303Y-126854684D01*
X102759507Y-126860496D01*
X102782029Y-126868554D01*
X102803653Y-126878782D01*
X102824170Y-126891079D01*
X102843383Y-126905329D01*
X102861107Y-126921393D01*
X102877171Y-126939117D01*
X102891421Y-126958330D01*
X102903718Y-126978847D01*
X102913946Y-127000471D01*
X102922004Y-127022993D01*
X102927816Y-127046197D01*
X102931326Y-127069858D01*
X102932500Y-127093750D01*
X102932500Y-128006250D01*
X102931326Y-128030142D01*
X102927816Y-128053803D01*
X102922004Y-128077007D01*
X102913946Y-128099529D01*
X102903718Y-128121153D01*
X102891421Y-128141670D01*
X102877171Y-128160883D01*
X102861107Y-128178607D01*
X102843383Y-128194671D01*
X102824170Y-128208921D01*
X102803653Y-128221218D01*
X102782029Y-128231446D01*
X102759507Y-128239504D01*
X102736303Y-128245316D01*
X102712642Y-128248826D01*
X102688750Y-128250000D01*
X102201250Y-128250000D01*
X102177358Y-128248826D01*
X102153697Y-128245316D01*
X102130493Y-128239504D01*
X102107971Y-128231446D01*
X102086347Y-128221218D01*
X102065830Y-128208921D01*
X102046617Y-128194671D01*
X102028893Y-128178607D01*
X102012829Y-128160883D01*
X101998579Y-128141670D01*
X101986282Y-128121153D01*
X101976054Y-128099529D01*
X101967996Y-128077007D01*
X101962184Y-128053803D01*
X101958674Y-128030142D01*
X101957500Y-128006250D01*
X101957500Y-127093750D01*
X101958674Y-127069858D01*
X101962184Y-127046197D01*
X101967996Y-127022993D01*
X101976054Y-127000471D01*
X101986282Y-126978847D01*
X101998579Y-126958330D01*
X102012829Y-126939117D01*
X102028893Y-126921393D01*
X102046617Y-126905329D01*
X102065830Y-126891079D01*
X102086347Y-126878782D01*
X102107971Y-126868554D01*
X102130493Y-126860496D01*
X102153697Y-126854684D01*
X102177358Y-126851174D01*
X102201250Y-126850000D01*
X102688750Y-126850000D01*
X102712642Y-126851174D01*
X102712642Y-126851174D01*
G37*
D12*
X102445000Y-127550000D03*
D11*
G36*
X104587642Y-126851174D02*
G01*
X104611303Y-126854684D01*
X104634507Y-126860496D01*
X104657029Y-126868554D01*
X104678653Y-126878782D01*
X104699170Y-126891079D01*
X104718383Y-126905329D01*
X104736107Y-126921393D01*
X104752171Y-126939117D01*
X104766421Y-126958330D01*
X104778718Y-126978847D01*
X104788946Y-127000471D01*
X104797004Y-127022993D01*
X104802816Y-127046197D01*
X104806326Y-127069858D01*
X104807500Y-127093750D01*
X104807500Y-128006250D01*
X104806326Y-128030142D01*
X104802816Y-128053803D01*
X104797004Y-128077007D01*
X104788946Y-128099529D01*
X104778718Y-128121153D01*
X104766421Y-128141670D01*
X104752171Y-128160883D01*
X104736107Y-128178607D01*
X104718383Y-128194671D01*
X104699170Y-128208921D01*
X104678653Y-128221218D01*
X104657029Y-128231446D01*
X104634507Y-128239504D01*
X104611303Y-128245316D01*
X104587642Y-128248826D01*
X104563750Y-128250000D01*
X104076250Y-128250000D01*
X104052358Y-128248826D01*
X104028697Y-128245316D01*
X104005493Y-128239504D01*
X103982971Y-128231446D01*
X103961347Y-128221218D01*
X103940830Y-128208921D01*
X103921617Y-128194671D01*
X103903893Y-128178607D01*
X103887829Y-128160883D01*
X103873579Y-128141670D01*
X103861282Y-128121153D01*
X103851054Y-128099529D01*
X103842996Y-128077007D01*
X103837184Y-128053803D01*
X103833674Y-128030142D01*
X103832500Y-128006250D01*
X103832500Y-127093750D01*
X103833674Y-127069858D01*
X103837184Y-127046197D01*
X103842996Y-127022993D01*
X103851054Y-127000471D01*
X103861282Y-126978847D01*
X103873579Y-126958330D01*
X103887829Y-126939117D01*
X103903893Y-126921393D01*
X103921617Y-126905329D01*
X103940830Y-126891079D01*
X103961347Y-126878782D01*
X103982971Y-126868554D01*
X104005493Y-126860496D01*
X104028697Y-126854684D01*
X104052358Y-126851174D01*
X104076250Y-126850000D01*
X104563750Y-126850000D01*
X104587642Y-126851174D01*
X104587642Y-126851174D01*
G37*
D12*
X104320000Y-127550000D03*
D11*
G36*
X102712642Y-129751174D02*
G01*
X102736303Y-129754684D01*
X102759507Y-129760496D01*
X102782029Y-129768554D01*
X102803653Y-129778782D01*
X102824170Y-129791079D01*
X102843383Y-129805329D01*
X102861107Y-129821393D01*
X102877171Y-129839117D01*
X102891421Y-129858330D01*
X102903718Y-129878847D01*
X102913946Y-129900471D01*
X102922004Y-129922993D01*
X102927816Y-129946197D01*
X102931326Y-129969858D01*
X102932500Y-129993750D01*
X102932500Y-130906250D01*
X102931326Y-130930142D01*
X102927816Y-130953803D01*
X102922004Y-130977007D01*
X102913946Y-130999529D01*
X102903718Y-131021153D01*
X102891421Y-131041670D01*
X102877171Y-131060883D01*
X102861107Y-131078607D01*
X102843383Y-131094671D01*
X102824170Y-131108921D01*
X102803653Y-131121218D01*
X102782029Y-131131446D01*
X102759507Y-131139504D01*
X102736303Y-131145316D01*
X102712642Y-131148826D01*
X102688750Y-131150000D01*
X102201250Y-131150000D01*
X102177358Y-131148826D01*
X102153697Y-131145316D01*
X102130493Y-131139504D01*
X102107971Y-131131446D01*
X102086347Y-131121218D01*
X102065830Y-131108921D01*
X102046617Y-131094671D01*
X102028893Y-131078607D01*
X102012829Y-131060883D01*
X101998579Y-131041670D01*
X101986282Y-131021153D01*
X101976054Y-130999529D01*
X101967996Y-130977007D01*
X101962184Y-130953803D01*
X101958674Y-130930142D01*
X101957500Y-130906250D01*
X101957500Y-129993750D01*
X101958674Y-129969858D01*
X101962184Y-129946197D01*
X101967996Y-129922993D01*
X101976054Y-129900471D01*
X101986282Y-129878847D01*
X101998579Y-129858330D01*
X102012829Y-129839117D01*
X102028893Y-129821393D01*
X102046617Y-129805329D01*
X102065830Y-129791079D01*
X102086347Y-129778782D01*
X102107971Y-129768554D01*
X102130493Y-129760496D01*
X102153697Y-129754684D01*
X102177358Y-129751174D01*
X102201250Y-129750000D01*
X102688750Y-129750000D01*
X102712642Y-129751174D01*
X102712642Y-129751174D01*
G37*
D12*
X102445000Y-130450000D03*
D11*
G36*
X104587642Y-129751174D02*
G01*
X104611303Y-129754684D01*
X104634507Y-129760496D01*
X104657029Y-129768554D01*
X104678653Y-129778782D01*
X104699170Y-129791079D01*
X104718383Y-129805329D01*
X104736107Y-129821393D01*
X104752171Y-129839117D01*
X104766421Y-129858330D01*
X104778718Y-129878847D01*
X104788946Y-129900471D01*
X104797004Y-129922993D01*
X104802816Y-129946197D01*
X104806326Y-129969858D01*
X104807500Y-129993750D01*
X104807500Y-130906250D01*
X104806326Y-130930142D01*
X104802816Y-130953803D01*
X104797004Y-130977007D01*
X104788946Y-130999529D01*
X104778718Y-131021153D01*
X104766421Y-131041670D01*
X104752171Y-131060883D01*
X104736107Y-131078607D01*
X104718383Y-131094671D01*
X104699170Y-131108921D01*
X104678653Y-131121218D01*
X104657029Y-131131446D01*
X104634507Y-131139504D01*
X104611303Y-131145316D01*
X104587642Y-131148826D01*
X104563750Y-131150000D01*
X104076250Y-131150000D01*
X104052358Y-131148826D01*
X104028697Y-131145316D01*
X104005493Y-131139504D01*
X103982971Y-131131446D01*
X103961347Y-131121218D01*
X103940830Y-131108921D01*
X103921617Y-131094671D01*
X103903893Y-131078607D01*
X103887829Y-131060883D01*
X103873579Y-131041670D01*
X103861282Y-131021153D01*
X103851054Y-130999529D01*
X103842996Y-130977007D01*
X103837184Y-130953803D01*
X103833674Y-130930142D01*
X103832500Y-130906250D01*
X103832500Y-129993750D01*
X103833674Y-129969858D01*
X103837184Y-129946197D01*
X103842996Y-129922993D01*
X103851054Y-129900471D01*
X103861282Y-129878847D01*
X103873579Y-129858330D01*
X103887829Y-129839117D01*
X103903893Y-129821393D01*
X103921617Y-129805329D01*
X103940830Y-129791079D01*
X103961347Y-129778782D01*
X103982971Y-129768554D01*
X104005493Y-129760496D01*
X104028697Y-129754684D01*
X104052358Y-129751174D01*
X104076250Y-129750000D01*
X104563750Y-129750000D01*
X104587642Y-129751174D01*
X104587642Y-129751174D01*
G37*
D12*
X104320000Y-130450000D03*
D11*
G36*
X102712642Y-132751174D02*
G01*
X102736303Y-132754684D01*
X102759507Y-132760496D01*
X102782029Y-132768554D01*
X102803653Y-132778782D01*
X102824170Y-132791079D01*
X102843383Y-132805329D01*
X102861107Y-132821393D01*
X102877171Y-132839117D01*
X102891421Y-132858330D01*
X102903718Y-132878847D01*
X102913946Y-132900471D01*
X102922004Y-132922993D01*
X102927816Y-132946197D01*
X102931326Y-132969858D01*
X102932500Y-132993750D01*
X102932500Y-133906250D01*
X102931326Y-133930142D01*
X102927816Y-133953803D01*
X102922004Y-133977007D01*
X102913946Y-133999529D01*
X102903718Y-134021153D01*
X102891421Y-134041670D01*
X102877171Y-134060883D01*
X102861107Y-134078607D01*
X102843383Y-134094671D01*
X102824170Y-134108921D01*
X102803653Y-134121218D01*
X102782029Y-134131446D01*
X102759507Y-134139504D01*
X102736303Y-134145316D01*
X102712642Y-134148826D01*
X102688750Y-134150000D01*
X102201250Y-134150000D01*
X102177358Y-134148826D01*
X102153697Y-134145316D01*
X102130493Y-134139504D01*
X102107971Y-134131446D01*
X102086347Y-134121218D01*
X102065830Y-134108921D01*
X102046617Y-134094671D01*
X102028893Y-134078607D01*
X102012829Y-134060883D01*
X101998579Y-134041670D01*
X101986282Y-134021153D01*
X101976054Y-133999529D01*
X101967996Y-133977007D01*
X101962184Y-133953803D01*
X101958674Y-133930142D01*
X101957500Y-133906250D01*
X101957500Y-132993750D01*
X101958674Y-132969858D01*
X101962184Y-132946197D01*
X101967996Y-132922993D01*
X101976054Y-132900471D01*
X101986282Y-132878847D01*
X101998579Y-132858330D01*
X102012829Y-132839117D01*
X102028893Y-132821393D01*
X102046617Y-132805329D01*
X102065830Y-132791079D01*
X102086347Y-132778782D01*
X102107971Y-132768554D01*
X102130493Y-132760496D01*
X102153697Y-132754684D01*
X102177358Y-132751174D01*
X102201250Y-132750000D01*
X102688750Y-132750000D01*
X102712642Y-132751174D01*
X102712642Y-132751174D01*
G37*
D12*
X102445000Y-133450000D03*
D11*
G36*
X104587642Y-132751174D02*
G01*
X104611303Y-132754684D01*
X104634507Y-132760496D01*
X104657029Y-132768554D01*
X104678653Y-132778782D01*
X104699170Y-132791079D01*
X104718383Y-132805329D01*
X104736107Y-132821393D01*
X104752171Y-132839117D01*
X104766421Y-132858330D01*
X104778718Y-132878847D01*
X104788946Y-132900471D01*
X104797004Y-132922993D01*
X104802816Y-132946197D01*
X104806326Y-132969858D01*
X104807500Y-132993750D01*
X104807500Y-133906250D01*
X104806326Y-133930142D01*
X104802816Y-133953803D01*
X104797004Y-133977007D01*
X104788946Y-133999529D01*
X104778718Y-134021153D01*
X104766421Y-134041670D01*
X104752171Y-134060883D01*
X104736107Y-134078607D01*
X104718383Y-134094671D01*
X104699170Y-134108921D01*
X104678653Y-134121218D01*
X104657029Y-134131446D01*
X104634507Y-134139504D01*
X104611303Y-134145316D01*
X104587642Y-134148826D01*
X104563750Y-134150000D01*
X104076250Y-134150000D01*
X104052358Y-134148826D01*
X104028697Y-134145316D01*
X104005493Y-134139504D01*
X103982971Y-134131446D01*
X103961347Y-134121218D01*
X103940830Y-134108921D01*
X103921617Y-134094671D01*
X103903893Y-134078607D01*
X103887829Y-134060883D01*
X103873579Y-134041670D01*
X103861282Y-134021153D01*
X103851054Y-133999529D01*
X103842996Y-133977007D01*
X103837184Y-133953803D01*
X103833674Y-133930142D01*
X103832500Y-133906250D01*
X103832500Y-132993750D01*
X103833674Y-132969858D01*
X103837184Y-132946197D01*
X103842996Y-132922993D01*
X103851054Y-132900471D01*
X103861282Y-132878847D01*
X103873579Y-132858330D01*
X103887829Y-132839117D01*
X103903893Y-132821393D01*
X103921617Y-132805329D01*
X103940830Y-132791079D01*
X103961347Y-132778782D01*
X103982971Y-132768554D01*
X104005493Y-132760496D01*
X104028697Y-132754684D01*
X104052358Y-132751174D01*
X104076250Y-132750000D01*
X104563750Y-132750000D01*
X104587642Y-132751174D01*
X104587642Y-132751174D01*
G37*
D12*
X104320000Y-133450000D03*
D11*
G36*
X110019504Y-126676204D02*
G01*
X110043773Y-126679804D01*
X110067571Y-126685765D01*
X110090671Y-126694030D01*
X110112849Y-126704520D01*
X110133893Y-126717133D01*
X110153598Y-126731747D01*
X110171777Y-126748223D01*
X110188253Y-126766402D01*
X110202867Y-126786107D01*
X110215480Y-126807151D01*
X110225970Y-126829329D01*
X110234235Y-126852429D01*
X110240196Y-126876227D01*
X110243796Y-126900496D01*
X110245000Y-126925000D01*
X110245000Y-128175000D01*
X110243796Y-128199504D01*
X110240196Y-128223773D01*
X110234235Y-128247571D01*
X110225970Y-128270671D01*
X110215480Y-128292849D01*
X110202867Y-128313893D01*
X110188253Y-128333598D01*
X110171777Y-128351777D01*
X110153598Y-128368253D01*
X110133893Y-128382867D01*
X110112849Y-128395480D01*
X110090671Y-128405970D01*
X110067571Y-128414235D01*
X110043773Y-128420196D01*
X110019504Y-128423796D01*
X109995000Y-128425000D01*
X109245000Y-128425000D01*
X109220496Y-128423796D01*
X109196227Y-128420196D01*
X109172429Y-128414235D01*
X109149329Y-128405970D01*
X109127151Y-128395480D01*
X109106107Y-128382867D01*
X109086402Y-128368253D01*
X109068223Y-128351777D01*
X109051747Y-128333598D01*
X109037133Y-128313893D01*
X109024520Y-128292849D01*
X109014030Y-128270671D01*
X109005765Y-128247571D01*
X108999804Y-128223773D01*
X108996204Y-128199504D01*
X108995000Y-128175000D01*
X108995000Y-126925000D01*
X108996204Y-126900496D01*
X108999804Y-126876227D01*
X109005765Y-126852429D01*
X109014030Y-126829329D01*
X109024520Y-126807151D01*
X109037133Y-126786107D01*
X109051747Y-126766402D01*
X109068223Y-126748223D01*
X109086402Y-126731747D01*
X109106107Y-126717133D01*
X109127151Y-126704520D01*
X109149329Y-126694030D01*
X109172429Y-126685765D01*
X109196227Y-126679804D01*
X109220496Y-126676204D01*
X109245000Y-126675000D01*
X109995000Y-126675000D01*
X110019504Y-126676204D01*
X110019504Y-126676204D01*
G37*
D13*
X109620000Y-127550000D03*
D11*
G36*
X107219504Y-126676204D02*
G01*
X107243773Y-126679804D01*
X107267571Y-126685765D01*
X107290671Y-126694030D01*
X107312849Y-126704520D01*
X107333893Y-126717133D01*
X107353598Y-126731747D01*
X107371777Y-126748223D01*
X107388253Y-126766402D01*
X107402867Y-126786107D01*
X107415480Y-126807151D01*
X107425970Y-126829329D01*
X107434235Y-126852429D01*
X107440196Y-126876227D01*
X107443796Y-126900496D01*
X107445000Y-126925000D01*
X107445000Y-128175000D01*
X107443796Y-128199504D01*
X107440196Y-128223773D01*
X107434235Y-128247571D01*
X107425970Y-128270671D01*
X107415480Y-128292849D01*
X107402867Y-128313893D01*
X107388253Y-128333598D01*
X107371777Y-128351777D01*
X107353598Y-128368253D01*
X107333893Y-128382867D01*
X107312849Y-128395480D01*
X107290671Y-128405970D01*
X107267571Y-128414235D01*
X107243773Y-128420196D01*
X107219504Y-128423796D01*
X107195000Y-128425000D01*
X106445000Y-128425000D01*
X106420496Y-128423796D01*
X106396227Y-128420196D01*
X106372429Y-128414235D01*
X106349329Y-128405970D01*
X106327151Y-128395480D01*
X106306107Y-128382867D01*
X106286402Y-128368253D01*
X106268223Y-128351777D01*
X106251747Y-128333598D01*
X106237133Y-128313893D01*
X106224520Y-128292849D01*
X106214030Y-128270671D01*
X106205765Y-128247571D01*
X106199804Y-128223773D01*
X106196204Y-128199504D01*
X106195000Y-128175000D01*
X106195000Y-126925000D01*
X106196204Y-126900496D01*
X106199804Y-126876227D01*
X106205765Y-126852429D01*
X106214030Y-126829329D01*
X106224520Y-126807151D01*
X106237133Y-126786107D01*
X106251747Y-126766402D01*
X106268223Y-126748223D01*
X106286402Y-126731747D01*
X106306107Y-126717133D01*
X106327151Y-126704520D01*
X106349329Y-126694030D01*
X106372429Y-126685765D01*
X106396227Y-126679804D01*
X106420496Y-126676204D01*
X106445000Y-126675000D01*
X107195000Y-126675000D01*
X107219504Y-126676204D01*
X107219504Y-126676204D01*
G37*
D13*
X106820000Y-127550000D03*
D11*
G36*
X110019504Y-129576204D02*
G01*
X110043773Y-129579804D01*
X110067571Y-129585765D01*
X110090671Y-129594030D01*
X110112849Y-129604520D01*
X110133893Y-129617133D01*
X110153598Y-129631747D01*
X110171777Y-129648223D01*
X110188253Y-129666402D01*
X110202867Y-129686107D01*
X110215480Y-129707151D01*
X110225970Y-129729329D01*
X110234235Y-129752429D01*
X110240196Y-129776227D01*
X110243796Y-129800496D01*
X110245000Y-129825000D01*
X110245000Y-131075000D01*
X110243796Y-131099504D01*
X110240196Y-131123773D01*
X110234235Y-131147571D01*
X110225970Y-131170671D01*
X110215480Y-131192849D01*
X110202867Y-131213893D01*
X110188253Y-131233598D01*
X110171777Y-131251777D01*
X110153598Y-131268253D01*
X110133893Y-131282867D01*
X110112849Y-131295480D01*
X110090671Y-131305970D01*
X110067571Y-131314235D01*
X110043773Y-131320196D01*
X110019504Y-131323796D01*
X109995000Y-131325000D01*
X109245000Y-131325000D01*
X109220496Y-131323796D01*
X109196227Y-131320196D01*
X109172429Y-131314235D01*
X109149329Y-131305970D01*
X109127151Y-131295480D01*
X109106107Y-131282867D01*
X109086402Y-131268253D01*
X109068223Y-131251777D01*
X109051747Y-131233598D01*
X109037133Y-131213893D01*
X109024520Y-131192849D01*
X109014030Y-131170671D01*
X109005765Y-131147571D01*
X108999804Y-131123773D01*
X108996204Y-131099504D01*
X108995000Y-131075000D01*
X108995000Y-129825000D01*
X108996204Y-129800496D01*
X108999804Y-129776227D01*
X109005765Y-129752429D01*
X109014030Y-129729329D01*
X109024520Y-129707151D01*
X109037133Y-129686107D01*
X109051747Y-129666402D01*
X109068223Y-129648223D01*
X109086402Y-129631747D01*
X109106107Y-129617133D01*
X109127151Y-129604520D01*
X109149329Y-129594030D01*
X109172429Y-129585765D01*
X109196227Y-129579804D01*
X109220496Y-129576204D01*
X109245000Y-129575000D01*
X109995000Y-129575000D01*
X110019504Y-129576204D01*
X110019504Y-129576204D01*
G37*
D13*
X109620000Y-130450000D03*
D11*
G36*
X107219504Y-129576204D02*
G01*
X107243773Y-129579804D01*
X107267571Y-129585765D01*
X107290671Y-129594030D01*
X107312849Y-129604520D01*
X107333893Y-129617133D01*
X107353598Y-129631747D01*
X107371777Y-129648223D01*
X107388253Y-129666402D01*
X107402867Y-129686107D01*
X107415480Y-129707151D01*
X107425970Y-129729329D01*
X107434235Y-129752429D01*
X107440196Y-129776227D01*
X107443796Y-129800496D01*
X107445000Y-129825000D01*
X107445000Y-131075000D01*
X107443796Y-131099504D01*
X107440196Y-131123773D01*
X107434235Y-131147571D01*
X107425970Y-131170671D01*
X107415480Y-131192849D01*
X107402867Y-131213893D01*
X107388253Y-131233598D01*
X107371777Y-131251777D01*
X107353598Y-131268253D01*
X107333893Y-131282867D01*
X107312849Y-131295480D01*
X107290671Y-131305970D01*
X107267571Y-131314235D01*
X107243773Y-131320196D01*
X107219504Y-131323796D01*
X107195000Y-131325000D01*
X106445000Y-131325000D01*
X106420496Y-131323796D01*
X106396227Y-131320196D01*
X106372429Y-131314235D01*
X106349329Y-131305970D01*
X106327151Y-131295480D01*
X106306107Y-131282867D01*
X106286402Y-131268253D01*
X106268223Y-131251777D01*
X106251747Y-131233598D01*
X106237133Y-131213893D01*
X106224520Y-131192849D01*
X106214030Y-131170671D01*
X106205765Y-131147571D01*
X106199804Y-131123773D01*
X106196204Y-131099504D01*
X106195000Y-131075000D01*
X106195000Y-129825000D01*
X106196204Y-129800496D01*
X106199804Y-129776227D01*
X106205765Y-129752429D01*
X106214030Y-129729329D01*
X106224520Y-129707151D01*
X106237133Y-129686107D01*
X106251747Y-129666402D01*
X106268223Y-129648223D01*
X106286402Y-129631747D01*
X106306107Y-129617133D01*
X106327151Y-129604520D01*
X106349329Y-129594030D01*
X106372429Y-129585765D01*
X106396227Y-129579804D01*
X106420496Y-129576204D01*
X106445000Y-129575000D01*
X107195000Y-129575000D01*
X107219504Y-129576204D01*
X107219504Y-129576204D01*
G37*
D13*
X106820000Y-130450000D03*
D11*
G36*
X109919504Y-132576204D02*
G01*
X109943773Y-132579804D01*
X109967571Y-132585765D01*
X109990671Y-132594030D01*
X110012849Y-132604520D01*
X110033893Y-132617133D01*
X110053598Y-132631747D01*
X110071777Y-132648223D01*
X110088253Y-132666402D01*
X110102867Y-132686107D01*
X110115480Y-132707151D01*
X110125970Y-132729329D01*
X110134235Y-132752429D01*
X110140196Y-132776227D01*
X110143796Y-132800496D01*
X110145000Y-132825000D01*
X110145000Y-134075000D01*
X110143796Y-134099504D01*
X110140196Y-134123773D01*
X110134235Y-134147571D01*
X110125970Y-134170671D01*
X110115480Y-134192849D01*
X110102867Y-134213893D01*
X110088253Y-134233598D01*
X110071777Y-134251777D01*
X110053598Y-134268253D01*
X110033893Y-134282867D01*
X110012849Y-134295480D01*
X109990671Y-134305970D01*
X109967571Y-134314235D01*
X109943773Y-134320196D01*
X109919504Y-134323796D01*
X109895000Y-134325000D01*
X109145000Y-134325000D01*
X109120496Y-134323796D01*
X109096227Y-134320196D01*
X109072429Y-134314235D01*
X109049329Y-134305970D01*
X109027151Y-134295480D01*
X109006107Y-134282867D01*
X108986402Y-134268253D01*
X108968223Y-134251777D01*
X108951747Y-134233598D01*
X108937133Y-134213893D01*
X108924520Y-134192849D01*
X108914030Y-134170671D01*
X108905765Y-134147571D01*
X108899804Y-134123773D01*
X108896204Y-134099504D01*
X108895000Y-134075000D01*
X108895000Y-132825000D01*
X108896204Y-132800496D01*
X108899804Y-132776227D01*
X108905765Y-132752429D01*
X108914030Y-132729329D01*
X108924520Y-132707151D01*
X108937133Y-132686107D01*
X108951747Y-132666402D01*
X108968223Y-132648223D01*
X108986402Y-132631747D01*
X109006107Y-132617133D01*
X109027151Y-132604520D01*
X109049329Y-132594030D01*
X109072429Y-132585765D01*
X109096227Y-132579804D01*
X109120496Y-132576204D01*
X109145000Y-132575000D01*
X109895000Y-132575000D01*
X109919504Y-132576204D01*
X109919504Y-132576204D01*
G37*
D13*
X109520000Y-133450000D03*
D11*
G36*
X107119504Y-132576204D02*
G01*
X107143773Y-132579804D01*
X107167571Y-132585765D01*
X107190671Y-132594030D01*
X107212849Y-132604520D01*
X107233893Y-132617133D01*
X107253598Y-132631747D01*
X107271777Y-132648223D01*
X107288253Y-132666402D01*
X107302867Y-132686107D01*
X107315480Y-132707151D01*
X107325970Y-132729329D01*
X107334235Y-132752429D01*
X107340196Y-132776227D01*
X107343796Y-132800496D01*
X107345000Y-132825000D01*
X107345000Y-134075000D01*
X107343796Y-134099504D01*
X107340196Y-134123773D01*
X107334235Y-134147571D01*
X107325970Y-134170671D01*
X107315480Y-134192849D01*
X107302867Y-134213893D01*
X107288253Y-134233598D01*
X107271777Y-134251777D01*
X107253598Y-134268253D01*
X107233893Y-134282867D01*
X107212849Y-134295480D01*
X107190671Y-134305970D01*
X107167571Y-134314235D01*
X107143773Y-134320196D01*
X107119504Y-134323796D01*
X107095000Y-134325000D01*
X106345000Y-134325000D01*
X106320496Y-134323796D01*
X106296227Y-134320196D01*
X106272429Y-134314235D01*
X106249329Y-134305970D01*
X106227151Y-134295480D01*
X106206107Y-134282867D01*
X106186402Y-134268253D01*
X106168223Y-134251777D01*
X106151747Y-134233598D01*
X106137133Y-134213893D01*
X106124520Y-134192849D01*
X106114030Y-134170671D01*
X106105765Y-134147571D01*
X106099804Y-134123773D01*
X106096204Y-134099504D01*
X106095000Y-134075000D01*
X106095000Y-132825000D01*
X106096204Y-132800496D01*
X106099804Y-132776227D01*
X106105765Y-132752429D01*
X106114030Y-132729329D01*
X106124520Y-132707151D01*
X106137133Y-132686107D01*
X106151747Y-132666402D01*
X106168223Y-132648223D01*
X106186402Y-132631747D01*
X106206107Y-132617133D01*
X106227151Y-132604520D01*
X106249329Y-132594030D01*
X106272429Y-132585765D01*
X106296227Y-132579804D01*
X106320496Y-132576204D01*
X106345000Y-132575000D01*
X107095000Y-132575000D01*
X107119504Y-132576204D01*
X107119504Y-132576204D01*
G37*
D13*
X106720000Y-133450000D03*
D11*
G36*
X149794504Y-65976204D02*
G01*
X149818773Y-65979804D01*
X149842571Y-65985765D01*
X149865671Y-65994030D01*
X149887849Y-66004520D01*
X149908893Y-66017133D01*
X149928598Y-66031747D01*
X149946777Y-66048223D01*
X149963253Y-66066402D01*
X149977867Y-66086107D01*
X149990480Y-66107151D01*
X150000970Y-66129329D01*
X150009235Y-66152429D01*
X150015196Y-66176227D01*
X150018796Y-66200496D01*
X150020000Y-66225000D01*
X150020000Y-67475000D01*
X150018796Y-67499504D01*
X150015196Y-67523773D01*
X150009235Y-67547571D01*
X150000970Y-67570671D01*
X149990480Y-67592849D01*
X149977867Y-67613893D01*
X149963253Y-67633598D01*
X149946777Y-67651777D01*
X149928598Y-67668253D01*
X149908893Y-67682867D01*
X149887849Y-67695480D01*
X149865671Y-67705970D01*
X149842571Y-67714235D01*
X149818773Y-67720196D01*
X149794504Y-67723796D01*
X149770000Y-67725000D01*
X148845000Y-67725000D01*
X148820496Y-67723796D01*
X148796227Y-67720196D01*
X148772429Y-67714235D01*
X148749329Y-67705970D01*
X148727151Y-67695480D01*
X148706107Y-67682867D01*
X148686402Y-67668253D01*
X148668223Y-67651777D01*
X148651747Y-67633598D01*
X148637133Y-67613893D01*
X148624520Y-67592849D01*
X148614030Y-67570671D01*
X148605765Y-67547571D01*
X148599804Y-67523773D01*
X148596204Y-67499504D01*
X148595000Y-67475000D01*
X148595000Y-66225000D01*
X148596204Y-66200496D01*
X148599804Y-66176227D01*
X148605765Y-66152429D01*
X148614030Y-66129329D01*
X148624520Y-66107151D01*
X148637133Y-66086107D01*
X148651747Y-66066402D01*
X148668223Y-66048223D01*
X148686402Y-66031747D01*
X148706107Y-66017133D01*
X148727151Y-66004520D01*
X148749329Y-65994030D01*
X148772429Y-65985765D01*
X148796227Y-65979804D01*
X148820496Y-65976204D01*
X148845000Y-65975000D01*
X149770000Y-65975000D01*
X149794504Y-65976204D01*
X149794504Y-65976204D01*
G37*
D14*
X149307500Y-66850000D03*
D11*
G36*
X146819504Y-65976204D02*
G01*
X146843773Y-65979804D01*
X146867571Y-65985765D01*
X146890671Y-65994030D01*
X146912849Y-66004520D01*
X146933893Y-66017133D01*
X146953598Y-66031747D01*
X146971777Y-66048223D01*
X146988253Y-66066402D01*
X147002867Y-66086107D01*
X147015480Y-66107151D01*
X147025970Y-66129329D01*
X147034235Y-66152429D01*
X147040196Y-66176227D01*
X147043796Y-66200496D01*
X147045000Y-66225000D01*
X147045000Y-67475000D01*
X147043796Y-67499504D01*
X147040196Y-67523773D01*
X147034235Y-67547571D01*
X147025970Y-67570671D01*
X147015480Y-67592849D01*
X147002867Y-67613893D01*
X146988253Y-67633598D01*
X146971777Y-67651777D01*
X146953598Y-67668253D01*
X146933893Y-67682867D01*
X146912849Y-67695480D01*
X146890671Y-67705970D01*
X146867571Y-67714235D01*
X146843773Y-67720196D01*
X146819504Y-67723796D01*
X146795000Y-67725000D01*
X145870000Y-67725000D01*
X145845496Y-67723796D01*
X145821227Y-67720196D01*
X145797429Y-67714235D01*
X145774329Y-67705970D01*
X145752151Y-67695480D01*
X145731107Y-67682867D01*
X145711402Y-67668253D01*
X145693223Y-67651777D01*
X145676747Y-67633598D01*
X145662133Y-67613893D01*
X145649520Y-67592849D01*
X145639030Y-67570671D01*
X145630765Y-67547571D01*
X145624804Y-67523773D01*
X145621204Y-67499504D01*
X145620000Y-67475000D01*
X145620000Y-66225000D01*
X145621204Y-66200496D01*
X145624804Y-66176227D01*
X145630765Y-66152429D01*
X145639030Y-66129329D01*
X145649520Y-66107151D01*
X145662133Y-66086107D01*
X145676747Y-66066402D01*
X145693223Y-66048223D01*
X145711402Y-66031747D01*
X145731107Y-66017133D01*
X145752151Y-66004520D01*
X145774329Y-65994030D01*
X145797429Y-65985765D01*
X145821227Y-65979804D01*
X145845496Y-65976204D01*
X145870000Y-65975000D01*
X146795000Y-65975000D01*
X146819504Y-65976204D01*
X146819504Y-65976204D01*
G37*
D14*
X146332500Y-66850000D03*
D11*
G36*
X163369504Y-67926204D02*
G01*
X163393773Y-67929804D01*
X163417571Y-67935765D01*
X163440671Y-67944030D01*
X163462849Y-67954520D01*
X163483893Y-67967133D01*
X163503598Y-67981747D01*
X163521777Y-67998223D01*
X163538253Y-68016402D01*
X163552867Y-68036107D01*
X163565480Y-68057151D01*
X163575970Y-68079329D01*
X163584235Y-68102429D01*
X163590196Y-68126227D01*
X163593796Y-68150496D01*
X163595000Y-68175000D01*
X163595000Y-68925000D01*
X163593796Y-68949504D01*
X163590196Y-68973773D01*
X163584235Y-68997571D01*
X163575970Y-69020671D01*
X163565480Y-69042849D01*
X163552867Y-69063893D01*
X163538253Y-69083598D01*
X163521777Y-69101777D01*
X163503598Y-69118253D01*
X163483893Y-69132867D01*
X163462849Y-69145480D01*
X163440671Y-69155970D01*
X163417571Y-69164235D01*
X163393773Y-69170196D01*
X163369504Y-69173796D01*
X163345000Y-69175000D01*
X162095000Y-69175000D01*
X162070496Y-69173796D01*
X162046227Y-69170196D01*
X162022429Y-69164235D01*
X161999329Y-69155970D01*
X161977151Y-69145480D01*
X161956107Y-69132867D01*
X161936402Y-69118253D01*
X161918223Y-69101777D01*
X161901747Y-69083598D01*
X161887133Y-69063893D01*
X161874520Y-69042849D01*
X161864030Y-69020671D01*
X161855765Y-68997571D01*
X161849804Y-68973773D01*
X161846204Y-68949504D01*
X161845000Y-68925000D01*
X161845000Y-68175000D01*
X161846204Y-68150496D01*
X161849804Y-68126227D01*
X161855765Y-68102429D01*
X161864030Y-68079329D01*
X161874520Y-68057151D01*
X161887133Y-68036107D01*
X161901747Y-68016402D01*
X161918223Y-67998223D01*
X161936402Y-67981747D01*
X161956107Y-67967133D01*
X161977151Y-67954520D01*
X161999329Y-67944030D01*
X162022429Y-67935765D01*
X162046227Y-67929804D01*
X162070496Y-67926204D01*
X162095000Y-67925000D01*
X163345000Y-67925000D01*
X163369504Y-67926204D01*
X163369504Y-67926204D01*
G37*
D13*
X162720000Y-68550000D03*
D11*
G36*
X163369504Y-70726204D02*
G01*
X163393773Y-70729804D01*
X163417571Y-70735765D01*
X163440671Y-70744030D01*
X163462849Y-70754520D01*
X163483893Y-70767133D01*
X163503598Y-70781747D01*
X163521777Y-70798223D01*
X163538253Y-70816402D01*
X163552867Y-70836107D01*
X163565480Y-70857151D01*
X163575970Y-70879329D01*
X163584235Y-70902429D01*
X163590196Y-70926227D01*
X163593796Y-70950496D01*
X163595000Y-70975000D01*
X163595000Y-71725000D01*
X163593796Y-71749504D01*
X163590196Y-71773773D01*
X163584235Y-71797571D01*
X163575970Y-71820671D01*
X163565480Y-71842849D01*
X163552867Y-71863893D01*
X163538253Y-71883598D01*
X163521777Y-71901777D01*
X163503598Y-71918253D01*
X163483893Y-71932867D01*
X163462849Y-71945480D01*
X163440671Y-71955970D01*
X163417571Y-71964235D01*
X163393773Y-71970196D01*
X163369504Y-71973796D01*
X163345000Y-71975000D01*
X162095000Y-71975000D01*
X162070496Y-71973796D01*
X162046227Y-71970196D01*
X162022429Y-71964235D01*
X161999329Y-71955970D01*
X161977151Y-71945480D01*
X161956107Y-71932867D01*
X161936402Y-71918253D01*
X161918223Y-71901777D01*
X161901747Y-71883598D01*
X161887133Y-71863893D01*
X161874520Y-71842849D01*
X161864030Y-71820671D01*
X161855765Y-71797571D01*
X161849804Y-71773773D01*
X161846204Y-71749504D01*
X161845000Y-71725000D01*
X161845000Y-70975000D01*
X161846204Y-70950496D01*
X161849804Y-70926227D01*
X161855765Y-70902429D01*
X161864030Y-70879329D01*
X161874520Y-70857151D01*
X161887133Y-70836107D01*
X161901747Y-70816402D01*
X161918223Y-70798223D01*
X161936402Y-70781747D01*
X161956107Y-70767133D01*
X161977151Y-70754520D01*
X161999329Y-70744030D01*
X162022429Y-70735765D01*
X162046227Y-70729804D01*
X162070496Y-70726204D01*
X162095000Y-70725000D01*
X163345000Y-70725000D01*
X163369504Y-70726204D01*
X163369504Y-70726204D01*
G37*
D13*
X162720000Y-71350000D03*
D11*
G36*
X83769504Y-130676204D02*
G01*
X83793773Y-130679804D01*
X83817571Y-130685765D01*
X83840671Y-130694030D01*
X83862849Y-130704520D01*
X83883893Y-130717133D01*
X83903598Y-130731747D01*
X83921777Y-130748223D01*
X83938253Y-130766402D01*
X83952867Y-130786107D01*
X83965480Y-130807151D01*
X83975970Y-130829329D01*
X83984235Y-130852429D01*
X83990196Y-130876227D01*
X83993796Y-130900496D01*
X83995000Y-130925000D01*
X83995000Y-132175000D01*
X83993796Y-132199504D01*
X83990196Y-132223773D01*
X83984235Y-132247571D01*
X83975970Y-132270671D01*
X83965480Y-132292849D01*
X83952867Y-132313893D01*
X83938253Y-132333598D01*
X83921777Y-132351777D01*
X83903598Y-132368253D01*
X83883893Y-132382867D01*
X83862849Y-132395480D01*
X83840671Y-132405970D01*
X83817571Y-132414235D01*
X83793773Y-132420196D01*
X83769504Y-132423796D01*
X83745000Y-132425000D01*
X82995000Y-132425000D01*
X82970496Y-132423796D01*
X82946227Y-132420196D01*
X82922429Y-132414235D01*
X82899329Y-132405970D01*
X82877151Y-132395480D01*
X82856107Y-132382867D01*
X82836402Y-132368253D01*
X82818223Y-132351777D01*
X82801747Y-132333598D01*
X82787133Y-132313893D01*
X82774520Y-132292849D01*
X82764030Y-132270671D01*
X82755765Y-132247571D01*
X82749804Y-132223773D01*
X82746204Y-132199504D01*
X82745000Y-132175000D01*
X82745000Y-130925000D01*
X82746204Y-130900496D01*
X82749804Y-130876227D01*
X82755765Y-130852429D01*
X82764030Y-130829329D01*
X82774520Y-130807151D01*
X82787133Y-130786107D01*
X82801747Y-130766402D01*
X82818223Y-130748223D01*
X82836402Y-130731747D01*
X82856107Y-130717133D01*
X82877151Y-130704520D01*
X82899329Y-130694030D01*
X82922429Y-130685765D01*
X82946227Y-130679804D01*
X82970496Y-130676204D01*
X82995000Y-130675000D01*
X83745000Y-130675000D01*
X83769504Y-130676204D01*
X83769504Y-130676204D01*
G37*
D13*
X83370000Y-131550000D03*
D11*
G36*
X80969504Y-130676204D02*
G01*
X80993773Y-130679804D01*
X81017571Y-130685765D01*
X81040671Y-130694030D01*
X81062849Y-130704520D01*
X81083893Y-130717133D01*
X81103598Y-130731747D01*
X81121777Y-130748223D01*
X81138253Y-130766402D01*
X81152867Y-130786107D01*
X81165480Y-130807151D01*
X81175970Y-130829329D01*
X81184235Y-130852429D01*
X81190196Y-130876227D01*
X81193796Y-130900496D01*
X81195000Y-130925000D01*
X81195000Y-132175000D01*
X81193796Y-132199504D01*
X81190196Y-132223773D01*
X81184235Y-132247571D01*
X81175970Y-132270671D01*
X81165480Y-132292849D01*
X81152867Y-132313893D01*
X81138253Y-132333598D01*
X81121777Y-132351777D01*
X81103598Y-132368253D01*
X81083893Y-132382867D01*
X81062849Y-132395480D01*
X81040671Y-132405970D01*
X81017571Y-132414235D01*
X80993773Y-132420196D01*
X80969504Y-132423796D01*
X80945000Y-132425000D01*
X80195000Y-132425000D01*
X80170496Y-132423796D01*
X80146227Y-132420196D01*
X80122429Y-132414235D01*
X80099329Y-132405970D01*
X80077151Y-132395480D01*
X80056107Y-132382867D01*
X80036402Y-132368253D01*
X80018223Y-132351777D01*
X80001747Y-132333598D01*
X79987133Y-132313893D01*
X79974520Y-132292849D01*
X79964030Y-132270671D01*
X79955765Y-132247571D01*
X79949804Y-132223773D01*
X79946204Y-132199504D01*
X79945000Y-132175000D01*
X79945000Y-130925000D01*
X79946204Y-130900496D01*
X79949804Y-130876227D01*
X79955765Y-130852429D01*
X79964030Y-130829329D01*
X79974520Y-130807151D01*
X79987133Y-130786107D01*
X80001747Y-130766402D01*
X80018223Y-130748223D01*
X80036402Y-130731747D01*
X80056107Y-130717133D01*
X80077151Y-130704520D01*
X80099329Y-130694030D01*
X80122429Y-130685765D01*
X80146227Y-130679804D01*
X80170496Y-130676204D01*
X80195000Y-130675000D01*
X80945000Y-130675000D01*
X80969504Y-130676204D01*
X80969504Y-130676204D01*
G37*
D13*
X80570000Y-131550000D03*
D11*
G36*
X80969504Y-126676204D02*
G01*
X80993773Y-126679804D01*
X81017571Y-126685765D01*
X81040671Y-126694030D01*
X81062849Y-126704520D01*
X81083893Y-126717133D01*
X81103598Y-126731747D01*
X81121777Y-126748223D01*
X81138253Y-126766402D01*
X81152867Y-126786107D01*
X81165480Y-126807151D01*
X81175970Y-126829329D01*
X81184235Y-126852429D01*
X81190196Y-126876227D01*
X81193796Y-126900496D01*
X81195000Y-126925000D01*
X81195000Y-128175000D01*
X81193796Y-128199504D01*
X81190196Y-128223773D01*
X81184235Y-128247571D01*
X81175970Y-128270671D01*
X81165480Y-128292849D01*
X81152867Y-128313893D01*
X81138253Y-128333598D01*
X81121777Y-128351777D01*
X81103598Y-128368253D01*
X81083893Y-128382867D01*
X81062849Y-128395480D01*
X81040671Y-128405970D01*
X81017571Y-128414235D01*
X80993773Y-128420196D01*
X80969504Y-128423796D01*
X80945000Y-128425000D01*
X80195000Y-128425000D01*
X80170496Y-128423796D01*
X80146227Y-128420196D01*
X80122429Y-128414235D01*
X80099329Y-128405970D01*
X80077151Y-128395480D01*
X80056107Y-128382867D01*
X80036402Y-128368253D01*
X80018223Y-128351777D01*
X80001747Y-128333598D01*
X79987133Y-128313893D01*
X79974520Y-128292849D01*
X79964030Y-128270671D01*
X79955765Y-128247571D01*
X79949804Y-128223773D01*
X79946204Y-128199504D01*
X79945000Y-128175000D01*
X79945000Y-126925000D01*
X79946204Y-126900496D01*
X79949804Y-126876227D01*
X79955765Y-126852429D01*
X79964030Y-126829329D01*
X79974520Y-126807151D01*
X79987133Y-126786107D01*
X80001747Y-126766402D01*
X80018223Y-126748223D01*
X80036402Y-126731747D01*
X80056107Y-126717133D01*
X80077151Y-126704520D01*
X80099329Y-126694030D01*
X80122429Y-126685765D01*
X80146227Y-126679804D01*
X80170496Y-126676204D01*
X80195000Y-126675000D01*
X80945000Y-126675000D01*
X80969504Y-126676204D01*
X80969504Y-126676204D01*
G37*
D13*
X80570000Y-127550000D03*
D11*
G36*
X83769504Y-126676204D02*
G01*
X83793773Y-126679804D01*
X83817571Y-126685765D01*
X83840671Y-126694030D01*
X83862849Y-126704520D01*
X83883893Y-126717133D01*
X83903598Y-126731747D01*
X83921777Y-126748223D01*
X83938253Y-126766402D01*
X83952867Y-126786107D01*
X83965480Y-126807151D01*
X83975970Y-126829329D01*
X83984235Y-126852429D01*
X83990196Y-126876227D01*
X83993796Y-126900496D01*
X83995000Y-126925000D01*
X83995000Y-128175000D01*
X83993796Y-128199504D01*
X83990196Y-128223773D01*
X83984235Y-128247571D01*
X83975970Y-128270671D01*
X83965480Y-128292849D01*
X83952867Y-128313893D01*
X83938253Y-128333598D01*
X83921777Y-128351777D01*
X83903598Y-128368253D01*
X83883893Y-128382867D01*
X83862849Y-128395480D01*
X83840671Y-128405970D01*
X83817571Y-128414235D01*
X83793773Y-128420196D01*
X83769504Y-128423796D01*
X83745000Y-128425000D01*
X82995000Y-128425000D01*
X82970496Y-128423796D01*
X82946227Y-128420196D01*
X82922429Y-128414235D01*
X82899329Y-128405970D01*
X82877151Y-128395480D01*
X82856107Y-128382867D01*
X82836402Y-128368253D01*
X82818223Y-128351777D01*
X82801747Y-128333598D01*
X82787133Y-128313893D01*
X82774520Y-128292849D01*
X82764030Y-128270671D01*
X82755765Y-128247571D01*
X82749804Y-128223773D01*
X82746204Y-128199504D01*
X82745000Y-128175000D01*
X82745000Y-126925000D01*
X82746204Y-126900496D01*
X82749804Y-126876227D01*
X82755765Y-126852429D01*
X82764030Y-126829329D01*
X82774520Y-126807151D01*
X82787133Y-126786107D01*
X82801747Y-126766402D01*
X82818223Y-126748223D01*
X82836402Y-126731747D01*
X82856107Y-126717133D01*
X82877151Y-126704520D01*
X82899329Y-126694030D01*
X82922429Y-126685765D01*
X82946227Y-126679804D01*
X82970496Y-126676204D01*
X82995000Y-126675000D01*
X83745000Y-126675000D01*
X83769504Y-126676204D01*
X83769504Y-126676204D01*
G37*
D13*
X83370000Y-127550000D03*
D11*
G36*
X89825142Y-75351174D02*
G01*
X89848803Y-75354684D01*
X89872007Y-75360496D01*
X89894529Y-75368554D01*
X89916153Y-75378782D01*
X89936670Y-75391079D01*
X89955883Y-75405329D01*
X89973607Y-75421393D01*
X89989671Y-75439117D01*
X90003921Y-75458330D01*
X90016218Y-75478847D01*
X90026446Y-75500471D01*
X90034504Y-75522993D01*
X90040316Y-75546197D01*
X90043826Y-75569858D01*
X90045000Y-75593750D01*
X90045000Y-76506250D01*
X90043826Y-76530142D01*
X90040316Y-76553803D01*
X90034504Y-76577007D01*
X90026446Y-76599529D01*
X90016218Y-76621153D01*
X90003921Y-76641670D01*
X89989671Y-76660883D01*
X89973607Y-76678607D01*
X89955883Y-76694671D01*
X89936670Y-76708921D01*
X89916153Y-76721218D01*
X89894529Y-76731446D01*
X89872007Y-76739504D01*
X89848803Y-76745316D01*
X89825142Y-76748826D01*
X89801250Y-76750000D01*
X89313750Y-76750000D01*
X89289858Y-76748826D01*
X89266197Y-76745316D01*
X89242993Y-76739504D01*
X89220471Y-76731446D01*
X89198847Y-76721218D01*
X89178330Y-76708921D01*
X89159117Y-76694671D01*
X89141393Y-76678607D01*
X89125329Y-76660883D01*
X89111079Y-76641670D01*
X89098782Y-76621153D01*
X89088554Y-76599529D01*
X89080496Y-76577007D01*
X89074684Y-76553803D01*
X89071174Y-76530142D01*
X89070000Y-76506250D01*
X89070000Y-75593750D01*
X89071174Y-75569858D01*
X89074684Y-75546197D01*
X89080496Y-75522993D01*
X89088554Y-75500471D01*
X89098782Y-75478847D01*
X89111079Y-75458330D01*
X89125329Y-75439117D01*
X89141393Y-75421393D01*
X89159117Y-75405329D01*
X89178330Y-75391079D01*
X89198847Y-75378782D01*
X89220471Y-75368554D01*
X89242993Y-75360496D01*
X89266197Y-75354684D01*
X89289858Y-75351174D01*
X89313750Y-75350000D01*
X89801250Y-75350000D01*
X89825142Y-75351174D01*
X89825142Y-75351174D01*
G37*
D12*
X89557500Y-76050000D03*
D11*
G36*
X87950142Y-75351174D02*
G01*
X87973803Y-75354684D01*
X87997007Y-75360496D01*
X88019529Y-75368554D01*
X88041153Y-75378782D01*
X88061670Y-75391079D01*
X88080883Y-75405329D01*
X88098607Y-75421393D01*
X88114671Y-75439117D01*
X88128921Y-75458330D01*
X88141218Y-75478847D01*
X88151446Y-75500471D01*
X88159504Y-75522993D01*
X88165316Y-75546197D01*
X88168826Y-75569858D01*
X88170000Y-75593750D01*
X88170000Y-76506250D01*
X88168826Y-76530142D01*
X88165316Y-76553803D01*
X88159504Y-76577007D01*
X88151446Y-76599529D01*
X88141218Y-76621153D01*
X88128921Y-76641670D01*
X88114671Y-76660883D01*
X88098607Y-76678607D01*
X88080883Y-76694671D01*
X88061670Y-76708921D01*
X88041153Y-76721218D01*
X88019529Y-76731446D01*
X87997007Y-76739504D01*
X87973803Y-76745316D01*
X87950142Y-76748826D01*
X87926250Y-76750000D01*
X87438750Y-76750000D01*
X87414858Y-76748826D01*
X87391197Y-76745316D01*
X87367993Y-76739504D01*
X87345471Y-76731446D01*
X87323847Y-76721218D01*
X87303330Y-76708921D01*
X87284117Y-76694671D01*
X87266393Y-76678607D01*
X87250329Y-76660883D01*
X87236079Y-76641670D01*
X87223782Y-76621153D01*
X87213554Y-76599529D01*
X87205496Y-76577007D01*
X87199684Y-76553803D01*
X87196174Y-76530142D01*
X87195000Y-76506250D01*
X87195000Y-75593750D01*
X87196174Y-75569858D01*
X87199684Y-75546197D01*
X87205496Y-75522993D01*
X87213554Y-75500471D01*
X87223782Y-75478847D01*
X87236079Y-75458330D01*
X87250329Y-75439117D01*
X87266393Y-75421393D01*
X87284117Y-75405329D01*
X87303330Y-75391079D01*
X87323847Y-75378782D01*
X87345471Y-75368554D01*
X87367993Y-75360496D01*
X87391197Y-75354684D01*
X87414858Y-75351174D01*
X87438750Y-75350000D01*
X87926250Y-75350000D01*
X87950142Y-75351174D01*
X87950142Y-75351174D01*
G37*
D12*
X87682500Y-76050000D03*
D11*
G36*
X87950142Y-72701174D02*
G01*
X87973803Y-72704684D01*
X87997007Y-72710496D01*
X88019529Y-72718554D01*
X88041153Y-72728782D01*
X88061670Y-72741079D01*
X88080883Y-72755329D01*
X88098607Y-72771393D01*
X88114671Y-72789117D01*
X88128921Y-72808330D01*
X88141218Y-72828847D01*
X88151446Y-72850471D01*
X88159504Y-72872993D01*
X88165316Y-72896197D01*
X88168826Y-72919858D01*
X88170000Y-72943750D01*
X88170000Y-73856250D01*
X88168826Y-73880142D01*
X88165316Y-73903803D01*
X88159504Y-73927007D01*
X88151446Y-73949529D01*
X88141218Y-73971153D01*
X88128921Y-73991670D01*
X88114671Y-74010883D01*
X88098607Y-74028607D01*
X88080883Y-74044671D01*
X88061670Y-74058921D01*
X88041153Y-74071218D01*
X88019529Y-74081446D01*
X87997007Y-74089504D01*
X87973803Y-74095316D01*
X87950142Y-74098826D01*
X87926250Y-74100000D01*
X87438750Y-74100000D01*
X87414858Y-74098826D01*
X87391197Y-74095316D01*
X87367993Y-74089504D01*
X87345471Y-74081446D01*
X87323847Y-74071218D01*
X87303330Y-74058921D01*
X87284117Y-74044671D01*
X87266393Y-74028607D01*
X87250329Y-74010883D01*
X87236079Y-73991670D01*
X87223782Y-73971153D01*
X87213554Y-73949529D01*
X87205496Y-73927007D01*
X87199684Y-73903803D01*
X87196174Y-73880142D01*
X87195000Y-73856250D01*
X87195000Y-72943750D01*
X87196174Y-72919858D01*
X87199684Y-72896197D01*
X87205496Y-72872993D01*
X87213554Y-72850471D01*
X87223782Y-72828847D01*
X87236079Y-72808330D01*
X87250329Y-72789117D01*
X87266393Y-72771393D01*
X87284117Y-72755329D01*
X87303330Y-72741079D01*
X87323847Y-72728782D01*
X87345471Y-72718554D01*
X87367993Y-72710496D01*
X87391197Y-72704684D01*
X87414858Y-72701174D01*
X87438750Y-72700000D01*
X87926250Y-72700000D01*
X87950142Y-72701174D01*
X87950142Y-72701174D01*
G37*
D12*
X87682500Y-73400000D03*
D11*
G36*
X89825142Y-72701174D02*
G01*
X89848803Y-72704684D01*
X89872007Y-72710496D01*
X89894529Y-72718554D01*
X89916153Y-72728782D01*
X89936670Y-72741079D01*
X89955883Y-72755329D01*
X89973607Y-72771393D01*
X89989671Y-72789117D01*
X90003921Y-72808330D01*
X90016218Y-72828847D01*
X90026446Y-72850471D01*
X90034504Y-72872993D01*
X90040316Y-72896197D01*
X90043826Y-72919858D01*
X90045000Y-72943750D01*
X90045000Y-73856250D01*
X90043826Y-73880142D01*
X90040316Y-73903803D01*
X90034504Y-73927007D01*
X90026446Y-73949529D01*
X90016218Y-73971153D01*
X90003921Y-73991670D01*
X89989671Y-74010883D01*
X89973607Y-74028607D01*
X89955883Y-74044671D01*
X89936670Y-74058921D01*
X89916153Y-74071218D01*
X89894529Y-74081446D01*
X89872007Y-74089504D01*
X89848803Y-74095316D01*
X89825142Y-74098826D01*
X89801250Y-74100000D01*
X89313750Y-74100000D01*
X89289858Y-74098826D01*
X89266197Y-74095316D01*
X89242993Y-74089504D01*
X89220471Y-74081446D01*
X89198847Y-74071218D01*
X89178330Y-74058921D01*
X89159117Y-74044671D01*
X89141393Y-74028607D01*
X89125329Y-74010883D01*
X89111079Y-73991670D01*
X89098782Y-73971153D01*
X89088554Y-73949529D01*
X89080496Y-73927007D01*
X89074684Y-73903803D01*
X89071174Y-73880142D01*
X89070000Y-73856250D01*
X89070000Y-72943750D01*
X89071174Y-72919858D01*
X89074684Y-72896197D01*
X89080496Y-72872993D01*
X89088554Y-72850471D01*
X89098782Y-72828847D01*
X89111079Y-72808330D01*
X89125329Y-72789117D01*
X89141393Y-72771393D01*
X89159117Y-72755329D01*
X89178330Y-72741079D01*
X89198847Y-72728782D01*
X89220471Y-72718554D01*
X89242993Y-72710496D01*
X89266197Y-72704684D01*
X89289858Y-72701174D01*
X89313750Y-72700000D01*
X89801250Y-72700000D01*
X89825142Y-72701174D01*
X89825142Y-72701174D01*
G37*
D12*
X89557500Y-73400000D03*
D11*
G36*
X89775142Y-70113674D02*
G01*
X89798803Y-70117184D01*
X89822007Y-70122996D01*
X89844529Y-70131054D01*
X89866153Y-70141282D01*
X89886670Y-70153579D01*
X89905883Y-70167829D01*
X89923607Y-70183893D01*
X89939671Y-70201617D01*
X89953921Y-70220830D01*
X89966218Y-70241347D01*
X89976446Y-70262971D01*
X89984504Y-70285493D01*
X89990316Y-70308697D01*
X89993826Y-70332358D01*
X89995000Y-70356250D01*
X89995000Y-71268750D01*
X89993826Y-71292642D01*
X89990316Y-71316303D01*
X89984504Y-71339507D01*
X89976446Y-71362029D01*
X89966218Y-71383653D01*
X89953921Y-71404170D01*
X89939671Y-71423383D01*
X89923607Y-71441107D01*
X89905883Y-71457171D01*
X89886670Y-71471421D01*
X89866153Y-71483718D01*
X89844529Y-71493946D01*
X89822007Y-71502004D01*
X89798803Y-71507816D01*
X89775142Y-71511326D01*
X89751250Y-71512500D01*
X89263750Y-71512500D01*
X89239858Y-71511326D01*
X89216197Y-71507816D01*
X89192993Y-71502004D01*
X89170471Y-71493946D01*
X89148847Y-71483718D01*
X89128330Y-71471421D01*
X89109117Y-71457171D01*
X89091393Y-71441107D01*
X89075329Y-71423383D01*
X89061079Y-71404170D01*
X89048782Y-71383653D01*
X89038554Y-71362029D01*
X89030496Y-71339507D01*
X89024684Y-71316303D01*
X89021174Y-71292642D01*
X89020000Y-71268750D01*
X89020000Y-70356250D01*
X89021174Y-70332358D01*
X89024684Y-70308697D01*
X89030496Y-70285493D01*
X89038554Y-70262971D01*
X89048782Y-70241347D01*
X89061079Y-70220830D01*
X89075329Y-70201617D01*
X89091393Y-70183893D01*
X89109117Y-70167829D01*
X89128330Y-70153579D01*
X89148847Y-70141282D01*
X89170471Y-70131054D01*
X89192993Y-70122996D01*
X89216197Y-70117184D01*
X89239858Y-70113674D01*
X89263750Y-70112500D01*
X89751250Y-70112500D01*
X89775142Y-70113674D01*
X89775142Y-70113674D01*
G37*
D12*
X89507500Y-70812500D03*
D11*
G36*
X87900142Y-70113674D02*
G01*
X87923803Y-70117184D01*
X87947007Y-70122996D01*
X87969529Y-70131054D01*
X87991153Y-70141282D01*
X88011670Y-70153579D01*
X88030883Y-70167829D01*
X88048607Y-70183893D01*
X88064671Y-70201617D01*
X88078921Y-70220830D01*
X88091218Y-70241347D01*
X88101446Y-70262971D01*
X88109504Y-70285493D01*
X88115316Y-70308697D01*
X88118826Y-70332358D01*
X88120000Y-70356250D01*
X88120000Y-71268750D01*
X88118826Y-71292642D01*
X88115316Y-71316303D01*
X88109504Y-71339507D01*
X88101446Y-71362029D01*
X88091218Y-71383653D01*
X88078921Y-71404170D01*
X88064671Y-71423383D01*
X88048607Y-71441107D01*
X88030883Y-71457171D01*
X88011670Y-71471421D01*
X87991153Y-71483718D01*
X87969529Y-71493946D01*
X87947007Y-71502004D01*
X87923803Y-71507816D01*
X87900142Y-71511326D01*
X87876250Y-71512500D01*
X87388750Y-71512500D01*
X87364858Y-71511326D01*
X87341197Y-71507816D01*
X87317993Y-71502004D01*
X87295471Y-71493946D01*
X87273847Y-71483718D01*
X87253330Y-71471421D01*
X87234117Y-71457171D01*
X87216393Y-71441107D01*
X87200329Y-71423383D01*
X87186079Y-71404170D01*
X87173782Y-71383653D01*
X87163554Y-71362029D01*
X87155496Y-71339507D01*
X87149684Y-71316303D01*
X87146174Y-71292642D01*
X87145000Y-71268750D01*
X87145000Y-70356250D01*
X87146174Y-70332358D01*
X87149684Y-70308697D01*
X87155496Y-70285493D01*
X87163554Y-70262971D01*
X87173782Y-70241347D01*
X87186079Y-70220830D01*
X87200329Y-70201617D01*
X87216393Y-70183893D01*
X87234117Y-70167829D01*
X87253330Y-70153579D01*
X87273847Y-70141282D01*
X87295471Y-70131054D01*
X87317993Y-70122996D01*
X87341197Y-70117184D01*
X87364858Y-70113674D01*
X87388750Y-70112500D01*
X87876250Y-70112500D01*
X87900142Y-70113674D01*
X87900142Y-70113674D01*
G37*
D12*
X87632500Y-70812500D03*
D11*
G36*
X163107004Y-72726204D02*
G01*
X163131273Y-72729804D01*
X163155071Y-72735765D01*
X163178171Y-72744030D01*
X163200349Y-72754520D01*
X163221393Y-72767133D01*
X163241098Y-72781747D01*
X163259277Y-72798223D01*
X163275753Y-72816402D01*
X163290367Y-72836107D01*
X163302980Y-72857151D01*
X163313470Y-72879329D01*
X163321735Y-72902429D01*
X163327696Y-72926227D01*
X163331296Y-72950496D01*
X163332500Y-72975000D01*
X163332500Y-74225000D01*
X163331296Y-74249504D01*
X163327696Y-74273773D01*
X163321735Y-74297571D01*
X163313470Y-74320671D01*
X163302980Y-74342849D01*
X163290367Y-74363893D01*
X163275753Y-74383598D01*
X163259277Y-74401777D01*
X163241098Y-74418253D01*
X163221393Y-74432867D01*
X163200349Y-74445480D01*
X163178171Y-74455970D01*
X163155071Y-74464235D01*
X163131273Y-74470196D01*
X163107004Y-74473796D01*
X163082500Y-74475000D01*
X162157500Y-74475000D01*
X162132996Y-74473796D01*
X162108727Y-74470196D01*
X162084929Y-74464235D01*
X162061829Y-74455970D01*
X162039651Y-74445480D01*
X162018607Y-74432867D01*
X161998902Y-74418253D01*
X161980723Y-74401777D01*
X161964247Y-74383598D01*
X161949633Y-74363893D01*
X161937020Y-74342849D01*
X161926530Y-74320671D01*
X161918265Y-74297571D01*
X161912304Y-74273773D01*
X161908704Y-74249504D01*
X161907500Y-74225000D01*
X161907500Y-72975000D01*
X161908704Y-72950496D01*
X161912304Y-72926227D01*
X161918265Y-72902429D01*
X161926530Y-72879329D01*
X161937020Y-72857151D01*
X161949633Y-72836107D01*
X161964247Y-72816402D01*
X161980723Y-72798223D01*
X161998902Y-72781747D01*
X162018607Y-72767133D01*
X162039651Y-72754520D01*
X162061829Y-72744030D01*
X162084929Y-72735765D01*
X162108727Y-72729804D01*
X162132996Y-72726204D01*
X162157500Y-72725000D01*
X163082500Y-72725000D01*
X163107004Y-72726204D01*
X163107004Y-72726204D01*
G37*
D14*
X162620000Y-73600000D03*
D11*
G36*
X166082004Y-72726204D02*
G01*
X166106273Y-72729804D01*
X166130071Y-72735765D01*
X166153171Y-72744030D01*
X166175349Y-72754520D01*
X166196393Y-72767133D01*
X166216098Y-72781747D01*
X166234277Y-72798223D01*
X166250753Y-72816402D01*
X166265367Y-72836107D01*
X166277980Y-72857151D01*
X166288470Y-72879329D01*
X166296735Y-72902429D01*
X166302696Y-72926227D01*
X166306296Y-72950496D01*
X166307500Y-72975000D01*
X166307500Y-74225000D01*
X166306296Y-74249504D01*
X166302696Y-74273773D01*
X166296735Y-74297571D01*
X166288470Y-74320671D01*
X166277980Y-74342849D01*
X166265367Y-74363893D01*
X166250753Y-74383598D01*
X166234277Y-74401777D01*
X166216098Y-74418253D01*
X166196393Y-74432867D01*
X166175349Y-74445480D01*
X166153171Y-74455970D01*
X166130071Y-74464235D01*
X166106273Y-74470196D01*
X166082004Y-74473796D01*
X166057500Y-74475000D01*
X165132500Y-74475000D01*
X165107996Y-74473796D01*
X165083727Y-74470196D01*
X165059929Y-74464235D01*
X165036829Y-74455970D01*
X165014651Y-74445480D01*
X164993607Y-74432867D01*
X164973902Y-74418253D01*
X164955723Y-74401777D01*
X164939247Y-74383598D01*
X164924633Y-74363893D01*
X164912020Y-74342849D01*
X164901530Y-74320671D01*
X164893265Y-74297571D01*
X164887304Y-74273773D01*
X164883704Y-74249504D01*
X164882500Y-74225000D01*
X164882500Y-72975000D01*
X164883704Y-72950496D01*
X164887304Y-72926227D01*
X164893265Y-72902429D01*
X164901530Y-72879329D01*
X164912020Y-72857151D01*
X164924633Y-72836107D01*
X164939247Y-72816402D01*
X164955723Y-72798223D01*
X164973902Y-72781747D01*
X164993607Y-72767133D01*
X165014651Y-72754520D01*
X165036829Y-72744030D01*
X165059929Y-72735765D01*
X165083727Y-72729804D01*
X165107996Y-72726204D01*
X165132500Y-72725000D01*
X166057500Y-72725000D01*
X166082004Y-72726204D01*
X166082004Y-72726204D01*
G37*
D14*
X165595000Y-73600000D03*
D11*
G36*
X146832004Y-68926204D02*
G01*
X146856273Y-68929804D01*
X146880071Y-68935765D01*
X146903171Y-68944030D01*
X146925349Y-68954520D01*
X146946393Y-68967133D01*
X146966098Y-68981747D01*
X146984277Y-68998223D01*
X147000753Y-69016402D01*
X147015367Y-69036107D01*
X147027980Y-69057151D01*
X147038470Y-69079329D01*
X147046735Y-69102429D01*
X147052696Y-69126227D01*
X147056296Y-69150496D01*
X147057500Y-69175000D01*
X147057500Y-70425000D01*
X147056296Y-70449504D01*
X147052696Y-70473773D01*
X147046735Y-70497571D01*
X147038470Y-70520671D01*
X147027980Y-70542849D01*
X147015367Y-70563893D01*
X147000753Y-70583598D01*
X146984277Y-70601777D01*
X146966098Y-70618253D01*
X146946393Y-70632867D01*
X146925349Y-70645480D01*
X146903171Y-70655970D01*
X146880071Y-70664235D01*
X146856273Y-70670196D01*
X146832004Y-70673796D01*
X146807500Y-70675000D01*
X145882500Y-70675000D01*
X145857996Y-70673796D01*
X145833727Y-70670196D01*
X145809929Y-70664235D01*
X145786829Y-70655970D01*
X145764651Y-70645480D01*
X145743607Y-70632867D01*
X145723902Y-70618253D01*
X145705723Y-70601777D01*
X145689247Y-70583598D01*
X145674633Y-70563893D01*
X145662020Y-70542849D01*
X145651530Y-70520671D01*
X145643265Y-70497571D01*
X145637304Y-70473773D01*
X145633704Y-70449504D01*
X145632500Y-70425000D01*
X145632500Y-69175000D01*
X145633704Y-69150496D01*
X145637304Y-69126227D01*
X145643265Y-69102429D01*
X145651530Y-69079329D01*
X145662020Y-69057151D01*
X145674633Y-69036107D01*
X145689247Y-69016402D01*
X145705723Y-68998223D01*
X145723902Y-68981747D01*
X145743607Y-68967133D01*
X145764651Y-68954520D01*
X145786829Y-68944030D01*
X145809929Y-68935765D01*
X145833727Y-68929804D01*
X145857996Y-68926204D01*
X145882500Y-68925000D01*
X146807500Y-68925000D01*
X146832004Y-68926204D01*
X146832004Y-68926204D01*
G37*
D14*
X146345000Y-69800000D03*
D11*
G36*
X149807004Y-68926204D02*
G01*
X149831273Y-68929804D01*
X149855071Y-68935765D01*
X149878171Y-68944030D01*
X149900349Y-68954520D01*
X149921393Y-68967133D01*
X149941098Y-68981747D01*
X149959277Y-68998223D01*
X149975753Y-69016402D01*
X149990367Y-69036107D01*
X150002980Y-69057151D01*
X150013470Y-69079329D01*
X150021735Y-69102429D01*
X150027696Y-69126227D01*
X150031296Y-69150496D01*
X150032500Y-69175000D01*
X150032500Y-70425000D01*
X150031296Y-70449504D01*
X150027696Y-70473773D01*
X150021735Y-70497571D01*
X150013470Y-70520671D01*
X150002980Y-70542849D01*
X149990367Y-70563893D01*
X149975753Y-70583598D01*
X149959277Y-70601777D01*
X149941098Y-70618253D01*
X149921393Y-70632867D01*
X149900349Y-70645480D01*
X149878171Y-70655970D01*
X149855071Y-70664235D01*
X149831273Y-70670196D01*
X149807004Y-70673796D01*
X149782500Y-70675000D01*
X148857500Y-70675000D01*
X148832996Y-70673796D01*
X148808727Y-70670196D01*
X148784929Y-70664235D01*
X148761829Y-70655970D01*
X148739651Y-70645480D01*
X148718607Y-70632867D01*
X148698902Y-70618253D01*
X148680723Y-70601777D01*
X148664247Y-70583598D01*
X148649633Y-70563893D01*
X148637020Y-70542849D01*
X148626530Y-70520671D01*
X148618265Y-70497571D01*
X148612304Y-70473773D01*
X148608704Y-70449504D01*
X148607500Y-70425000D01*
X148607500Y-69175000D01*
X148608704Y-69150496D01*
X148612304Y-69126227D01*
X148618265Y-69102429D01*
X148626530Y-69079329D01*
X148637020Y-69057151D01*
X148649633Y-69036107D01*
X148664247Y-69016402D01*
X148680723Y-68998223D01*
X148698902Y-68981747D01*
X148718607Y-68967133D01*
X148739651Y-68954520D01*
X148761829Y-68944030D01*
X148784929Y-68935765D01*
X148808727Y-68929804D01*
X148832996Y-68926204D01*
X148857500Y-68925000D01*
X149782500Y-68925000D01*
X149807004Y-68926204D01*
X149807004Y-68926204D01*
G37*
D14*
X149320000Y-69800000D03*
D11*
G36*
X76787642Y-128651174D02*
G01*
X76811303Y-128654684D01*
X76834507Y-128660496D01*
X76857029Y-128668554D01*
X76878653Y-128678782D01*
X76899170Y-128691079D01*
X76918383Y-128705329D01*
X76936107Y-128721393D01*
X76952171Y-128739117D01*
X76966421Y-128758330D01*
X76978718Y-128778847D01*
X76988946Y-128800471D01*
X76997004Y-128822993D01*
X77002816Y-128846197D01*
X77006326Y-128869858D01*
X77007500Y-128893750D01*
X77007500Y-129806250D01*
X77006326Y-129830142D01*
X77002816Y-129853803D01*
X76997004Y-129877007D01*
X76988946Y-129899529D01*
X76978718Y-129921153D01*
X76966421Y-129941670D01*
X76952171Y-129960883D01*
X76936107Y-129978607D01*
X76918383Y-129994671D01*
X76899170Y-130008921D01*
X76878653Y-130021218D01*
X76857029Y-130031446D01*
X76834507Y-130039504D01*
X76811303Y-130045316D01*
X76787642Y-130048826D01*
X76763750Y-130050000D01*
X76276250Y-130050000D01*
X76252358Y-130048826D01*
X76228697Y-130045316D01*
X76205493Y-130039504D01*
X76182971Y-130031446D01*
X76161347Y-130021218D01*
X76140830Y-130008921D01*
X76121617Y-129994671D01*
X76103893Y-129978607D01*
X76087829Y-129960883D01*
X76073579Y-129941670D01*
X76061282Y-129921153D01*
X76051054Y-129899529D01*
X76042996Y-129877007D01*
X76037184Y-129853803D01*
X76033674Y-129830142D01*
X76032500Y-129806250D01*
X76032500Y-128893750D01*
X76033674Y-128869858D01*
X76037184Y-128846197D01*
X76042996Y-128822993D01*
X76051054Y-128800471D01*
X76061282Y-128778847D01*
X76073579Y-128758330D01*
X76087829Y-128739117D01*
X76103893Y-128721393D01*
X76121617Y-128705329D01*
X76140830Y-128691079D01*
X76161347Y-128678782D01*
X76182971Y-128668554D01*
X76205493Y-128660496D01*
X76228697Y-128654684D01*
X76252358Y-128651174D01*
X76276250Y-128650000D01*
X76763750Y-128650000D01*
X76787642Y-128651174D01*
X76787642Y-128651174D01*
G37*
D12*
X76520000Y-129350000D03*
D11*
G36*
X78662642Y-128651174D02*
G01*
X78686303Y-128654684D01*
X78709507Y-128660496D01*
X78732029Y-128668554D01*
X78753653Y-128678782D01*
X78774170Y-128691079D01*
X78793383Y-128705329D01*
X78811107Y-128721393D01*
X78827171Y-128739117D01*
X78841421Y-128758330D01*
X78853718Y-128778847D01*
X78863946Y-128800471D01*
X78872004Y-128822993D01*
X78877816Y-128846197D01*
X78881326Y-128869858D01*
X78882500Y-128893750D01*
X78882500Y-129806250D01*
X78881326Y-129830142D01*
X78877816Y-129853803D01*
X78872004Y-129877007D01*
X78863946Y-129899529D01*
X78853718Y-129921153D01*
X78841421Y-129941670D01*
X78827171Y-129960883D01*
X78811107Y-129978607D01*
X78793383Y-129994671D01*
X78774170Y-130008921D01*
X78753653Y-130021218D01*
X78732029Y-130031446D01*
X78709507Y-130039504D01*
X78686303Y-130045316D01*
X78662642Y-130048826D01*
X78638750Y-130050000D01*
X78151250Y-130050000D01*
X78127358Y-130048826D01*
X78103697Y-130045316D01*
X78080493Y-130039504D01*
X78057971Y-130031446D01*
X78036347Y-130021218D01*
X78015830Y-130008921D01*
X77996617Y-129994671D01*
X77978893Y-129978607D01*
X77962829Y-129960883D01*
X77948579Y-129941670D01*
X77936282Y-129921153D01*
X77926054Y-129899529D01*
X77917996Y-129877007D01*
X77912184Y-129853803D01*
X77908674Y-129830142D01*
X77907500Y-129806250D01*
X77907500Y-128893750D01*
X77908674Y-128869858D01*
X77912184Y-128846197D01*
X77917996Y-128822993D01*
X77926054Y-128800471D01*
X77936282Y-128778847D01*
X77948579Y-128758330D01*
X77962829Y-128739117D01*
X77978893Y-128721393D01*
X77996617Y-128705329D01*
X78015830Y-128691079D01*
X78036347Y-128678782D01*
X78057971Y-128668554D01*
X78080493Y-128660496D01*
X78103697Y-128654684D01*
X78127358Y-128651174D01*
X78151250Y-128650000D01*
X78638750Y-128650000D01*
X78662642Y-128651174D01*
X78662642Y-128651174D01*
G37*
D12*
X78395000Y-129350000D03*
D11*
G36*
X78687642Y-126551174D02*
G01*
X78711303Y-126554684D01*
X78734507Y-126560496D01*
X78757029Y-126568554D01*
X78778653Y-126578782D01*
X78799170Y-126591079D01*
X78818383Y-126605329D01*
X78836107Y-126621393D01*
X78852171Y-126639117D01*
X78866421Y-126658330D01*
X78878718Y-126678847D01*
X78888946Y-126700471D01*
X78897004Y-126722993D01*
X78902816Y-126746197D01*
X78906326Y-126769858D01*
X78907500Y-126793750D01*
X78907500Y-127706250D01*
X78906326Y-127730142D01*
X78902816Y-127753803D01*
X78897004Y-127777007D01*
X78888946Y-127799529D01*
X78878718Y-127821153D01*
X78866421Y-127841670D01*
X78852171Y-127860883D01*
X78836107Y-127878607D01*
X78818383Y-127894671D01*
X78799170Y-127908921D01*
X78778653Y-127921218D01*
X78757029Y-127931446D01*
X78734507Y-127939504D01*
X78711303Y-127945316D01*
X78687642Y-127948826D01*
X78663750Y-127950000D01*
X78176250Y-127950000D01*
X78152358Y-127948826D01*
X78128697Y-127945316D01*
X78105493Y-127939504D01*
X78082971Y-127931446D01*
X78061347Y-127921218D01*
X78040830Y-127908921D01*
X78021617Y-127894671D01*
X78003893Y-127878607D01*
X77987829Y-127860883D01*
X77973579Y-127841670D01*
X77961282Y-127821153D01*
X77951054Y-127799529D01*
X77942996Y-127777007D01*
X77937184Y-127753803D01*
X77933674Y-127730142D01*
X77932500Y-127706250D01*
X77932500Y-126793750D01*
X77933674Y-126769858D01*
X77937184Y-126746197D01*
X77942996Y-126722993D01*
X77951054Y-126700471D01*
X77961282Y-126678847D01*
X77973579Y-126658330D01*
X77987829Y-126639117D01*
X78003893Y-126621393D01*
X78021617Y-126605329D01*
X78040830Y-126591079D01*
X78061347Y-126578782D01*
X78082971Y-126568554D01*
X78105493Y-126560496D01*
X78128697Y-126554684D01*
X78152358Y-126551174D01*
X78176250Y-126550000D01*
X78663750Y-126550000D01*
X78687642Y-126551174D01*
X78687642Y-126551174D01*
G37*
D12*
X78420000Y-127250000D03*
D11*
G36*
X76812642Y-126551174D02*
G01*
X76836303Y-126554684D01*
X76859507Y-126560496D01*
X76882029Y-126568554D01*
X76903653Y-126578782D01*
X76924170Y-126591079D01*
X76943383Y-126605329D01*
X76961107Y-126621393D01*
X76977171Y-126639117D01*
X76991421Y-126658330D01*
X77003718Y-126678847D01*
X77013946Y-126700471D01*
X77022004Y-126722993D01*
X77027816Y-126746197D01*
X77031326Y-126769858D01*
X77032500Y-126793750D01*
X77032500Y-127706250D01*
X77031326Y-127730142D01*
X77027816Y-127753803D01*
X77022004Y-127777007D01*
X77013946Y-127799529D01*
X77003718Y-127821153D01*
X76991421Y-127841670D01*
X76977171Y-127860883D01*
X76961107Y-127878607D01*
X76943383Y-127894671D01*
X76924170Y-127908921D01*
X76903653Y-127921218D01*
X76882029Y-127931446D01*
X76859507Y-127939504D01*
X76836303Y-127945316D01*
X76812642Y-127948826D01*
X76788750Y-127950000D01*
X76301250Y-127950000D01*
X76277358Y-127948826D01*
X76253697Y-127945316D01*
X76230493Y-127939504D01*
X76207971Y-127931446D01*
X76186347Y-127921218D01*
X76165830Y-127908921D01*
X76146617Y-127894671D01*
X76128893Y-127878607D01*
X76112829Y-127860883D01*
X76098579Y-127841670D01*
X76086282Y-127821153D01*
X76076054Y-127799529D01*
X76067996Y-127777007D01*
X76062184Y-127753803D01*
X76058674Y-127730142D01*
X76057500Y-127706250D01*
X76057500Y-126793750D01*
X76058674Y-126769858D01*
X76062184Y-126746197D01*
X76067996Y-126722993D01*
X76076054Y-126700471D01*
X76086282Y-126678847D01*
X76098579Y-126658330D01*
X76112829Y-126639117D01*
X76128893Y-126621393D01*
X76146617Y-126605329D01*
X76165830Y-126591079D01*
X76186347Y-126578782D01*
X76207971Y-126568554D01*
X76230493Y-126560496D01*
X76253697Y-126554684D01*
X76277358Y-126551174D01*
X76301250Y-126550000D01*
X76788750Y-126550000D01*
X76812642Y-126551174D01*
X76812642Y-126551174D01*
G37*
D12*
X76545000Y-127250000D03*
D11*
G36*
X76812642Y-124251174D02*
G01*
X76836303Y-124254684D01*
X76859507Y-124260496D01*
X76882029Y-124268554D01*
X76903653Y-124278782D01*
X76924170Y-124291079D01*
X76943383Y-124305329D01*
X76961107Y-124321393D01*
X76977171Y-124339117D01*
X76991421Y-124358330D01*
X77003718Y-124378847D01*
X77013946Y-124400471D01*
X77022004Y-124422993D01*
X77027816Y-124446197D01*
X77031326Y-124469858D01*
X77032500Y-124493750D01*
X77032500Y-125406250D01*
X77031326Y-125430142D01*
X77027816Y-125453803D01*
X77022004Y-125477007D01*
X77013946Y-125499529D01*
X77003718Y-125521153D01*
X76991421Y-125541670D01*
X76977171Y-125560883D01*
X76961107Y-125578607D01*
X76943383Y-125594671D01*
X76924170Y-125608921D01*
X76903653Y-125621218D01*
X76882029Y-125631446D01*
X76859507Y-125639504D01*
X76836303Y-125645316D01*
X76812642Y-125648826D01*
X76788750Y-125650000D01*
X76301250Y-125650000D01*
X76277358Y-125648826D01*
X76253697Y-125645316D01*
X76230493Y-125639504D01*
X76207971Y-125631446D01*
X76186347Y-125621218D01*
X76165830Y-125608921D01*
X76146617Y-125594671D01*
X76128893Y-125578607D01*
X76112829Y-125560883D01*
X76098579Y-125541670D01*
X76086282Y-125521153D01*
X76076054Y-125499529D01*
X76067996Y-125477007D01*
X76062184Y-125453803D01*
X76058674Y-125430142D01*
X76057500Y-125406250D01*
X76057500Y-124493750D01*
X76058674Y-124469858D01*
X76062184Y-124446197D01*
X76067996Y-124422993D01*
X76076054Y-124400471D01*
X76086282Y-124378847D01*
X76098579Y-124358330D01*
X76112829Y-124339117D01*
X76128893Y-124321393D01*
X76146617Y-124305329D01*
X76165830Y-124291079D01*
X76186347Y-124278782D01*
X76207971Y-124268554D01*
X76230493Y-124260496D01*
X76253697Y-124254684D01*
X76277358Y-124251174D01*
X76301250Y-124250000D01*
X76788750Y-124250000D01*
X76812642Y-124251174D01*
X76812642Y-124251174D01*
G37*
D12*
X76545000Y-124950000D03*
D11*
G36*
X78687642Y-124251174D02*
G01*
X78711303Y-124254684D01*
X78734507Y-124260496D01*
X78757029Y-124268554D01*
X78778653Y-124278782D01*
X78799170Y-124291079D01*
X78818383Y-124305329D01*
X78836107Y-124321393D01*
X78852171Y-124339117D01*
X78866421Y-124358330D01*
X78878718Y-124378847D01*
X78888946Y-124400471D01*
X78897004Y-124422993D01*
X78902816Y-124446197D01*
X78906326Y-124469858D01*
X78907500Y-124493750D01*
X78907500Y-125406250D01*
X78906326Y-125430142D01*
X78902816Y-125453803D01*
X78897004Y-125477007D01*
X78888946Y-125499529D01*
X78878718Y-125521153D01*
X78866421Y-125541670D01*
X78852171Y-125560883D01*
X78836107Y-125578607D01*
X78818383Y-125594671D01*
X78799170Y-125608921D01*
X78778653Y-125621218D01*
X78757029Y-125631446D01*
X78734507Y-125639504D01*
X78711303Y-125645316D01*
X78687642Y-125648826D01*
X78663750Y-125650000D01*
X78176250Y-125650000D01*
X78152358Y-125648826D01*
X78128697Y-125645316D01*
X78105493Y-125639504D01*
X78082971Y-125631446D01*
X78061347Y-125621218D01*
X78040830Y-125608921D01*
X78021617Y-125594671D01*
X78003893Y-125578607D01*
X77987829Y-125560883D01*
X77973579Y-125541670D01*
X77961282Y-125521153D01*
X77951054Y-125499529D01*
X77942996Y-125477007D01*
X77937184Y-125453803D01*
X77933674Y-125430142D01*
X77932500Y-125406250D01*
X77932500Y-124493750D01*
X77933674Y-124469858D01*
X77937184Y-124446197D01*
X77942996Y-124422993D01*
X77951054Y-124400471D01*
X77961282Y-124378847D01*
X77973579Y-124358330D01*
X77987829Y-124339117D01*
X78003893Y-124321393D01*
X78021617Y-124305329D01*
X78040830Y-124291079D01*
X78061347Y-124278782D01*
X78082971Y-124268554D01*
X78105493Y-124260496D01*
X78128697Y-124254684D01*
X78152358Y-124251174D01*
X78176250Y-124250000D01*
X78663750Y-124250000D01*
X78687642Y-124251174D01*
X78687642Y-124251174D01*
G37*
D12*
X78420000Y-124950000D03*
D11*
G36*
X78687642Y-130851174D02*
G01*
X78711303Y-130854684D01*
X78734507Y-130860496D01*
X78757029Y-130868554D01*
X78778653Y-130878782D01*
X78799170Y-130891079D01*
X78818383Y-130905329D01*
X78836107Y-130921393D01*
X78852171Y-130939117D01*
X78866421Y-130958330D01*
X78878718Y-130978847D01*
X78888946Y-131000471D01*
X78897004Y-131022993D01*
X78902816Y-131046197D01*
X78906326Y-131069858D01*
X78907500Y-131093750D01*
X78907500Y-132006250D01*
X78906326Y-132030142D01*
X78902816Y-132053803D01*
X78897004Y-132077007D01*
X78888946Y-132099529D01*
X78878718Y-132121153D01*
X78866421Y-132141670D01*
X78852171Y-132160883D01*
X78836107Y-132178607D01*
X78818383Y-132194671D01*
X78799170Y-132208921D01*
X78778653Y-132221218D01*
X78757029Y-132231446D01*
X78734507Y-132239504D01*
X78711303Y-132245316D01*
X78687642Y-132248826D01*
X78663750Y-132250000D01*
X78176250Y-132250000D01*
X78152358Y-132248826D01*
X78128697Y-132245316D01*
X78105493Y-132239504D01*
X78082971Y-132231446D01*
X78061347Y-132221218D01*
X78040830Y-132208921D01*
X78021617Y-132194671D01*
X78003893Y-132178607D01*
X77987829Y-132160883D01*
X77973579Y-132141670D01*
X77961282Y-132121153D01*
X77951054Y-132099529D01*
X77942996Y-132077007D01*
X77937184Y-132053803D01*
X77933674Y-132030142D01*
X77932500Y-132006250D01*
X77932500Y-131093750D01*
X77933674Y-131069858D01*
X77937184Y-131046197D01*
X77942996Y-131022993D01*
X77951054Y-131000471D01*
X77961282Y-130978847D01*
X77973579Y-130958330D01*
X77987829Y-130939117D01*
X78003893Y-130921393D01*
X78021617Y-130905329D01*
X78040830Y-130891079D01*
X78061347Y-130878782D01*
X78082971Y-130868554D01*
X78105493Y-130860496D01*
X78128697Y-130854684D01*
X78152358Y-130851174D01*
X78176250Y-130850000D01*
X78663750Y-130850000D01*
X78687642Y-130851174D01*
X78687642Y-130851174D01*
G37*
D12*
X78420000Y-131550000D03*
D11*
G36*
X76812642Y-130851174D02*
G01*
X76836303Y-130854684D01*
X76859507Y-130860496D01*
X76882029Y-130868554D01*
X76903653Y-130878782D01*
X76924170Y-130891079D01*
X76943383Y-130905329D01*
X76961107Y-130921393D01*
X76977171Y-130939117D01*
X76991421Y-130958330D01*
X77003718Y-130978847D01*
X77013946Y-131000471D01*
X77022004Y-131022993D01*
X77027816Y-131046197D01*
X77031326Y-131069858D01*
X77032500Y-131093750D01*
X77032500Y-132006250D01*
X77031326Y-132030142D01*
X77027816Y-132053803D01*
X77022004Y-132077007D01*
X77013946Y-132099529D01*
X77003718Y-132121153D01*
X76991421Y-132141670D01*
X76977171Y-132160883D01*
X76961107Y-132178607D01*
X76943383Y-132194671D01*
X76924170Y-132208921D01*
X76903653Y-132221218D01*
X76882029Y-132231446D01*
X76859507Y-132239504D01*
X76836303Y-132245316D01*
X76812642Y-132248826D01*
X76788750Y-132250000D01*
X76301250Y-132250000D01*
X76277358Y-132248826D01*
X76253697Y-132245316D01*
X76230493Y-132239504D01*
X76207971Y-132231446D01*
X76186347Y-132221218D01*
X76165830Y-132208921D01*
X76146617Y-132194671D01*
X76128893Y-132178607D01*
X76112829Y-132160883D01*
X76098579Y-132141670D01*
X76086282Y-132121153D01*
X76076054Y-132099529D01*
X76067996Y-132077007D01*
X76062184Y-132053803D01*
X76058674Y-132030142D01*
X76057500Y-132006250D01*
X76057500Y-131093750D01*
X76058674Y-131069858D01*
X76062184Y-131046197D01*
X76067996Y-131022993D01*
X76076054Y-131000471D01*
X76086282Y-130978847D01*
X76098579Y-130958330D01*
X76112829Y-130939117D01*
X76128893Y-130921393D01*
X76146617Y-130905329D01*
X76165830Y-130891079D01*
X76186347Y-130878782D01*
X76207971Y-130868554D01*
X76230493Y-130860496D01*
X76253697Y-130854684D01*
X76277358Y-130851174D01*
X76301250Y-130850000D01*
X76788750Y-130850000D01*
X76812642Y-130851174D01*
X76812642Y-130851174D01*
G37*
D12*
X76545000Y-131550000D03*
D11*
G36*
X84312642Y-75351174D02*
G01*
X84336303Y-75354684D01*
X84359507Y-75360496D01*
X84382029Y-75368554D01*
X84403653Y-75378782D01*
X84424170Y-75391079D01*
X84443383Y-75405329D01*
X84461107Y-75421393D01*
X84477171Y-75439117D01*
X84491421Y-75458330D01*
X84503718Y-75478847D01*
X84513946Y-75500471D01*
X84522004Y-75522993D01*
X84527816Y-75546197D01*
X84531326Y-75569858D01*
X84532500Y-75593750D01*
X84532500Y-76506250D01*
X84531326Y-76530142D01*
X84527816Y-76553803D01*
X84522004Y-76577007D01*
X84513946Y-76599529D01*
X84503718Y-76621153D01*
X84491421Y-76641670D01*
X84477171Y-76660883D01*
X84461107Y-76678607D01*
X84443383Y-76694671D01*
X84424170Y-76708921D01*
X84403653Y-76721218D01*
X84382029Y-76731446D01*
X84359507Y-76739504D01*
X84336303Y-76745316D01*
X84312642Y-76748826D01*
X84288750Y-76750000D01*
X83801250Y-76750000D01*
X83777358Y-76748826D01*
X83753697Y-76745316D01*
X83730493Y-76739504D01*
X83707971Y-76731446D01*
X83686347Y-76721218D01*
X83665830Y-76708921D01*
X83646617Y-76694671D01*
X83628893Y-76678607D01*
X83612829Y-76660883D01*
X83598579Y-76641670D01*
X83586282Y-76621153D01*
X83576054Y-76599529D01*
X83567996Y-76577007D01*
X83562184Y-76553803D01*
X83558674Y-76530142D01*
X83557500Y-76506250D01*
X83557500Y-75593750D01*
X83558674Y-75569858D01*
X83562184Y-75546197D01*
X83567996Y-75522993D01*
X83576054Y-75500471D01*
X83586282Y-75478847D01*
X83598579Y-75458330D01*
X83612829Y-75439117D01*
X83628893Y-75421393D01*
X83646617Y-75405329D01*
X83665830Y-75391079D01*
X83686347Y-75378782D01*
X83707971Y-75368554D01*
X83730493Y-75360496D01*
X83753697Y-75354684D01*
X83777358Y-75351174D01*
X83801250Y-75350000D01*
X84288750Y-75350000D01*
X84312642Y-75351174D01*
X84312642Y-75351174D01*
G37*
D12*
X84045000Y-76050000D03*
D11*
G36*
X86187642Y-75351174D02*
G01*
X86211303Y-75354684D01*
X86234507Y-75360496D01*
X86257029Y-75368554D01*
X86278653Y-75378782D01*
X86299170Y-75391079D01*
X86318383Y-75405329D01*
X86336107Y-75421393D01*
X86352171Y-75439117D01*
X86366421Y-75458330D01*
X86378718Y-75478847D01*
X86388946Y-75500471D01*
X86397004Y-75522993D01*
X86402816Y-75546197D01*
X86406326Y-75569858D01*
X86407500Y-75593750D01*
X86407500Y-76506250D01*
X86406326Y-76530142D01*
X86402816Y-76553803D01*
X86397004Y-76577007D01*
X86388946Y-76599529D01*
X86378718Y-76621153D01*
X86366421Y-76641670D01*
X86352171Y-76660883D01*
X86336107Y-76678607D01*
X86318383Y-76694671D01*
X86299170Y-76708921D01*
X86278653Y-76721218D01*
X86257029Y-76731446D01*
X86234507Y-76739504D01*
X86211303Y-76745316D01*
X86187642Y-76748826D01*
X86163750Y-76750000D01*
X85676250Y-76750000D01*
X85652358Y-76748826D01*
X85628697Y-76745316D01*
X85605493Y-76739504D01*
X85582971Y-76731446D01*
X85561347Y-76721218D01*
X85540830Y-76708921D01*
X85521617Y-76694671D01*
X85503893Y-76678607D01*
X85487829Y-76660883D01*
X85473579Y-76641670D01*
X85461282Y-76621153D01*
X85451054Y-76599529D01*
X85442996Y-76577007D01*
X85437184Y-76553803D01*
X85433674Y-76530142D01*
X85432500Y-76506250D01*
X85432500Y-75593750D01*
X85433674Y-75569858D01*
X85437184Y-75546197D01*
X85442996Y-75522993D01*
X85451054Y-75500471D01*
X85461282Y-75478847D01*
X85473579Y-75458330D01*
X85487829Y-75439117D01*
X85503893Y-75421393D01*
X85521617Y-75405329D01*
X85540830Y-75391079D01*
X85561347Y-75378782D01*
X85582971Y-75368554D01*
X85605493Y-75360496D01*
X85628697Y-75354684D01*
X85652358Y-75351174D01*
X85676250Y-75350000D01*
X86163750Y-75350000D01*
X86187642Y-75351174D01*
X86187642Y-75351174D01*
G37*
D12*
X85920000Y-76050000D03*
D11*
G36*
X86162642Y-72751174D02*
G01*
X86186303Y-72754684D01*
X86209507Y-72760496D01*
X86232029Y-72768554D01*
X86253653Y-72778782D01*
X86274170Y-72791079D01*
X86293383Y-72805329D01*
X86311107Y-72821393D01*
X86327171Y-72839117D01*
X86341421Y-72858330D01*
X86353718Y-72878847D01*
X86363946Y-72900471D01*
X86372004Y-72922993D01*
X86377816Y-72946197D01*
X86381326Y-72969858D01*
X86382500Y-72993750D01*
X86382500Y-73906250D01*
X86381326Y-73930142D01*
X86377816Y-73953803D01*
X86372004Y-73977007D01*
X86363946Y-73999529D01*
X86353718Y-74021153D01*
X86341421Y-74041670D01*
X86327171Y-74060883D01*
X86311107Y-74078607D01*
X86293383Y-74094671D01*
X86274170Y-74108921D01*
X86253653Y-74121218D01*
X86232029Y-74131446D01*
X86209507Y-74139504D01*
X86186303Y-74145316D01*
X86162642Y-74148826D01*
X86138750Y-74150000D01*
X85651250Y-74150000D01*
X85627358Y-74148826D01*
X85603697Y-74145316D01*
X85580493Y-74139504D01*
X85557971Y-74131446D01*
X85536347Y-74121218D01*
X85515830Y-74108921D01*
X85496617Y-74094671D01*
X85478893Y-74078607D01*
X85462829Y-74060883D01*
X85448579Y-74041670D01*
X85436282Y-74021153D01*
X85426054Y-73999529D01*
X85417996Y-73977007D01*
X85412184Y-73953803D01*
X85408674Y-73930142D01*
X85407500Y-73906250D01*
X85407500Y-72993750D01*
X85408674Y-72969858D01*
X85412184Y-72946197D01*
X85417996Y-72922993D01*
X85426054Y-72900471D01*
X85436282Y-72878847D01*
X85448579Y-72858330D01*
X85462829Y-72839117D01*
X85478893Y-72821393D01*
X85496617Y-72805329D01*
X85515830Y-72791079D01*
X85536347Y-72778782D01*
X85557971Y-72768554D01*
X85580493Y-72760496D01*
X85603697Y-72754684D01*
X85627358Y-72751174D01*
X85651250Y-72750000D01*
X86138750Y-72750000D01*
X86162642Y-72751174D01*
X86162642Y-72751174D01*
G37*
D12*
X85895000Y-73450000D03*
D11*
G36*
X84287642Y-72751174D02*
G01*
X84311303Y-72754684D01*
X84334507Y-72760496D01*
X84357029Y-72768554D01*
X84378653Y-72778782D01*
X84399170Y-72791079D01*
X84418383Y-72805329D01*
X84436107Y-72821393D01*
X84452171Y-72839117D01*
X84466421Y-72858330D01*
X84478718Y-72878847D01*
X84488946Y-72900471D01*
X84497004Y-72922993D01*
X84502816Y-72946197D01*
X84506326Y-72969858D01*
X84507500Y-72993750D01*
X84507500Y-73906250D01*
X84506326Y-73930142D01*
X84502816Y-73953803D01*
X84497004Y-73977007D01*
X84488946Y-73999529D01*
X84478718Y-74021153D01*
X84466421Y-74041670D01*
X84452171Y-74060883D01*
X84436107Y-74078607D01*
X84418383Y-74094671D01*
X84399170Y-74108921D01*
X84378653Y-74121218D01*
X84357029Y-74131446D01*
X84334507Y-74139504D01*
X84311303Y-74145316D01*
X84287642Y-74148826D01*
X84263750Y-74150000D01*
X83776250Y-74150000D01*
X83752358Y-74148826D01*
X83728697Y-74145316D01*
X83705493Y-74139504D01*
X83682971Y-74131446D01*
X83661347Y-74121218D01*
X83640830Y-74108921D01*
X83621617Y-74094671D01*
X83603893Y-74078607D01*
X83587829Y-74060883D01*
X83573579Y-74041670D01*
X83561282Y-74021153D01*
X83551054Y-73999529D01*
X83542996Y-73977007D01*
X83537184Y-73953803D01*
X83533674Y-73930142D01*
X83532500Y-73906250D01*
X83532500Y-72993750D01*
X83533674Y-72969858D01*
X83537184Y-72946197D01*
X83542996Y-72922993D01*
X83551054Y-72900471D01*
X83561282Y-72878847D01*
X83573579Y-72858330D01*
X83587829Y-72839117D01*
X83603893Y-72821393D01*
X83621617Y-72805329D01*
X83640830Y-72791079D01*
X83661347Y-72778782D01*
X83682971Y-72768554D01*
X83705493Y-72760496D01*
X83728697Y-72754684D01*
X83752358Y-72751174D01*
X83776250Y-72750000D01*
X84263750Y-72750000D01*
X84287642Y-72751174D01*
X84287642Y-72751174D01*
G37*
D12*
X84020000Y-73450000D03*
D11*
G36*
X84312642Y-70051174D02*
G01*
X84336303Y-70054684D01*
X84359507Y-70060496D01*
X84382029Y-70068554D01*
X84403653Y-70078782D01*
X84424170Y-70091079D01*
X84443383Y-70105329D01*
X84461107Y-70121393D01*
X84477171Y-70139117D01*
X84491421Y-70158330D01*
X84503718Y-70178847D01*
X84513946Y-70200471D01*
X84522004Y-70222993D01*
X84527816Y-70246197D01*
X84531326Y-70269858D01*
X84532500Y-70293750D01*
X84532500Y-71206250D01*
X84531326Y-71230142D01*
X84527816Y-71253803D01*
X84522004Y-71277007D01*
X84513946Y-71299529D01*
X84503718Y-71321153D01*
X84491421Y-71341670D01*
X84477171Y-71360883D01*
X84461107Y-71378607D01*
X84443383Y-71394671D01*
X84424170Y-71408921D01*
X84403653Y-71421218D01*
X84382029Y-71431446D01*
X84359507Y-71439504D01*
X84336303Y-71445316D01*
X84312642Y-71448826D01*
X84288750Y-71450000D01*
X83801250Y-71450000D01*
X83777358Y-71448826D01*
X83753697Y-71445316D01*
X83730493Y-71439504D01*
X83707971Y-71431446D01*
X83686347Y-71421218D01*
X83665830Y-71408921D01*
X83646617Y-71394671D01*
X83628893Y-71378607D01*
X83612829Y-71360883D01*
X83598579Y-71341670D01*
X83586282Y-71321153D01*
X83576054Y-71299529D01*
X83567996Y-71277007D01*
X83562184Y-71253803D01*
X83558674Y-71230142D01*
X83557500Y-71206250D01*
X83557500Y-70293750D01*
X83558674Y-70269858D01*
X83562184Y-70246197D01*
X83567996Y-70222993D01*
X83576054Y-70200471D01*
X83586282Y-70178847D01*
X83598579Y-70158330D01*
X83612829Y-70139117D01*
X83628893Y-70121393D01*
X83646617Y-70105329D01*
X83665830Y-70091079D01*
X83686347Y-70078782D01*
X83707971Y-70068554D01*
X83730493Y-70060496D01*
X83753697Y-70054684D01*
X83777358Y-70051174D01*
X83801250Y-70050000D01*
X84288750Y-70050000D01*
X84312642Y-70051174D01*
X84312642Y-70051174D01*
G37*
D12*
X84045000Y-70750000D03*
D11*
G36*
X86187642Y-70051174D02*
G01*
X86211303Y-70054684D01*
X86234507Y-70060496D01*
X86257029Y-70068554D01*
X86278653Y-70078782D01*
X86299170Y-70091079D01*
X86318383Y-70105329D01*
X86336107Y-70121393D01*
X86352171Y-70139117D01*
X86366421Y-70158330D01*
X86378718Y-70178847D01*
X86388946Y-70200471D01*
X86397004Y-70222993D01*
X86402816Y-70246197D01*
X86406326Y-70269858D01*
X86407500Y-70293750D01*
X86407500Y-71206250D01*
X86406326Y-71230142D01*
X86402816Y-71253803D01*
X86397004Y-71277007D01*
X86388946Y-71299529D01*
X86378718Y-71321153D01*
X86366421Y-71341670D01*
X86352171Y-71360883D01*
X86336107Y-71378607D01*
X86318383Y-71394671D01*
X86299170Y-71408921D01*
X86278653Y-71421218D01*
X86257029Y-71431446D01*
X86234507Y-71439504D01*
X86211303Y-71445316D01*
X86187642Y-71448826D01*
X86163750Y-71450000D01*
X85676250Y-71450000D01*
X85652358Y-71448826D01*
X85628697Y-71445316D01*
X85605493Y-71439504D01*
X85582971Y-71431446D01*
X85561347Y-71421218D01*
X85540830Y-71408921D01*
X85521617Y-71394671D01*
X85503893Y-71378607D01*
X85487829Y-71360883D01*
X85473579Y-71341670D01*
X85461282Y-71321153D01*
X85451054Y-71299529D01*
X85442996Y-71277007D01*
X85437184Y-71253803D01*
X85433674Y-71230142D01*
X85432500Y-71206250D01*
X85432500Y-70293750D01*
X85433674Y-70269858D01*
X85437184Y-70246197D01*
X85442996Y-70222993D01*
X85451054Y-70200471D01*
X85461282Y-70178847D01*
X85473579Y-70158330D01*
X85487829Y-70139117D01*
X85503893Y-70121393D01*
X85521617Y-70105329D01*
X85540830Y-70091079D01*
X85561347Y-70078782D01*
X85582971Y-70068554D01*
X85605493Y-70060496D01*
X85628697Y-70054684D01*
X85652358Y-70051174D01*
X85676250Y-70050000D01*
X86163750Y-70050000D01*
X86187642Y-70051174D01*
X86187642Y-70051174D01*
G37*
D12*
X85920000Y-70750000D03*
D11*
G36*
X83507004Y-54276204D02*
G01*
X83531273Y-54279804D01*
X83555071Y-54285765D01*
X83578171Y-54294030D01*
X83600349Y-54304520D01*
X83621393Y-54317133D01*
X83641098Y-54331747D01*
X83659277Y-54348223D01*
X83675753Y-54366402D01*
X83690367Y-54386107D01*
X83702980Y-54407151D01*
X83713470Y-54429329D01*
X83721735Y-54452429D01*
X83727696Y-54476227D01*
X83731296Y-54500496D01*
X83732500Y-54525000D01*
X83732500Y-55775000D01*
X83731296Y-55799504D01*
X83727696Y-55823773D01*
X83721735Y-55847571D01*
X83713470Y-55870671D01*
X83702980Y-55892849D01*
X83690367Y-55913893D01*
X83675753Y-55933598D01*
X83659277Y-55951777D01*
X83641098Y-55968253D01*
X83621393Y-55982867D01*
X83600349Y-55995480D01*
X83578171Y-56005970D01*
X83555071Y-56014235D01*
X83531273Y-56020196D01*
X83507004Y-56023796D01*
X83482500Y-56025000D01*
X82557500Y-56025000D01*
X82532996Y-56023796D01*
X82508727Y-56020196D01*
X82484929Y-56014235D01*
X82461829Y-56005970D01*
X82439651Y-55995480D01*
X82418607Y-55982867D01*
X82398902Y-55968253D01*
X82380723Y-55951777D01*
X82364247Y-55933598D01*
X82349633Y-55913893D01*
X82337020Y-55892849D01*
X82326530Y-55870671D01*
X82318265Y-55847571D01*
X82312304Y-55823773D01*
X82308704Y-55799504D01*
X82307500Y-55775000D01*
X82307500Y-54525000D01*
X82308704Y-54500496D01*
X82312304Y-54476227D01*
X82318265Y-54452429D01*
X82326530Y-54429329D01*
X82337020Y-54407151D01*
X82349633Y-54386107D01*
X82364247Y-54366402D01*
X82380723Y-54348223D01*
X82398902Y-54331747D01*
X82418607Y-54317133D01*
X82439651Y-54304520D01*
X82461829Y-54294030D01*
X82484929Y-54285765D01*
X82508727Y-54279804D01*
X82532996Y-54276204D01*
X82557500Y-54275000D01*
X83482500Y-54275000D01*
X83507004Y-54276204D01*
X83507004Y-54276204D01*
G37*
D14*
X83020000Y-55150000D03*
D11*
G36*
X80532004Y-54276204D02*
G01*
X80556273Y-54279804D01*
X80580071Y-54285765D01*
X80603171Y-54294030D01*
X80625349Y-54304520D01*
X80646393Y-54317133D01*
X80666098Y-54331747D01*
X80684277Y-54348223D01*
X80700753Y-54366402D01*
X80715367Y-54386107D01*
X80727980Y-54407151D01*
X80738470Y-54429329D01*
X80746735Y-54452429D01*
X80752696Y-54476227D01*
X80756296Y-54500496D01*
X80757500Y-54525000D01*
X80757500Y-55775000D01*
X80756296Y-55799504D01*
X80752696Y-55823773D01*
X80746735Y-55847571D01*
X80738470Y-55870671D01*
X80727980Y-55892849D01*
X80715367Y-55913893D01*
X80700753Y-55933598D01*
X80684277Y-55951777D01*
X80666098Y-55968253D01*
X80646393Y-55982867D01*
X80625349Y-55995480D01*
X80603171Y-56005970D01*
X80580071Y-56014235D01*
X80556273Y-56020196D01*
X80532004Y-56023796D01*
X80507500Y-56025000D01*
X79582500Y-56025000D01*
X79557996Y-56023796D01*
X79533727Y-56020196D01*
X79509929Y-56014235D01*
X79486829Y-56005970D01*
X79464651Y-55995480D01*
X79443607Y-55982867D01*
X79423902Y-55968253D01*
X79405723Y-55951777D01*
X79389247Y-55933598D01*
X79374633Y-55913893D01*
X79362020Y-55892849D01*
X79351530Y-55870671D01*
X79343265Y-55847571D01*
X79337304Y-55823773D01*
X79333704Y-55799504D01*
X79332500Y-55775000D01*
X79332500Y-54525000D01*
X79333704Y-54500496D01*
X79337304Y-54476227D01*
X79343265Y-54452429D01*
X79351530Y-54429329D01*
X79362020Y-54407151D01*
X79374633Y-54386107D01*
X79389247Y-54366402D01*
X79405723Y-54348223D01*
X79423902Y-54331747D01*
X79443607Y-54317133D01*
X79464651Y-54304520D01*
X79486829Y-54294030D01*
X79509929Y-54285765D01*
X79533727Y-54279804D01*
X79557996Y-54276204D01*
X79582500Y-54275000D01*
X80507500Y-54275000D01*
X80532004Y-54276204D01*
X80532004Y-54276204D01*
G37*
D14*
X80045000Y-55150000D03*
D11*
G36*
X83557004Y-64676204D02*
G01*
X83581273Y-64679804D01*
X83605071Y-64685765D01*
X83628171Y-64694030D01*
X83650349Y-64704520D01*
X83671393Y-64717133D01*
X83691098Y-64731747D01*
X83709277Y-64748223D01*
X83725753Y-64766402D01*
X83740367Y-64786107D01*
X83752980Y-64807151D01*
X83763470Y-64829329D01*
X83771735Y-64852429D01*
X83777696Y-64876227D01*
X83781296Y-64900496D01*
X83782500Y-64925000D01*
X83782500Y-66175000D01*
X83781296Y-66199504D01*
X83777696Y-66223773D01*
X83771735Y-66247571D01*
X83763470Y-66270671D01*
X83752980Y-66292849D01*
X83740367Y-66313893D01*
X83725753Y-66333598D01*
X83709277Y-66351777D01*
X83691098Y-66368253D01*
X83671393Y-66382867D01*
X83650349Y-66395480D01*
X83628171Y-66405970D01*
X83605071Y-66414235D01*
X83581273Y-66420196D01*
X83557004Y-66423796D01*
X83532500Y-66425000D01*
X82607500Y-66425000D01*
X82582996Y-66423796D01*
X82558727Y-66420196D01*
X82534929Y-66414235D01*
X82511829Y-66405970D01*
X82489651Y-66395480D01*
X82468607Y-66382867D01*
X82448902Y-66368253D01*
X82430723Y-66351777D01*
X82414247Y-66333598D01*
X82399633Y-66313893D01*
X82387020Y-66292849D01*
X82376530Y-66270671D01*
X82368265Y-66247571D01*
X82362304Y-66223773D01*
X82358704Y-66199504D01*
X82357500Y-66175000D01*
X82357500Y-64925000D01*
X82358704Y-64900496D01*
X82362304Y-64876227D01*
X82368265Y-64852429D01*
X82376530Y-64829329D01*
X82387020Y-64807151D01*
X82399633Y-64786107D01*
X82414247Y-64766402D01*
X82430723Y-64748223D01*
X82448902Y-64731747D01*
X82468607Y-64717133D01*
X82489651Y-64704520D01*
X82511829Y-64694030D01*
X82534929Y-64685765D01*
X82558727Y-64679804D01*
X82582996Y-64676204D01*
X82607500Y-64675000D01*
X83532500Y-64675000D01*
X83557004Y-64676204D01*
X83557004Y-64676204D01*
G37*
D14*
X83070000Y-65550000D03*
D11*
G36*
X80582004Y-64676204D02*
G01*
X80606273Y-64679804D01*
X80630071Y-64685765D01*
X80653171Y-64694030D01*
X80675349Y-64704520D01*
X80696393Y-64717133D01*
X80716098Y-64731747D01*
X80734277Y-64748223D01*
X80750753Y-64766402D01*
X80765367Y-64786107D01*
X80777980Y-64807151D01*
X80788470Y-64829329D01*
X80796735Y-64852429D01*
X80802696Y-64876227D01*
X80806296Y-64900496D01*
X80807500Y-64925000D01*
X80807500Y-66175000D01*
X80806296Y-66199504D01*
X80802696Y-66223773D01*
X80796735Y-66247571D01*
X80788470Y-66270671D01*
X80777980Y-66292849D01*
X80765367Y-66313893D01*
X80750753Y-66333598D01*
X80734277Y-66351777D01*
X80716098Y-66368253D01*
X80696393Y-66382867D01*
X80675349Y-66395480D01*
X80653171Y-66405970D01*
X80630071Y-66414235D01*
X80606273Y-66420196D01*
X80582004Y-66423796D01*
X80557500Y-66425000D01*
X79632500Y-66425000D01*
X79607996Y-66423796D01*
X79583727Y-66420196D01*
X79559929Y-66414235D01*
X79536829Y-66405970D01*
X79514651Y-66395480D01*
X79493607Y-66382867D01*
X79473902Y-66368253D01*
X79455723Y-66351777D01*
X79439247Y-66333598D01*
X79424633Y-66313893D01*
X79412020Y-66292849D01*
X79401530Y-66270671D01*
X79393265Y-66247571D01*
X79387304Y-66223773D01*
X79383704Y-66199504D01*
X79382500Y-66175000D01*
X79382500Y-64925000D01*
X79383704Y-64900496D01*
X79387304Y-64876227D01*
X79393265Y-64852429D01*
X79401530Y-64829329D01*
X79412020Y-64807151D01*
X79424633Y-64786107D01*
X79439247Y-64766402D01*
X79455723Y-64748223D01*
X79473902Y-64731747D01*
X79493607Y-64717133D01*
X79514651Y-64704520D01*
X79536829Y-64694030D01*
X79559929Y-64685765D01*
X79583727Y-64679804D01*
X79607996Y-64676204D01*
X79632500Y-64675000D01*
X80557500Y-64675000D01*
X80582004Y-64676204D01*
X80582004Y-64676204D01*
G37*
D14*
X80095000Y-65550000D03*
D11*
G36*
X80582004Y-57176204D02*
G01*
X80606273Y-57179804D01*
X80630071Y-57185765D01*
X80653171Y-57194030D01*
X80675349Y-57204520D01*
X80696393Y-57217133D01*
X80716098Y-57231747D01*
X80734277Y-57248223D01*
X80750753Y-57266402D01*
X80765367Y-57286107D01*
X80777980Y-57307151D01*
X80788470Y-57329329D01*
X80796735Y-57352429D01*
X80802696Y-57376227D01*
X80806296Y-57400496D01*
X80807500Y-57425000D01*
X80807500Y-58675000D01*
X80806296Y-58699504D01*
X80802696Y-58723773D01*
X80796735Y-58747571D01*
X80788470Y-58770671D01*
X80777980Y-58792849D01*
X80765367Y-58813893D01*
X80750753Y-58833598D01*
X80734277Y-58851777D01*
X80716098Y-58868253D01*
X80696393Y-58882867D01*
X80675349Y-58895480D01*
X80653171Y-58905970D01*
X80630071Y-58914235D01*
X80606273Y-58920196D01*
X80582004Y-58923796D01*
X80557500Y-58925000D01*
X79632500Y-58925000D01*
X79607996Y-58923796D01*
X79583727Y-58920196D01*
X79559929Y-58914235D01*
X79536829Y-58905970D01*
X79514651Y-58895480D01*
X79493607Y-58882867D01*
X79473902Y-58868253D01*
X79455723Y-58851777D01*
X79439247Y-58833598D01*
X79424633Y-58813893D01*
X79412020Y-58792849D01*
X79401530Y-58770671D01*
X79393265Y-58747571D01*
X79387304Y-58723773D01*
X79383704Y-58699504D01*
X79382500Y-58675000D01*
X79382500Y-57425000D01*
X79383704Y-57400496D01*
X79387304Y-57376227D01*
X79393265Y-57352429D01*
X79401530Y-57329329D01*
X79412020Y-57307151D01*
X79424633Y-57286107D01*
X79439247Y-57266402D01*
X79455723Y-57248223D01*
X79473902Y-57231747D01*
X79493607Y-57217133D01*
X79514651Y-57204520D01*
X79536829Y-57194030D01*
X79559929Y-57185765D01*
X79583727Y-57179804D01*
X79607996Y-57176204D01*
X79632500Y-57175000D01*
X80557500Y-57175000D01*
X80582004Y-57176204D01*
X80582004Y-57176204D01*
G37*
D14*
X80095000Y-58050000D03*
D11*
G36*
X83557004Y-57176204D02*
G01*
X83581273Y-57179804D01*
X83605071Y-57185765D01*
X83628171Y-57194030D01*
X83650349Y-57204520D01*
X83671393Y-57217133D01*
X83691098Y-57231747D01*
X83709277Y-57248223D01*
X83725753Y-57266402D01*
X83740367Y-57286107D01*
X83752980Y-57307151D01*
X83763470Y-57329329D01*
X83771735Y-57352429D01*
X83777696Y-57376227D01*
X83781296Y-57400496D01*
X83782500Y-57425000D01*
X83782500Y-58675000D01*
X83781296Y-58699504D01*
X83777696Y-58723773D01*
X83771735Y-58747571D01*
X83763470Y-58770671D01*
X83752980Y-58792849D01*
X83740367Y-58813893D01*
X83725753Y-58833598D01*
X83709277Y-58851777D01*
X83691098Y-58868253D01*
X83671393Y-58882867D01*
X83650349Y-58895480D01*
X83628171Y-58905970D01*
X83605071Y-58914235D01*
X83581273Y-58920196D01*
X83557004Y-58923796D01*
X83532500Y-58925000D01*
X82607500Y-58925000D01*
X82582996Y-58923796D01*
X82558727Y-58920196D01*
X82534929Y-58914235D01*
X82511829Y-58905970D01*
X82489651Y-58895480D01*
X82468607Y-58882867D01*
X82448902Y-58868253D01*
X82430723Y-58851777D01*
X82414247Y-58833598D01*
X82399633Y-58813893D01*
X82387020Y-58792849D01*
X82376530Y-58770671D01*
X82368265Y-58747571D01*
X82362304Y-58723773D01*
X82358704Y-58699504D01*
X82357500Y-58675000D01*
X82357500Y-57425000D01*
X82358704Y-57400496D01*
X82362304Y-57376227D01*
X82368265Y-57352429D01*
X82376530Y-57329329D01*
X82387020Y-57307151D01*
X82399633Y-57286107D01*
X82414247Y-57266402D01*
X82430723Y-57248223D01*
X82448902Y-57231747D01*
X82468607Y-57217133D01*
X82489651Y-57204520D01*
X82511829Y-57194030D01*
X82534929Y-57185765D01*
X82558727Y-57179804D01*
X82582996Y-57176204D01*
X82607500Y-57175000D01*
X83532500Y-57175000D01*
X83557004Y-57176204D01*
X83557004Y-57176204D01*
G37*
D14*
X83070000Y-58050000D03*
D11*
G36*
X80582004Y-60926204D02*
G01*
X80606273Y-60929804D01*
X80630071Y-60935765D01*
X80653171Y-60944030D01*
X80675349Y-60954520D01*
X80696393Y-60967133D01*
X80716098Y-60981747D01*
X80734277Y-60998223D01*
X80750753Y-61016402D01*
X80765367Y-61036107D01*
X80777980Y-61057151D01*
X80788470Y-61079329D01*
X80796735Y-61102429D01*
X80802696Y-61126227D01*
X80806296Y-61150496D01*
X80807500Y-61175000D01*
X80807500Y-62425000D01*
X80806296Y-62449504D01*
X80802696Y-62473773D01*
X80796735Y-62497571D01*
X80788470Y-62520671D01*
X80777980Y-62542849D01*
X80765367Y-62563893D01*
X80750753Y-62583598D01*
X80734277Y-62601777D01*
X80716098Y-62618253D01*
X80696393Y-62632867D01*
X80675349Y-62645480D01*
X80653171Y-62655970D01*
X80630071Y-62664235D01*
X80606273Y-62670196D01*
X80582004Y-62673796D01*
X80557500Y-62675000D01*
X79632500Y-62675000D01*
X79607996Y-62673796D01*
X79583727Y-62670196D01*
X79559929Y-62664235D01*
X79536829Y-62655970D01*
X79514651Y-62645480D01*
X79493607Y-62632867D01*
X79473902Y-62618253D01*
X79455723Y-62601777D01*
X79439247Y-62583598D01*
X79424633Y-62563893D01*
X79412020Y-62542849D01*
X79401530Y-62520671D01*
X79393265Y-62497571D01*
X79387304Y-62473773D01*
X79383704Y-62449504D01*
X79382500Y-62425000D01*
X79382500Y-61175000D01*
X79383704Y-61150496D01*
X79387304Y-61126227D01*
X79393265Y-61102429D01*
X79401530Y-61079329D01*
X79412020Y-61057151D01*
X79424633Y-61036107D01*
X79439247Y-61016402D01*
X79455723Y-60998223D01*
X79473902Y-60981747D01*
X79493607Y-60967133D01*
X79514651Y-60954520D01*
X79536829Y-60944030D01*
X79559929Y-60935765D01*
X79583727Y-60929804D01*
X79607996Y-60926204D01*
X79632500Y-60925000D01*
X80557500Y-60925000D01*
X80582004Y-60926204D01*
X80582004Y-60926204D01*
G37*
D14*
X80095000Y-61800000D03*
D11*
G36*
X83557004Y-60926204D02*
G01*
X83581273Y-60929804D01*
X83605071Y-60935765D01*
X83628171Y-60944030D01*
X83650349Y-60954520D01*
X83671393Y-60967133D01*
X83691098Y-60981747D01*
X83709277Y-60998223D01*
X83725753Y-61016402D01*
X83740367Y-61036107D01*
X83752980Y-61057151D01*
X83763470Y-61079329D01*
X83771735Y-61102429D01*
X83777696Y-61126227D01*
X83781296Y-61150496D01*
X83782500Y-61175000D01*
X83782500Y-62425000D01*
X83781296Y-62449504D01*
X83777696Y-62473773D01*
X83771735Y-62497571D01*
X83763470Y-62520671D01*
X83752980Y-62542849D01*
X83740367Y-62563893D01*
X83725753Y-62583598D01*
X83709277Y-62601777D01*
X83691098Y-62618253D01*
X83671393Y-62632867D01*
X83650349Y-62645480D01*
X83628171Y-62655970D01*
X83605071Y-62664235D01*
X83581273Y-62670196D01*
X83557004Y-62673796D01*
X83532500Y-62675000D01*
X82607500Y-62675000D01*
X82582996Y-62673796D01*
X82558727Y-62670196D01*
X82534929Y-62664235D01*
X82511829Y-62655970D01*
X82489651Y-62645480D01*
X82468607Y-62632867D01*
X82448902Y-62618253D01*
X82430723Y-62601777D01*
X82414247Y-62583598D01*
X82399633Y-62563893D01*
X82387020Y-62542849D01*
X82376530Y-62520671D01*
X82368265Y-62497571D01*
X82362304Y-62473773D01*
X82358704Y-62449504D01*
X82357500Y-62425000D01*
X82357500Y-61175000D01*
X82358704Y-61150496D01*
X82362304Y-61126227D01*
X82368265Y-61102429D01*
X82376530Y-61079329D01*
X82387020Y-61057151D01*
X82399633Y-61036107D01*
X82414247Y-61016402D01*
X82430723Y-60998223D01*
X82448902Y-60981747D01*
X82468607Y-60967133D01*
X82489651Y-60954520D01*
X82511829Y-60944030D01*
X82534929Y-60935765D01*
X82558727Y-60929804D01*
X82582996Y-60926204D01*
X82607500Y-60925000D01*
X83532500Y-60925000D01*
X83557004Y-60926204D01*
X83557004Y-60926204D01*
G37*
D14*
X83070000Y-61800000D03*
D15*
X140470000Y-72550000D03*
D16*
X134170000Y-72550000D03*
X134170000Y-74850000D03*
X134170000Y-70250000D03*
D17*
X121045000Y-56510000D03*
X121045000Y-61590000D03*
D18*
X132620000Y-61825000D03*
X127770000Y-56275000D03*
X132620000Y-56275000D03*
X127770000Y-61825000D03*
D19*
X134070000Y-121350000D03*
X134070000Y-123250000D03*
X136070000Y-122300000D03*
M02*
