%FSLAX45Y45*%
G04 Gerber Fmt 4.5, Leading zero omitted, Abs format (unit mm)*
G04 Created by KiCad (PCBNEW (5.1.0)-1) date 2020-01-07 21:36:06*
%MOMM*%
%LPD*%
G04 APERTURE LIST*
%ADD10C,0.050000*%
%ADD11C,0.200000*%
%ADD12C,0.300000*%
G04 APERTURE END LIST*
D10*
X7032000Y-11880000D02*
X7032000Y-14955000D01*
X7032000Y-11580000D02*
X7032000Y-5355000D01*
X7032000Y-11580000D02*
G75*
G02X7032000Y-11880000I0J-150000D01*
G01*
X16832000Y-15155000D02*
X7232000Y-15155000D01*
X17032000Y-5355000D02*
X17032000Y-14955000D01*
X7232000Y-5155000D02*
X16832000Y-5155000D01*
X7032000Y-14955000D02*
X7232000Y-15155000D01*
X17032000Y-14955000D02*
X16832000Y-15155000D01*
X16832000Y-5155000D02*
X17032000Y-5355000D01*
X7032000Y-5355000D02*
X7232000Y-5155000D01*
D11*
X7242000Y-10005000D02*
X7282000Y-10045000D01*
X7282000Y-10005000D02*
X7242000Y-10045000D01*
X7572000Y-13345000D02*
X7612000Y-13385000D01*
X7612000Y-13345000D02*
X7572000Y-13385000D01*
X7822000Y-12315000D02*
X7862000Y-12355000D01*
X7862000Y-12315000D02*
X7822000Y-12355000D01*
X7842000Y-13385000D02*
X7882000Y-13425000D01*
X7882000Y-13385000D02*
X7842000Y-13425000D01*
X8092000Y-8185000D02*
X8132000Y-8225000D01*
X8132000Y-8185000D02*
X8092000Y-8225000D01*
X8285750Y-5785000D02*
X8325750Y-5825000D01*
X8325750Y-5785000D02*
X8285750Y-5825000D01*
X8287000Y-6160000D02*
X8327000Y-6200000D01*
X8327000Y-6160000D02*
X8287000Y-6200000D01*
X8292000Y-13325000D02*
X8332000Y-13365000D01*
X8332000Y-13325000D02*
X8292000Y-13365000D01*
X8310500Y-14426000D02*
X8350500Y-14466000D01*
X8350500Y-14426000D02*
X8310500Y-14466000D01*
X8321000Y-14907000D02*
X8361000Y-14947000D01*
X8361000Y-14907000D02*
X8321000Y-14947000D01*
X8476600Y-5674600D02*
X8516600Y-5714600D01*
X8516600Y-5674600D02*
X8476600Y-5714600D01*
X8598000Y-13743705D02*
X8638000Y-13783705D01*
X8638000Y-13743705D02*
X8598000Y-13783705D01*
X8612000Y-5535000D02*
X8652000Y-5575000D01*
X8652000Y-5535000D02*
X8612000Y-5575000D01*
X8707000Y-14774500D02*
X8747000Y-14814500D01*
X8747000Y-14774500D02*
X8707000Y-14814500D01*
X8893000Y-14499000D02*
X8933000Y-14539000D01*
X8933000Y-14499000D02*
X8893000Y-14539000D01*
X9308000Y-15012000D02*
X9348000Y-15052000D01*
X9348000Y-15012000D02*
X9308000Y-15052000D01*
X9349750Y-14348000D02*
X9389750Y-14388000D01*
X9389750Y-14348000D02*
X9349750Y-14388000D01*
X9617000Y-14571500D02*
X9657000Y-14611500D01*
X9657000Y-14571500D02*
X9617000Y-14611500D01*
X9770000Y-14689000D02*
X9810000Y-14729000D01*
X9810000Y-14689000D02*
X9770000Y-14729000D01*
X9857000Y-14560000D02*
X9897000Y-14600000D01*
X9897000Y-14560000D02*
X9857000Y-14600000D01*
X9986000Y-13349000D02*
X10026000Y-13389000D01*
X10026000Y-13349000D02*
X9986000Y-13389000D01*
X9989133Y-13644867D02*
X10029133Y-13684867D01*
X10029133Y-13644867D02*
X9989133Y-13684867D01*
X10028201Y-14284000D02*
X10068201Y-14324000D01*
X10068201Y-14284000D02*
X10028201Y-14324000D01*
X10071000Y-13993000D02*
X10111000Y-14033000D01*
X10111000Y-13993000D02*
X10071000Y-14033000D01*
X10120000Y-13481000D02*
X10160000Y-13521000D01*
X10160000Y-13481000D02*
X10120000Y-13521000D01*
X10137000Y-15037700D02*
X10177000Y-15077700D01*
X10177000Y-15037700D02*
X10137000Y-15077700D01*
X10157000Y-14825500D02*
X10197000Y-14865500D01*
X10197000Y-14825500D02*
X10157000Y-14865500D01*
X10182000Y-8655000D02*
X10222000Y-8695000D01*
X10222000Y-8655000D02*
X10182000Y-8695000D01*
X10294500Y-14440000D02*
X10334500Y-14480000D01*
X10334500Y-14440000D02*
X10294500Y-14480000D01*
X10391613Y-12495387D02*
X10431613Y-12535387D01*
X10431613Y-12495387D02*
X10391613Y-12535387D01*
X10392000Y-11975000D02*
X10432000Y-12015000D01*
X10432000Y-11975000D02*
X10392000Y-12015000D01*
X10462000Y-14783750D02*
X10502000Y-14823750D01*
X10502000Y-14783750D02*
X10462000Y-14823750D01*
X10840000Y-15042000D02*
X10880000Y-15082000D01*
X10880000Y-15042000D02*
X10840000Y-15082000D01*
X11312000Y-13095000D02*
X11352000Y-13135000D01*
X11352000Y-13095000D02*
X11312000Y-13135000D01*
X11482000Y-10515000D02*
X11522000Y-10555000D01*
X11522000Y-10515000D02*
X11482000Y-10555000D01*
X11641999Y-13265000D02*
X11681999Y-13305000D01*
X11681999Y-13265000D02*
X11641999Y-13305000D01*
X11812000Y-9615000D02*
X11852000Y-9655000D01*
X11852000Y-9615000D02*
X11812000Y-9655000D01*
X11939500Y-11590000D02*
X11979500Y-11630000D01*
X11979500Y-11590000D02*
X11939500Y-11630000D01*
X12082000Y-13637500D02*
X12122000Y-13677500D01*
X12122000Y-13637500D02*
X12082000Y-13677500D01*
X12182000Y-13755000D02*
X12222000Y-13795000D01*
X12222000Y-13755000D02*
X12182000Y-13795000D01*
X12687000Y-13362400D02*
X12727000Y-13402400D01*
X12727000Y-13362400D02*
X12687000Y-13402400D01*
X12687000Y-13635000D02*
X12727000Y-13675000D01*
X12727000Y-13635000D02*
X12687000Y-13675000D01*
X12982000Y-14865000D02*
X13022000Y-14905000D01*
X13022000Y-14865000D02*
X12982000Y-14905000D01*
X13242000Y-9085000D02*
X13282000Y-9125000D01*
X13282000Y-9085000D02*
X13242000Y-9125000D01*
X13437000Y-11910000D02*
X13477000Y-11950000D01*
X13477000Y-11910000D02*
X13437000Y-11950000D01*
X13789300Y-9262300D02*
X13829300Y-9302300D01*
X13829300Y-9262300D02*
X13789300Y-9302300D01*
X14227000Y-12225000D02*
X14267000Y-12265000D01*
X14267000Y-12225000D02*
X14227000Y-12265000D01*
X14362000Y-7955000D02*
X14402000Y-7995000D01*
X14402000Y-7955000D02*
X14362000Y-7995000D01*
X14762000Y-8985000D02*
X14802000Y-9025000D01*
X14802000Y-8985000D02*
X14762000Y-9025000D01*
X14762000Y-10125000D02*
X14802000Y-10165000D01*
X14802000Y-10125000D02*
X14762000Y-10165000D01*
X14892000Y-15045000D02*
X14932000Y-15085000D01*
X14932000Y-15045000D02*
X14892000Y-15085000D01*
X15262000Y-9035000D02*
X15302000Y-9075000D01*
X15302000Y-9035000D02*
X15262000Y-9075000D01*
X15812000Y-10175000D02*
X15852000Y-10215000D01*
X15852000Y-10175000D02*
X15812000Y-10215000D01*
X16252000Y-6835000D02*
X16292000Y-6875000D01*
X16292000Y-6835000D02*
X16252000Y-6875000D01*
X8227000Y-9685000D02*
G75*
G03X8227000Y-9685000I-25000J0D01*
G01*
X11757000Y-5425000D02*
G75*
G03X11757000Y-5425000I-25000J0D01*
G01*
X11787000Y-13615000D02*
G75*
G03X11787000Y-13615000I-25000J0D01*
G01*
X12164500Y-7125000D02*
G75*
G03X12164500Y-7125000I-25000J0D01*
G01*
X12897000Y-13485000D02*
G75*
G03X12897000Y-13485000I-25000J0D01*
G01*
X14957000Y-6980000D02*
G75*
G03X14957000Y-6980000I-25000J0D01*
G01*
X7307000Y-11190000D02*
X7307000Y-11270000D01*
X7267000Y-11230000D02*
X7347000Y-11230000D01*
X7687000Y-11190000D02*
X7687000Y-11270000D01*
X7647000Y-11230000D02*
X7727000Y-11230000D01*
X9040000Y-9941000D02*
X9040000Y-10021000D01*
X9000000Y-9981000D02*
X9080000Y-9981000D01*
X9040000Y-10195000D02*
X9040000Y-10275000D01*
X9000000Y-10235000D02*
X9080000Y-10235000D01*
X9040000Y-10449000D02*
X9040000Y-10529000D01*
X9000000Y-10489000D02*
X9080000Y-10489000D01*
X9040000Y-10703000D02*
X9040000Y-10783000D01*
X9000000Y-10743000D02*
X9080000Y-10743000D01*
X9040000Y-10957000D02*
X9040000Y-11037000D01*
X9000000Y-10997000D02*
X9080000Y-10997000D01*
X9040000Y-11211000D02*
X9040000Y-11291000D01*
X9000000Y-11251000D02*
X9080000Y-11251000D01*
X9040000Y-11465000D02*
X9040000Y-11545000D01*
X9000000Y-11505000D02*
X9080000Y-11505000D01*
X9802000Y-9941000D02*
X9802000Y-10021000D01*
X9762000Y-9981000D02*
X9842000Y-9981000D01*
X9802000Y-10195000D02*
X9802000Y-10275000D01*
X9762000Y-10235000D02*
X9842000Y-10235000D01*
X9802000Y-10449000D02*
X9802000Y-10529000D01*
X9762000Y-10489000D02*
X9842000Y-10489000D01*
X9802000Y-10703000D02*
X9802000Y-10783000D01*
X9762000Y-10743000D02*
X9842000Y-10743000D01*
X9802000Y-10957000D02*
X9802000Y-11037000D01*
X9762000Y-10997000D02*
X9842000Y-10997000D01*
X9802000Y-11211000D02*
X9802000Y-11291000D01*
X9762000Y-11251000D02*
X9842000Y-11251000D01*
X9802000Y-11465000D02*
X9802000Y-11545000D01*
X9762000Y-11505000D02*
X9842000Y-11505000D01*
X14407000Y-7265000D02*
X14407000Y-7345000D01*
X14367000Y-7305000D02*
X14447000Y-7305000D01*
X15169000Y-7265000D02*
X15169000Y-7345000D01*
X15129000Y-7305000D02*
X15209000Y-7305000D01*
X13632000Y-7915000D02*
X13632000Y-7995000D01*
X13592000Y-7955000D02*
X13672000Y-7955000D01*
X13632000Y-8295000D02*
X13632000Y-8375000D01*
X13592000Y-8335000D02*
X13672000Y-8335000D01*
X8202000Y-8533000D02*
X8202000Y-8613000D01*
X8162000Y-8573000D02*
X8242000Y-8573000D01*
X8202000Y-9295000D02*
X8202000Y-9375000D01*
X8162000Y-9335000D02*
X8242000Y-9335000D01*
X8456000Y-8533000D02*
X8456000Y-8613000D01*
X8416000Y-8573000D02*
X8496000Y-8573000D01*
X8456000Y-9295000D02*
X8456000Y-9375000D01*
X8416000Y-9335000D02*
X8496000Y-9335000D01*
X8710000Y-8533000D02*
X8710000Y-8613000D01*
X8670000Y-8573000D02*
X8750000Y-8573000D01*
X8710000Y-9295000D02*
X8710000Y-9375000D01*
X8670000Y-9335000D02*
X8750000Y-9335000D01*
X8964000Y-8533000D02*
X8964000Y-8613000D01*
X8924000Y-8573000D02*
X9004000Y-8573000D01*
X8964000Y-9295000D02*
X8964000Y-9375000D01*
X8924000Y-9335000D02*
X9004000Y-9335000D01*
X9218000Y-8533000D02*
X9218000Y-8613000D01*
X9178000Y-8573000D02*
X9258000Y-8573000D01*
X9218000Y-9295000D02*
X9218000Y-9375000D01*
X9178000Y-9335000D02*
X9258000Y-9335000D01*
X9472000Y-8533000D02*
X9472000Y-8613000D01*
X9432000Y-8573000D02*
X9512000Y-8573000D01*
X9472000Y-9295000D02*
X9472000Y-9375000D01*
X9432000Y-9335000D02*
X9512000Y-9335000D01*
X9726000Y-8533000D02*
X9726000Y-8613000D01*
X9686000Y-8573000D02*
X9766000Y-8573000D01*
X9726000Y-9295000D02*
X9726000Y-9375000D01*
X9686000Y-9335000D02*
X9766000Y-9335000D01*
X9980000Y-8533000D02*
X9980000Y-8613000D01*
X9940000Y-8573000D02*
X10020000Y-8573000D01*
X9980000Y-9295000D02*
X9980000Y-9375000D01*
X9940000Y-9335000D02*
X10020000Y-9335000D01*
X15382000Y-6790000D02*
X15382000Y-6870000D01*
X15342000Y-6830000D02*
X15422000Y-6830000D01*
X15762000Y-6790000D02*
X15762000Y-6870000D01*
X15722000Y-6830000D02*
X15802000Y-6830000D01*
X11037000Y-5625000D02*
X11037000Y-5705000D01*
X10997000Y-5665000D02*
X11077000Y-5665000D01*
X11417000Y-5625000D02*
X11417000Y-5705000D01*
X11377000Y-5665000D02*
X11457000Y-5665000D01*
X13682000Y-13286000D02*
X13682000Y-13366000D01*
X13642000Y-13326000D02*
X13722000Y-13326000D01*
X13682000Y-13540000D02*
X13682000Y-13620000D01*
X13642000Y-13580000D02*
X13722000Y-13580000D01*
X13682000Y-13794000D02*
X13682000Y-13874000D01*
X13642000Y-13834000D02*
X13722000Y-13834000D01*
X14372000Y-14555000D02*
X14372000Y-14635000D01*
X14332000Y-14595000D02*
X14412000Y-14595000D01*
X14752000Y-14555000D02*
X14752000Y-14635000D01*
X14712000Y-14595000D02*
X14792000Y-14595000D01*
X9852000Y-5965000D02*
X9852000Y-6045000D01*
X9812000Y-6005000D02*
X9892000Y-6005000D01*
X9852000Y-6219000D02*
X9852000Y-6299000D01*
X9812000Y-6259000D02*
X9892000Y-6259000D01*
X9852000Y-6473000D02*
X9852000Y-6553000D01*
X9812000Y-6513000D02*
X9892000Y-6513000D01*
X9852000Y-6727000D02*
X9852000Y-6807000D01*
X9812000Y-6767000D02*
X9892000Y-6767000D01*
X10614000Y-5965000D02*
X10614000Y-6045000D01*
X10574000Y-6005000D02*
X10654000Y-6005000D01*
X10614000Y-6219000D02*
X10614000Y-6299000D01*
X10574000Y-6259000D02*
X10654000Y-6259000D01*
X10614000Y-6473000D02*
X10614000Y-6553000D01*
X10574000Y-6513000D02*
X10654000Y-6513000D01*
X10614000Y-6727000D02*
X10614000Y-6807000D01*
X10574000Y-6767000D02*
X10654000Y-6767000D01*
X14567000Y-8472000D02*
X14567000Y-8552000D01*
X14527000Y-8512000D02*
X14607000Y-8512000D01*
X14567000Y-8980000D02*
X14567000Y-9060000D01*
X14527000Y-9020000D02*
X14607000Y-9020000D01*
X12207000Y-14665000D02*
X12207000Y-14745000D01*
X12167000Y-14705000D02*
X12247000Y-14705000D01*
X12461000Y-14665000D02*
X12461000Y-14745000D01*
X12421000Y-14705000D02*
X12501000Y-14705000D01*
X12715000Y-14665000D02*
X12715000Y-14745000D01*
X12675000Y-14705000D02*
X12755000Y-14705000D01*
X14242000Y-8472000D02*
X14242000Y-8552000D01*
X14202000Y-8512000D02*
X14282000Y-8512000D01*
X14242000Y-8980000D02*
X14242000Y-9060000D01*
X14202000Y-9020000D02*
X14282000Y-9020000D01*
X11207000Y-14565000D02*
X11207000Y-14645000D01*
X11167000Y-14605000D02*
X11247000Y-14605000D01*
X11587000Y-14565000D02*
X11587000Y-14645000D01*
X11547000Y-14605000D02*
X11627000Y-14605000D01*
X9360588Y-5488588D02*
X9360588Y-5421412D01*
X9293412Y-5421412D01*
X9293412Y-5488588D01*
X9360588Y-5488588D01*
X9610588Y-5488588D02*
X9610588Y-5421412D01*
X9543412Y-5421412D01*
X9543412Y-5488588D01*
X9610588Y-5488588D01*
X9860588Y-5488588D02*
X9860588Y-5421412D01*
X9793412Y-5421412D01*
X9793412Y-5488588D01*
X9860588Y-5488588D01*
X10110588Y-5488588D02*
X10110588Y-5421412D01*
X10043412Y-5421412D01*
X10043412Y-5488588D01*
X10110588Y-5488588D01*
X10360588Y-5488588D02*
X10360588Y-5421412D01*
X10293412Y-5421412D01*
X10293412Y-5488588D01*
X10360588Y-5488588D01*
X11132000Y-13895000D02*
X11182000Y-13845000D01*
X11132000Y-13795000D01*
X11082000Y-13845000D01*
X11132000Y-13895000D01*
X7292000Y-10470000D02*
X7342000Y-10420000D01*
X7292000Y-10370000D01*
X7242000Y-10420000D01*
X7292000Y-10470000D01*
X12412000Y-12655000D02*
X12462000Y-12605000D01*
X12412000Y-12555000D01*
X12362000Y-12605000D01*
X12412000Y-12655000D01*
X13862000Y-9075000D02*
X13912000Y-9025000D01*
X13862000Y-8975000D01*
X13812000Y-9025000D01*
X13862000Y-9075000D01*
X14472000Y-10065000D02*
X14522000Y-10015000D01*
X14472000Y-9965000D01*
X14422000Y-10015000D01*
X14472000Y-10065000D01*
X7282000Y-12618000D02*
X7332000Y-12568000D01*
X7282000Y-12518000D01*
X7232000Y-12568000D01*
X7282000Y-12618000D01*
X7282000Y-12872000D02*
X7332000Y-12822000D01*
X7282000Y-12772000D01*
X7232000Y-12822000D01*
X7282000Y-12872000D01*
X7282000Y-13126000D02*
X7332000Y-13076000D01*
X7282000Y-13026000D01*
X7232000Y-13076000D01*
X7282000Y-13126000D01*
X7282000Y-13380000D02*
X7332000Y-13330000D01*
X7282000Y-13280000D01*
X7232000Y-13330000D01*
X7282000Y-13380000D01*
X13974000Y-9580000D02*
X14024000Y-9530000D01*
X13974000Y-9480000D01*
X13924000Y-9530000D01*
X13974000Y-9580000D01*
X14228000Y-9580000D02*
X14278000Y-9530000D01*
X14228000Y-9480000D01*
X14178000Y-9530000D01*
X14228000Y-9580000D01*
X14482000Y-9580000D02*
X14532000Y-9530000D01*
X14482000Y-9480000D01*
X14432000Y-9530000D01*
X14482000Y-9580000D01*
X10412000Y-7335000D02*
X10462000Y-7285000D01*
X10412000Y-7235000D01*
X10362000Y-7285000D01*
X10412000Y-7335000D01*
X10412000Y-7589000D02*
X10462000Y-7539000D01*
X10412000Y-7489000D01*
X10362000Y-7539000D01*
X10412000Y-7589000D01*
X10412000Y-7843000D02*
X10462000Y-7793000D01*
X10412000Y-7743000D01*
X10362000Y-7793000D01*
X10412000Y-7843000D01*
X10412000Y-8097000D02*
X10462000Y-8047000D01*
X10412000Y-7997000D01*
X10362000Y-8047000D01*
X10412000Y-8097000D01*
X10412000Y-8351000D02*
X10462000Y-8301000D01*
X10412000Y-8251000D01*
X10362000Y-8301000D01*
X10412000Y-8351000D01*
X10412000Y-8605000D02*
X10462000Y-8555000D01*
X10412000Y-8505000D01*
X10362000Y-8555000D01*
X10412000Y-8605000D01*
X10412000Y-8859000D02*
X10462000Y-8809000D01*
X10412000Y-8759000D01*
X10362000Y-8809000D01*
X10412000Y-8859000D01*
X10412000Y-9113000D02*
X10462000Y-9063000D01*
X10412000Y-9013000D01*
X10362000Y-9063000D01*
X10412000Y-9113000D01*
X10412000Y-9367000D02*
X10462000Y-9317000D01*
X10412000Y-9267000D01*
X10362000Y-9317000D01*
X10412000Y-9367000D01*
X10412000Y-9621000D02*
X10462000Y-9571000D01*
X10412000Y-9521000D01*
X10362000Y-9571000D01*
X10412000Y-9621000D01*
X10412000Y-9875000D02*
X10462000Y-9825000D01*
X10412000Y-9775000D01*
X10362000Y-9825000D01*
X10412000Y-9875000D01*
X10412000Y-10129000D02*
X10462000Y-10079000D01*
X10412000Y-10029000D01*
X10362000Y-10079000D01*
X10412000Y-10129000D01*
X10412000Y-10383000D02*
X10462000Y-10333000D01*
X10412000Y-10283000D01*
X10362000Y-10333000D01*
X10412000Y-10383000D01*
X10412000Y-10637000D02*
X10462000Y-10587000D01*
X10412000Y-10537000D01*
X10362000Y-10587000D01*
X10412000Y-10637000D01*
X10412000Y-10891000D02*
X10462000Y-10841000D01*
X10412000Y-10791000D01*
X10362000Y-10841000D01*
X10412000Y-10891000D01*
X10412000Y-11145000D02*
X10462000Y-11095000D01*
X10412000Y-11045000D01*
X10362000Y-11095000D01*
X10412000Y-11145000D01*
X10412000Y-11399000D02*
X10462000Y-11349000D01*
X10412000Y-11299000D01*
X10362000Y-11349000D01*
X10412000Y-11399000D01*
X8784000Y-13880000D02*
X8834000Y-13830000D01*
X8784000Y-13780000D01*
X8734000Y-13830000D01*
X8784000Y-13880000D01*
X8922500Y-14164000D02*
X8972500Y-14114000D01*
X8922500Y-14064000D01*
X8872500Y-14114000D01*
X8922500Y-14164000D01*
X9061000Y-13880000D02*
X9111000Y-13830000D01*
X9061000Y-13780000D01*
X9011000Y-13830000D01*
X9061000Y-13880000D01*
X9199500Y-14164000D02*
X9249500Y-14114000D01*
X9199500Y-14064000D01*
X9149500Y-14114000D01*
X9199500Y-14164000D01*
X9338000Y-13880000D02*
X9388000Y-13830000D01*
X9338000Y-13780000D01*
X9288000Y-13830000D01*
X9338000Y-13880000D01*
X9476500Y-14164000D02*
X9526500Y-14114000D01*
X9476500Y-14064000D01*
X9426500Y-14114000D01*
X9476500Y-14164000D01*
X9615000Y-13880000D02*
X9665000Y-13830000D01*
X9615000Y-13780000D01*
X9565000Y-13830000D01*
X9615000Y-13880000D01*
X9753500Y-14164000D02*
X9803500Y-14114000D01*
X9753500Y-14064000D01*
X9703500Y-14114000D01*
X9753500Y-14164000D01*
X9892000Y-13880000D02*
X9942000Y-13830000D01*
X9892000Y-13780000D01*
X9842000Y-13830000D01*
X9892000Y-13880000D01*
X8662000Y-13445000D02*
X8712000Y-13395000D01*
X8662000Y-13345000D01*
X8612000Y-13395000D01*
X8662000Y-13445000D01*
X12982000Y-7333000D02*
X13032000Y-7283000D01*
X12982000Y-7233000D01*
X12932000Y-7283000D01*
X12982000Y-7333000D01*
X12982000Y-7587000D02*
X13032000Y-7537000D01*
X12982000Y-7487000D01*
X12932000Y-7537000D01*
X12982000Y-7587000D01*
X12982000Y-7841000D02*
X13032000Y-7791000D01*
X12982000Y-7741000D01*
X12932000Y-7791000D01*
X12982000Y-7841000D01*
X12982000Y-8095000D02*
X13032000Y-8045000D01*
X12982000Y-7995000D01*
X12932000Y-8045000D01*
X12982000Y-8095000D01*
X12982000Y-8349000D02*
X13032000Y-8299000D01*
X12982000Y-8249000D01*
X12932000Y-8299000D01*
X12982000Y-8349000D01*
X12982000Y-8603000D02*
X13032000Y-8553000D01*
X12982000Y-8503000D01*
X12932000Y-8553000D01*
X12982000Y-8603000D01*
X12982000Y-8857000D02*
X13032000Y-8807000D01*
X12982000Y-8757000D01*
X12932000Y-8807000D01*
X12982000Y-8857000D01*
X12982000Y-9111000D02*
X13032000Y-9061000D01*
X12982000Y-9011000D01*
X12932000Y-9061000D01*
X12982000Y-9111000D01*
X12982000Y-9365000D02*
X13032000Y-9315000D01*
X12982000Y-9265000D01*
X12932000Y-9315000D01*
X12982000Y-9365000D01*
X12982000Y-9619000D02*
X13032000Y-9569000D01*
X12982000Y-9519000D01*
X12932000Y-9569000D01*
X12982000Y-9619000D01*
X12982000Y-9873000D02*
X13032000Y-9823000D01*
X12982000Y-9773000D01*
X12932000Y-9823000D01*
X12982000Y-9873000D01*
X12982000Y-10127000D02*
X13032000Y-10077000D01*
X12982000Y-10027000D01*
X12932000Y-10077000D01*
X12982000Y-10127000D01*
X12982000Y-10381000D02*
X13032000Y-10331000D01*
X12982000Y-10281000D01*
X12932000Y-10331000D01*
X12982000Y-10381000D01*
X12982000Y-10635000D02*
X13032000Y-10585000D01*
X12982000Y-10535000D01*
X12932000Y-10585000D01*
X12982000Y-10635000D01*
X12982000Y-10889000D02*
X13032000Y-10839000D01*
X12982000Y-10789000D01*
X12932000Y-10839000D01*
X12982000Y-10889000D01*
X12982000Y-11143000D02*
X13032000Y-11093000D01*
X12982000Y-11043000D01*
X12932000Y-11093000D01*
X12982000Y-11143000D01*
X12982000Y-11397000D02*
X13032000Y-11347000D01*
X12982000Y-11297000D01*
X12932000Y-11347000D01*
X12982000Y-11397000D01*
X12982000Y-11651000D02*
X13032000Y-11601000D01*
X12982000Y-11551000D01*
X12932000Y-11601000D01*
X12982000Y-11651000D01*
X12982000Y-11905000D02*
X13032000Y-11855000D01*
X12982000Y-11805000D01*
X12932000Y-11855000D01*
X12982000Y-11905000D01*
X12982000Y-12159000D02*
X13032000Y-12109000D01*
X12982000Y-12059000D01*
X12932000Y-12109000D01*
X12982000Y-12159000D01*
X13772000Y-11295000D02*
X13822000Y-11245000D01*
X13772000Y-11195000D01*
X13722000Y-11245000D01*
X13772000Y-11295000D01*
X12122000Y-6835000D02*
X12172000Y-6785000D01*
X12122000Y-6735000D01*
X12072000Y-6785000D01*
X12122000Y-6835000D01*
X9812000Y-8295000D02*
X9862000Y-8245000D01*
X9812000Y-8195000D01*
X9762000Y-8245000D01*
X9812000Y-8295000D01*
X13142000Y-6745000D02*
X13192000Y-6695000D01*
X13142000Y-6645000D01*
X13092000Y-6695000D01*
X13142000Y-6745000D01*
X13396000Y-6745000D02*
X13446000Y-6695000D01*
X13396000Y-6645000D01*
X13346000Y-6695000D01*
X13396000Y-6745000D01*
X10942000Y-7335000D02*
X10992000Y-7285000D01*
X10942000Y-7235000D01*
X10892000Y-7285000D01*
X10942000Y-7335000D01*
X10942000Y-7589000D02*
X10992000Y-7539000D01*
X10942000Y-7489000D01*
X10892000Y-7539000D01*
X10942000Y-7589000D01*
X10942000Y-7843000D02*
X10992000Y-7793000D01*
X10942000Y-7743000D01*
X10892000Y-7793000D01*
X10942000Y-7843000D01*
X10942000Y-8097000D02*
X10992000Y-8047000D01*
X10942000Y-7997000D01*
X10892000Y-8047000D01*
X10942000Y-8097000D01*
X10942000Y-8351000D02*
X10992000Y-8301000D01*
X10942000Y-8251000D01*
X10892000Y-8301000D01*
X10942000Y-8351000D01*
X10942000Y-8605000D02*
X10992000Y-8555000D01*
X10942000Y-8505000D01*
X10892000Y-8555000D01*
X10942000Y-8605000D01*
X10942000Y-8859000D02*
X10992000Y-8809000D01*
X10942000Y-8759000D01*
X10892000Y-8809000D01*
X10942000Y-8859000D01*
X10942000Y-9113000D02*
X10992000Y-9063000D01*
X10942000Y-9013000D01*
X10892000Y-9063000D01*
X10942000Y-9113000D01*
X10942000Y-9367000D02*
X10992000Y-9317000D01*
X10942000Y-9267000D01*
X10892000Y-9317000D01*
X10942000Y-9367000D01*
X10942000Y-9621000D02*
X10992000Y-9571000D01*
X10942000Y-9521000D01*
X10892000Y-9571000D01*
X10942000Y-9621000D01*
X10942000Y-9875000D02*
X10992000Y-9825000D01*
X10942000Y-9775000D01*
X10892000Y-9825000D01*
X10942000Y-9875000D01*
X10942000Y-10129000D02*
X10992000Y-10079000D01*
X10942000Y-10029000D01*
X10892000Y-10079000D01*
X10942000Y-10129000D01*
X10942000Y-10383000D02*
X10992000Y-10333000D01*
X10942000Y-10283000D01*
X10892000Y-10333000D01*
X10942000Y-10383000D01*
X10942000Y-10637000D02*
X10992000Y-10587000D01*
X10942000Y-10537000D01*
X10892000Y-10587000D01*
X10942000Y-10637000D01*
X10942000Y-10891000D02*
X10992000Y-10841000D01*
X10942000Y-10791000D01*
X10892000Y-10841000D01*
X10942000Y-10891000D01*
X10942000Y-11145000D02*
X10992000Y-11095000D01*
X10942000Y-11045000D01*
X10892000Y-11095000D01*
X10942000Y-11145000D01*
X10942000Y-11399000D02*
X10992000Y-11349000D01*
X10942000Y-11299000D01*
X10892000Y-11349000D01*
X10942000Y-11399000D01*
X10942000Y-11653000D02*
X10992000Y-11603000D01*
X10942000Y-11553000D01*
X10892000Y-11603000D01*
X10942000Y-11653000D01*
X10942000Y-11907000D02*
X10992000Y-11857000D01*
X10942000Y-11807000D01*
X10892000Y-11857000D01*
X10942000Y-11907000D01*
X10942000Y-12161000D02*
X10992000Y-12111000D01*
X10942000Y-12061000D01*
X10892000Y-12111000D01*
X10942000Y-12161000D01*
X12462000Y-7335000D02*
X12512000Y-7285000D01*
X12462000Y-7235000D01*
X12412000Y-7285000D01*
X12462000Y-7335000D01*
X12462000Y-7589000D02*
X12512000Y-7539000D01*
X12462000Y-7489000D01*
X12412000Y-7539000D01*
X12462000Y-7589000D01*
X12462000Y-7843000D02*
X12512000Y-7793000D01*
X12462000Y-7743000D01*
X12412000Y-7793000D01*
X12462000Y-7843000D01*
X12462000Y-8097000D02*
X12512000Y-8047000D01*
X12462000Y-7997000D01*
X12412000Y-8047000D01*
X12462000Y-8097000D01*
X12462000Y-8351000D02*
X12512000Y-8301000D01*
X12462000Y-8251000D01*
X12412000Y-8301000D01*
X12462000Y-8351000D01*
X12462000Y-8605000D02*
X12512000Y-8555000D01*
X12462000Y-8505000D01*
X12412000Y-8555000D01*
X12462000Y-8605000D01*
X12462000Y-8859000D02*
X12512000Y-8809000D01*
X12462000Y-8759000D01*
X12412000Y-8809000D01*
X12462000Y-8859000D01*
X12462000Y-9113000D02*
X12512000Y-9063000D01*
X12462000Y-9013000D01*
X12412000Y-9063000D01*
X12462000Y-9113000D01*
X12462000Y-9367000D02*
X12512000Y-9317000D01*
X12462000Y-9267000D01*
X12412000Y-9317000D01*
X12462000Y-9367000D01*
X12462000Y-9621000D02*
X12512000Y-9571000D01*
X12462000Y-9521000D01*
X12412000Y-9571000D01*
X12462000Y-9621000D01*
X12462000Y-9875000D02*
X12512000Y-9825000D01*
X12462000Y-9775000D01*
X12412000Y-9825000D01*
X12462000Y-9875000D01*
X12462000Y-10129000D02*
X12512000Y-10079000D01*
X12462000Y-10029000D01*
X12412000Y-10079000D01*
X12462000Y-10129000D01*
X12462000Y-10383000D02*
X12512000Y-10333000D01*
X12462000Y-10283000D01*
X12412000Y-10333000D01*
X12462000Y-10383000D01*
X12462000Y-10637000D02*
X12512000Y-10587000D01*
X12462000Y-10537000D01*
X12412000Y-10587000D01*
X12462000Y-10637000D01*
X12462000Y-10891000D02*
X12512000Y-10841000D01*
X12462000Y-10791000D01*
X12412000Y-10841000D01*
X12462000Y-10891000D01*
X12462000Y-11145000D02*
X12512000Y-11095000D01*
X12462000Y-11045000D01*
X12412000Y-11095000D01*
X12462000Y-11145000D01*
X12462000Y-11399000D02*
X12512000Y-11349000D01*
X12462000Y-11299000D01*
X12412000Y-11349000D01*
X12462000Y-11399000D01*
X12462000Y-11653000D02*
X12512000Y-11603000D01*
X12462000Y-11553000D01*
X12412000Y-11603000D01*
X12462000Y-11653000D01*
X12462000Y-11907000D02*
X12512000Y-11857000D01*
X12462000Y-11807000D01*
X12412000Y-11857000D01*
X12462000Y-11907000D01*
X12462000Y-12161000D02*
X12512000Y-12111000D01*
X12462000Y-12061000D01*
X12412000Y-12111000D01*
X12462000Y-12161000D01*
X13492000Y-9595000D02*
X13542000Y-9545000D01*
X13492000Y-9495000D01*
X13442000Y-9545000D01*
X13492000Y-9595000D01*
X13982000Y-10455000D02*
X14032000Y-10405000D01*
X13982000Y-10355000D01*
X13932000Y-10405000D01*
X13982000Y-10455000D01*
X14236000Y-10455000D02*
X14286000Y-10405000D01*
X14236000Y-10355000D01*
X14186000Y-10405000D01*
X14236000Y-10455000D01*
X14490000Y-10455000D02*
X14540000Y-10405000D01*
X14490000Y-10355000D01*
X14440000Y-10405000D01*
X14490000Y-10455000D01*
X9372000Y-6819000D02*
X9422000Y-6769000D01*
X9372000Y-6719000D01*
X9322000Y-6769000D01*
X9372000Y-6819000D01*
X9372000Y-7073000D02*
X9422000Y-7023000D01*
X9372000Y-6973000D01*
X9322000Y-7023000D01*
X9372000Y-7073000D01*
X9372000Y-7327000D02*
X9422000Y-7277000D01*
X9372000Y-7227000D01*
X9322000Y-7277000D01*
X9372000Y-7327000D01*
X9372000Y-7581000D02*
X9422000Y-7531000D01*
X9372000Y-7481000D01*
X9322000Y-7531000D01*
X9372000Y-7581000D01*
X9372000Y-7835000D02*
X9422000Y-7785000D01*
X9372000Y-7735000D01*
X9322000Y-7785000D01*
X9372000Y-7835000D01*
X9462000Y-13455000D02*
X9512000Y-13405000D01*
X9462000Y-13355000D01*
X9412000Y-13405000D01*
X9462000Y-13455000D01*
X7292000Y-9405000D02*
X7342000Y-9355000D01*
X7292000Y-9305000D01*
X7242000Y-9355000D01*
X7292000Y-9405000D01*
X7342000Y-14015000D02*
X7392000Y-13965000D01*
X7342000Y-13915000D01*
X7292000Y-13965000D01*
X7342000Y-14015000D01*
X13772000Y-10875000D02*
X13822000Y-10825000D01*
X13772000Y-10775000D01*
X13722000Y-10825000D01*
X13772000Y-10875000D01*
X11812000Y-12655000D02*
X11862000Y-12605000D01*
X11812000Y-12555000D01*
X11762000Y-12605000D01*
X11812000Y-12655000D01*
X12962000Y-12655000D02*
X13012000Y-12605000D01*
X12962000Y-12555000D01*
X12912000Y-12605000D01*
X12962000Y-12655000D01*
X7377200Y-7438200D02*
X7478800Y-7539800D01*
X7478800Y-7438200D02*
X7377200Y-7539800D01*
X7478800Y-7489000D02*
G75*
G03X7478800Y-7489000I-50800J0D01*
G01*
X7377200Y-7692200D02*
X7478800Y-7793800D01*
X7478800Y-7692200D02*
X7377200Y-7793800D01*
X7478800Y-7743000D02*
G75*
G03X7478800Y-7743000I-50800J0D01*
G01*
X7377200Y-7946200D02*
X7478800Y-8047800D01*
X7478800Y-7946200D02*
X7377200Y-8047800D01*
X7478800Y-7997000D02*
G75*
G03X7478800Y-7997000I-50800J0D01*
G01*
X7377200Y-8200200D02*
X7478800Y-8301800D01*
X7478800Y-8200200D02*
X7377200Y-8301800D01*
X7478800Y-8251000D02*
G75*
G03X7478800Y-8251000I-50800J0D01*
G01*
X7377200Y-8454200D02*
X7478800Y-8555800D01*
X7478800Y-8454200D02*
X7377200Y-8555800D01*
X7478800Y-8505000D02*
G75*
G03X7478800Y-8505000I-50800J0D01*
G01*
X7631200Y-7438200D02*
X7732800Y-7539800D01*
X7732800Y-7438200D02*
X7631200Y-7539800D01*
X7732800Y-7489000D02*
G75*
G03X7732800Y-7489000I-50800J0D01*
G01*
X7631200Y-7692200D02*
X7732800Y-7793800D01*
X7732800Y-7692200D02*
X7631200Y-7793800D01*
X7732800Y-7743000D02*
G75*
G03X7732800Y-7743000I-50800J0D01*
G01*
X7631200Y-7946200D02*
X7732800Y-8047800D01*
X7732800Y-7946200D02*
X7631200Y-8047800D01*
X7732800Y-7997000D02*
G75*
G03X7732800Y-7997000I-50800J0D01*
G01*
X7631200Y-8200200D02*
X7732800Y-8301800D01*
X7732800Y-8200200D02*
X7631200Y-8301800D01*
X7732800Y-8251000D02*
G75*
G03X7732800Y-8251000I-50800J0D01*
G01*
X7631200Y-8454200D02*
X7732800Y-8555800D01*
X7732800Y-8454200D02*
X7631200Y-8555800D01*
X7732800Y-8505000D02*
G75*
G03X7732800Y-8505000I-50800J0D01*
G01*
X14337000Y-10840000D02*
X14447000Y-10950000D01*
X14447000Y-10840000D02*
X14337000Y-10950000D01*
X14392000Y-10840000D02*
X14392000Y-10950000D01*
X14337000Y-10895000D02*
X14447000Y-10895000D01*
X14337000Y-11856000D02*
X14447000Y-11966000D01*
X14447000Y-11856000D02*
X14337000Y-11966000D01*
X14392000Y-11856000D02*
X14392000Y-11966000D01*
X14337000Y-11911000D02*
X14447000Y-11911000D01*
X14947000Y-7780000D02*
X15067000Y-7900000D01*
X15067000Y-7780000D02*
X14947000Y-7900000D01*
X15049427Y-7882427D02*
X15049427Y-7797573D01*
X14964573Y-7797573D01*
X14964573Y-7882427D01*
X15049427Y-7882427D01*
X14947000Y-11730000D02*
X15067000Y-11850000D01*
X15067000Y-11730000D02*
X14947000Y-11850000D01*
X15049427Y-11832427D02*
X15049427Y-11747573D01*
X14964573Y-11747573D01*
X14964573Y-11832427D01*
X15049427Y-11832427D01*
X16664000Y-7778000D02*
X16784000Y-7898000D01*
X16784000Y-7778000D02*
X16664000Y-7898000D01*
X16766427Y-7880427D02*
X16766427Y-7795573D01*
X16681573Y-7795573D01*
X16681573Y-7880427D01*
X16766427Y-7880427D01*
X16664000Y-11730000D02*
X16784000Y-11850000D01*
X16784000Y-11730000D02*
X16664000Y-11850000D01*
X16766427Y-11832427D02*
X16766427Y-11747573D01*
X16681573Y-11747573D01*
X16681573Y-11832427D01*
X16766427Y-11832427D01*
X14807000Y-13080000D02*
X14937000Y-13210000D01*
X14937000Y-13080000D02*
X14807000Y-13210000D01*
X14872000Y-13210000D02*
X14937000Y-13145000D01*
X14872000Y-13080000D01*
X14807000Y-13145000D01*
X14872000Y-13210000D01*
X15007000Y-12480000D02*
X15137000Y-12610000D01*
X15137000Y-12480000D02*
X15007000Y-12610000D01*
X15072000Y-12610000D02*
X15137000Y-12545000D01*
X15072000Y-12480000D01*
X15007000Y-12545000D01*
X15072000Y-12610000D01*
X15007000Y-13680000D02*
X15137000Y-13810000D01*
X15137000Y-13680000D02*
X15007000Y-13810000D01*
X15072000Y-13810000D02*
X15137000Y-13745000D01*
X15072000Y-13680000D01*
X15007000Y-13745000D01*
X15072000Y-13810000D01*
X16227000Y-12480000D02*
X16357000Y-12610000D01*
X16357000Y-12480000D02*
X16227000Y-12610000D01*
X16292000Y-12610000D02*
X16357000Y-12545000D01*
X16292000Y-12480000D01*
X16227000Y-12545000D01*
X16292000Y-12610000D01*
X16227000Y-13680000D02*
X16357000Y-13810000D01*
X16357000Y-13680000D02*
X16227000Y-13810000D01*
X16292000Y-13810000D02*
X16357000Y-13745000D01*
X16292000Y-13680000D01*
X16227000Y-13745000D01*
X16292000Y-13810000D01*
X13332000Y-14420000D02*
X13332000Y-14590000D01*
X13247000Y-14505000D02*
X13417000Y-14505000D01*
X13417000Y-14505000D02*
G75*
G03X13417000Y-14505000I-85000J0D01*
G01*
X13728000Y-14420000D02*
X13728000Y-14590000D01*
X13643000Y-14505000D02*
X13813000Y-14505000D01*
X13813000Y-14505000D02*
G75*
G03X13813000Y-14505000I-85000J0D01*
G01*
X13827000Y-5795000D02*
X13827000Y-5965000D01*
X13742000Y-5880000D02*
X13912000Y-5880000D01*
X13912000Y-5880000D02*
G75*
G03X13912000Y-5880000I-85000J0D01*
G01*
X14223000Y-5795000D02*
X14223000Y-5965000D01*
X14138000Y-5880000D02*
X14308000Y-5880000D01*
X14308000Y-5880000D02*
G75*
G03X14308000Y-5880000I-85000J0D01*
G01*
X14619000Y-5795000D02*
X14619000Y-5965000D01*
X14534000Y-5880000D02*
X14704000Y-5880000D01*
X14704000Y-5880000D02*
G75*
G03X14704000Y-5880000I-85000J0D01*
G01*
X15015000Y-5795000D02*
X15015000Y-5965000D01*
X14930000Y-5880000D02*
X15100000Y-5880000D01*
X15100000Y-5880000D02*
G75*
G03X15100000Y-5880000I-85000J0D01*
G01*
X15411000Y-5795000D02*
X15411000Y-5965000D01*
X15326000Y-5880000D02*
X15496000Y-5880000D01*
X15496000Y-5880000D02*
G75*
G03X15496000Y-5880000I-85000J0D01*
G01*
X15807000Y-5795000D02*
X15807000Y-5965000D01*
X15722000Y-5880000D02*
X15892000Y-5880000D01*
X15892000Y-5880000D02*
G75*
G03X15892000Y-5880000I-85000J0D01*
G01*
X16795138Y-14918138D02*
X16795138Y-14691862D01*
X16568862Y-14691862D01*
X16568862Y-14918138D01*
X16795138Y-14918138D01*
X16842000Y-14805000D02*
G75*
G03X16842000Y-14805000I-160000J0D01*
G01*
X8201138Y-14085138D02*
X8201138Y-13858862D01*
X7974862Y-13858862D01*
X7974862Y-14085138D01*
X8201138Y-14085138D01*
X8248000Y-13972000D02*
G75*
G03X8248000Y-13972000I-160000J0D01*
G01*
X10701138Y-14085138D02*
X10701138Y-13858862D01*
X10474862Y-13858862D01*
X10474862Y-14085138D01*
X10701138Y-14085138D01*
X10748000Y-13972000D02*
G75*
G03X10748000Y-13972000I-160000J0D01*
G01*
X7495138Y-14918138D02*
X7495138Y-14691862D01*
X7268862Y-14691862D01*
X7268862Y-14918138D01*
X7495138Y-14918138D01*
X7542000Y-14805000D02*
G75*
G03X7542000Y-14805000I-160000J0D01*
G01*
X16795138Y-5618138D02*
X16795138Y-5391862D01*
X16568862Y-5391862D01*
X16568862Y-5618138D01*
X16795138Y-5618138D01*
X16842000Y-5505000D02*
G75*
G03X16842000Y-5505000I-160000J0D01*
G01*
X7495138Y-5618138D02*
X7495138Y-5391862D01*
X7268862Y-5391862D01*
X7268862Y-5618138D01*
X7495138Y-5618138D01*
X7542000Y-5505000D02*
G75*
G03X7542000Y-5505000I-160000J0D01*
G01*
D12*
X7315928Y-15623214D02*
X7315928Y-15323214D01*
X7387357Y-15323214D01*
X7430214Y-15337500D01*
X7458786Y-15366071D01*
X7473071Y-15394643D01*
X7487357Y-15451786D01*
X7487357Y-15494643D01*
X7473071Y-15551786D01*
X7458786Y-15580357D01*
X7430214Y-15608929D01*
X7387357Y-15623214D01*
X7315928Y-15623214D01*
X7615928Y-15623214D02*
X7615928Y-15423214D01*
X7615928Y-15480357D02*
X7630214Y-15451786D01*
X7644500Y-15437500D01*
X7673071Y-15423214D01*
X7701643Y-15423214D01*
X7801643Y-15623214D02*
X7801643Y-15423214D01*
X7801643Y-15323214D02*
X7787357Y-15337500D01*
X7801643Y-15351786D01*
X7815928Y-15337500D01*
X7801643Y-15323214D01*
X7801643Y-15351786D01*
X7987357Y-15623214D02*
X7958786Y-15608929D01*
X7944500Y-15580357D01*
X7944500Y-15323214D01*
X8144500Y-15623214D02*
X8115928Y-15608929D01*
X8101643Y-15580357D01*
X8101643Y-15323214D01*
X8487357Y-15623214D02*
X8487357Y-15323214D01*
X8587357Y-15537500D01*
X8687357Y-15323214D01*
X8687357Y-15623214D01*
X8958786Y-15623214D02*
X8958786Y-15466071D01*
X8944500Y-15437500D01*
X8915928Y-15423214D01*
X8858786Y-15423214D01*
X8830214Y-15437500D01*
X8958786Y-15608929D02*
X8930214Y-15623214D01*
X8858786Y-15623214D01*
X8830214Y-15608929D01*
X8815928Y-15580357D01*
X8815928Y-15551786D01*
X8830214Y-15523214D01*
X8858786Y-15508929D01*
X8930214Y-15508929D01*
X8958786Y-15494643D01*
X9101643Y-15423214D02*
X9101643Y-15723214D01*
X9101643Y-15437500D02*
X9130214Y-15423214D01*
X9187357Y-15423214D01*
X9215928Y-15437500D01*
X9230214Y-15451786D01*
X9244500Y-15480357D01*
X9244500Y-15566071D01*
X9230214Y-15594643D01*
X9215928Y-15608929D01*
X9187357Y-15623214D01*
X9130214Y-15623214D01*
X9101643Y-15608929D01*
X9373071Y-15594643D02*
X9387357Y-15608929D01*
X9373071Y-15623214D01*
X9358786Y-15608929D01*
X9373071Y-15594643D01*
X9373071Y-15623214D01*
X9373071Y-15437500D02*
X9387357Y-15451786D01*
X9373071Y-15466071D01*
X9358786Y-15451786D01*
X9373071Y-15437500D01*
X9373071Y-15466071D01*
X6989500Y-16097500D02*
X7029500Y-16137500D01*
X7029500Y-16097500D02*
X6989500Y-16137500D01*
X7373071Y-15953214D02*
X7401643Y-15953214D01*
X7430214Y-15967500D01*
X7444500Y-15981786D01*
X7458786Y-16010357D01*
X7473071Y-16067500D01*
X7473071Y-16138929D01*
X7458786Y-16196071D01*
X7444500Y-16224643D01*
X7430214Y-16238929D01*
X7401643Y-16253214D01*
X7373071Y-16253214D01*
X7344500Y-16238929D01*
X7330214Y-16224643D01*
X7315928Y-16196071D01*
X7301643Y-16138929D01*
X7301643Y-16067500D01*
X7315928Y-16010357D01*
X7330214Y-15981786D01*
X7344500Y-15967500D01*
X7373071Y-15953214D01*
X7601643Y-16224643D02*
X7615928Y-16238929D01*
X7601643Y-16253214D01*
X7587357Y-16238929D01*
X7601643Y-16224643D01*
X7601643Y-16253214D01*
X7873071Y-16053214D02*
X7873071Y-16253214D01*
X7801643Y-15938929D02*
X7730214Y-16153214D01*
X7915928Y-16153214D01*
X8087357Y-15953214D02*
X8115928Y-15953214D01*
X8144500Y-15967500D01*
X8158786Y-15981786D01*
X8173071Y-16010357D01*
X8187357Y-16067500D01*
X8187357Y-16138929D01*
X8173071Y-16196071D01*
X8158786Y-16224643D01*
X8144500Y-16238929D01*
X8115928Y-16253214D01*
X8087357Y-16253214D01*
X8058786Y-16238929D01*
X8044500Y-16224643D01*
X8030214Y-16196071D01*
X8015928Y-16138929D01*
X8015928Y-16067500D01*
X8030214Y-16010357D01*
X8044500Y-15981786D01*
X8058786Y-15967500D01*
X8087357Y-15953214D01*
X8315928Y-16253214D02*
X8315928Y-16053214D01*
X8315928Y-16081786D02*
X8330214Y-16067500D01*
X8358786Y-16053214D01*
X8401643Y-16053214D01*
X8430214Y-16067500D01*
X8444500Y-16096071D01*
X8444500Y-16253214D01*
X8444500Y-16096071D02*
X8458786Y-16067500D01*
X8487357Y-16053214D01*
X8530214Y-16053214D01*
X8558786Y-16067500D01*
X8573071Y-16096071D01*
X8573071Y-16253214D01*
X8715928Y-16253214D02*
X8715928Y-16053214D01*
X8715928Y-16081786D02*
X8730214Y-16067500D01*
X8758786Y-16053214D01*
X8801643Y-16053214D01*
X8830214Y-16067500D01*
X8844500Y-16096071D01*
X8844500Y-16253214D01*
X8844500Y-16096071D02*
X8858786Y-16067500D01*
X8887357Y-16053214D01*
X8930214Y-16053214D01*
X8958786Y-16067500D01*
X8973071Y-16096071D01*
X8973071Y-16253214D01*
X9558786Y-15938929D02*
X9301643Y-16324643D01*
X9944500Y-15953214D02*
X9973071Y-15953214D01*
X10001643Y-15967500D01*
X10015928Y-15981786D01*
X10030214Y-16010357D01*
X10044500Y-16067500D01*
X10044500Y-16138929D01*
X10030214Y-16196071D01*
X10015928Y-16224643D01*
X10001643Y-16238929D01*
X9973071Y-16253214D01*
X9944500Y-16253214D01*
X9915928Y-16238929D01*
X9901643Y-16224643D01*
X9887357Y-16196071D01*
X9873071Y-16138929D01*
X9873071Y-16067500D01*
X9887357Y-16010357D01*
X9901643Y-15981786D01*
X9915928Y-15967500D01*
X9944500Y-15953214D01*
X10173071Y-16224643D02*
X10187357Y-16238929D01*
X10173071Y-16253214D01*
X10158786Y-16238929D01*
X10173071Y-16224643D01*
X10173071Y-16253214D01*
X10373071Y-15953214D02*
X10401643Y-15953214D01*
X10430214Y-15967500D01*
X10444500Y-15981786D01*
X10458786Y-16010357D01*
X10473071Y-16067500D01*
X10473071Y-16138929D01*
X10458786Y-16196071D01*
X10444500Y-16224643D01*
X10430214Y-16238929D01*
X10401643Y-16253214D01*
X10373071Y-16253214D01*
X10344500Y-16238929D01*
X10330214Y-16224643D01*
X10315928Y-16196071D01*
X10301643Y-16138929D01*
X10301643Y-16067500D01*
X10315928Y-16010357D01*
X10330214Y-15981786D01*
X10344500Y-15967500D01*
X10373071Y-15953214D01*
X10758786Y-16253214D02*
X10587357Y-16253214D01*
X10673071Y-16253214D02*
X10673071Y-15953214D01*
X10644500Y-15996071D01*
X10615928Y-16024643D01*
X10587357Y-16038929D01*
X11015928Y-15953214D02*
X10958786Y-15953214D01*
X10930214Y-15967500D01*
X10915928Y-15981786D01*
X10887357Y-16024643D01*
X10873071Y-16081786D01*
X10873071Y-16196071D01*
X10887357Y-16224643D01*
X10901643Y-16238929D01*
X10930214Y-16253214D01*
X10987357Y-16253214D01*
X11015928Y-16238929D01*
X11030214Y-16224643D01*
X11044500Y-16196071D01*
X11044500Y-16124643D01*
X11030214Y-16096071D01*
X11015928Y-16081786D01*
X10987357Y-16067500D01*
X10930214Y-16067500D01*
X10901643Y-16081786D01*
X10887357Y-16096071D01*
X10873071Y-16124643D01*
X11158786Y-15953214D02*
X11158786Y-16010357D01*
X11273071Y-15953214D02*
X11273071Y-16010357D01*
X11715928Y-16367500D02*
X11701643Y-16353214D01*
X11673071Y-16310357D01*
X11658786Y-16281786D01*
X11644500Y-16238929D01*
X11630214Y-16167500D01*
X11630214Y-16110357D01*
X11644500Y-16038929D01*
X11658786Y-15996071D01*
X11673071Y-15967500D01*
X11701643Y-15924643D01*
X11715928Y-15910357D01*
X11973071Y-15953214D02*
X11830214Y-15953214D01*
X11815928Y-16096071D01*
X11830214Y-16081786D01*
X11858786Y-16067500D01*
X11930214Y-16067500D01*
X11958786Y-16081786D01*
X11973071Y-16096071D01*
X11987357Y-16124643D01*
X11987357Y-16196071D01*
X11973071Y-16224643D01*
X11958786Y-16238929D01*
X11930214Y-16253214D01*
X11858786Y-16253214D01*
X11830214Y-16238929D01*
X11815928Y-16224643D01*
X12244500Y-16053214D02*
X12244500Y-16253214D01*
X12173071Y-15938929D02*
X12101643Y-16153214D01*
X12287357Y-16153214D01*
X12630214Y-16253214D02*
X12630214Y-15953214D01*
X12758786Y-16253214D02*
X12758786Y-16096071D01*
X12744500Y-16067500D01*
X12715928Y-16053214D01*
X12673071Y-16053214D01*
X12644500Y-16067500D01*
X12630214Y-16081786D01*
X12944500Y-16253214D02*
X12915928Y-16238929D01*
X12901643Y-16224643D01*
X12887357Y-16196071D01*
X12887357Y-16110357D01*
X12901643Y-16081786D01*
X12915928Y-16067500D01*
X12944500Y-16053214D01*
X12987357Y-16053214D01*
X13015928Y-16067500D01*
X13030214Y-16081786D01*
X13044500Y-16110357D01*
X13044500Y-16196071D01*
X13030214Y-16224643D01*
X13015928Y-16238929D01*
X12987357Y-16253214D01*
X12944500Y-16253214D01*
X13215928Y-16253214D02*
X13187357Y-16238929D01*
X13173071Y-16210357D01*
X13173071Y-15953214D01*
X13444500Y-16238929D02*
X13415928Y-16253214D01*
X13358786Y-16253214D01*
X13330214Y-16238929D01*
X13315928Y-16210357D01*
X13315928Y-16096071D01*
X13330214Y-16067500D01*
X13358786Y-16053214D01*
X13415928Y-16053214D01*
X13444500Y-16067500D01*
X13458786Y-16096071D01*
X13458786Y-16124643D01*
X13315928Y-16153214D01*
X13573071Y-16238929D02*
X13601643Y-16253214D01*
X13658786Y-16253214D01*
X13687357Y-16238929D01*
X13701643Y-16210357D01*
X13701643Y-16196071D01*
X13687357Y-16167500D01*
X13658786Y-16153214D01*
X13615928Y-16153214D01*
X13587357Y-16138929D01*
X13573071Y-16110357D01*
X13573071Y-16096071D01*
X13587357Y-16067500D01*
X13615928Y-16053214D01*
X13658786Y-16053214D01*
X13687357Y-16067500D01*
X13801643Y-16367500D02*
X13815928Y-16353214D01*
X13844500Y-16310357D01*
X13858786Y-16281786D01*
X13873071Y-16238929D01*
X13887357Y-16167500D01*
X13887357Y-16110357D01*
X13873071Y-16038929D01*
X13858786Y-15996071D01*
X13844500Y-15967500D01*
X13815928Y-15924643D01*
X13801643Y-15910357D01*
X7029500Y-16513500D02*
G75*
G03X7029500Y-16513500I-25000J0D01*
G01*
X7373071Y-16349214D02*
X7401643Y-16349214D01*
X7430214Y-16363500D01*
X7444500Y-16377786D01*
X7458786Y-16406357D01*
X7473071Y-16463500D01*
X7473071Y-16534929D01*
X7458786Y-16592071D01*
X7444500Y-16620643D01*
X7430214Y-16634929D01*
X7401643Y-16649214D01*
X7373071Y-16649214D01*
X7344500Y-16634929D01*
X7330214Y-16620643D01*
X7315928Y-16592071D01*
X7301643Y-16534929D01*
X7301643Y-16463500D01*
X7315928Y-16406357D01*
X7330214Y-16377786D01*
X7344500Y-16363500D01*
X7373071Y-16349214D01*
X7601643Y-16620643D02*
X7615928Y-16634929D01*
X7601643Y-16649214D01*
X7587357Y-16634929D01*
X7601643Y-16620643D01*
X7601643Y-16649214D01*
X7887357Y-16349214D02*
X7744500Y-16349214D01*
X7730214Y-16492071D01*
X7744500Y-16477786D01*
X7773071Y-16463500D01*
X7844500Y-16463500D01*
X7873071Y-16477786D01*
X7887357Y-16492071D01*
X7901643Y-16520643D01*
X7901643Y-16592071D01*
X7887357Y-16620643D01*
X7873071Y-16634929D01*
X7844500Y-16649214D01*
X7773071Y-16649214D01*
X7744500Y-16634929D01*
X7730214Y-16620643D01*
X8087357Y-16349214D02*
X8115928Y-16349214D01*
X8144500Y-16363500D01*
X8158786Y-16377786D01*
X8173071Y-16406357D01*
X8187357Y-16463500D01*
X8187357Y-16534929D01*
X8173071Y-16592071D01*
X8158786Y-16620643D01*
X8144500Y-16634929D01*
X8115928Y-16649214D01*
X8087357Y-16649214D01*
X8058786Y-16634929D01*
X8044500Y-16620643D01*
X8030214Y-16592071D01*
X8015928Y-16534929D01*
X8015928Y-16463500D01*
X8030214Y-16406357D01*
X8044500Y-16377786D01*
X8058786Y-16363500D01*
X8087357Y-16349214D01*
X8315928Y-16649214D02*
X8315928Y-16449214D01*
X8315928Y-16477786D02*
X8330214Y-16463500D01*
X8358786Y-16449214D01*
X8401643Y-16449214D01*
X8430214Y-16463500D01*
X8444500Y-16492071D01*
X8444500Y-16649214D01*
X8444500Y-16492071D02*
X8458786Y-16463500D01*
X8487357Y-16449214D01*
X8530214Y-16449214D01*
X8558786Y-16463500D01*
X8573071Y-16492071D01*
X8573071Y-16649214D01*
X8715928Y-16649214D02*
X8715928Y-16449214D01*
X8715928Y-16477786D02*
X8730214Y-16463500D01*
X8758786Y-16449214D01*
X8801643Y-16449214D01*
X8830214Y-16463500D01*
X8844500Y-16492071D01*
X8844500Y-16649214D01*
X8844500Y-16492071D02*
X8858786Y-16463500D01*
X8887357Y-16449214D01*
X8930214Y-16449214D01*
X8958786Y-16463500D01*
X8973071Y-16492071D01*
X8973071Y-16649214D01*
X9558786Y-16334929D02*
X9301643Y-16720643D01*
X9944500Y-16349214D02*
X9973071Y-16349214D01*
X10001643Y-16363500D01*
X10015928Y-16377786D01*
X10030214Y-16406357D01*
X10044500Y-16463500D01*
X10044500Y-16534929D01*
X10030214Y-16592071D01*
X10015928Y-16620643D01*
X10001643Y-16634929D01*
X9973071Y-16649214D01*
X9944500Y-16649214D01*
X9915928Y-16634929D01*
X9901643Y-16620643D01*
X9887357Y-16592071D01*
X9873071Y-16534929D01*
X9873071Y-16463500D01*
X9887357Y-16406357D01*
X9901643Y-16377786D01*
X9915928Y-16363500D01*
X9944500Y-16349214D01*
X10173071Y-16620643D02*
X10187357Y-16634929D01*
X10173071Y-16649214D01*
X10158786Y-16634929D01*
X10173071Y-16620643D01*
X10173071Y-16649214D01*
X10373071Y-16349214D02*
X10401643Y-16349214D01*
X10430214Y-16363500D01*
X10444500Y-16377786D01*
X10458786Y-16406357D01*
X10473071Y-16463500D01*
X10473071Y-16534929D01*
X10458786Y-16592071D01*
X10444500Y-16620643D01*
X10430214Y-16634929D01*
X10401643Y-16649214D01*
X10373071Y-16649214D01*
X10344500Y-16634929D01*
X10330214Y-16620643D01*
X10315928Y-16592071D01*
X10301643Y-16534929D01*
X10301643Y-16463500D01*
X10315928Y-16406357D01*
X10330214Y-16377786D01*
X10344500Y-16363500D01*
X10373071Y-16349214D01*
X10587357Y-16377786D02*
X10601643Y-16363500D01*
X10630214Y-16349214D01*
X10701643Y-16349214D01*
X10730214Y-16363500D01*
X10744500Y-16377786D01*
X10758786Y-16406357D01*
X10758786Y-16434929D01*
X10744500Y-16477786D01*
X10573071Y-16649214D01*
X10758786Y-16649214D01*
X10944500Y-16349214D02*
X10973071Y-16349214D01*
X11001643Y-16363500D01*
X11015928Y-16377786D01*
X11030214Y-16406357D01*
X11044500Y-16463500D01*
X11044500Y-16534929D01*
X11030214Y-16592071D01*
X11015928Y-16620643D01*
X11001643Y-16634929D01*
X10973071Y-16649214D01*
X10944500Y-16649214D01*
X10915928Y-16634929D01*
X10901643Y-16620643D01*
X10887357Y-16592071D01*
X10873071Y-16534929D01*
X10873071Y-16463500D01*
X10887357Y-16406357D01*
X10901643Y-16377786D01*
X10915928Y-16363500D01*
X10944500Y-16349214D01*
X11158786Y-16349214D02*
X11158786Y-16406357D01*
X11273071Y-16349214D02*
X11273071Y-16406357D01*
X11715928Y-16763500D02*
X11701643Y-16749214D01*
X11673071Y-16706357D01*
X11658786Y-16677786D01*
X11644500Y-16634929D01*
X11630214Y-16563500D01*
X11630214Y-16506357D01*
X11644500Y-16434929D01*
X11658786Y-16392071D01*
X11673071Y-16363500D01*
X11701643Y-16320643D01*
X11715928Y-16306357D01*
X11958786Y-16349214D02*
X11901643Y-16349214D01*
X11873071Y-16363500D01*
X11858786Y-16377786D01*
X11830214Y-16420643D01*
X11815928Y-16477786D01*
X11815928Y-16592071D01*
X11830214Y-16620643D01*
X11844500Y-16634929D01*
X11873071Y-16649214D01*
X11930214Y-16649214D01*
X11958786Y-16634929D01*
X11973071Y-16620643D01*
X11987357Y-16592071D01*
X11987357Y-16520643D01*
X11973071Y-16492071D01*
X11958786Y-16477786D01*
X11930214Y-16463500D01*
X11873071Y-16463500D01*
X11844500Y-16477786D01*
X11830214Y-16492071D01*
X11815928Y-16520643D01*
X12344500Y-16649214D02*
X12344500Y-16349214D01*
X12473071Y-16649214D02*
X12473071Y-16492071D01*
X12458786Y-16463500D01*
X12430214Y-16449214D01*
X12387357Y-16449214D01*
X12358786Y-16463500D01*
X12344500Y-16477786D01*
X12658786Y-16649214D02*
X12630214Y-16634929D01*
X12615928Y-16620643D01*
X12601643Y-16592071D01*
X12601643Y-16506357D01*
X12615928Y-16477786D01*
X12630214Y-16463500D01*
X12658786Y-16449214D01*
X12701643Y-16449214D01*
X12730214Y-16463500D01*
X12744500Y-16477786D01*
X12758786Y-16506357D01*
X12758786Y-16592071D01*
X12744500Y-16620643D01*
X12730214Y-16634929D01*
X12701643Y-16649214D01*
X12658786Y-16649214D01*
X12930214Y-16649214D02*
X12901643Y-16634929D01*
X12887357Y-16606357D01*
X12887357Y-16349214D01*
X13158786Y-16634929D02*
X13130214Y-16649214D01*
X13073071Y-16649214D01*
X13044500Y-16634929D01*
X13030214Y-16606357D01*
X13030214Y-16492071D01*
X13044500Y-16463500D01*
X13073071Y-16449214D01*
X13130214Y-16449214D01*
X13158786Y-16463500D01*
X13173071Y-16492071D01*
X13173071Y-16520643D01*
X13030214Y-16549214D01*
X13287357Y-16634929D02*
X13315928Y-16649214D01*
X13373071Y-16649214D01*
X13401643Y-16634929D01*
X13415928Y-16606357D01*
X13415928Y-16592071D01*
X13401643Y-16563500D01*
X13373071Y-16549214D01*
X13330214Y-16549214D01*
X13301643Y-16534929D01*
X13287357Y-16506357D01*
X13287357Y-16492071D01*
X13301643Y-16463500D01*
X13330214Y-16449214D01*
X13373071Y-16449214D01*
X13401643Y-16463500D01*
X13515928Y-16763500D02*
X13530214Y-16749214D01*
X13558786Y-16706357D01*
X13573071Y-16677786D01*
X13587357Y-16634929D01*
X13601643Y-16563500D01*
X13601643Y-16506357D01*
X13587357Y-16434929D01*
X13573071Y-16392071D01*
X13558786Y-16363500D01*
X13530214Y-16320643D01*
X13515928Y-16306357D01*
X6989500Y-16869500D02*
X6989500Y-16949500D01*
X6949500Y-16909500D02*
X7029500Y-16909500D01*
X7373071Y-16745214D02*
X7401643Y-16745214D01*
X7430214Y-16759500D01*
X7444500Y-16773786D01*
X7458786Y-16802357D01*
X7473071Y-16859500D01*
X7473071Y-16930929D01*
X7458786Y-16988072D01*
X7444500Y-17016643D01*
X7430214Y-17030929D01*
X7401643Y-17045214D01*
X7373071Y-17045214D01*
X7344500Y-17030929D01*
X7330214Y-17016643D01*
X7315928Y-16988072D01*
X7301643Y-16930929D01*
X7301643Y-16859500D01*
X7315928Y-16802357D01*
X7330214Y-16773786D01*
X7344500Y-16759500D01*
X7373071Y-16745214D01*
X7601643Y-17016643D02*
X7615928Y-17030929D01*
X7601643Y-17045214D01*
X7587357Y-17030929D01*
X7601643Y-17016643D01*
X7601643Y-17045214D01*
X7787357Y-16873786D02*
X7758786Y-16859500D01*
X7744500Y-16845214D01*
X7730214Y-16816643D01*
X7730214Y-16802357D01*
X7744500Y-16773786D01*
X7758786Y-16759500D01*
X7787357Y-16745214D01*
X7844500Y-16745214D01*
X7873071Y-16759500D01*
X7887357Y-16773786D01*
X7901643Y-16802357D01*
X7901643Y-16816643D01*
X7887357Y-16845214D01*
X7873071Y-16859500D01*
X7844500Y-16873786D01*
X7787357Y-16873786D01*
X7758786Y-16888072D01*
X7744500Y-16902357D01*
X7730214Y-16930929D01*
X7730214Y-16988072D01*
X7744500Y-17016643D01*
X7758786Y-17030929D01*
X7787357Y-17045214D01*
X7844500Y-17045214D01*
X7873071Y-17030929D01*
X7887357Y-17016643D01*
X7901643Y-16988072D01*
X7901643Y-16930929D01*
X7887357Y-16902357D01*
X7873071Y-16888072D01*
X7844500Y-16873786D01*
X8087357Y-16745214D02*
X8115928Y-16745214D01*
X8144500Y-16759500D01*
X8158786Y-16773786D01*
X8173071Y-16802357D01*
X8187357Y-16859500D01*
X8187357Y-16930929D01*
X8173071Y-16988072D01*
X8158786Y-17016643D01*
X8144500Y-17030929D01*
X8115928Y-17045214D01*
X8087357Y-17045214D01*
X8058786Y-17030929D01*
X8044500Y-17016643D01*
X8030214Y-16988072D01*
X8015928Y-16930929D01*
X8015928Y-16859500D01*
X8030214Y-16802357D01*
X8044500Y-16773786D01*
X8058786Y-16759500D01*
X8087357Y-16745214D01*
X8315928Y-17045214D02*
X8315928Y-16845214D01*
X8315928Y-16873786D02*
X8330214Y-16859500D01*
X8358786Y-16845214D01*
X8401643Y-16845214D01*
X8430214Y-16859500D01*
X8444500Y-16888072D01*
X8444500Y-17045214D01*
X8444500Y-16888072D02*
X8458786Y-16859500D01*
X8487357Y-16845214D01*
X8530214Y-16845214D01*
X8558786Y-16859500D01*
X8573071Y-16888072D01*
X8573071Y-17045214D01*
X8715928Y-17045214D02*
X8715928Y-16845214D01*
X8715928Y-16873786D02*
X8730214Y-16859500D01*
X8758786Y-16845214D01*
X8801643Y-16845214D01*
X8830214Y-16859500D01*
X8844500Y-16888072D01*
X8844500Y-17045214D01*
X8844500Y-16888072D02*
X8858786Y-16859500D01*
X8887357Y-16845214D01*
X8930214Y-16845214D01*
X8958786Y-16859500D01*
X8973071Y-16888072D01*
X8973071Y-17045214D01*
X9558786Y-16730929D02*
X9301643Y-17116643D01*
X9944500Y-16745214D02*
X9973071Y-16745214D01*
X10001643Y-16759500D01*
X10015928Y-16773786D01*
X10030214Y-16802357D01*
X10044500Y-16859500D01*
X10044500Y-16930929D01*
X10030214Y-16988072D01*
X10015928Y-17016643D01*
X10001643Y-17030929D01*
X9973071Y-17045214D01*
X9944500Y-17045214D01*
X9915928Y-17030929D01*
X9901643Y-17016643D01*
X9887357Y-16988072D01*
X9873071Y-16930929D01*
X9873071Y-16859500D01*
X9887357Y-16802357D01*
X9901643Y-16773786D01*
X9915928Y-16759500D01*
X9944500Y-16745214D01*
X10173071Y-17016643D02*
X10187357Y-17030929D01*
X10173071Y-17045214D01*
X10158786Y-17030929D01*
X10173071Y-17016643D01*
X10173071Y-17045214D01*
X10373071Y-16745214D02*
X10401643Y-16745214D01*
X10430214Y-16759500D01*
X10444500Y-16773786D01*
X10458786Y-16802357D01*
X10473071Y-16859500D01*
X10473071Y-16930929D01*
X10458786Y-16988072D01*
X10444500Y-17016643D01*
X10430214Y-17030929D01*
X10401643Y-17045214D01*
X10373071Y-17045214D01*
X10344500Y-17030929D01*
X10330214Y-17016643D01*
X10315928Y-16988072D01*
X10301643Y-16930929D01*
X10301643Y-16859500D01*
X10315928Y-16802357D01*
X10330214Y-16773786D01*
X10344500Y-16759500D01*
X10373071Y-16745214D01*
X10573071Y-16745214D02*
X10758786Y-16745214D01*
X10658786Y-16859500D01*
X10701643Y-16859500D01*
X10730214Y-16873786D01*
X10744500Y-16888072D01*
X10758786Y-16916643D01*
X10758786Y-16988072D01*
X10744500Y-17016643D01*
X10730214Y-17030929D01*
X10701643Y-17045214D01*
X10615928Y-17045214D01*
X10587357Y-17030929D01*
X10573071Y-17016643D01*
X11044500Y-17045214D02*
X10873071Y-17045214D01*
X10958786Y-17045214D02*
X10958786Y-16745214D01*
X10930214Y-16788072D01*
X10901643Y-16816643D01*
X10873071Y-16830929D01*
X11158786Y-16745214D02*
X11158786Y-16802357D01*
X11273071Y-16745214D02*
X11273071Y-16802357D01*
X11715928Y-17159500D02*
X11701643Y-17145214D01*
X11673071Y-17102357D01*
X11658786Y-17073786D01*
X11644500Y-17030929D01*
X11630214Y-16959500D01*
X11630214Y-16902357D01*
X11644500Y-16830929D01*
X11658786Y-16788072D01*
X11673071Y-16759500D01*
X11701643Y-16716643D01*
X11715928Y-16702357D01*
X11958786Y-16745214D02*
X11901643Y-16745214D01*
X11873071Y-16759500D01*
X11858786Y-16773786D01*
X11830214Y-16816643D01*
X11815928Y-16873786D01*
X11815928Y-16988072D01*
X11830214Y-17016643D01*
X11844500Y-17030929D01*
X11873071Y-17045214D01*
X11930214Y-17045214D01*
X11958786Y-17030929D01*
X11973071Y-17016643D01*
X11987357Y-16988072D01*
X11987357Y-16916643D01*
X11973071Y-16888072D01*
X11958786Y-16873786D01*
X11930214Y-16859500D01*
X11873071Y-16859500D01*
X11844500Y-16873786D01*
X11830214Y-16888072D01*
X11815928Y-16916643D01*
X12101643Y-16773786D02*
X12115928Y-16759500D01*
X12144500Y-16745214D01*
X12215928Y-16745214D01*
X12244500Y-16759500D01*
X12258786Y-16773786D01*
X12273071Y-16802357D01*
X12273071Y-16830929D01*
X12258786Y-16873786D01*
X12087357Y-17045214D01*
X12273071Y-17045214D01*
X12630214Y-17045214D02*
X12630214Y-16745214D01*
X12758786Y-17045214D02*
X12758786Y-16888072D01*
X12744500Y-16859500D01*
X12715928Y-16845214D01*
X12673071Y-16845214D01*
X12644500Y-16859500D01*
X12630214Y-16873786D01*
X12944500Y-17045214D02*
X12915928Y-17030929D01*
X12901643Y-17016643D01*
X12887357Y-16988072D01*
X12887357Y-16902357D01*
X12901643Y-16873786D01*
X12915928Y-16859500D01*
X12944500Y-16845214D01*
X12987357Y-16845214D01*
X13015928Y-16859500D01*
X13030214Y-16873786D01*
X13044500Y-16902357D01*
X13044500Y-16988072D01*
X13030214Y-17016643D01*
X13015928Y-17030929D01*
X12987357Y-17045214D01*
X12944500Y-17045214D01*
X13215928Y-17045214D02*
X13187357Y-17030929D01*
X13173071Y-17002357D01*
X13173071Y-16745214D01*
X13444500Y-17030929D02*
X13415928Y-17045214D01*
X13358786Y-17045214D01*
X13330214Y-17030929D01*
X13315928Y-17002357D01*
X13315928Y-16888072D01*
X13330214Y-16859500D01*
X13358786Y-16845214D01*
X13415928Y-16845214D01*
X13444500Y-16859500D01*
X13458786Y-16888072D01*
X13458786Y-16916643D01*
X13315928Y-16945214D01*
X13573071Y-17030929D02*
X13601643Y-17045214D01*
X13658786Y-17045214D01*
X13687357Y-17030929D01*
X13701643Y-17002357D01*
X13701643Y-16988072D01*
X13687357Y-16959500D01*
X13658786Y-16945214D01*
X13615928Y-16945214D01*
X13587357Y-16930929D01*
X13573071Y-16902357D01*
X13573071Y-16888072D01*
X13587357Y-16859500D01*
X13615928Y-16845214D01*
X13658786Y-16845214D01*
X13687357Y-16859500D01*
X13801643Y-17159500D02*
X13815928Y-17145214D01*
X13844500Y-17102357D01*
X13858786Y-17073786D01*
X13873071Y-17030929D01*
X13887357Y-16959500D01*
X13887357Y-16902357D01*
X13873071Y-16830929D01*
X13858786Y-16788072D01*
X13844500Y-16759500D01*
X13815928Y-16716643D01*
X13801643Y-16702357D01*
X7015588Y-17339088D02*
X7015588Y-17271912D01*
X6948412Y-17271912D01*
X6948412Y-17339088D01*
X7015588Y-17339088D01*
X7373071Y-17141214D02*
X7401643Y-17141214D01*
X7430214Y-17155500D01*
X7444500Y-17169786D01*
X7458786Y-17198357D01*
X7473071Y-17255500D01*
X7473071Y-17326929D01*
X7458786Y-17384072D01*
X7444500Y-17412643D01*
X7430214Y-17426929D01*
X7401643Y-17441214D01*
X7373071Y-17441214D01*
X7344500Y-17426929D01*
X7330214Y-17412643D01*
X7315928Y-17384072D01*
X7301643Y-17326929D01*
X7301643Y-17255500D01*
X7315928Y-17198357D01*
X7330214Y-17169786D01*
X7344500Y-17155500D01*
X7373071Y-17141214D01*
X7601643Y-17412643D02*
X7615928Y-17426929D01*
X7601643Y-17441214D01*
X7587357Y-17426929D01*
X7601643Y-17412643D01*
X7601643Y-17441214D01*
X7758786Y-17441214D02*
X7815928Y-17441214D01*
X7844500Y-17426929D01*
X7858786Y-17412643D01*
X7887357Y-17369786D01*
X7901643Y-17312643D01*
X7901643Y-17198357D01*
X7887357Y-17169786D01*
X7873071Y-17155500D01*
X7844500Y-17141214D01*
X7787357Y-17141214D01*
X7758786Y-17155500D01*
X7744500Y-17169786D01*
X7730214Y-17198357D01*
X7730214Y-17269786D01*
X7744500Y-17298357D01*
X7758786Y-17312643D01*
X7787357Y-17326929D01*
X7844500Y-17326929D01*
X7873071Y-17312643D01*
X7887357Y-17298357D01*
X7901643Y-17269786D01*
X8173071Y-17141214D02*
X8030214Y-17141214D01*
X8015928Y-17284072D01*
X8030214Y-17269786D01*
X8058786Y-17255500D01*
X8130214Y-17255500D01*
X8158786Y-17269786D01*
X8173071Y-17284072D01*
X8187357Y-17312643D01*
X8187357Y-17384072D01*
X8173071Y-17412643D01*
X8158786Y-17426929D01*
X8130214Y-17441214D01*
X8058786Y-17441214D01*
X8030214Y-17426929D01*
X8015928Y-17412643D01*
X8315928Y-17441214D02*
X8315928Y-17241214D01*
X8315928Y-17269786D02*
X8330214Y-17255500D01*
X8358786Y-17241214D01*
X8401643Y-17241214D01*
X8430214Y-17255500D01*
X8444500Y-17284072D01*
X8444500Y-17441214D01*
X8444500Y-17284072D02*
X8458786Y-17255500D01*
X8487357Y-17241214D01*
X8530214Y-17241214D01*
X8558786Y-17255500D01*
X8573071Y-17284072D01*
X8573071Y-17441214D01*
X8715928Y-17441214D02*
X8715928Y-17241214D01*
X8715928Y-17269786D02*
X8730214Y-17255500D01*
X8758786Y-17241214D01*
X8801643Y-17241214D01*
X8830214Y-17255500D01*
X8844500Y-17284072D01*
X8844500Y-17441214D01*
X8844500Y-17284072D02*
X8858786Y-17255500D01*
X8887357Y-17241214D01*
X8930214Y-17241214D01*
X8958786Y-17255500D01*
X8973071Y-17284072D01*
X8973071Y-17441214D01*
X9558786Y-17126929D02*
X9301643Y-17512643D01*
X9944500Y-17141214D02*
X9973071Y-17141214D01*
X10001643Y-17155500D01*
X10015928Y-17169786D01*
X10030214Y-17198357D01*
X10044500Y-17255500D01*
X10044500Y-17326929D01*
X10030214Y-17384072D01*
X10015928Y-17412643D01*
X10001643Y-17426929D01*
X9973071Y-17441214D01*
X9944500Y-17441214D01*
X9915928Y-17426929D01*
X9901643Y-17412643D01*
X9887357Y-17384072D01*
X9873071Y-17326929D01*
X9873071Y-17255500D01*
X9887357Y-17198357D01*
X9901643Y-17169786D01*
X9915928Y-17155500D01*
X9944500Y-17141214D01*
X10173071Y-17412643D02*
X10187357Y-17426929D01*
X10173071Y-17441214D01*
X10158786Y-17426929D01*
X10173071Y-17412643D01*
X10173071Y-17441214D01*
X10373071Y-17141214D02*
X10401643Y-17141214D01*
X10430214Y-17155500D01*
X10444500Y-17169786D01*
X10458786Y-17198357D01*
X10473071Y-17255500D01*
X10473071Y-17326929D01*
X10458786Y-17384072D01*
X10444500Y-17412643D01*
X10430214Y-17426929D01*
X10401643Y-17441214D01*
X10373071Y-17441214D01*
X10344500Y-17426929D01*
X10330214Y-17412643D01*
X10315928Y-17384072D01*
X10301643Y-17326929D01*
X10301643Y-17255500D01*
X10315928Y-17198357D01*
X10330214Y-17169786D01*
X10344500Y-17155500D01*
X10373071Y-17141214D01*
X10573071Y-17141214D02*
X10758786Y-17141214D01*
X10658786Y-17255500D01*
X10701643Y-17255500D01*
X10730214Y-17269786D01*
X10744500Y-17284072D01*
X10758786Y-17312643D01*
X10758786Y-17384072D01*
X10744500Y-17412643D01*
X10730214Y-17426929D01*
X10701643Y-17441214D01*
X10615928Y-17441214D01*
X10587357Y-17426929D01*
X10573071Y-17412643D01*
X10858786Y-17141214D02*
X11058786Y-17141214D01*
X10930214Y-17441214D01*
X11158786Y-17141214D02*
X11158786Y-17198357D01*
X11273071Y-17141214D02*
X11273071Y-17198357D01*
X11715928Y-17555500D02*
X11701643Y-17541214D01*
X11673071Y-17498357D01*
X11658786Y-17469786D01*
X11644500Y-17426929D01*
X11630214Y-17355500D01*
X11630214Y-17298357D01*
X11644500Y-17226929D01*
X11658786Y-17184072D01*
X11673071Y-17155500D01*
X11701643Y-17112643D01*
X11715928Y-17098357D01*
X11973071Y-17141214D02*
X11830214Y-17141214D01*
X11815928Y-17284072D01*
X11830214Y-17269786D01*
X11858786Y-17255500D01*
X11930214Y-17255500D01*
X11958786Y-17269786D01*
X11973071Y-17284072D01*
X11987357Y-17312643D01*
X11987357Y-17384072D01*
X11973071Y-17412643D01*
X11958786Y-17426929D01*
X11930214Y-17441214D01*
X11858786Y-17441214D01*
X11830214Y-17426929D01*
X11815928Y-17412643D01*
X12344500Y-17441214D02*
X12344500Y-17141214D01*
X12473071Y-17441214D02*
X12473071Y-17284072D01*
X12458786Y-17255500D01*
X12430214Y-17241214D01*
X12387357Y-17241214D01*
X12358786Y-17255500D01*
X12344500Y-17269786D01*
X12658786Y-17441214D02*
X12630214Y-17426929D01*
X12615928Y-17412643D01*
X12601643Y-17384072D01*
X12601643Y-17298357D01*
X12615928Y-17269786D01*
X12630214Y-17255500D01*
X12658786Y-17241214D01*
X12701643Y-17241214D01*
X12730214Y-17255500D01*
X12744500Y-17269786D01*
X12758786Y-17298357D01*
X12758786Y-17384072D01*
X12744500Y-17412643D01*
X12730214Y-17426929D01*
X12701643Y-17441214D01*
X12658786Y-17441214D01*
X12930214Y-17441214D02*
X12901643Y-17426929D01*
X12887357Y-17398357D01*
X12887357Y-17141214D01*
X13158786Y-17426929D02*
X13130214Y-17441214D01*
X13073071Y-17441214D01*
X13044500Y-17426929D01*
X13030214Y-17398357D01*
X13030214Y-17284072D01*
X13044500Y-17255500D01*
X13073071Y-17241214D01*
X13130214Y-17241214D01*
X13158786Y-17255500D01*
X13173071Y-17284072D01*
X13173071Y-17312643D01*
X13030214Y-17341214D01*
X13287357Y-17426929D02*
X13315928Y-17441214D01*
X13373071Y-17441214D01*
X13401643Y-17426929D01*
X13415928Y-17398357D01*
X13415928Y-17384072D01*
X13401643Y-17355500D01*
X13373071Y-17341214D01*
X13330214Y-17341214D01*
X13301643Y-17326929D01*
X13287357Y-17298357D01*
X13287357Y-17284072D01*
X13301643Y-17255500D01*
X13330214Y-17241214D01*
X13373071Y-17241214D01*
X13401643Y-17255500D01*
X13515928Y-17555500D02*
X13530214Y-17541214D01*
X13558786Y-17498357D01*
X13573071Y-17469786D01*
X13587357Y-17426929D01*
X13601643Y-17355500D01*
X13601643Y-17298357D01*
X13587357Y-17226929D01*
X13573071Y-17184072D01*
X13558786Y-17155500D01*
X13530214Y-17112643D01*
X13515928Y-17098357D01*
X6979500Y-17751500D02*
X7029500Y-17701500D01*
X6979500Y-17651500D01*
X6929500Y-17701500D01*
X6979500Y-17751500D01*
X7473071Y-17837214D02*
X7301643Y-17837214D01*
X7387357Y-17837214D02*
X7387357Y-17537214D01*
X7358786Y-17580072D01*
X7330214Y-17608643D01*
X7301643Y-17622929D01*
X7601643Y-17808643D02*
X7615928Y-17822929D01*
X7601643Y-17837214D01*
X7587357Y-17822929D01*
X7601643Y-17808643D01*
X7601643Y-17837214D01*
X7801643Y-17537214D02*
X7830214Y-17537214D01*
X7858786Y-17551500D01*
X7873071Y-17565786D01*
X7887357Y-17594357D01*
X7901643Y-17651500D01*
X7901643Y-17722929D01*
X7887357Y-17780072D01*
X7873071Y-17808643D01*
X7858786Y-17822929D01*
X7830214Y-17837214D01*
X7801643Y-17837214D01*
X7773071Y-17822929D01*
X7758786Y-17808643D01*
X7744500Y-17780072D01*
X7730214Y-17722929D01*
X7730214Y-17651500D01*
X7744500Y-17594357D01*
X7758786Y-17565786D01*
X7773071Y-17551500D01*
X7801643Y-17537214D01*
X8087357Y-17537214D02*
X8115928Y-17537214D01*
X8144500Y-17551500D01*
X8158786Y-17565786D01*
X8173071Y-17594357D01*
X8187357Y-17651500D01*
X8187357Y-17722929D01*
X8173071Y-17780072D01*
X8158786Y-17808643D01*
X8144500Y-17822929D01*
X8115928Y-17837214D01*
X8087357Y-17837214D01*
X8058786Y-17822929D01*
X8044500Y-17808643D01*
X8030214Y-17780072D01*
X8015928Y-17722929D01*
X8015928Y-17651500D01*
X8030214Y-17594357D01*
X8044500Y-17565786D01*
X8058786Y-17551500D01*
X8087357Y-17537214D01*
X8315928Y-17837214D02*
X8315928Y-17637214D01*
X8315928Y-17665786D02*
X8330214Y-17651500D01*
X8358786Y-17637214D01*
X8401643Y-17637214D01*
X8430214Y-17651500D01*
X8444500Y-17680072D01*
X8444500Y-17837214D01*
X8444500Y-17680072D02*
X8458786Y-17651500D01*
X8487357Y-17637214D01*
X8530214Y-17637214D01*
X8558786Y-17651500D01*
X8573071Y-17680072D01*
X8573071Y-17837214D01*
X8715928Y-17837214D02*
X8715928Y-17637214D01*
X8715928Y-17665786D02*
X8730214Y-17651500D01*
X8758786Y-17637214D01*
X8801643Y-17637214D01*
X8830214Y-17651500D01*
X8844500Y-17680072D01*
X8844500Y-17837214D01*
X8844500Y-17680072D02*
X8858786Y-17651500D01*
X8887357Y-17637214D01*
X8930214Y-17637214D01*
X8958786Y-17651500D01*
X8973071Y-17680072D01*
X8973071Y-17837214D01*
X9558786Y-17522929D02*
X9301643Y-17908643D01*
X9944500Y-17537214D02*
X9973071Y-17537214D01*
X10001643Y-17551500D01*
X10015928Y-17565786D01*
X10030214Y-17594357D01*
X10044500Y-17651500D01*
X10044500Y-17722929D01*
X10030214Y-17780072D01*
X10015928Y-17808643D01*
X10001643Y-17822929D01*
X9973071Y-17837214D01*
X9944500Y-17837214D01*
X9915928Y-17822929D01*
X9901643Y-17808643D01*
X9887357Y-17780072D01*
X9873071Y-17722929D01*
X9873071Y-17651500D01*
X9887357Y-17594357D01*
X9901643Y-17565786D01*
X9915928Y-17551500D01*
X9944500Y-17537214D01*
X10173071Y-17808643D02*
X10187357Y-17822929D01*
X10173071Y-17837214D01*
X10158786Y-17822929D01*
X10173071Y-17808643D01*
X10173071Y-17837214D01*
X10373071Y-17537214D02*
X10401643Y-17537214D01*
X10430214Y-17551500D01*
X10444500Y-17565786D01*
X10458786Y-17594357D01*
X10473071Y-17651500D01*
X10473071Y-17722929D01*
X10458786Y-17780072D01*
X10444500Y-17808643D01*
X10430214Y-17822929D01*
X10401643Y-17837214D01*
X10373071Y-17837214D01*
X10344500Y-17822929D01*
X10330214Y-17808643D01*
X10315928Y-17780072D01*
X10301643Y-17722929D01*
X10301643Y-17651500D01*
X10315928Y-17594357D01*
X10330214Y-17565786D01*
X10344500Y-17551500D01*
X10373071Y-17537214D01*
X10573071Y-17537214D02*
X10758786Y-17537214D01*
X10658786Y-17651500D01*
X10701643Y-17651500D01*
X10730214Y-17665786D01*
X10744500Y-17680072D01*
X10758786Y-17708643D01*
X10758786Y-17780072D01*
X10744500Y-17808643D01*
X10730214Y-17822929D01*
X10701643Y-17837214D01*
X10615928Y-17837214D01*
X10587357Y-17822929D01*
X10573071Y-17808643D01*
X10901643Y-17837214D02*
X10958786Y-17837214D01*
X10987357Y-17822929D01*
X11001643Y-17808643D01*
X11030214Y-17765786D01*
X11044500Y-17708643D01*
X11044500Y-17594357D01*
X11030214Y-17565786D01*
X11015928Y-17551500D01*
X10987357Y-17537214D01*
X10930214Y-17537214D01*
X10901643Y-17551500D01*
X10887357Y-17565786D01*
X10873071Y-17594357D01*
X10873071Y-17665786D01*
X10887357Y-17694357D01*
X10901643Y-17708643D01*
X10930214Y-17722929D01*
X10987357Y-17722929D01*
X11015928Y-17708643D01*
X11030214Y-17694357D01*
X11044500Y-17665786D01*
X11158786Y-17537214D02*
X11158786Y-17594357D01*
X11273071Y-17537214D02*
X11273071Y-17594357D01*
X11715928Y-17951500D02*
X11701643Y-17937214D01*
X11673071Y-17894357D01*
X11658786Y-17865786D01*
X11644500Y-17822929D01*
X11630214Y-17751500D01*
X11630214Y-17694357D01*
X11644500Y-17622929D01*
X11658786Y-17580072D01*
X11673071Y-17551500D01*
X11701643Y-17508643D01*
X11715928Y-17494357D01*
X11987357Y-17837214D02*
X11815928Y-17837214D01*
X11901643Y-17837214D02*
X11901643Y-17537214D01*
X11873071Y-17580072D01*
X11844500Y-17608643D01*
X11815928Y-17622929D01*
X12273071Y-17837214D02*
X12101643Y-17837214D01*
X12187357Y-17837214D02*
X12187357Y-17537214D01*
X12158786Y-17580072D01*
X12130214Y-17608643D01*
X12101643Y-17622929D01*
X12415928Y-17837214D02*
X12473071Y-17837214D01*
X12501643Y-17822929D01*
X12515928Y-17808643D01*
X12544500Y-17765786D01*
X12558786Y-17708643D01*
X12558786Y-17594357D01*
X12544500Y-17565786D01*
X12530214Y-17551500D01*
X12501643Y-17537214D01*
X12444500Y-17537214D01*
X12415928Y-17551500D01*
X12401643Y-17565786D01*
X12387357Y-17594357D01*
X12387357Y-17665786D01*
X12401643Y-17694357D01*
X12415928Y-17708643D01*
X12444500Y-17722929D01*
X12501643Y-17722929D01*
X12530214Y-17708643D01*
X12544500Y-17694357D01*
X12558786Y-17665786D01*
X12915928Y-17837214D02*
X12915928Y-17537214D01*
X13044500Y-17837214D02*
X13044500Y-17680072D01*
X13030214Y-17651500D01*
X13001643Y-17637214D01*
X12958786Y-17637214D01*
X12930214Y-17651500D01*
X12915928Y-17665786D01*
X13230214Y-17837214D02*
X13201643Y-17822929D01*
X13187357Y-17808643D01*
X13173071Y-17780072D01*
X13173071Y-17694357D01*
X13187357Y-17665786D01*
X13201643Y-17651500D01*
X13230214Y-17637214D01*
X13273071Y-17637214D01*
X13301643Y-17651500D01*
X13315928Y-17665786D01*
X13330214Y-17694357D01*
X13330214Y-17780072D01*
X13315928Y-17808643D01*
X13301643Y-17822929D01*
X13273071Y-17837214D01*
X13230214Y-17837214D01*
X13501643Y-17837214D02*
X13473071Y-17822929D01*
X13458786Y-17794357D01*
X13458786Y-17537214D01*
X13730214Y-17822929D02*
X13701643Y-17837214D01*
X13644500Y-17837214D01*
X13615928Y-17822929D01*
X13601643Y-17794357D01*
X13601643Y-17680072D01*
X13615928Y-17651500D01*
X13644500Y-17637214D01*
X13701643Y-17637214D01*
X13730214Y-17651500D01*
X13744500Y-17680072D01*
X13744500Y-17708643D01*
X13601643Y-17737214D01*
X13858786Y-17822929D02*
X13887357Y-17837214D01*
X13944500Y-17837214D01*
X13973071Y-17822929D01*
X13987357Y-17794357D01*
X13987357Y-17780072D01*
X13973071Y-17751500D01*
X13944500Y-17737214D01*
X13901643Y-17737214D01*
X13873071Y-17722929D01*
X13858786Y-17694357D01*
X13858786Y-17680072D01*
X13873071Y-17651500D01*
X13901643Y-17637214D01*
X13944500Y-17637214D01*
X13973071Y-17651500D01*
X14087357Y-17951500D02*
X14101643Y-17937214D01*
X14130214Y-17894357D01*
X14144500Y-17865786D01*
X14158786Y-17822929D01*
X14173071Y-17751500D01*
X14173071Y-17694357D01*
X14158786Y-17622929D01*
X14144500Y-17580072D01*
X14130214Y-17551500D01*
X14101643Y-17508643D01*
X14087357Y-17494357D01*
X6927900Y-18046700D02*
X7029500Y-18148300D01*
X7029500Y-18046700D02*
X6927900Y-18148300D01*
X7029500Y-18097500D02*
G75*
G03X7029500Y-18097500I-50800J0D01*
G01*
X7473071Y-18233214D02*
X7301643Y-18233214D01*
X7387357Y-18233214D02*
X7387357Y-17933214D01*
X7358786Y-17976072D01*
X7330214Y-18004643D01*
X7301643Y-18018929D01*
X7601643Y-18204643D02*
X7615928Y-18218929D01*
X7601643Y-18233214D01*
X7587357Y-18218929D01*
X7601643Y-18204643D01*
X7601643Y-18233214D01*
X7801643Y-17933214D02*
X7830214Y-17933214D01*
X7858786Y-17947500D01*
X7873071Y-17961786D01*
X7887357Y-17990357D01*
X7901643Y-18047500D01*
X7901643Y-18118929D01*
X7887357Y-18176072D01*
X7873071Y-18204643D01*
X7858786Y-18218929D01*
X7830214Y-18233214D01*
X7801643Y-18233214D01*
X7773071Y-18218929D01*
X7758786Y-18204643D01*
X7744500Y-18176072D01*
X7730214Y-18118929D01*
X7730214Y-18047500D01*
X7744500Y-17990357D01*
X7758786Y-17961786D01*
X7773071Y-17947500D01*
X7801643Y-17933214D01*
X8015928Y-17961786D02*
X8030214Y-17947500D01*
X8058786Y-17933214D01*
X8130214Y-17933214D01*
X8158786Y-17947500D01*
X8173071Y-17961786D01*
X8187357Y-17990357D01*
X8187357Y-18018929D01*
X8173071Y-18061786D01*
X8001643Y-18233214D01*
X8187357Y-18233214D01*
X8315928Y-18233214D02*
X8315928Y-18033214D01*
X8315928Y-18061786D02*
X8330214Y-18047500D01*
X8358786Y-18033214D01*
X8401643Y-18033214D01*
X8430214Y-18047500D01*
X8444500Y-18076072D01*
X8444500Y-18233214D01*
X8444500Y-18076072D02*
X8458786Y-18047500D01*
X8487357Y-18033214D01*
X8530214Y-18033214D01*
X8558786Y-18047500D01*
X8573071Y-18076072D01*
X8573071Y-18233214D01*
X8715928Y-18233214D02*
X8715928Y-18033214D01*
X8715928Y-18061786D02*
X8730214Y-18047500D01*
X8758786Y-18033214D01*
X8801643Y-18033214D01*
X8830214Y-18047500D01*
X8844500Y-18076072D01*
X8844500Y-18233214D01*
X8844500Y-18076072D02*
X8858786Y-18047500D01*
X8887357Y-18033214D01*
X8930214Y-18033214D01*
X8958786Y-18047500D01*
X8973071Y-18076072D01*
X8973071Y-18233214D01*
X9558786Y-17918929D02*
X9301643Y-18304643D01*
X9944500Y-17933214D02*
X9973071Y-17933214D01*
X10001643Y-17947500D01*
X10015928Y-17961786D01*
X10030214Y-17990357D01*
X10044500Y-18047500D01*
X10044500Y-18118929D01*
X10030214Y-18176072D01*
X10015928Y-18204643D01*
X10001643Y-18218929D01*
X9973071Y-18233214D01*
X9944500Y-18233214D01*
X9915928Y-18218929D01*
X9901643Y-18204643D01*
X9887357Y-18176072D01*
X9873071Y-18118929D01*
X9873071Y-18047500D01*
X9887357Y-17990357D01*
X9901643Y-17961786D01*
X9915928Y-17947500D01*
X9944500Y-17933214D01*
X10173071Y-18204643D02*
X10187357Y-18218929D01*
X10173071Y-18233214D01*
X10158786Y-18218929D01*
X10173071Y-18204643D01*
X10173071Y-18233214D01*
X10373071Y-17933214D02*
X10401643Y-17933214D01*
X10430214Y-17947500D01*
X10444500Y-17961786D01*
X10458786Y-17990357D01*
X10473071Y-18047500D01*
X10473071Y-18118929D01*
X10458786Y-18176072D01*
X10444500Y-18204643D01*
X10430214Y-18218929D01*
X10401643Y-18233214D01*
X10373071Y-18233214D01*
X10344500Y-18218929D01*
X10330214Y-18204643D01*
X10315928Y-18176072D01*
X10301643Y-18118929D01*
X10301643Y-18047500D01*
X10315928Y-17990357D01*
X10330214Y-17961786D01*
X10344500Y-17947500D01*
X10373071Y-17933214D01*
X10730214Y-18033214D02*
X10730214Y-18233214D01*
X10658786Y-17918929D02*
X10587357Y-18133214D01*
X10773071Y-18133214D01*
X10944500Y-17933214D02*
X10973071Y-17933214D01*
X11001643Y-17947500D01*
X11015928Y-17961786D01*
X11030214Y-17990357D01*
X11044500Y-18047500D01*
X11044500Y-18118929D01*
X11030214Y-18176072D01*
X11015928Y-18204643D01*
X11001643Y-18218929D01*
X10973071Y-18233214D01*
X10944500Y-18233214D01*
X10915928Y-18218929D01*
X10901643Y-18204643D01*
X10887357Y-18176072D01*
X10873071Y-18118929D01*
X10873071Y-18047500D01*
X10887357Y-17990357D01*
X10901643Y-17961786D01*
X10915928Y-17947500D01*
X10944500Y-17933214D01*
X11158786Y-17933214D02*
X11158786Y-17990357D01*
X11273071Y-17933214D02*
X11273071Y-17990357D01*
X11715928Y-18347500D02*
X11701643Y-18333214D01*
X11673071Y-18290357D01*
X11658786Y-18261786D01*
X11644500Y-18218929D01*
X11630214Y-18147500D01*
X11630214Y-18090357D01*
X11644500Y-18018929D01*
X11658786Y-17976072D01*
X11673071Y-17947500D01*
X11701643Y-17904643D01*
X11715928Y-17890357D01*
X11987357Y-18233214D02*
X11815928Y-18233214D01*
X11901643Y-18233214D02*
X11901643Y-17933214D01*
X11873071Y-17976072D01*
X11844500Y-18004643D01*
X11815928Y-18018929D01*
X12173071Y-17933214D02*
X12201643Y-17933214D01*
X12230214Y-17947500D01*
X12244500Y-17961786D01*
X12258786Y-17990357D01*
X12273071Y-18047500D01*
X12273071Y-18118929D01*
X12258786Y-18176072D01*
X12244500Y-18204643D01*
X12230214Y-18218929D01*
X12201643Y-18233214D01*
X12173071Y-18233214D01*
X12144500Y-18218929D01*
X12130214Y-18204643D01*
X12115928Y-18176072D01*
X12101643Y-18118929D01*
X12101643Y-18047500D01*
X12115928Y-17990357D01*
X12130214Y-17961786D01*
X12144500Y-17947500D01*
X12173071Y-17933214D01*
X12630214Y-18233214D02*
X12630214Y-17933214D01*
X12758786Y-18233214D02*
X12758786Y-18076072D01*
X12744500Y-18047500D01*
X12715928Y-18033214D01*
X12673071Y-18033214D01*
X12644500Y-18047500D01*
X12630214Y-18061786D01*
X12944500Y-18233214D02*
X12915928Y-18218929D01*
X12901643Y-18204643D01*
X12887357Y-18176072D01*
X12887357Y-18090357D01*
X12901643Y-18061786D01*
X12915928Y-18047500D01*
X12944500Y-18033214D01*
X12987357Y-18033214D01*
X13015928Y-18047500D01*
X13030214Y-18061786D01*
X13044500Y-18090357D01*
X13044500Y-18176072D01*
X13030214Y-18204643D01*
X13015928Y-18218929D01*
X12987357Y-18233214D01*
X12944500Y-18233214D01*
X13215928Y-18233214D02*
X13187357Y-18218929D01*
X13173071Y-18190357D01*
X13173071Y-17933214D01*
X13444500Y-18218929D02*
X13415928Y-18233214D01*
X13358786Y-18233214D01*
X13330214Y-18218929D01*
X13315928Y-18190357D01*
X13315928Y-18076072D01*
X13330214Y-18047500D01*
X13358786Y-18033214D01*
X13415928Y-18033214D01*
X13444500Y-18047500D01*
X13458786Y-18076072D01*
X13458786Y-18104643D01*
X13315928Y-18133214D01*
X13573071Y-18218929D02*
X13601643Y-18233214D01*
X13658786Y-18233214D01*
X13687357Y-18218929D01*
X13701643Y-18190357D01*
X13701643Y-18176072D01*
X13687357Y-18147500D01*
X13658786Y-18133214D01*
X13615928Y-18133214D01*
X13587357Y-18118929D01*
X13573071Y-18090357D01*
X13573071Y-18076072D01*
X13587357Y-18047500D01*
X13615928Y-18033214D01*
X13658786Y-18033214D01*
X13687357Y-18047500D01*
X13801643Y-18347500D02*
X13815928Y-18333214D01*
X13844500Y-18290357D01*
X13858786Y-18261786D01*
X13873071Y-18218929D01*
X13887357Y-18147500D01*
X13887357Y-18090357D01*
X13873071Y-18018929D01*
X13858786Y-17976072D01*
X13844500Y-17947500D01*
X13815928Y-17904643D01*
X13801643Y-17890357D01*
X6919500Y-18438500D02*
X7029500Y-18548500D01*
X7029500Y-18438500D02*
X6919500Y-18548500D01*
X6974500Y-18438500D02*
X6974500Y-18548500D01*
X6919500Y-18493500D02*
X7029500Y-18493500D01*
X7473071Y-18629214D02*
X7301643Y-18629214D01*
X7387357Y-18629214D02*
X7387357Y-18329214D01*
X7358786Y-18372072D01*
X7330214Y-18400643D01*
X7301643Y-18414929D01*
X7601643Y-18600643D02*
X7615928Y-18614929D01*
X7601643Y-18629214D01*
X7587357Y-18614929D01*
X7601643Y-18600643D01*
X7601643Y-18629214D01*
X7901643Y-18629214D02*
X7730214Y-18629214D01*
X7815928Y-18629214D02*
X7815928Y-18329214D01*
X7787357Y-18372072D01*
X7758786Y-18400643D01*
X7730214Y-18414929D01*
X8087357Y-18329214D02*
X8115928Y-18329214D01*
X8144500Y-18343500D01*
X8158786Y-18357786D01*
X8173071Y-18386357D01*
X8187357Y-18443500D01*
X8187357Y-18514929D01*
X8173071Y-18572072D01*
X8158786Y-18600643D01*
X8144500Y-18614929D01*
X8115928Y-18629214D01*
X8087357Y-18629214D01*
X8058786Y-18614929D01*
X8044500Y-18600643D01*
X8030214Y-18572072D01*
X8015928Y-18514929D01*
X8015928Y-18443500D01*
X8030214Y-18386357D01*
X8044500Y-18357786D01*
X8058786Y-18343500D01*
X8087357Y-18329214D01*
X8315928Y-18629214D02*
X8315928Y-18429214D01*
X8315928Y-18457786D02*
X8330214Y-18443500D01*
X8358786Y-18429214D01*
X8401643Y-18429214D01*
X8430214Y-18443500D01*
X8444500Y-18472072D01*
X8444500Y-18629214D01*
X8444500Y-18472072D02*
X8458786Y-18443500D01*
X8487357Y-18429214D01*
X8530214Y-18429214D01*
X8558786Y-18443500D01*
X8573071Y-18472072D01*
X8573071Y-18629214D01*
X8715928Y-18629214D02*
X8715928Y-18429214D01*
X8715928Y-18457786D02*
X8730214Y-18443500D01*
X8758786Y-18429214D01*
X8801643Y-18429214D01*
X8830214Y-18443500D01*
X8844500Y-18472072D01*
X8844500Y-18629214D01*
X8844500Y-18472072D02*
X8858786Y-18443500D01*
X8887357Y-18429214D01*
X8930214Y-18429214D01*
X8958786Y-18443500D01*
X8973071Y-18472072D01*
X8973071Y-18629214D01*
X9558786Y-18314929D02*
X9301643Y-18700643D01*
X9944500Y-18329214D02*
X9973071Y-18329214D01*
X10001643Y-18343500D01*
X10015928Y-18357786D01*
X10030214Y-18386357D01*
X10044500Y-18443500D01*
X10044500Y-18514929D01*
X10030214Y-18572072D01*
X10015928Y-18600643D01*
X10001643Y-18614929D01*
X9973071Y-18629214D01*
X9944500Y-18629214D01*
X9915928Y-18614929D01*
X9901643Y-18600643D01*
X9887357Y-18572072D01*
X9873071Y-18514929D01*
X9873071Y-18443500D01*
X9887357Y-18386357D01*
X9901643Y-18357786D01*
X9915928Y-18343500D01*
X9944500Y-18329214D01*
X10173071Y-18600643D02*
X10187357Y-18614929D01*
X10173071Y-18629214D01*
X10158786Y-18614929D01*
X10173071Y-18600643D01*
X10173071Y-18629214D01*
X10373071Y-18329214D02*
X10401643Y-18329214D01*
X10430214Y-18343500D01*
X10444500Y-18357786D01*
X10458786Y-18386357D01*
X10473071Y-18443500D01*
X10473071Y-18514929D01*
X10458786Y-18572072D01*
X10444500Y-18600643D01*
X10430214Y-18614929D01*
X10401643Y-18629214D01*
X10373071Y-18629214D01*
X10344500Y-18614929D01*
X10330214Y-18600643D01*
X10315928Y-18572072D01*
X10301643Y-18514929D01*
X10301643Y-18443500D01*
X10315928Y-18386357D01*
X10330214Y-18357786D01*
X10344500Y-18343500D01*
X10373071Y-18329214D01*
X10730214Y-18429214D02*
X10730214Y-18629214D01*
X10658786Y-18314929D02*
X10587357Y-18529214D01*
X10773071Y-18529214D01*
X10858786Y-18329214D02*
X11044500Y-18329214D01*
X10944500Y-18443500D01*
X10987357Y-18443500D01*
X11015928Y-18457786D01*
X11030214Y-18472072D01*
X11044500Y-18500643D01*
X11044500Y-18572072D01*
X11030214Y-18600643D01*
X11015928Y-18614929D01*
X10987357Y-18629214D01*
X10901643Y-18629214D01*
X10873071Y-18614929D01*
X10858786Y-18600643D01*
X11158786Y-18329214D02*
X11158786Y-18386357D01*
X11273071Y-18329214D02*
X11273071Y-18386357D01*
X11715928Y-18743500D02*
X11701643Y-18729214D01*
X11673071Y-18686357D01*
X11658786Y-18657786D01*
X11644500Y-18614929D01*
X11630214Y-18543500D01*
X11630214Y-18486357D01*
X11644500Y-18414929D01*
X11658786Y-18372072D01*
X11673071Y-18343500D01*
X11701643Y-18300643D01*
X11715928Y-18286357D01*
X11815928Y-18357786D02*
X11830214Y-18343500D01*
X11858786Y-18329214D01*
X11930214Y-18329214D01*
X11958786Y-18343500D01*
X11973071Y-18357786D01*
X11987357Y-18386357D01*
X11987357Y-18414929D01*
X11973071Y-18457786D01*
X11801643Y-18629214D01*
X11987357Y-18629214D01*
X12344500Y-18629214D02*
X12344500Y-18329214D01*
X12473071Y-18629214D02*
X12473071Y-18472072D01*
X12458786Y-18443500D01*
X12430214Y-18429214D01*
X12387357Y-18429214D01*
X12358786Y-18443500D01*
X12344500Y-18457786D01*
X12658786Y-18629214D02*
X12630214Y-18614929D01*
X12615928Y-18600643D01*
X12601643Y-18572072D01*
X12601643Y-18486357D01*
X12615928Y-18457786D01*
X12630214Y-18443500D01*
X12658786Y-18429214D01*
X12701643Y-18429214D01*
X12730214Y-18443500D01*
X12744500Y-18457786D01*
X12758786Y-18486357D01*
X12758786Y-18572072D01*
X12744500Y-18600643D01*
X12730214Y-18614929D01*
X12701643Y-18629214D01*
X12658786Y-18629214D01*
X12930214Y-18629214D02*
X12901643Y-18614929D01*
X12887357Y-18586357D01*
X12887357Y-18329214D01*
X13158786Y-18614929D02*
X13130214Y-18629214D01*
X13073071Y-18629214D01*
X13044500Y-18614929D01*
X13030214Y-18586357D01*
X13030214Y-18472072D01*
X13044500Y-18443500D01*
X13073071Y-18429214D01*
X13130214Y-18429214D01*
X13158786Y-18443500D01*
X13173071Y-18472072D01*
X13173071Y-18500643D01*
X13030214Y-18529214D01*
X13287357Y-18614929D02*
X13315928Y-18629214D01*
X13373071Y-18629214D01*
X13401643Y-18614929D01*
X13415928Y-18586357D01*
X13415928Y-18572072D01*
X13401643Y-18543500D01*
X13373071Y-18529214D01*
X13330214Y-18529214D01*
X13301643Y-18514929D01*
X13287357Y-18486357D01*
X13287357Y-18472072D01*
X13301643Y-18443500D01*
X13330214Y-18429214D01*
X13373071Y-18429214D01*
X13401643Y-18443500D01*
X13515928Y-18743500D02*
X13530214Y-18729214D01*
X13558786Y-18686357D01*
X13573071Y-18657786D01*
X13587357Y-18614929D01*
X13601643Y-18543500D01*
X13601643Y-18486357D01*
X13587357Y-18414929D01*
X13573071Y-18372072D01*
X13558786Y-18343500D01*
X13530214Y-18300643D01*
X13515928Y-18286357D01*
X6909500Y-18829500D02*
X7029500Y-18949500D01*
X7029500Y-18829500D02*
X6909500Y-18949500D01*
X7011927Y-18931927D02*
X7011927Y-18847073D01*
X6927073Y-18847073D01*
X6927073Y-18931927D01*
X7011927Y-18931927D01*
X7473071Y-19025214D02*
X7301643Y-19025214D01*
X7387357Y-19025214D02*
X7387357Y-18725214D01*
X7358786Y-18768072D01*
X7330214Y-18796643D01*
X7301643Y-18810929D01*
X7601643Y-18996643D02*
X7615928Y-19010929D01*
X7601643Y-19025214D01*
X7587357Y-19010929D01*
X7601643Y-18996643D01*
X7601643Y-19025214D01*
X7730214Y-18753786D02*
X7744500Y-18739500D01*
X7773071Y-18725214D01*
X7844500Y-18725214D01*
X7873071Y-18739500D01*
X7887357Y-18753786D01*
X7901643Y-18782357D01*
X7901643Y-18810929D01*
X7887357Y-18853786D01*
X7715928Y-19025214D01*
X7901643Y-19025214D01*
X8087357Y-18725214D02*
X8115928Y-18725214D01*
X8144500Y-18739500D01*
X8158786Y-18753786D01*
X8173071Y-18782357D01*
X8187357Y-18839500D01*
X8187357Y-18910929D01*
X8173071Y-18968072D01*
X8158786Y-18996643D01*
X8144500Y-19010929D01*
X8115928Y-19025214D01*
X8087357Y-19025214D01*
X8058786Y-19010929D01*
X8044500Y-18996643D01*
X8030214Y-18968072D01*
X8015928Y-18910929D01*
X8015928Y-18839500D01*
X8030214Y-18782357D01*
X8044500Y-18753786D01*
X8058786Y-18739500D01*
X8087357Y-18725214D01*
X8315928Y-19025214D02*
X8315928Y-18825214D01*
X8315928Y-18853786D02*
X8330214Y-18839500D01*
X8358786Y-18825214D01*
X8401643Y-18825214D01*
X8430214Y-18839500D01*
X8444500Y-18868072D01*
X8444500Y-19025214D01*
X8444500Y-18868072D02*
X8458786Y-18839500D01*
X8487357Y-18825214D01*
X8530214Y-18825214D01*
X8558786Y-18839500D01*
X8573071Y-18868072D01*
X8573071Y-19025214D01*
X8715928Y-19025214D02*
X8715928Y-18825214D01*
X8715928Y-18853786D02*
X8730214Y-18839500D01*
X8758786Y-18825214D01*
X8801643Y-18825214D01*
X8830214Y-18839500D01*
X8844500Y-18868072D01*
X8844500Y-19025214D01*
X8844500Y-18868072D02*
X8858786Y-18839500D01*
X8887357Y-18825214D01*
X8930214Y-18825214D01*
X8958786Y-18839500D01*
X8973071Y-18868072D01*
X8973071Y-19025214D01*
X9558786Y-18710929D02*
X9301643Y-19096643D01*
X9944500Y-18725214D02*
X9973071Y-18725214D01*
X10001643Y-18739500D01*
X10015928Y-18753786D01*
X10030214Y-18782357D01*
X10044500Y-18839500D01*
X10044500Y-18910929D01*
X10030214Y-18968072D01*
X10015928Y-18996643D01*
X10001643Y-19010929D01*
X9973071Y-19025214D01*
X9944500Y-19025214D01*
X9915928Y-19010929D01*
X9901643Y-18996643D01*
X9887357Y-18968072D01*
X9873071Y-18910929D01*
X9873071Y-18839500D01*
X9887357Y-18782357D01*
X9901643Y-18753786D01*
X9915928Y-18739500D01*
X9944500Y-18725214D01*
X10173071Y-18996643D02*
X10187357Y-19010929D01*
X10173071Y-19025214D01*
X10158786Y-19010929D01*
X10173071Y-18996643D01*
X10173071Y-19025214D01*
X10373071Y-18725214D02*
X10401643Y-18725214D01*
X10430214Y-18739500D01*
X10444500Y-18753786D01*
X10458786Y-18782357D01*
X10473071Y-18839500D01*
X10473071Y-18910929D01*
X10458786Y-18968072D01*
X10444500Y-18996643D01*
X10430214Y-19010929D01*
X10401643Y-19025214D01*
X10373071Y-19025214D01*
X10344500Y-19010929D01*
X10330214Y-18996643D01*
X10315928Y-18968072D01*
X10301643Y-18910929D01*
X10301643Y-18839500D01*
X10315928Y-18782357D01*
X10330214Y-18753786D01*
X10344500Y-18739500D01*
X10373071Y-18725214D01*
X10730214Y-18825214D02*
X10730214Y-19025214D01*
X10658786Y-18710929D02*
X10587357Y-18925214D01*
X10773071Y-18925214D01*
X10858786Y-18725214D02*
X11058786Y-18725214D01*
X10930214Y-19025214D01*
X11158786Y-18725214D02*
X11158786Y-18782357D01*
X11273071Y-18725214D02*
X11273071Y-18782357D01*
X11715928Y-19139500D02*
X11701643Y-19125214D01*
X11673071Y-19082357D01*
X11658786Y-19053786D01*
X11644500Y-19010929D01*
X11630214Y-18939500D01*
X11630214Y-18882357D01*
X11644500Y-18810929D01*
X11658786Y-18768072D01*
X11673071Y-18739500D01*
X11701643Y-18696643D01*
X11715928Y-18682357D01*
X11958786Y-18825214D02*
X11958786Y-19025214D01*
X11887357Y-18710929D02*
X11815928Y-18925214D01*
X12001643Y-18925214D01*
X12344500Y-19025214D02*
X12344500Y-18725214D01*
X12473071Y-19025214D02*
X12473071Y-18868072D01*
X12458786Y-18839500D01*
X12430214Y-18825214D01*
X12387357Y-18825214D01*
X12358786Y-18839500D01*
X12344500Y-18853786D01*
X12658786Y-19025214D02*
X12630214Y-19010929D01*
X12615928Y-18996643D01*
X12601643Y-18968072D01*
X12601643Y-18882357D01*
X12615928Y-18853786D01*
X12630214Y-18839500D01*
X12658786Y-18825214D01*
X12701643Y-18825214D01*
X12730214Y-18839500D01*
X12744500Y-18853786D01*
X12758786Y-18882357D01*
X12758786Y-18968072D01*
X12744500Y-18996643D01*
X12730214Y-19010929D01*
X12701643Y-19025214D01*
X12658786Y-19025214D01*
X12930214Y-19025214D02*
X12901643Y-19010929D01*
X12887357Y-18982357D01*
X12887357Y-18725214D01*
X13158786Y-19010929D02*
X13130214Y-19025214D01*
X13073071Y-19025214D01*
X13044500Y-19010929D01*
X13030214Y-18982357D01*
X13030214Y-18868072D01*
X13044500Y-18839500D01*
X13073071Y-18825214D01*
X13130214Y-18825214D01*
X13158786Y-18839500D01*
X13173071Y-18868072D01*
X13173071Y-18896643D01*
X13030214Y-18925214D01*
X13287357Y-19010929D02*
X13315928Y-19025214D01*
X13373071Y-19025214D01*
X13401643Y-19010929D01*
X13415928Y-18982357D01*
X13415928Y-18968072D01*
X13401643Y-18939500D01*
X13373071Y-18925214D01*
X13330214Y-18925214D01*
X13301643Y-18910929D01*
X13287357Y-18882357D01*
X13287357Y-18868072D01*
X13301643Y-18839500D01*
X13330214Y-18825214D01*
X13373071Y-18825214D01*
X13401643Y-18839500D01*
X13515928Y-19139500D02*
X13530214Y-19125214D01*
X13558786Y-19082357D01*
X13573071Y-19053786D01*
X13587357Y-19010929D01*
X13601643Y-18939500D01*
X13601643Y-18882357D01*
X13587357Y-18810929D01*
X13573071Y-18768072D01*
X13558786Y-18739500D01*
X13530214Y-18696643D01*
X13515928Y-18682357D01*
X6899500Y-19220500D02*
X7029500Y-19350500D01*
X7029500Y-19220500D02*
X6899500Y-19350500D01*
X6964500Y-19350500D02*
X7029500Y-19285500D01*
X6964500Y-19220500D01*
X6899500Y-19285500D01*
X6964500Y-19350500D01*
X7473071Y-19421214D02*
X7301643Y-19421214D01*
X7387357Y-19421214D02*
X7387357Y-19121214D01*
X7358786Y-19164072D01*
X7330214Y-19192643D01*
X7301643Y-19206929D01*
X7601643Y-19392643D02*
X7615928Y-19406929D01*
X7601643Y-19421214D01*
X7587357Y-19406929D01*
X7601643Y-19392643D01*
X7601643Y-19421214D01*
X7715928Y-19121214D02*
X7901643Y-19121214D01*
X7801643Y-19235500D01*
X7844500Y-19235500D01*
X7873071Y-19249786D01*
X7887357Y-19264072D01*
X7901643Y-19292643D01*
X7901643Y-19364072D01*
X7887357Y-19392643D01*
X7873071Y-19406929D01*
X7844500Y-19421214D01*
X7758786Y-19421214D01*
X7730214Y-19406929D01*
X7715928Y-19392643D01*
X8087357Y-19121214D02*
X8115928Y-19121214D01*
X8144500Y-19135500D01*
X8158786Y-19149786D01*
X8173071Y-19178357D01*
X8187357Y-19235500D01*
X8187357Y-19306929D01*
X8173071Y-19364072D01*
X8158786Y-19392643D01*
X8144500Y-19406929D01*
X8115928Y-19421214D01*
X8087357Y-19421214D01*
X8058786Y-19406929D01*
X8044500Y-19392643D01*
X8030214Y-19364072D01*
X8015928Y-19306929D01*
X8015928Y-19235500D01*
X8030214Y-19178357D01*
X8044500Y-19149786D01*
X8058786Y-19135500D01*
X8087357Y-19121214D01*
X8315928Y-19421214D02*
X8315928Y-19221214D01*
X8315928Y-19249786D02*
X8330214Y-19235500D01*
X8358786Y-19221214D01*
X8401643Y-19221214D01*
X8430214Y-19235500D01*
X8444500Y-19264072D01*
X8444500Y-19421214D01*
X8444500Y-19264072D02*
X8458786Y-19235500D01*
X8487357Y-19221214D01*
X8530214Y-19221214D01*
X8558786Y-19235500D01*
X8573071Y-19264072D01*
X8573071Y-19421214D01*
X8715928Y-19421214D02*
X8715928Y-19221214D01*
X8715928Y-19249786D02*
X8730214Y-19235500D01*
X8758786Y-19221214D01*
X8801643Y-19221214D01*
X8830214Y-19235500D01*
X8844500Y-19264072D01*
X8844500Y-19421214D01*
X8844500Y-19264072D02*
X8858786Y-19235500D01*
X8887357Y-19221214D01*
X8930214Y-19221214D01*
X8958786Y-19235500D01*
X8973071Y-19264072D01*
X8973071Y-19421214D01*
X9558786Y-19106929D02*
X9301643Y-19492643D01*
X9944500Y-19121214D02*
X9973071Y-19121214D01*
X10001643Y-19135500D01*
X10015928Y-19149786D01*
X10030214Y-19178357D01*
X10044500Y-19235500D01*
X10044500Y-19306929D01*
X10030214Y-19364072D01*
X10015928Y-19392643D01*
X10001643Y-19406929D01*
X9973071Y-19421214D01*
X9944500Y-19421214D01*
X9915928Y-19406929D01*
X9901643Y-19392643D01*
X9887357Y-19364072D01*
X9873071Y-19306929D01*
X9873071Y-19235500D01*
X9887357Y-19178357D01*
X9901643Y-19149786D01*
X9915928Y-19135500D01*
X9944500Y-19121214D01*
X10173071Y-19392643D02*
X10187357Y-19406929D01*
X10173071Y-19421214D01*
X10158786Y-19406929D01*
X10173071Y-19392643D01*
X10173071Y-19421214D01*
X10373071Y-19121214D02*
X10401643Y-19121214D01*
X10430214Y-19135500D01*
X10444500Y-19149786D01*
X10458786Y-19178357D01*
X10473071Y-19235500D01*
X10473071Y-19306929D01*
X10458786Y-19364072D01*
X10444500Y-19392643D01*
X10430214Y-19406929D01*
X10401643Y-19421214D01*
X10373071Y-19421214D01*
X10344500Y-19406929D01*
X10330214Y-19392643D01*
X10315928Y-19364072D01*
X10301643Y-19306929D01*
X10301643Y-19235500D01*
X10315928Y-19178357D01*
X10330214Y-19149786D01*
X10344500Y-19135500D01*
X10373071Y-19121214D01*
X10744500Y-19121214D02*
X10601643Y-19121214D01*
X10587357Y-19264072D01*
X10601643Y-19249786D01*
X10630214Y-19235500D01*
X10701643Y-19235500D01*
X10730214Y-19249786D01*
X10744500Y-19264072D01*
X10758786Y-19292643D01*
X10758786Y-19364072D01*
X10744500Y-19392643D01*
X10730214Y-19406929D01*
X10701643Y-19421214D01*
X10630214Y-19421214D01*
X10601643Y-19406929D01*
X10587357Y-19392643D01*
X11044500Y-19421214D02*
X10873071Y-19421214D01*
X10958786Y-19421214D02*
X10958786Y-19121214D01*
X10930214Y-19164072D01*
X10901643Y-19192643D01*
X10873071Y-19206929D01*
X11158786Y-19121214D02*
X11158786Y-19178357D01*
X11273071Y-19121214D02*
X11273071Y-19178357D01*
X11715928Y-19535500D02*
X11701643Y-19521214D01*
X11673071Y-19478357D01*
X11658786Y-19449786D01*
X11644500Y-19406929D01*
X11630214Y-19335500D01*
X11630214Y-19278357D01*
X11644500Y-19206929D01*
X11658786Y-19164072D01*
X11673071Y-19135500D01*
X11701643Y-19092643D01*
X11715928Y-19078357D01*
X11973071Y-19121214D02*
X11830214Y-19121214D01*
X11815928Y-19264072D01*
X11830214Y-19249786D01*
X11858786Y-19235500D01*
X11930214Y-19235500D01*
X11958786Y-19249786D01*
X11973071Y-19264072D01*
X11987357Y-19292643D01*
X11987357Y-19364072D01*
X11973071Y-19392643D01*
X11958786Y-19406929D01*
X11930214Y-19421214D01*
X11858786Y-19421214D01*
X11830214Y-19406929D01*
X11815928Y-19392643D01*
X12344500Y-19421214D02*
X12344500Y-19121214D01*
X12473071Y-19421214D02*
X12473071Y-19264072D01*
X12458786Y-19235500D01*
X12430214Y-19221214D01*
X12387357Y-19221214D01*
X12358786Y-19235500D01*
X12344500Y-19249786D01*
X12658786Y-19421214D02*
X12630214Y-19406929D01*
X12615928Y-19392643D01*
X12601643Y-19364072D01*
X12601643Y-19278357D01*
X12615928Y-19249786D01*
X12630214Y-19235500D01*
X12658786Y-19221214D01*
X12701643Y-19221214D01*
X12730214Y-19235500D01*
X12744500Y-19249786D01*
X12758786Y-19278357D01*
X12758786Y-19364072D01*
X12744500Y-19392643D01*
X12730214Y-19406929D01*
X12701643Y-19421214D01*
X12658786Y-19421214D01*
X12930214Y-19421214D02*
X12901643Y-19406929D01*
X12887357Y-19378357D01*
X12887357Y-19121214D01*
X13158786Y-19406929D02*
X13130214Y-19421214D01*
X13073071Y-19421214D01*
X13044500Y-19406929D01*
X13030214Y-19378357D01*
X13030214Y-19264072D01*
X13044500Y-19235500D01*
X13073071Y-19221214D01*
X13130214Y-19221214D01*
X13158786Y-19235500D01*
X13173071Y-19264072D01*
X13173071Y-19292643D01*
X13030214Y-19321214D01*
X13287357Y-19406929D02*
X13315928Y-19421214D01*
X13373071Y-19421214D01*
X13401643Y-19406929D01*
X13415928Y-19378357D01*
X13415928Y-19364072D01*
X13401643Y-19335500D01*
X13373071Y-19321214D01*
X13330214Y-19321214D01*
X13301643Y-19306929D01*
X13287357Y-19278357D01*
X13287357Y-19264072D01*
X13301643Y-19235500D01*
X13330214Y-19221214D01*
X13373071Y-19221214D01*
X13401643Y-19235500D01*
X13515928Y-19535500D02*
X13530214Y-19521214D01*
X13558786Y-19478357D01*
X13573071Y-19449786D01*
X13587357Y-19406929D01*
X13601643Y-19335500D01*
X13601643Y-19278357D01*
X13587357Y-19206929D01*
X13573071Y-19164072D01*
X13558786Y-19135500D01*
X13530214Y-19092643D01*
X13515928Y-19078357D01*
X6944500Y-19596500D02*
X6944500Y-19766500D01*
X6859500Y-19681500D02*
X7029500Y-19681500D01*
X7029500Y-19681500D02*
G75*
G03X7029500Y-19681500I-85000J0D01*
G01*
X7473071Y-19817214D02*
X7301643Y-19817214D01*
X7387357Y-19817214D02*
X7387357Y-19517214D01*
X7358786Y-19560072D01*
X7330214Y-19588643D01*
X7301643Y-19602929D01*
X7601643Y-19788643D02*
X7615928Y-19802929D01*
X7601643Y-19817214D01*
X7587357Y-19802929D01*
X7601643Y-19788643D01*
X7601643Y-19817214D01*
X7715928Y-19517214D02*
X7915928Y-19517214D01*
X7787357Y-19817214D01*
X8087357Y-19517214D02*
X8115928Y-19517214D01*
X8144500Y-19531500D01*
X8158786Y-19545786D01*
X8173071Y-19574357D01*
X8187357Y-19631500D01*
X8187357Y-19702929D01*
X8173071Y-19760072D01*
X8158786Y-19788643D01*
X8144500Y-19802929D01*
X8115928Y-19817214D01*
X8087357Y-19817214D01*
X8058786Y-19802929D01*
X8044500Y-19788643D01*
X8030214Y-19760072D01*
X8015928Y-19702929D01*
X8015928Y-19631500D01*
X8030214Y-19574357D01*
X8044500Y-19545786D01*
X8058786Y-19531500D01*
X8087357Y-19517214D01*
X8315928Y-19817214D02*
X8315928Y-19617214D01*
X8315928Y-19645786D02*
X8330214Y-19631500D01*
X8358786Y-19617214D01*
X8401643Y-19617214D01*
X8430214Y-19631500D01*
X8444500Y-19660072D01*
X8444500Y-19817214D01*
X8444500Y-19660072D02*
X8458786Y-19631500D01*
X8487357Y-19617214D01*
X8530214Y-19617214D01*
X8558786Y-19631500D01*
X8573071Y-19660072D01*
X8573071Y-19817214D01*
X8715928Y-19817214D02*
X8715928Y-19617214D01*
X8715928Y-19645786D02*
X8730214Y-19631500D01*
X8758786Y-19617214D01*
X8801643Y-19617214D01*
X8830214Y-19631500D01*
X8844500Y-19660072D01*
X8844500Y-19817214D01*
X8844500Y-19660072D02*
X8858786Y-19631500D01*
X8887357Y-19617214D01*
X8930214Y-19617214D01*
X8958786Y-19631500D01*
X8973071Y-19660072D01*
X8973071Y-19817214D01*
X9558786Y-19502929D02*
X9301643Y-19888643D01*
X9944500Y-19517214D02*
X9973071Y-19517214D01*
X10001643Y-19531500D01*
X10015928Y-19545786D01*
X10030214Y-19574357D01*
X10044500Y-19631500D01*
X10044500Y-19702929D01*
X10030214Y-19760072D01*
X10015928Y-19788643D01*
X10001643Y-19802929D01*
X9973071Y-19817214D01*
X9944500Y-19817214D01*
X9915928Y-19802929D01*
X9901643Y-19788643D01*
X9887357Y-19760072D01*
X9873071Y-19702929D01*
X9873071Y-19631500D01*
X9887357Y-19574357D01*
X9901643Y-19545786D01*
X9915928Y-19531500D01*
X9944500Y-19517214D01*
X10173071Y-19788643D02*
X10187357Y-19802929D01*
X10173071Y-19817214D01*
X10158786Y-19802929D01*
X10173071Y-19788643D01*
X10173071Y-19817214D01*
X10373071Y-19517214D02*
X10401643Y-19517214D01*
X10430214Y-19531500D01*
X10444500Y-19545786D01*
X10458786Y-19574357D01*
X10473071Y-19631500D01*
X10473071Y-19702929D01*
X10458786Y-19760072D01*
X10444500Y-19788643D01*
X10430214Y-19802929D01*
X10401643Y-19817214D01*
X10373071Y-19817214D01*
X10344500Y-19802929D01*
X10330214Y-19788643D01*
X10315928Y-19760072D01*
X10301643Y-19702929D01*
X10301643Y-19631500D01*
X10315928Y-19574357D01*
X10330214Y-19545786D01*
X10344500Y-19531500D01*
X10373071Y-19517214D01*
X10730214Y-19517214D02*
X10673071Y-19517214D01*
X10644500Y-19531500D01*
X10630214Y-19545786D01*
X10601643Y-19588643D01*
X10587357Y-19645786D01*
X10587357Y-19760072D01*
X10601643Y-19788643D01*
X10615928Y-19802929D01*
X10644500Y-19817214D01*
X10701643Y-19817214D01*
X10730214Y-19802929D01*
X10744500Y-19788643D01*
X10758786Y-19760072D01*
X10758786Y-19688643D01*
X10744500Y-19660072D01*
X10730214Y-19645786D01*
X10701643Y-19631500D01*
X10644500Y-19631500D01*
X10615928Y-19645786D01*
X10601643Y-19660072D01*
X10587357Y-19688643D01*
X10858786Y-19517214D02*
X11058786Y-19517214D01*
X10930214Y-19817214D01*
X11158786Y-19517214D02*
X11158786Y-19574357D01*
X11273071Y-19517214D02*
X11273071Y-19574357D01*
X11715928Y-19931500D02*
X11701643Y-19917214D01*
X11673071Y-19874357D01*
X11658786Y-19845786D01*
X11644500Y-19802929D01*
X11630214Y-19731500D01*
X11630214Y-19674357D01*
X11644500Y-19602929D01*
X11658786Y-19560072D01*
X11673071Y-19531500D01*
X11701643Y-19488643D01*
X11715928Y-19474357D01*
X11873071Y-19645786D02*
X11844500Y-19631500D01*
X11830214Y-19617214D01*
X11815928Y-19588643D01*
X11815928Y-19574357D01*
X11830214Y-19545786D01*
X11844500Y-19531500D01*
X11873071Y-19517214D01*
X11930214Y-19517214D01*
X11958786Y-19531500D01*
X11973071Y-19545786D01*
X11987357Y-19574357D01*
X11987357Y-19588643D01*
X11973071Y-19617214D01*
X11958786Y-19631500D01*
X11930214Y-19645786D01*
X11873071Y-19645786D01*
X11844500Y-19660072D01*
X11830214Y-19674357D01*
X11815928Y-19702929D01*
X11815928Y-19760072D01*
X11830214Y-19788643D01*
X11844500Y-19802929D01*
X11873071Y-19817214D01*
X11930214Y-19817214D01*
X11958786Y-19802929D01*
X11973071Y-19788643D01*
X11987357Y-19760072D01*
X11987357Y-19702929D01*
X11973071Y-19674357D01*
X11958786Y-19660072D01*
X11930214Y-19645786D01*
X12344500Y-19817214D02*
X12344500Y-19517214D01*
X12473071Y-19817214D02*
X12473071Y-19660072D01*
X12458786Y-19631500D01*
X12430214Y-19617214D01*
X12387357Y-19617214D01*
X12358786Y-19631500D01*
X12344500Y-19645786D01*
X12658786Y-19817214D02*
X12630214Y-19802929D01*
X12615928Y-19788643D01*
X12601643Y-19760072D01*
X12601643Y-19674357D01*
X12615928Y-19645786D01*
X12630214Y-19631500D01*
X12658786Y-19617214D01*
X12701643Y-19617214D01*
X12730214Y-19631500D01*
X12744500Y-19645786D01*
X12758786Y-19674357D01*
X12758786Y-19760072D01*
X12744500Y-19788643D01*
X12730214Y-19802929D01*
X12701643Y-19817214D01*
X12658786Y-19817214D01*
X12930214Y-19817214D02*
X12901643Y-19802929D01*
X12887357Y-19774357D01*
X12887357Y-19517214D01*
X13158786Y-19802929D02*
X13130214Y-19817214D01*
X13073071Y-19817214D01*
X13044500Y-19802929D01*
X13030214Y-19774357D01*
X13030214Y-19660072D01*
X13044500Y-19631500D01*
X13073071Y-19617214D01*
X13130214Y-19617214D01*
X13158786Y-19631500D01*
X13173071Y-19660072D01*
X13173071Y-19688643D01*
X13030214Y-19717214D01*
X13287357Y-19802929D02*
X13315928Y-19817214D01*
X13373071Y-19817214D01*
X13401643Y-19802929D01*
X13415928Y-19774357D01*
X13415928Y-19760072D01*
X13401643Y-19731500D01*
X13373071Y-19717214D01*
X13330214Y-19717214D01*
X13301643Y-19702929D01*
X13287357Y-19674357D01*
X13287357Y-19660072D01*
X13301643Y-19631500D01*
X13330214Y-19617214D01*
X13373071Y-19617214D01*
X13401643Y-19631500D01*
X13515928Y-19931500D02*
X13530214Y-19917214D01*
X13558786Y-19874357D01*
X13573071Y-19845786D01*
X13587357Y-19802929D01*
X13601643Y-19731500D01*
X13601643Y-19674357D01*
X13587357Y-19602929D01*
X13573071Y-19560072D01*
X13558786Y-19531500D01*
X13530214Y-19488643D01*
X13515928Y-19474357D01*
X6982638Y-20190638D02*
X6982638Y-19964362D01*
X6756362Y-19964362D01*
X6756362Y-20190638D01*
X6982638Y-20190638D01*
X7029500Y-20077500D02*
G75*
G03X7029500Y-20077500I-160000J0D01*
G01*
X7287357Y-19913214D02*
X7473071Y-19913214D01*
X7373071Y-20027500D01*
X7415928Y-20027500D01*
X7444500Y-20041786D01*
X7458786Y-20056072D01*
X7473071Y-20084643D01*
X7473071Y-20156072D01*
X7458786Y-20184643D01*
X7444500Y-20198929D01*
X7415928Y-20213214D01*
X7330214Y-20213214D01*
X7301643Y-20198929D01*
X7287357Y-20184643D01*
X7601643Y-20184643D02*
X7615928Y-20198929D01*
X7601643Y-20213214D01*
X7587357Y-20198929D01*
X7601643Y-20184643D01*
X7601643Y-20213214D01*
X7730214Y-19941786D02*
X7744500Y-19927500D01*
X7773071Y-19913214D01*
X7844500Y-19913214D01*
X7873071Y-19927500D01*
X7887357Y-19941786D01*
X7901643Y-19970357D01*
X7901643Y-19998929D01*
X7887357Y-20041786D01*
X7715928Y-20213214D01*
X7901643Y-20213214D01*
X8087357Y-19913214D02*
X8115928Y-19913214D01*
X8144500Y-19927500D01*
X8158786Y-19941786D01*
X8173071Y-19970357D01*
X8187357Y-20027500D01*
X8187357Y-20098929D01*
X8173071Y-20156072D01*
X8158786Y-20184643D01*
X8144500Y-20198929D01*
X8115928Y-20213214D01*
X8087357Y-20213214D01*
X8058786Y-20198929D01*
X8044500Y-20184643D01*
X8030214Y-20156072D01*
X8015928Y-20098929D01*
X8015928Y-20027500D01*
X8030214Y-19970357D01*
X8044500Y-19941786D01*
X8058786Y-19927500D01*
X8087357Y-19913214D01*
X8315928Y-20213214D02*
X8315928Y-20013214D01*
X8315928Y-20041786D02*
X8330214Y-20027500D01*
X8358786Y-20013214D01*
X8401643Y-20013214D01*
X8430214Y-20027500D01*
X8444500Y-20056072D01*
X8444500Y-20213214D01*
X8444500Y-20056072D02*
X8458786Y-20027500D01*
X8487357Y-20013214D01*
X8530214Y-20013214D01*
X8558786Y-20027500D01*
X8573071Y-20056072D01*
X8573071Y-20213214D01*
X8715928Y-20213214D02*
X8715928Y-20013214D01*
X8715928Y-20041786D02*
X8730214Y-20027500D01*
X8758786Y-20013214D01*
X8801643Y-20013214D01*
X8830214Y-20027500D01*
X8844500Y-20056072D01*
X8844500Y-20213214D01*
X8844500Y-20056072D02*
X8858786Y-20027500D01*
X8887357Y-20013214D01*
X8930214Y-20013214D01*
X8958786Y-20027500D01*
X8973071Y-20056072D01*
X8973071Y-20213214D01*
X9558786Y-19898929D02*
X9301643Y-20284643D01*
X9944500Y-19913214D02*
X9973071Y-19913214D01*
X10001643Y-19927500D01*
X10015928Y-19941786D01*
X10030214Y-19970357D01*
X10044500Y-20027500D01*
X10044500Y-20098929D01*
X10030214Y-20156072D01*
X10015928Y-20184643D01*
X10001643Y-20198929D01*
X9973071Y-20213214D01*
X9944500Y-20213214D01*
X9915928Y-20198929D01*
X9901643Y-20184643D01*
X9887357Y-20156072D01*
X9873071Y-20098929D01*
X9873071Y-20027500D01*
X9887357Y-19970357D01*
X9901643Y-19941786D01*
X9915928Y-19927500D01*
X9944500Y-19913214D01*
X10173071Y-20184643D02*
X10187357Y-20198929D01*
X10173071Y-20213214D01*
X10158786Y-20198929D01*
X10173071Y-20184643D01*
X10173071Y-20213214D01*
X10473071Y-20213214D02*
X10301643Y-20213214D01*
X10387357Y-20213214D02*
X10387357Y-19913214D01*
X10358786Y-19956072D01*
X10330214Y-19984643D01*
X10301643Y-19998929D01*
X10587357Y-19941786D02*
X10601643Y-19927500D01*
X10630214Y-19913214D01*
X10701643Y-19913214D01*
X10730214Y-19927500D01*
X10744500Y-19941786D01*
X10758786Y-19970357D01*
X10758786Y-19998929D01*
X10744500Y-20041786D01*
X10573071Y-20213214D01*
X10758786Y-20213214D01*
X11015928Y-19913214D02*
X10958786Y-19913214D01*
X10930214Y-19927500D01*
X10915928Y-19941786D01*
X10887357Y-19984643D01*
X10873071Y-20041786D01*
X10873071Y-20156072D01*
X10887357Y-20184643D01*
X10901643Y-20198929D01*
X10930214Y-20213214D01*
X10987357Y-20213214D01*
X11015928Y-20198929D01*
X11030214Y-20184643D01*
X11044500Y-20156072D01*
X11044500Y-20084643D01*
X11030214Y-20056072D01*
X11015928Y-20041786D01*
X10987357Y-20027500D01*
X10930214Y-20027500D01*
X10901643Y-20041786D01*
X10887357Y-20056072D01*
X10873071Y-20084643D01*
X11158786Y-19913214D02*
X11158786Y-19970357D01*
X11273071Y-19913214D02*
X11273071Y-19970357D01*
X11715928Y-20327500D02*
X11701643Y-20313214D01*
X11673071Y-20270357D01*
X11658786Y-20241786D01*
X11644500Y-20198929D01*
X11630214Y-20127500D01*
X11630214Y-20070357D01*
X11644500Y-19998929D01*
X11658786Y-19956072D01*
X11673071Y-19927500D01*
X11701643Y-19884643D01*
X11715928Y-19870357D01*
X11958786Y-19913214D02*
X11901643Y-19913214D01*
X11873071Y-19927500D01*
X11858786Y-19941786D01*
X11830214Y-19984643D01*
X11815928Y-20041786D01*
X11815928Y-20156072D01*
X11830214Y-20184643D01*
X11844500Y-20198929D01*
X11873071Y-20213214D01*
X11930214Y-20213214D01*
X11958786Y-20198929D01*
X11973071Y-20184643D01*
X11987357Y-20156072D01*
X11987357Y-20084643D01*
X11973071Y-20056072D01*
X11958786Y-20041786D01*
X11930214Y-20027500D01*
X11873071Y-20027500D01*
X11844500Y-20041786D01*
X11830214Y-20056072D01*
X11815928Y-20084643D01*
X12344500Y-20213214D02*
X12344500Y-19913214D01*
X12473071Y-20213214D02*
X12473071Y-20056072D01*
X12458786Y-20027500D01*
X12430214Y-20013214D01*
X12387357Y-20013214D01*
X12358786Y-20027500D01*
X12344500Y-20041786D01*
X12658786Y-20213214D02*
X12630214Y-20198929D01*
X12615928Y-20184643D01*
X12601643Y-20156072D01*
X12601643Y-20070357D01*
X12615928Y-20041786D01*
X12630214Y-20027500D01*
X12658786Y-20013214D01*
X12701643Y-20013214D01*
X12730214Y-20027500D01*
X12744500Y-20041786D01*
X12758786Y-20070357D01*
X12758786Y-20156072D01*
X12744500Y-20184643D01*
X12730214Y-20198929D01*
X12701643Y-20213214D01*
X12658786Y-20213214D01*
X12930214Y-20213214D02*
X12901643Y-20198929D01*
X12887357Y-20170357D01*
X12887357Y-19913214D01*
X13158786Y-20198929D02*
X13130214Y-20213214D01*
X13073071Y-20213214D01*
X13044500Y-20198929D01*
X13030214Y-20170357D01*
X13030214Y-20056072D01*
X13044500Y-20027500D01*
X13073071Y-20013214D01*
X13130214Y-20013214D01*
X13158786Y-20027500D01*
X13173071Y-20056072D01*
X13173071Y-20084643D01*
X13030214Y-20113214D01*
X13287357Y-20198929D02*
X13315928Y-20213214D01*
X13373071Y-20213214D01*
X13401643Y-20198929D01*
X13415928Y-20170357D01*
X13415928Y-20156072D01*
X13401643Y-20127500D01*
X13373071Y-20113214D01*
X13330214Y-20113214D01*
X13301643Y-20098929D01*
X13287357Y-20070357D01*
X13287357Y-20056072D01*
X13301643Y-20027500D01*
X13330214Y-20013214D01*
X13373071Y-20013214D01*
X13401643Y-20027500D01*
X13515928Y-20327500D02*
X13530214Y-20313214D01*
X13558786Y-20270357D01*
X13573071Y-20241786D01*
X13587357Y-20198929D01*
X13601643Y-20127500D01*
X13601643Y-20070357D01*
X13587357Y-19998929D01*
X13573071Y-19956072D01*
X13558786Y-19927500D01*
X13530214Y-19884643D01*
X13515928Y-19870357D01*
M02*
